%TF.GenerationSoftware,KiCad,Pcbnew,(5.1.6)-1*%
%TF.CreationDate,2023-06-16T12:25:10-07:00*%
%TF.ProjectId,ID-12 Board,49442d31-3220-4426-9f61-72642e6b6963,rev?*%
%TF.SameCoordinates,Original*%
%TF.FileFunction,Soldermask,Top*%
%TF.FilePolarity,Negative*%
%FSLAX46Y46*%
G04 Gerber Fmt 4.6, Leading zero omitted, Abs format (unit mm)*
G04 Created by KiCad (PCBNEW (5.1.6)-1) date 2023-06-16 12:25:10*
%MOMM*%
%LPD*%
G01*
G04 APERTURE LIST*
%ADD10R,2.750000X0.900000*%
%ADD11R,1.120000X3.000000*%
%ADD12R,0.900000X1.000000*%
%ADD13C,1.252000*%
%ADD14C,3.300000*%
%ADD15R,1.900000X2.600000*%
%ADD16R,2.400000X2.400000*%
G04 APERTURE END LIST*
D10*
X43450000Y-34000000D03*
X38550000Y-34000000D03*
X43450000Y-32000000D03*
X38550000Y-32000000D03*
X43450000Y-30000000D03*
X38550000Y-30000000D03*
X43450000Y-28000000D03*
X38550000Y-28000000D03*
X43450000Y-26000000D03*
X38550000Y-26000000D03*
X43450000Y-24000000D03*
X38550000Y-24000000D03*
X43450000Y-22000000D03*
X38550000Y-22000000D03*
D11*
X67785000Y-44650000D03*
X67785000Y-49750000D03*
X65245000Y-44650000D03*
X65245000Y-49750000D03*
X62705000Y-44650000D03*
X62705000Y-49750000D03*
X60165000Y-44650000D03*
X60165000Y-49750000D03*
X57625000Y-44650000D03*
X57625000Y-49750000D03*
X55085000Y-44650000D03*
X55085000Y-49750000D03*
X52545000Y-44650000D03*
X52545000Y-49750000D03*
X50005000Y-44650000D03*
X50005000Y-49750000D03*
X47465000Y-44650000D03*
X47465000Y-49750000D03*
X44925000Y-44650000D03*
X44925000Y-49750000D03*
X42385000Y-44650000D03*
X42385000Y-49750000D03*
X39845000Y-44650000D03*
X39845000Y-49750000D03*
X37305000Y-44650000D03*
X37305000Y-49750000D03*
X34765000Y-44650000D03*
X34765000Y-49750000D03*
X32225000Y-44650000D03*
X32225000Y-49750000D03*
X67785000Y-72450000D03*
X67785000Y-77550000D03*
X65245000Y-72450000D03*
X65245000Y-77550000D03*
X62705000Y-72450000D03*
X62705000Y-77550000D03*
X60165000Y-72450000D03*
X60165000Y-77550000D03*
X57625000Y-72450000D03*
X57625000Y-77550000D03*
X55085000Y-72450000D03*
X55085000Y-77550000D03*
X52545000Y-72450000D03*
X52545000Y-77550000D03*
X50005000Y-72450000D03*
X50005000Y-77550000D03*
X47465000Y-72450000D03*
X47465000Y-77550000D03*
X44925000Y-72450000D03*
X44925000Y-77550000D03*
X42385000Y-72450000D03*
X42385000Y-77550000D03*
X39845000Y-72450000D03*
X39845000Y-77550000D03*
X37305000Y-72450000D03*
X37305000Y-77550000D03*
X34765000Y-72450000D03*
X34765000Y-77550000D03*
X32225000Y-72450000D03*
X32225000Y-77550000D03*
D10*
X60400000Y-34000000D03*
X55550000Y-34000000D03*
X60400000Y-32000000D03*
X55550000Y-32000000D03*
X60400000Y-30000000D03*
X55550000Y-30000000D03*
X60400000Y-28000000D03*
X55550000Y-28000000D03*
X60400000Y-26000000D03*
X55550000Y-26000000D03*
G36*
G01*
X52512500Y-66281250D02*
X52512500Y-65718750D01*
G75*
G02*
X52756250Y-65475000I243750J0D01*
G01*
X53243750Y-65475000D01*
G75*
G02*
X53487500Y-65718750I0J-243750D01*
G01*
X53487500Y-66281250D01*
G75*
G02*
X53243750Y-66525000I-243750J0D01*
G01*
X52756250Y-66525000D01*
G75*
G02*
X52512500Y-66281250I0J243750D01*
G01*
G37*
G36*
G01*
X50937500Y-66281250D02*
X50937500Y-65718750D01*
G75*
G02*
X51181250Y-65475000I243750J0D01*
G01*
X51668750Y-65475000D01*
G75*
G02*
X51912500Y-65718750I0J-243750D01*
G01*
X51912500Y-66281250D01*
G75*
G02*
X51668750Y-66525000I-243750J0D01*
G01*
X51181250Y-66525000D01*
G75*
G02*
X50937500Y-66281250I0J243750D01*
G01*
G37*
G36*
G01*
X33500000Y-40918750D02*
X33500000Y-41481250D01*
G75*
G02*
X33256250Y-41725000I-243750J0D01*
G01*
X32768750Y-41725000D01*
G75*
G02*
X32525000Y-41481250I0J243750D01*
G01*
X32525000Y-40918750D01*
G75*
G02*
X32768750Y-40675000I243750J0D01*
G01*
X33256250Y-40675000D01*
G75*
G02*
X33500000Y-40918750I0J-243750D01*
G01*
G37*
G36*
G01*
X35075000Y-40918750D02*
X35075000Y-41481250D01*
G75*
G02*
X34831250Y-41725000I-243750J0D01*
G01*
X34343750Y-41725000D01*
G75*
G02*
X34100000Y-41481250I0J243750D01*
G01*
X34100000Y-40918750D01*
G75*
G02*
X34343750Y-40675000I243750J0D01*
G01*
X34831250Y-40675000D01*
G75*
G02*
X35075000Y-40918750I0J-243750D01*
G01*
G37*
G36*
G01*
X33500000Y-38918750D02*
X33500000Y-39481250D01*
G75*
G02*
X33256250Y-39725000I-243750J0D01*
G01*
X32768750Y-39725000D01*
G75*
G02*
X32525000Y-39481250I0J243750D01*
G01*
X32525000Y-38918750D01*
G75*
G02*
X32768750Y-38675000I243750J0D01*
G01*
X33256250Y-38675000D01*
G75*
G02*
X33500000Y-38918750I0J-243750D01*
G01*
G37*
G36*
G01*
X35075000Y-38918750D02*
X35075000Y-39481250D01*
G75*
G02*
X34831250Y-39725000I-243750J0D01*
G01*
X34343750Y-39725000D01*
G75*
G02*
X34100000Y-39481250I0J243750D01*
G01*
X34100000Y-38918750D01*
G75*
G02*
X34343750Y-38675000I243750J0D01*
G01*
X34831250Y-38675000D01*
G75*
G02*
X35075000Y-38918750I0J-243750D01*
G01*
G37*
G36*
G01*
X33500000Y-34518750D02*
X33500000Y-35081250D01*
G75*
G02*
X33256250Y-35325000I-243750J0D01*
G01*
X32768750Y-35325000D01*
G75*
G02*
X32525000Y-35081250I0J243750D01*
G01*
X32525000Y-34518750D01*
G75*
G02*
X32768750Y-34275000I243750J0D01*
G01*
X33256250Y-34275000D01*
G75*
G02*
X33500000Y-34518750I0J-243750D01*
G01*
G37*
G36*
G01*
X35075000Y-34518750D02*
X35075000Y-35081250D01*
G75*
G02*
X34831250Y-35325000I-243750J0D01*
G01*
X34343750Y-35325000D01*
G75*
G02*
X34100000Y-35081250I0J243750D01*
G01*
X34100000Y-34518750D01*
G75*
G02*
X34343750Y-34275000I243750J0D01*
G01*
X34831250Y-34275000D01*
G75*
G02*
X35075000Y-34518750I0J-243750D01*
G01*
G37*
G36*
G01*
X33500000Y-32518750D02*
X33500000Y-33081250D01*
G75*
G02*
X33256250Y-33325000I-243750J0D01*
G01*
X32768750Y-33325000D01*
G75*
G02*
X32525000Y-33081250I0J243750D01*
G01*
X32525000Y-32518750D01*
G75*
G02*
X32768750Y-32275000I243750J0D01*
G01*
X33256250Y-32275000D01*
G75*
G02*
X33500000Y-32518750I0J-243750D01*
G01*
G37*
G36*
G01*
X35075000Y-32518750D02*
X35075000Y-33081250D01*
G75*
G02*
X34831250Y-33325000I-243750J0D01*
G01*
X34343750Y-33325000D01*
G75*
G02*
X34100000Y-33081250I0J243750D01*
G01*
X34100000Y-32518750D01*
G75*
G02*
X34343750Y-32275000I243750J0D01*
G01*
X34831250Y-32275000D01*
G75*
G02*
X35075000Y-32518750I0J-243750D01*
G01*
G37*
G36*
G01*
X33300000Y-26718750D02*
X33300000Y-27281250D01*
G75*
G02*
X33056250Y-27525000I-243750J0D01*
G01*
X32568750Y-27525000D01*
G75*
G02*
X32325000Y-27281250I0J243750D01*
G01*
X32325000Y-26718750D01*
G75*
G02*
X32568750Y-26475000I243750J0D01*
G01*
X33056250Y-26475000D01*
G75*
G02*
X33300000Y-26718750I0J-243750D01*
G01*
G37*
G36*
G01*
X34875000Y-26718750D02*
X34875000Y-27281250D01*
G75*
G02*
X34631250Y-27525000I-243750J0D01*
G01*
X34143750Y-27525000D01*
G75*
G02*
X33900000Y-27281250I0J243750D01*
G01*
X33900000Y-26718750D01*
G75*
G02*
X34143750Y-26475000I243750J0D01*
G01*
X34631250Y-26475000D01*
G75*
G02*
X34875000Y-26718750I0J-243750D01*
G01*
G37*
D12*
X59000000Y-64000000D03*
X59950000Y-66000000D03*
X58050000Y-66000000D03*
D13*
X25000000Y-65000000D03*
X75000000Y-50000000D03*
X25000000Y-35000000D03*
D14*
X75000000Y-75000000D03*
X25000000Y-75000000D03*
X75000000Y-25000000D03*
X25000000Y-25000000D03*
D15*
X66000000Y-63000000D03*
X66000000Y-59000000D03*
G36*
G01*
X32400000Y-37481250D02*
X32400000Y-36518750D01*
G75*
G02*
X32668750Y-36250000I268750J0D01*
G01*
X33206250Y-36250000D01*
G75*
G02*
X33475000Y-36518750I0J-268750D01*
G01*
X33475000Y-37481250D01*
G75*
G02*
X33206250Y-37750000I-268750J0D01*
G01*
X32668750Y-37750000D01*
G75*
G02*
X32400000Y-37481250I0J268750D01*
G01*
G37*
G36*
G01*
X30525000Y-37481250D02*
X30525000Y-36518750D01*
G75*
G02*
X30793750Y-36250000I268750J0D01*
G01*
X31331250Y-36250000D01*
G75*
G02*
X31600000Y-36518750I0J-268750D01*
G01*
X31600000Y-37481250D01*
G75*
G02*
X31331250Y-37750000I-268750J0D01*
G01*
X30793750Y-37750000D01*
G75*
G02*
X30525000Y-37481250I0J268750D01*
G01*
G37*
G36*
G01*
X32300000Y-31281250D02*
X32300000Y-30718750D01*
G75*
G02*
X32543750Y-30475000I243750J0D01*
G01*
X33031250Y-30475000D01*
G75*
G02*
X33275000Y-30718750I0J-243750D01*
G01*
X33275000Y-31281250D01*
G75*
G02*
X33031250Y-31525000I-243750J0D01*
G01*
X32543750Y-31525000D01*
G75*
G02*
X32300000Y-31281250I0J243750D01*
G01*
G37*
G36*
G01*
X30725000Y-31281250D02*
X30725000Y-30718750D01*
G75*
G02*
X30968750Y-30475000I243750J0D01*
G01*
X31456250Y-30475000D01*
G75*
G02*
X31700000Y-30718750I0J-243750D01*
G01*
X31700000Y-31281250D01*
G75*
G02*
X31456250Y-31525000I-243750J0D01*
G01*
X30968750Y-31525000D01*
G75*
G02*
X30725000Y-31281250I0J243750D01*
G01*
G37*
G36*
G01*
X32300000Y-25281250D02*
X32300000Y-24718750D01*
G75*
G02*
X32543750Y-24475000I243750J0D01*
G01*
X33031250Y-24475000D01*
G75*
G02*
X33275000Y-24718750I0J-243750D01*
G01*
X33275000Y-25281250D01*
G75*
G02*
X33031250Y-25525000I-243750J0D01*
G01*
X32543750Y-25525000D01*
G75*
G02*
X32300000Y-25281250I0J243750D01*
G01*
G37*
G36*
G01*
X30725000Y-25281250D02*
X30725000Y-24718750D01*
G75*
G02*
X30968750Y-24475000I243750J0D01*
G01*
X31456250Y-24475000D01*
G75*
G02*
X31700000Y-24718750I0J-243750D01*
G01*
X31700000Y-25281250D01*
G75*
G02*
X31456250Y-25525000I-243750J0D01*
G01*
X30968750Y-25525000D01*
G75*
G02*
X30725000Y-25281250I0J243750D01*
G01*
G37*
G36*
G01*
X73950000Y-37040000D02*
X73950000Y-34960000D01*
G75*
G02*
X74210000Y-34700000I260000J0D01*
G01*
X78190000Y-34700000D01*
G75*
G02*
X78450000Y-34960000I0J-260000D01*
G01*
X78450000Y-37040000D01*
G75*
G02*
X78190000Y-37300000I-260000J0D01*
G01*
X74210000Y-37300000D01*
G75*
G02*
X73950000Y-37040000I0J260000D01*
G01*
G37*
G36*
G01*
X65550000Y-37040000D02*
X65550000Y-34960000D01*
G75*
G02*
X65810000Y-34700000I260000J0D01*
G01*
X69790000Y-34700000D01*
G75*
G02*
X70050000Y-34960000I0J-260000D01*
G01*
X70050000Y-37040000D01*
G75*
G02*
X69790000Y-37300000I-260000J0D01*
G01*
X65810000Y-37300000D01*
G75*
G02*
X65550000Y-37040000I0J260000D01*
G01*
G37*
D16*
X70450000Y-64550000D03*
X77550000Y-64550000D03*
X77550000Y-57450000D03*
X70450000Y-57450000D03*
M02*
