%TF.GenerationSoftware,KiCad,Pcbnew,(5.1.6)-1*%
%TF.CreationDate,2023-06-16T12:25:10-07:00*%
%TF.ProjectId,ID-12 Board,49442d31-3220-4426-9f61-72642e6b6963,rev?*%
%TF.SameCoordinates,Original*%
%TF.FileFunction,Paste,Top*%
%TF.FilePolarity,Positive*%
%FSLAX46Y46*%
G04 Gerber Fmt 4.6, Leading zero omitted, Abs format (unit mm)*
G04 Created by KiCad (PCBNEW (5.1.6)-1) date 2023-06-16 12:25:10*
%MOMM*%
%LPD*%
G01*
G04 APERTURE LIST*
%ADD10R,2.650000X0.800000*%
%ADD11R,1.020000X2.900000*%
%ADD12R,0.800000X0.900000*%
%ADD13R,1.800000X2.500000*%
%ADD14R,2.300000X2.300000*%
G04 APERTURE END LIST*
D10*
X43450000Y-34000000D03*
X38550000Y-34000000D03*
X43450000Y-32000000D03*
X38550000Y-32000000D03*
X43450000Y-30000000D03*
X38550000Y-30000000D03*
X43450000Y-28000000D03*
X38550000Y-28000000D03*
X43450000Y-26000000D03*
X38550000Y-26000000D03*
X43450000Y-24000000D03*
X38550000Y-24000000D03*
X43450000Y-22000000D03*
X38550000Y-22000000D03*
D11*
X67785000Y-44650000D03*
X67785000Y-49750000D03*
X65245000Y-44650000D03*
X65245000Y-49750000D03*
X62705000Y-44650000D03*
X62705000Y-49750000D03*
X60165000Y-44650000D03*
X60165000Y-49750000D03*
X57625000Y-44650000D03*
X57625000Y-49750000D03*
X55085000Y-44650000D03*
X55085000Y-49750000D03*
X52545000Y-44650000D03*
X52545000Y-49750000D03*
X50005000Y-44650000D03*
X50005000Y-49750000D03*
X47465000Y-44650000D03*
X47465000Y-49750000D03*
X44925000Y-44650000D03*
X44925000Y-49750000D03*
X42385000Y-44650000D03*
X42385000Y-49750000D03*
X39845000Y-44650000D03*
X39845000Y-49750000D03*
X37305000Y-44650000D03*
X37305000Y-49750000D03*
X34765000Y-44650000D03*
X34765000Y-49750000D03*
X32225000Y-44650000D03*
X32225000Y-49750000D03*
X67785000Y-72450000D03*
X67785000Y-77550000D03*
X65245000Y-72450000D03*
X65245000Y-77550000D03*
X62705000Y-72450000D03*
X62705000Y-77550000D03*
X60165000Y-72450000D03*
X60165000Y-77550000D03*
X57625000Y-72450000D03*
X57625000Y-77550000D03*
X55085000Y-72450000D03*
X55085000Y-77550000D03*
X52545000Y-72450000D03*
X52545000Y-77550000D03*
X50005000Y-72450000D03*
X50005000Y-77550000D03*
X47465000Y-72450000D03*
X47465000Y-77550000D03*
X44925000Y-72450000D03*
X44925000Y-77550000D03*
X42385000Y-72450000D03*
X42385000Y-77550000D03*
X39845000Y-72450000D03*
X39845000Y-77550000D03*
X37305000Y-72450000D03*
X37305000Y-77550000D03*
X34765000Y-72450000D03*
X34765000Y-77550000D03*
X32225000Y-72450000D03*
X32225000Y-77550000D03*
D10*
X60400000Y-34000000D03*
X55550000Y-34000000D03*
X60400000Y-32000000D03*
X55550000Y-32000000D03*
X60400000Y-30000000D03*
X55550000Y-30000000D03*
X60400000Y-28000000D03*
X55550000Y-28000000D03*
X60400000Y-26000000D03*
X55550000Y-26000000D03*
G36*
G01*
X52562500Y-66256250D02*
X52562500Y-65743750D01*
G75*
G02*
X52781250Y-65525000I218750J0D01*
G01*
X53218750Y-65525000D01*
G75*
G02*
X53437500Y-65743750I0J-218750D01*
G01*
X53437500Y-66256250D01*
G75*
G02*
X53218750Y-66475000I-218750J0D01*
G01*
X52781250Y-66475000D01*
G75*
G02*
X52562500Y-66256250I0J218750D01*
G01*
G37*
G36*
G01*
X50987500Y-66256250D02*
X50987500Y-65743750D01*
G75*
G02*
X51206250Y-65525000I218750J0D01*
G01*
X51643750Y-65525000D01*
G75*
G02*
X51862500Y-65743750I0J-218750D01*
G01*
X51862500Y-66256250D01*
G75*
G02*
X51643750Y-66475000I-218750J0D01*
G01*
X51206250Y-66475000D01*
G75*
G02*
X50987500Y-66256250I0J218750D01*
G01*
G37*
G36*
G01*
X33450000Y-40943750D02*
X33450000Y-41456250D01*
G75*
G02*
X33231250Y-41675000I-218750J0D01*
G01*
X32793750Y-41675000D01*
G75*
G02*
X32575000Y-41456250I0J218750D01*
G01*
X32575000Y-40943750D01*
G75*
G02*
X32793750Y-40725000I218750J0D01*
G01*
X33231250Y-40725000D01*
G75*
G02*
X33450000Y-40943750I0J-218750D01*
G01*
G37*
G36*
G01*
X35025000Y-40943750D02*
X35025000Y-41456250D01*
G75*
G02*
X34806250Y-41675000I-218750J0D01*
G01*
X34368750Y-41675000D01*
G75*
G02*
X34150000Y-41456250I0J218750D01*
G01*
X34150000Y-40943750D01*
G75*
G02*
X34368750Y-40725000I218750J0D01*
G01*
X34806250Y-40725000D01*
G75*
G02*
X35025000Y-40943750I0J-218750D01*
G01*
G37*
G36*
G01*
X33450000Y-38943750D02*
X33450000Y-39456250D01*
G75*
G02*
X33231250Y-39675000I-218750J0D01*
G01*
X32793750Y-39675000D01*
G75*
G02*
X32575000Y-39456250I0J218750D01*
G01*
X32575000Y-38943750D01*
G75*
G02*
X32793750Y-38725000I218750J0D01*
G01*
X33231250Y-38725000D01*
G75*
G02*
X33450000Y-38943750I0J-218750D01*
G01*
G37*
G36*
G01*
X35025000Y-38943750D02*
X35025000Y-39456250D01*
G75*
G02*
X34806250Y-39675000I-218750J0D01*
G01*
X34368750Y-39675000D01*
G75*
G02*
X34150000Y-39456250I0J218750D01*
G01*
X34150000Y-38943750D01*
G75*
G02*
X34368750Y-38725000I218750J0D01*
G01*
X34806250Y-38725000D01*
G75*
G02*
X35025000Y-38943750I0J-218750D01*
G01*
G37*
G36*
G01*
X33450000Y-34543750D02*
X33450000Y-35056250D01*
G75*
G02*
X33231250Y-35275000I-218750J0D01*
G01*
X32793750Y-35275000D01*
G75*
G02*
X32575000Y-35056250I0J218750D01*
G01*
X32575000Y-34543750D01*
G75*
G02*
X32793750Y-34325000I218750J0D01*
G01*
X33231250Y-34325000D01*
G75*
G02*
X33450000Y-34543750I0J-218750D01*
G01*
G37*
G36*
G01*
X35025000Y-34543750D02*
X35025000Y-35056250D01*
G75*
G02*
X34806250Y-35275000I-218750J0D01*
G01*
X34368750Y-35275000D01*
G75*
G02*
X34150000Y-35056250I0J218750D01*
G01*
X34150000Y-34543750D01*
G75*
G02*
X34368750Y-34325000I218750J0D01*
G01*
X34806250Y-34325000D01*
G75*
G02*
X35025000Y-34543750I0J-218750D01*
G01*
G37*
G36*
G01*
X33450000Y-32543750D02*
X33450000Y-33056250D01*
G75*
G02*
X33231250Y-33275000I-218750J0D01*
G01*
X32793750Y-33275000D01*
G75*
G02*
X32575000Y-33056250I0J218750D01*
G01*
X32575000Y-32543750D01*
G75*
G02*
X32793750Y-32325000I218750J0D01*
G01*
X33231250Y-32325000D01*
G75*
G02*
X33450000Y-32543750I0J-218750D01*
G01*
G37*
G36*
G01*
X35025000Y-32543750D02*
X35025000Y-33056250D01*
G75*
G02*
X34806250Y-33275000I-218750J0D01*
G01*
X34368750Y-33275000D01*
G75*
G02*
X34150000Y-33056250I0J218750D01*
G01*
X34150000Y-32543750D01*
G75*
G02*
X34368750Y-32325000I218750J0D01*
G01*
X34806250Y-32325000D01*
G75*
G02*
X35025000Y-32543750I0J-218750D01*
G01*
G37*
G36*
G01*
X33250000Y-26743750D02*
X33250000Y-27256250D01*
G75*
G02*
X33031250Y-27475000I-218750J0D01*
G01*
X32593750Y-27475000D01*
G75*
G02*
X32375000Y-27256250I0J218750D01*
G01*
X32375000Y-26743750D01*
G75*
G02*
X32593750Y-26525000I218750J0D01*
G01*
X33031250Y-26525000D01*
G75*
G02*
X33250000Y-26743750I0J-218750D01*
G01*
G37*
G36*
G01*
X34825000Y-26743750D02*
X34825000Y-27256250D01*
G75*
G02*
X34606250Y-27475000I-218750J0D01*
G01*
X34168750Y-27475000D01*
G75*
G02*
X33950000Y-27256250I0J218750D01*
G01*
X33950000Y-26743750D01*
G75*
G02*
X34168750Y-26525000I218750J0D01*
G01*
X34606250Y-26525000D01*
G75*
G02*
X34825000Y-26743750I0J-218750D01*
G01*
G37*
D12*
X59000000Y-64000000D03*
X59950000Y-66000000D03*
X58050000Y-66000000D03*
D13*
X66000000Y-63000000D03*
X66000000Y-59000000D03*
G36*
G01*
X32450000Y-37456250D02*
X32450000Y-36543750D01*
G75*
G02*
X32693750Y-36300000I243750J0D01*
G01*
X33181250Y-36300000D01*
G75*
G02*
X33425000Y-36543750I0J-243750D01*
G01*
X33425000Y-37456250D01*
G75*
G02*
X33181250Y-37700000I-243750J0D01*
G01*
X32693750Y-37700000D01*
G75*
G02*
X32450000Y-37456250I0J243750D01*
G01*
G37*
G36*
G01*
X30575000Y-37456250D02*
X30575000Y-36543750D01*
G75*
G02*
X30818750Y-36300000I243750J0D01*
G01*
X31306250Y-36300000D01*
G75*
G02*
X31550000Y-36543750I0J-243750D01*
G01*
X31550000Y-37456250D01*
G75*
G02*
X31306250Y-37700000I-243750J0D01*
G01*
X30818750Y-37700000D01*
G75*
G02*
X30575000Y-37456250I0J243750D01*
G01*
G37*
G36*
G01*
X32350000Y-31256250D02*
X32350000Y-30743750D01*
G75*
G02*
X32568750Y-30525000I218750J0D01*
G01*
X33006250Y-30525000D01*
G75*
G02*
X33225000Y-30743750I0J-218750D01*
G01*
X33225000Y-31256250D01*
G75*
G02*
X33006250Y-31475000I-218750J0D01*
G01*
X32568750Y-31475000D01*
G75*
G02*
X32350000Y-31256250I0J218750D01*
G01*
G37*
G36*
G01*
X30775000Y-31256250D02*
X30775000Y-30743750D01*
G75*
G02*
X30993750Y-30525000I218750J0D01*
G01*
X31431250Y-30525000D01*
G75*
G02*
X31650000Y-30743750I0J-218750D01*
G01*
X31650000Y-31256250D01*
G75*
G02*
X31431250Y-31475000I-218750J0D01*
G01*
X30993750Y-31475000D01*
G75*
G02*
X30775000Y-31256250I0J218750D01*
G01*
G37*
G36*
G01*
X32350000Y-25256250D02*
X32350000Y-24743750D01*
G75*
G02*
X32568750Y-24525000I218750J0D01*
G01*
X33006250Y-24525000D01*
G75*
G02*
X33225000Y-24743750I0J-218750D01*
G01*
X33225000Y-25256250D01*
G75*
G02*
X33006250Y-25475000I-218750J0D01*
G01*
X32568750Y-25475000D01*
G75*
G02*
X32350000Y-25256250I0J218750D01*
G01*
G37*
G36*
G01*
X30775000Y-25256250D02*
X30775000Y-24743750D01*
G75*
G02*
X30993750Y-24525000I218750J0D01*
G01*
X31431250Y-24525000D01*
G75*
G02*
X31650000Y-24743750I0J-218750D01*
G01*
X31650000Y-25256250D01*
G75*
G02*
X31431250Y-25475000I-218750J0D01*
G01*
X30993750Y-25475000D01*
G75*
G02*
X30775000Y-25256250I0J218750D01*
G01*
G37*
G36*
G01*
X74000000Y-37000000D02*
X74000000Y-35000000D01*
G75*
G02*
X74250000Y-34750000I250000J0D01*
G01*
X78150000Y-34750000D01*
G75*
G02*
X78400000Y-35000000I0J-250000D01*
G01*
X78400000Y-37000000D01*
G75*
G02*
X78150000Y-37250000I-250000J0D01*
G01*
X74250000Y-37250000D01*
G75*
G02*
X74000000Y-37000000I0J250000D01*
G01*
G37*
G36*
G01*
X65600000Y-37000000D02*
X65600000Y-35000000D01*
G75*
G02*
X65850000Y-34750000I250000J0D01*
G01*
X69750000Y-34750000D01*
G75*
G02*
X70000000Y-35000000I0J-250000D01*
G01*
X70000000Y-37000000D01*
G75*
G02*
X69750000Y-37250000I-250000J0D01*
G01*
X65850000Y-37250000D01*
G75*
G02*
X65600000Y-37000000I0J250000D01*
G01*
G37*
D14*
X70450000Y-64550000D03*
X77550000Y-64550000D03*
X77550000Y-57450000D03*
X70450000Y-57450000D03*
M02*
