%TF.GenerationSoftware,KiCad,Pcbnew,(5.1.6)-1*%
%TF.CreationDate,2023-06-16T12:25:10-07:00*%
%TF.ProjectId,ID-12 Board,49442d31-3220-4426-9f61-72642e6b6963,rev?*%
%TF.SameCoordinates,Original*%
%TF.FileFunction,Legend,Top*%
%TF.FilePolarity,Positive*%
%FSLAX46Y46*%
G04 Gerber Fmt 4.6, Leading zero omitted, Abs format (unit mm)*
G04 Created by KiCad (PCBNEW (5.1.6)-1) date 2023-06-16 12:25:10*
%MOMM*%
%LPD*%
G01*
G04 APERTURE LIST*
%ADD10C,0.150000*%
%ADD11C,0.300000*%
%ADD12C,0.120000*%
%ADD13C,0.100000*%
%ADD14R,2.750000X0.900000*%
%ADD15R,1.120000X3.000000*%
%ADD16R,0.900000X1.000000*%
%ADD17C,1.252000*%
%ADD18C,3.300000*%
%ADD19R,1.900000X2.600000*%
%ADD20R,2.400000X2.400000*%
G04 APERTURE END LIST*
D10*
X30750000Y-68250000D02*
X30750000Y-67535714D01*
X31178571Y-68392857D02*
X29678571Y-67892857D01*
X31178571Y-67392857D01*
X30178571Y-66892857D02*
X31178571Y-66892857D01*
X30321428Y-66892857D02*
X30250000Y-66821428D01*
X30178571Y-66678571D01*
X30178571Y-66464285D01*
X30250000Y-66321428D01*
X30392857Y-66250000D01*
X31178571Y-66250000D01*
X30178571Y-65750000D02*
X30178571Y-65178571D01*
X29678571Y-65535714D02*
X30964285Y-65535714D01*
X31107142Y-65464285D01*
X31178571Y-65321428D01*
X31178571Y-65178571D01*
X31107142Y-64107142D02*
X31178571Y-64250000D01*
X31178571Y-64535714D01*
X31107142Y-64678571D01*
X30964285Y-64750000D01*
X30392857Y-64750000D01*
X30250000Y-64678571D01*
X30178571Y-64535714D01*
X30178571Y-64250000D01*
X30250000Y-64107142D01*
X30392857Y-64035714D01*
X30535714Y-64035714D01*
X30678571Y-64750000D01*
X30178571Y-63392857D02*
X31178571Y-63392857D01*
X30321428Y-63392857D02*
X30250000Y-63321428D01*
X30178571Y-63178571D01*
X30178571Y-62964285D01*
X30250000Y-62821428D01*
X30392857Y-62750000D01*
X31178571Y-62750000D01*
X30178571Y-62035714D02*
X31178571Y-62035714D01*
X30321428Y-62035714D02*
X30250000Y-61964285D01*
X30178571Y-61821428D01*
X30178571Y-61607142D01*
X30250000Y-61464285D01*
X30392857Y-61392857D01*
X31178571Y-61392857D01*
X31178571Y-60035714D02*
X30392857Y-60035714D01*
X30250000Y-60107142D01*
X30178571Y-60250000D01*
X30178571Y-60535714D01*
X30250000Y-60678571D01*
X31107142Y-60035714D02*
X31178571Y-60178571D01*
X31178571Y-60535714D01*
X31107142Y-60678571D01*
X30964285Y-60750000D01*
X30821428Y-60750000D01*
X30678571Y-60678571D01*
X30607142Y-60535714D01*
X30607142Y-60178571D01*
X30535714Y-60035714D01*
X31178571Y-58178571D02*
X29678571Y-58178571D01*
X30392857Y-58178571D02*
X30392857Y-57321428D01*
X31178571Y-57321428D02*
X29678571Y-57321428D01*
X31107142Y-56035714D02*
X31178571Y-56178571D01*
X31178571Y-56464285D01*
X31107142Y-56607142D01*
X30964285Y-56678571D01*
X30392857Y-56678571D01*
X30250000Y-56607142D01*
X30178571Y-56464285D01*
X30178571Y-56178571D01*
X30250000Y-56035714D01*
X30392857Y-55964285D01*
X30535714Y-55964285D01*
X30678571Y-56678571D01*
X31178571Y-55321428D02*
X30178571Y-55321428D01*
X30464285Y-55321428D02*
X30321428Y-55250000D01*
X30250000Y-55178571D01*
X30178571Y-55035714D01*
X30178571Y-54892857D01*
X31107142Y-53821428D02*
X31178571Y-53964285D01*
X31178571Y-54250000D01*
X31107142Y-54392857D01*
X30964285Y-54464285D01*
X30392857Y-54464285D01*
X30250000Y-54392857D01*
X30178571Y-54250000D01*
X30178571Y-53964285D01*
X30250000Y-53821428D01*
X30392857Y-53750000D01*
X30535714Y-53750000D01*
X30678571Y-54464285D01*
X62952380Y-66333333D02*
X61952380Y-66333333D01*
X62666666Y-66000000D01*
X61952380Y-65666666D01*
X62952380Y-65666666D01*
X62952380Y-65190476D02*
X62285714Y-65190476D01*
X61952380Y-65190476D02*
X62000000Y-65238095D01*
X62047619Y-65190476D01*
X62000000Y-65142857D01*
X61952380Y-65190476D01*
X62047619Y-65190476D01*
X62904761Y-64285714D02*
X62952380Y-64380952D01*
X62952380Y-64571428D01*
X62904761Y-64666666D01*
X62857142Y-64714285D01*
X62761904Y-64761904D01*
X62476190Y-64761904D01*
X62380952Y-64714285D01*
X62333333Y-64666666D01*
X62285714Y-64571428D01*
X62285714Y-64380952D01*
X62333333Y-64285714D01*
X62952380Y-63857142D02*
X62285714Y-63857142D01*
X62476190Y-63857142D02*
X62380952Y-63809523D01*
X62333333Y-63761904D01*
X62285714Y-63666666D01*
X62285714Y-63571428D01*
X62952380Y-63095238D02*
X62904761Y-63190476D01*
X62857142Y-63238095D01*
X62761904Y-63285714D01*
X62476190Y-63285714D01*
X62380952Y-63238095D01*
X62333333Y-63190476D01*
X62285714Y-63095238D01*
X62285714Y-62952380D01*
X62333333Y-62857142D01*
X62380952Y-62809523D01*
X62476190Y-62761904D01*
X62761904Y-62761904D01*
X62857142Y-62809523D01*
X62904761Y-62857142D01*
X62952380Y-62952380D01*
X62952380Y-63095238D01*
X61952380Y-62333333D02*
X62761904Y-62333333D01*
X62857142Y-62285714D01*
X62904761Y-62238095D01*
X62952380Y-62142857D01*
X62952380Y-61952380D01*
X62904761Y-61857142D01*
X62857142Y-61809523D01*
X62761904Y-61761904D01*
X61952380Y-61761904D01*
X62904761Y-61333333D02*
X62952380Y-61190476D01*
X62952380Y-60952380D01*
X62904761Y-60857142D01*
X62857142Y-60809523D01*
X62761904Y-60761904D01*
X62666666Y-60761904D01*
X62571428Y-60809523D01*
X62523809Y-60857142D01*
X62476190Y-60952380D01*
X62428571Y-61142857D01*
X62380952Y-61238095D01*
X62333333Y-61285714D01*
X62238095Y-61333333D01*
X62142857Y-61333333D01*
X62047619Y-61285714D01*
X62000000Y-61238095D01*
X61952380Y-61142857D01*
X61952380Y-60904761D01*
X62000000Y-60761904D01*
X62428571Y-60000000D02*
X62476190Y-59857142D01*
X62523809Y-59809523D01*
X62619047Y-59761904D01*
X62761904Y-59761904D01*
X62857142Y-59809523D01*
X62904761Y-59857142D01*
X62952380Y-59952380D01*
X62952380Y-60333333D01*
X61952380Y-60333333D01*
X61952380Y-60000000D01*
X62000000Y-59904761D01*
X62047619Y-59857142D01*
X62142857Y-59809523D01*
X62238095Y-59809523D01*
X62333333Y-59857142D01*
X62380952Y-59904761D01*
X62428571Y-60000000D01*
X62428571Y-60333333D01*
X62952380Y-58571428D02*
X61952380Y-58571428D01*
X62428571Y-58571428D02*
X62428571Y-58000000D01*
X62952380Y-58000000D02*
X61952380Y-58000000D01*
X62904761Y-57142857D02*
X62952380Y-57238095D01*
X62952380Y-57428571D01*
X62904761Y-57523809D01*
X62809523Y-57571428D01*
X62428571Y-57571428D01*
X62333333Y-57523809D01*
X62285714Y-57428571D01*
X62285714Y-57238095D01*
X62333333Y-57142857D01*
X62428571Y-57095238D01*
X62523809Y-57095238D01*
X62619047Y-57571428D01*
X62952380Y-56666666D02*
X62285714Y-56666666D01*
X62476190Y-56666666D02*
X62380952Y-56619047D01*
X62333333Y-56571428D01*
X62285714Y-56476190D01*
X62285714Y-56380952D01*
X62904761Y-55666666D02*
X62952380Y-55761904D01*
X62952380Y-55952380D01*
X62904761Y-56047619D01*
X62809523Y-56095238D01*
X62428571Y-56095238D01*
X62333333Y-56047619D01*
X62285714Y-55952380D01*
X62285714Y-55761904D01*
X62333333Y-55666666D01*
X62428571Y-55619047D01*
X62523809Y-55619047D01*
X62619047Y-56095238D01*
D11*
X72000000Y-67178571D02*
X72500000Y-68678571D01*
X73000000Y-67178571D01*
X74285714Y-68678571D02*
X73428571Y-68678571D01*
X73857142Y-68678571D02*
X73857142Y-67178571D01*
X73714285Y-67392857D01*
X73571428Y-67535714D01*
X73428571Y-67607142D01*
X74928571Y-68535714D02*
X75000000Y-68607142D01*
X74928571Y-68678571D01*
X74857142Y-68607142D01*
X74928571Y-68535714D01*
X74928571Y-68678571D01*
X75928571Y-67178571D02*
X76071428Y-67178571D01*
X76214285Y-67250000D01*
X76285714Y-67321428D01*
X76357142Y-67464285D01*
X76428571Y-67750000D01*
X76428571Y-68107142D01*
X76357142Y-68392857D01*
X76285714Y-68535714D01*
X76214285Y-68607142D01*
X76071428Y-68678571D01*
X75928571Y-68678571D01*
X75785714Y-68607142D01*
X75714285Y-68535714D01*
X75642857Y-68392857D01*
X75571428Y-68107142D01*
X75571428Y-67750000D01*
X75642857Y-67464285D01*
X75714285Y-67321428D01*
X75785714Y-67250000D01*
X75928571Y-67178571D01*
X77857142Y-68678571D02*
X77000000Y-68678571D01*
X77428571Y-68678571D02*
X77428571Y-67178571D01*
X77285714Y-67392857D01*
X77142857Y-67535714D01*
X77000000Y-67607142D01*
X33995238Y-68288095D02*
X33995238Y-69216666D01*
X33933333Y-69402380D01*
X33809523Y-69526190D01*
X33623809Y-69588095D01*
X33500000Y-69588095D01*
X35233333Y-69588095D02*
X34614285Y-69588095D01*
X34614285Y-68288095D01*
X36409523Y-69464285D02*
X36347619Y-69526190D01*
X36161904Y-69588095D01*
X36038095Y-69588095D01*
X35852380Y-69526190D01*
X35728571Y-69402380D01*
X35666666Y-69278571D01*
X35604761Y-69030952D01*
X35604761Y-68845238D01*
X35666666Y-68597619D01*
X35728571Y-68473809D01*
X35852380Y-68350000D01*
X36038095Y-68288095D01*
X36161904Y-68288095D01*
X36347619Y-68350000D01*
X36409523Y-68411904D01*
X37338095Y-68288095D02*
X37338095Y-69216666D01*
X37276190Y-69402380D01*
X37152380Y-69526190D01*
X36966666Y-69588095D01*
X36842857Y-69588095D01*
X38576190Y-69588095D02*
X37957142Y-69588095D01*
X37957142Y-68288095D01*
X39752380Y-69464285D02*
X39690476Y-69526190D01*
X39504761Y-69588095D01*
X39380952Y-69588095D01*
X39195238Y-69526190D01*
X39071428Y-69402380D01*
X39009523Y-69278571D01*
X38947619Y-69030952D01*
X38947619Y-68845238D01*
X39009523Y-68597619D01*
X39071428Y-68473809D01*
X39195238Y-68350000D01*
X39380952Y-68288095D01*
X39504761Y-68288095D01*
X39690476Y-68350000D01*
X39752380Y-68411904D01*
X40680952Y-68288095D02*
X40680952Y-69216666D01*
X40619047Y-69402380D01*
X40495238Y-69526190D01*
X40309523Y-69588095D01*
X40185714Y-69588095D01*
X41919047Y-69588095D02*
X41300000Y-69588095D01*
X41300000Y-68288095D01*
X43095238Y-69464285D02*
X43033333Y-69526190D01*
X42847619Y-69588095D01*
X42723809Y-69588095D01*
X42538095Y-69526190D01*
X42414285Y-69402380D01*
X42352380Y-69278571D01*
X42290476Y-69030952D01*
X42290476Y-68845238D01*
X42352380Y-68597619D01*
X42414285Y-68473809D01*
X42538095Y-68350000D01*
X42723809Y-68288095D01*
X42847619Y-68288095D01*
X43033333Y-68350000D01*
X43095238Y-68411904D01*
X44023809Y-68288095D02*
X44023809Y-69216666D01*
X43961904Y-69402380D01*
X43838095Y-69526190D01*
X43652380Y-69588095D01*
X43528571Y-69588095D01*
X45261904Y-69588095D02*
X44642857Y-69588095D01*
X44642857Y-68288095D01*
X46438095Y-69464285D02*
X46376190Y-69526190D01*
X46190476Y-69588095D01*
X46066666Y-69588095D01*
X45880952Y-69526190D01*
X45757142Y-69402380D01*
X45695238Y-69278571D01*
X45633333Y-69030952D01*
X45633333Y-68845238D01*
X45695238Y-68597619D01*
X45757142Y-68473809D01*
X45880952Y-68350000D01*
X46066666Y-68288095D01*
X46190476Y-68288095D01*
X46376190Y-68350000D01*
X46438095Y-68411904D01*
D12*
X43250000Y-35250000D02*
X43250000Y-34650000D01*
X38750000Y-35250000D02*
X43250000Y-35250000D01*
X38750000Y-34650000D02*
X38750000Y-35250000D01*
X43250000Y-20750000D02*
X43250000Y-21350000D01*
X38750000Y-20750000D02*
X43250000Y-20750000D01*
X38750000Y-21350000D02*
X38750000Y-20750000D01*
X38750000Y-32650000D02*
X38750000Y-33350000D01*
X38750000Y-30650000D02*
X38750000Y-31350000D01*
X38750000Y-28650000D02*
X38750000Y-29350000D01*
X38750000Y-26650000D02*
X38750000Y-27350000D01*
X38750000Y-24600000D02*
X38750000Y-25300000D01*
X38750000Y-22650000D02*
X38750000Y-23350000D01*
X43250000Y-22650000D02*
X43250000Y-23350000D01*
X43250000Y-24650000D02*
X43250000Y-25350000D01*
X43250000Y-26650000D02*
X43250000Y-27350000D01*
X43250000Y-28650000D02*
X43250000Y-29350000D01*
X43250000Y-30650000D02*
X43250000Y-31350000D01*
X43250000Y-32650000D02*
X43250000Y-33350000D01*
X69300000Y-44700000D02*
X68550000Y-44700000D01*
X69300000Y-49700000D02*
X69300000Y-44700000D01*
X68550000Y-49700000D02*
X69300000Y-49700000D01*
X30700000Y-44700000D02*
X31450000Y-44700000D01*
X30700000Y-49700000D02*
X30700000Y-44700000D01*
X31450000Y-49700000D02*
X30700000Y-49700000D01*
X51800000Y-49700000D02*
X50800000Y-49700000D01*
X49250000Y-49700000D02*
X48250000Y-49700000D01*
X46700000Y-49700000D02*
X45700000Y-49700000D01*
X63500000Y-49700000D02*
X64450000Y-49700000D01*
X58400000Y-49700000D02*
X59400000Y-49700000D01*
X60950000Y-49700000D02*
X61950000Y-49700000D01*
X66000000Y-49700000D02*
X67000000Y-49700000D01*
X56900000Y-49700000D02*
X55850000Y-49700000D01*
X44150000Y-49700000D02*
X43150000Y-49700000D01*
X54300000Y-49700000D02*
X53350000Y-49700000D01*
X39050000Y-49700000D02*
X38050000Y-49700000D01*
X34000000Y-49700000D02*
X33000000Y-49700000D01*
X36550000Y-49700000D02*
X35550000Y-49700000D01*
X41600000Y-49700000D02*
X40600000Y-49700000D01*
X34000000Y-44700000D02*
X33000000Y-44700000D01*
X36550000Y-44700000D02*
X35550000Y-44700000D01*
X39050000Y-44700000D02*
X38050000Y-44700000D01*
X41600000Y-44700000D02*
X40600000Y-44700000D01*
X44150000Y-44700000D02*
X43150000Y-44700000D01*
X46700000Y-44700000D02*
X45700000Y-44700000D01*
X66000000Y-44700000D02*
X67000000Y-44700000D01*
X63500000Y-44700000D02*
X64450000Y-44700000D01*
X60950000Y-44700000D02*
X61950000Y-44700000D01*
X58400000Y-44700000D02*
X59400000Y-44700000D01*
X56900000Y-44700000D02*
X55850000Y-44700000D01*
X54300000Y-44700000D02*
X53350000Y-44700000D01*
X51800000Y-44700000D02*
X50800000Y-44700000D01*
X49250000Y-44700000D02*
X48250000Y-44700000D01*
X69300000Y-72500000D02*
X68550000Y-72500000D01*
X69300000Y-77500000D02*
X69300000Y-72500000D01*
X68550000Y-77500000D02*
X69300000Y-77500000D01*
X30700000Y-72500000D02*
X31450000Y-72500000D01*
X30700000Y-77500000D02*
X30700000Y-72500000D01*
X31450000Y-77500000D02*
X30700000Y-77500000D01*
X51800000Y-77500000D02*
X50800000Y-77500000D01*
X49250000Y-77500000D02*
X48250000Y-77500000D01*
X46700000Y-77500000D02*
X45700000Y-77500000D01*
X63500000Y-77500000D02*
X64450000Y-77500000D01*
X58400000Y-77500000D02*
X59400000Y-77500000D01*
X60950000Y-77500000D02*
X61950000Y-77500000D01*
X66000000Y-77500000D02*
X67000000Y-77500000D01*
X56900000Y-77500000D02*
X55850000Y-77500000D01*
X44150000Y-77500000D02*
X43150000Y-77500000D01*
X54300000Y-77500000D02*
X53350000Y-77500000D01*
X39050000Y-77500000D02*
X38050000Y-77500000D01*
X34000000Y-77500000D02*
X33000000Y-77500000D01*
X36550000Y-77500000D02*
X35550000Y-77500000D01*
X41600000Y-77500000D02*
X40600000Y-77500000D01*
X34000000Y-72500000D02*
X33000000Y-72500000D01*
X36550000Y-72500000D02*
X35550000Y-72500000D01*
X39050000Y-72500000D02*
X38050000Y-72500000D01*
X41600000Y-72500000D02*
X40600000Y-72500000D01*
X44150000Y-72500000D02*
X43150000Y-72500000D01*
X46700000Y-72500000D02*
X45700000Y-72500000D01*
X66000000Y-72500000D02*
X67000000Y-72500000D01*
X63500000Y-72500000D02*
X64450000Y-72500000D01*
X60950000Y-72500000D02*
X61950000Y-72500000D01*
X58400000Y-72500000D02*
X59400000Y-72500000D01*
X56900000Y-72500000D02*
X55850000Y-72500000D01*
X54300000Y-72500000D02*
X53350000Y-72500000D01*
X51800000Y-72500000D02*
X50800000Y-72500000D01*
X49250000Y-72500000D02*
X48250000Y-72500000D01*
X60250000Y-35250000D02*
X60250000Y-34650000D01*
X55750000Y-35250000D02*
X60250000Y-35250000D01*
X55750000Y-34600000D02*
X55750000Y-35250000D01*
X60250000Y-24750000D02*
X60250000Y-25350000D01*
X55750000Y-24750000D02*
X60250000Y-24750000D01*
X55750000Y-25350000D02*
X55750000Y-24750000D01*
X55750000Y-27350000D02*
X55750000Y-26650000D01*
X55750000Y-29350000D02*
X55750000Y-28650000D01*
X55750000Y-31350000D02*
X55750000Y-30650000D01*
X55750000Y-33350000D02*
X55750000Y-32650000D01*
X60250000Y-33350000D02*
X60250000Y-32650000D01*
X60250000Y-31350000D02*
X60250000Y-30650000D01*
X60250000Y-27350000D02*
X60250000Y-26650000D01*
X60250000Y-29350000D02*
X60250000Y-28650000D01*
X52049721Y-66510000D02*
X52375279Y-66510000D01*
X52049721Y-65490000D02*
X52375279Y-65490000D01*
X33962779Y-40690000D02*
X33637221Y-40690000D01*
X33962779Y-41710000D02*
X33637221Y-41710000D01*
X33962779Y-38690000D02*
X33637221Y-38690000D01*
X33962779Y-39710000D02*
X33637221Y-39710000D01*
X33962779Y-34290000D02*
X33637221Y-34290000D01*
X33962779Y-35310000D02*
X33637221Y-35310000D01*
X33962779Y-32290000D02*
X33637221Y-32290000D01*
X33962779Y-33310000D02*
X33637221Y-33310000D01*
X33762779Y-26490000D02*
X33437221Y-26490000D01*
X33762779Y-27510000D02*
X33437221Y-27510000D01*
X60580000Y-64240000D02*
X60580000Y-65700000D01*
X57420000Y-64240000D02*
X57420000Y-66400000D01*
X57420000Y-64240000D02*
X58350000Y-64240000D01*
X60580000Y-64240000D02*
X59650000Y-64240000D01*
X67650000Y-57600000D02*
X67650000Y-63000000D01*
X64350000Y-57600000D02*
X64350000Y-63000000D01*
X67650000Y-57600000D02*
X64350000Y-57600000D01*
X30315000Y-37960000D02*
X33000000Y-37960000D01*
X30315000Y-36040000D02*
X30315000Y-37960000D01*
X33000000Y-36040000D02*
X30315000Y-36040000D01*
X30515000Y-31735000D02*
X32800000Y-31735000D01*
X30515000Y-30265000D02*
X30515000Y-31735000D01*
X32800000Y-30265000D02*
X30515000Y-30265000D01*
X30515000Y-25735000D02*
X32800000Y-25735000D01*
X30515000Y-24265000D02*
X30515000Y-25735000D01*
X32800000Y-24265000D02*
X30515000Y-24265000D01*
X65775000Y-32615000D02*
X65775000Y-33865000D01*
X65150000Y-33240000D02*
X66400000Y-33240000D01*
X66640000Y-40295563D02*
X67704437Y-41360000D01*
X66640000Y-31704437D02*
X67704437Y-30640000D01*
X66640000Y-31704437D02*
X66640000Y-34490000D01*
X66640000Y-40295563D02*
X66640000Y-37510000D01*
X67704437Y-41360000D02*
X77360000Y-41360000D01*
X67704437Y-30640000D02*
X77360000Y-30640000D01*
X77360000Y-30640000D02*
X77360000Y-34490000D01*
X77360000Y-41360000D02*
X77360000Y-37510000D01*
D13*
G36*
X77500000Y-61000000D02*
G01*
X76750000Y-61500000D01*
X76750000Y-60500000D01*
X77500000Y-61000000D01*
G37*
X77500000Y-61000000D02*
X76750000Y-61500000D01*
X76750000Y-60500000D01*
X77500000Y-61000000D01*
D12*
X70450000Y-63000000D02*
X71050000Y-63000000D01*
X70450000Y-59150000D02*
X71050000Y-59150000D01*
X70750000Y-58850000D02*
X70750000Y-59450000D01*
X78250000Y-56750000D02*
X78250000Y-65250000D01*
X78250000Y-65250000D02*
X69750000Y-65250000D01*
X69750000Y-65250000D02*
X69750000Y-56750000D01*
X69750000Y-56750000D02*
X78250000Y-56750000D01*
D10*
X35166666Y-20952380D02*
X35166666Y-21666666D01*
X35119047Y-21809523D01*
X35023809Y-21904761D01*
X34880952Y-21952380D01*
X34785714Y-21952380D01*
X35547619Y-20952380D02*
X36166666Y-20952380D01*
X35833333Y-21333333D01*
X35976190Y-21333333D01*
X36071428Y-21380952D01*
X36119047Y-21428571D01*
X36166666Y-21523809D01*
X36166666Y-21761904D01*
X36119047Y-21857142D01*
X36071428Y-21904761D01*
X35976190Y-21952380D01*
X35690476Y-21952380D01*
X35595238Y-21904761D01*
X35547619Y-21857142D01*
X28666666Y-49452380D02*
X28666666Y-50166666D01*
X28619047Y-50309523D01*
X28523809Y-50404761D01*
X28380952Y-50452380D01*
X28285714Y-50452380D01*
X29095238Y-49547619D02*
X29142857Y-49500000D01*
X29238095Y-49452380D01*
X29476190Y-49452380D01*
X29571428Y-49500000D01*
X29619047Y-49547619D01*
X29666666Y-49642857D01*
X29666666Y-49738095D01*
X29619047Y-49880952D01*
X29047619Y-50452380D01*
X29666666Y-50452380D01*
X28666666Y-77452380D02*
X28666666Y-78166666D01*
X28619047Y-78309523D01*
X28523809Y-78404761D01*
X28380952Y-78452380D01*
X28285714Y-78452380D01*
X29666666Y-78452380D02*
X29095238Y-78452380D01*
X29380952Y-78452380D02*
X29380952Y-77452380D01*
X29285714Y-77595238D01*
X29190476Y-77690476D01*
X29095238Y-77738095D01*
X57666666Y-22502380D02*
X57666666Y-23216666D01*
X57619047Y-23359523D01*
X57523809Y-23454761D01*
X57380952Y-23502380D01*
X57285714Y-23502380D01*
X58571428Y-22835714D02*
X58571428Y-23502380D01*
X58333333Y-22454761D02*
X58095238Y-23169047D01*
X58714285Y-23169047D01*
X52045833Y-65022380D02*
X51712500Y-64546190D01*
X51474404Y-65022380D02*
X51474404Y-64022380D01*
X51855357Y-64022380D01*
X51950595Y-64070000D01*
X51998214Y-64117619D01*
X52045833Y-64212857D01*
X52045833Y-64355714D01*
X51998214Y-64450952D01*
X51950595Y-64498571D01*
X51855357Y-64546190D01*
X51474404Y-64546190D01*
X52902976Y-64022380D02*
X52712500Y-64022380D01*
X52617261Y-64070000D01*
X52569642Y-64117619D01*
X52474404Y-64260476D01*
X52426785Y-64450952D01*
X52426785Y-64831904D01*
X52474404Y-64927142D01*
X52522023Y-64974761D01*
X52617261Y-65022380D01*
X52807738Y-65022380D01*
X52902976Y-64974761D01*
X52950595Y-64927142D01*
X52998214Y-64831904D01*
X52998214Y-64593809D01*
X52950595Y-64498571D01*
X52902976Y-64450952D01*
X52807738Y-64403333D01*
X52617261Y-64403333D01*
X52522023Y-64450952D01*
X52474404Y-64498571D01*
X52426785Y-64593809D01*
X31045833Y-41747379D02*
X30712500Y-41271189D01*
X30474404Y-41747379D02*
X30474404Y-40747379D01*
X30855357Y-40747379D01*
X30950595Y-40794999D01*
X30998214Y-40842618D01*
X31045833Y-40937856D01*
X31045833Y-41080713D01*
X30998214Y-41175951D01*
X30950595Y-41223570D01*
X30855357Y-41271189D01*
X30474404Y-41271189D01*
X31950595Y-40747379D02*
X31474404Y-40747379D01*
X31426785Y-41223570D01*
X31474404Y-41175951D01*
X31569642Y-41128332D01*
X31807738Y-41128332D01*
X31902976Y-41175951D01*
X31950595Y-41223570D01*
X31998214Y-41318808D01*
X31998214Y-41556903D01*
X31950595Y-41652141D01*
X31902976Y-41699760D01*
X31807738Y-41747379D01*
X31569642Y-41747379D01*
X31474404Y-41699760D01*
X31426785Y-41652141D01*
X31033333Y-39652380D02*
X30700000Y-39176190D01*
X30461904Y-39652380D02*
X30461904Y-38652380D01*
X30842857Y-38652380D01*
X30938095Y-38700000D01*
X30985714Y-38747619D01*
X31033333Y-38842857D01*
X31033333Y-38985714D01*
X30985714Y-39080952D01*
X30938095Y-39128571D01*
X30842857Y-39176190D01*
X30461904Y-39176190D01*
X31890476Y-38985714D02*
X31890476Y-39652380D01*
X31652380Y-38604761D02*
X31414285Y-39319047D01*
X32033333Y-39319047D01*
X31033333Y-35252380D02*
X30700000Y-34776190D01*
X30461904Y-35252380D02*
X30461904Y-34252380D01*
X30842857Y-34252380D01*
X30938095Y-34300000D01*
X30985714Y-34347619D01*
X31033333Y-34442857D01*
X31033333Y-34585714D01*
X30985714Y-34680952D01*
X30938095Y-34728571D01*
X30842857Y-34776190D01*
X30461904Y-34776190D01*
X31366666Y-34252380D02*
X31985714Y-34252380D01*
X31652380Y-34633333D01*
X31795238Y-34633333D01*
X31890476Y-34680952D01*
X31938095Y-34728571D01*
X31985714Y-34823809D01*
X31985714Y-35061904D01*
X31938095Y-35157142D01*
X31890476Y-35204761D01*
X31795238Y-35252380D01*
X31509523Y-35252380D01*
X31414285Y-35204761D01*
X31366666Y-35157142D01*
X31033333Y-33252380D02*
X30700000Y-32776190D01*
X30461904Y-33252380D02*
X30461904Y-32252380D01*
X30842857Y-32252380D01*
X30938095Y-32300000D01*
X30985714Y-32347619D01*
X31033333Y-32442857D01*
X31033333Y-32585714D01*
X30985714Y-32680952D01*
X30938095Y-32728571D01*
X30842857Y-32776190D01*
X30461904Y-32776190D01*
X31414285Y-32347619D02*
X31461904Y-32300000D01*
X31557142Y-32252380D01*
X31795238Y-32252380D01*
X31890476Y-32300000D01*
X31938095Y-32347619D01*
X31985714Y-32442857D01*
X31985714Y-32538095D01*
X31938095Y-32680952D01*
X31366666Y-33252380D01*
X31985714Y-33252380D01*
X30833333Y-27452380D02*
X30500000Y-26976190D01*
X30261904Y-27452380D02*
X30261904Y-26452380D01*
X30642857Y-26452380D01*
X30738095Y-26500000D01*
X30785714Y-26547619D01*
X30833333Y-26642857D01*
X30833333Y-26785714D01*
X30785714Y-26880952D01*
X30738095Y-26928571D01*
X30642857Y-26976190D01*
X30261904Y-26976190D01*
X31785714Y-27452380D02*
X31214285Y-27452380D01*
X31500000Y-27452380D02*
X31500000Y-26452380D01*
X31404761Y-26595238D01*
X31309523Y-26690476D01*
X31214285Y-26738095D01*
X58904761Y-62547619D02*
X58809523Y-62500000D01*
X58714285Y-62404761D01*
X58571428Y-62261904D01*
X58476190Y-62214285D01*
X58380952Y-62214285D01*
X58428571Y-62452380D02*
X58333333Y-62404761D01*
X58238095Y-62309523D01*
X58190476Y-62119047D01*
X58190476Y-61785714D01*
X58238095Y-61595238D01*
X58333333Y-61500000D01*
X58428571Y-61452380D01*
X58619047Y-61452380D01*
X58714285Y-61500000D01*
X58809523Y-61595238D01*
X58857142Y-61785714D01*
X58857142Y-62119047D01*
X58809523Y-62309523D01*
X58714285Y-62404761D01*
X58619047Y-62452380D01*
X58428571Y-62452380D01*
X59809523Y-62452380D02*
X59238095Y-62452380D01*
X59523809Y-62452380D02*
X59523809Y-61452380D01*
X59428571Y-61595238D01*
X59333333Y-61690476D01*
X59238095Y-61738095D01*
X24238095Y-63652380D02*
X24238095Y-62652380D01*
X24238095Y-63128571D02*
X24809523Y-63128571D01*
X24809523Y-63652380D02*
X24809523Y-62652380D01*
X25190476Y-62652380D02*
X25857142Y-62652380D01*
X25428571Y-63652380D01*
X74238095Y-48652380D02*
X74238095Y-47652380D01*
X74238095Y-48128571D02*
X74809523Y-48128571D01*
X74809523Y-48652380D02*
X74809523Y-47652380D01*
X75714285Y-47652380D02*
X75523809Y-47652380D01*
X75428571Y-47700000D01*
X75380952Y-47747619D01*
X75285714Y-47890476D01*
X75238095Y-48080952D01*
X75238095Y-48461904D01*
X75285714Y-48557142D01*
X75333333Y-48604761D01*
X75428571Y-48652380D01*
X75619047Y-48652380D01*
X75714285Y-48604761D01*
X75761904Y-48557142D01*
X75809523Y-48461904D01*
X75809523Y-48223809D01*
X75761904Y-48128571D01*
X75714285Y-48080952D01*
X75619047Y-48033333D01*
X75428571Y-48033333D01*
X75333333Y-48080952D01*
X75285714Y-48128571D01*
X75238095Y-48223809D01*
X24238095Y-33652380D02*
X24238095Y-32652380D01*
X24238095Y-33128571D02*
X24809523Y-33128571D01*
X24809523Y-33652380D02*
X24809523Y-32652380D01*
X25761904Y-32652380D02*
X25285714Y-32652380D01*
X25238095Y-33128571D01*
X25285714Y-33080952D01*
X25380952Y-33033333D01*
X25619047Y-33033333D01*
X25714285Y-33080952D01*
X25761904Y-33128571D01*
X25809523Y-33223809D01*
X25809523Y-33461904D01*
X25761904Y-33557142D01*
X25714285Y-33604761D01*
X25619047Y-33652380D01*
X25380952Y-33652380D01*
X25285714Y-33604761D01*
X25238095Y-33557142D01*
X74238095Y-71252380D02*
X74238095Y-70252380D01*
X74238095Y-70728571D02*
X74809523Y-70728571D01*
X74809523Y-71252380D02*
X74809523Y-70252380D01*
X75714285Y-70585714D02*
X75714285Y-71252380D01*
X75476190Y-70204761D02*
X75238095Y-70919047D01*
X75857142Y-70919047D01*
X24238095Y-71252380D02*
X24238095Y-70252380D01*
X24238095Y-70728571D02*
X24809523Y-70728571D01*
X24809523Y-71252380D02*
X24809523Y-70252380D01*
X25190476Y-70252380D02*
X25809523Y-70252380D01*
X25476190Y-70633333D01*
X25619047Y-70633333D01*
X25714285Y-70680952D01*
X25761904Y-70728571D01*
X25809523Y-70823809D01*
X25809523Y-71061904D01*
X25761904Y-71157142D01*
X25714285Y-71204761D01*
X25619047Y-71252380D01*
X25333333Y-71252380D01*
X25238095Y-71204761D01*
X25190476Y-71157142D01*
X74238095Y-29952380D02*
X74238095Y-28952380D01*
X74238095Y-29428571D02*
X74809523Y-29428571D01*
X74809523Y-29952380D02*
X74809523Y-28952380D01*
X75238095Y-29047619D02*
X75285714Y-29000000D01*
X75380952Y-28952380D01*
X75619047Y-28952380D01*
X75714285Y-29000000D01*
X75761904Y-29047619D01*
X75809523Y-29142857D01*
X75809523Y-29238095D01*
X75761904Y-29380952D01*
X75190476Y-29952380D01*
X75809523Y-29952380D01*
X24238095Y-29952380D02*
X24238095Y-28952380D01*
X24238095Y-29428571D02*
X24809523Y-29428571D01*
X24809523Y-29952380D02*
X24809523Y-28952380D01*
X25809523Y-29952380D02*
X25238095Y-29952380D01*
X25523809Y-29952380D02*
X25523809Y-28952380D01*
X25428571Y-29095238D01*
X25333333Y-29190476D01*
X25238095Y-29238095D01*
X68952380Y-61738095D02*
X67952380Y-61738095D01*
X67952380Y-61500000D01*
X68000000Y-61357142D01*
X68095238Y-61261904D01*
X68190476Y-61214285D01*
X68380952Y-61166666D01*
X68523809Y-61166666D01*
X68714285Y-61214285D01*
X68809523Y-61261904D01*
X68904761Y-61357142D01*
X68952380Y-61500000D01*
X68952380Y-61738095D01*
X68285714Y-60309523D02*
X68952380Y-60309523D01*
X67904761Y-60547619D02*
X68619047Y-60785714D01*
X68619047Y-60166666D01*
X34061904Y-37452380D02*
X34061904Y-36452380D01*
X34300000Y-36452380D01*
X34442857Y-36500000D01*
X34538095Y-36595238D01*
X34585714Y-36690476D01*
X34633333Y-36880952D01*
X34633333Y-37023809D01*
X34585714Y-37214285D01*
X34538095Y-37309523D01*
X34442857Y-37404761D01*
X34300000Y-37452380D01*
X34061904Y-37452380D01*
X34966666Y-36452380D02*
X35585714Y-36452380D01*
X35252380Y-36833333D01*
X35395238Y-36833333D01*
X35490476Y-36880952D01*
X35538095Y-36928571D01*
X35585714Y-37023809D01*
X35585714Y-37261904D01*
X35538095Y-37357142D01*
X35490476Y-37404761D01*
X35395238Y-37452380D01*
X35109523Y-37452380D01*
X35014285Y-37404761D01*
X34966666Y-37357142D01*
X33861904Y-31452380D02*
X33861904Y-30452380D01*
X34100000Y-30452380D01*
X34242857Y-30500000D01*
X34338095Y-30595238D01*
X34385714Y-30690476D01*
X34433333Y-30880952D01*
X34433333Y-31023809D01*
X34385714Y-31214285D01*
X34338095Y-31309523D01*
X34242857Y-31404761D01*
X34100000Y-31452380D01*
X33861904Y-31452380D01*
X34814285Y-30547619D02*
X34861904Y-30500000D01*
X34957142Y-30452380D01*
X35195238Y-30452380D01*
X35290476Y-30500000D01*
X35338095Y-30547619D01*
X35385714Y-30642857D01*
X35385714Y-30738095D01*
X35338095Y-30880952D01*
X34766666Y-31452380D01*
X35385714Y-31452380D01*
X33861904Y-25452380D02*
X33861904Y-24452380D01*
X34100000Y-24452380D01*
X34242857Y-24500000D01*
X34338095Y-24595238D01*
X34385714Y-24690476D01*
X34433333Y-24880952D01*
X34433333Y-25023809D01*
X34385714Y-25214285D01*
X34338095Y-25309523D01*
X34242857Y-25404761D01*
X34100000Y-25452380D01*
X33861904Y-25452380D01*
X35385714Y-25452380D02*
X34814285Y-25452380D01*
X35100000Y-25452380D02*
X35100000Y-24452380D01*
X35004761Y-24595238D01*
X34909523Y-24690476D01*
X34814285Y-24738095D01*
X68833333Y-29857142D02*
X68785714Y-29904761D01*
X68642857Y-29952380D01*
X68547619Y-29952380D01*
X68404761Y-29904761D01*
X68309523Y-29809523D01*
X68261904Y-29714285D01*
X68214285Y-29523809D01*
X68214285Y-29380952D01*
X68261904Y-29190476D01*
X68309523Y-29095238D01*
X68404761Y-29000000D01*
X68547619Y-28952380D01*
X68642857Y-28952380D01*
X68785714Y-29000000D01*
X68833333Y-29047619D01*
X69785714Y-29952380D02*
X69214285Y-29952380D01*
X69500000Y-29952380D02*
X69500000Y-28952380D01*
X69404761Y-29095238D01*
X69309523Y-29190476D01*
X69214285Y-29238095D01*
X73169047Y-54978571D02*
X73311904Y-55026190D01*
X73359523Y-55073809D01*
X73407142Y-55169047D01*
X73407142Y-55311904D01*
X73359523Y-55407142D01*
X73311904Y-55454761D01*
X73216666Y-55502380D01*
X72835714Y-55502380D01*
X72835714Y-54502380D01*
X73169047Y-54502380D01*
X73264285Y-54550000D01*
X73311904Y-54597619D01*
X73359523Y-54692857D01*
X73359523Y-54788095D01*
X73311904Y-54883333D01*
X73264285Y-54930952D01*
X73169047Y-54978571D01*
X72835714Y-54978571D01*
X73740476Y-54502380D02*
X74407142Y-54502380D01*
X73740476Y-55502380D01*
X74407142Y-55502380D01*
X75311904Y-55502380D02*
X74740476Y-55502380D01*
X75026190Y-55502380D02*
X75026190Y-54502380D01*
X74930952Y-54645238D01*
X74835714Y-54740476D01*
X74740476Y-54788095D01*
%LPC*%
D14*
X43450000Y-34000000D03*
X38550000Y-34000000D03*
X43450000Y-32000000D03*
X38550000Y-32000000D03*
X43450000Y-30000000D03*
X38550000Y-30000000D03*
X43450000Y-28000000D03*
X38550000Y-28000000D03*
X43450000Y-26000000D03*
X38550000Y-26000000D03*
X43450000Y-24000000D03*
X38550000Y-24000000D03*
X43450000Y-22000000D03*
X38550000Y-22000000D03*
D15*
X67785000Y-44650000D03*
X67785000Y-49750000D03*
X65245000Y-44650000D03*
X65245000Y-49750000D03*
X62705000Y-44650000D03*
X62705000Y-49750000D03*
X60165000Y-44650000D03*
X60165000Y-49750000D03*
X57625000Y-44650000D03*
X57625000Y-49750000D03*
X55085000Y-44650000D03*
X55085000Y-49750000D03*
X52545000Y-44650000D03*
X52545000Y-49750000D03*
X50005000Y-44650000D03*
X50005000Y-49750000D03*
X47465000Y-44650000D03*
X47465000Y-49750000D03*
X44925000Y-44650000D03*
X44925000Y-49750000D03*
X42385000Y-44650000D03*
X42385000Y-49750000D03*
X39845000Y-44650000D03*
X39845000Y-49750000D03*
X37305000Y-44650000D03*
X37305000Y-49750000D03*
X34765000Y-44650000D03*
X34765000Y-49750000D03*
X32225000Y-44650000D03*
X32225000Y-49750000D03*
X67785000Y-72450000D03*
X67785000Y-77550000D03*
X65245000Y-72450000D03*
X65245000Y-77550000D03*
X62705000Y-72450000D03*
X62705000Y-77550000D03*
X60165000Y-72450000D03*
X60165000Y-77550000D03*
X57625000Y-72450000D03*
X57625000Y-77550000D03*
X55085000Y-72450000D03*
X55085000Y-77550000D03*
X52545000Y-72450000D03*
X52545000Y-77550000D03*
X50005000Y-72450000D03*
X50005000Y-77550000D03*
X47465000Y-72450000D03*
X47465000Y-77550000D03*
X44925000Y-72450000D03*
X44925000Y-77550000D03*
X42385000Y-72450000D03*
X42385000Y-77550000D03*
X39845000Y-72450000D03*
X39845000Y-77550000D03*
X37305000Y-72450000D03*
X37305000Y-77550000D03*
X34765000Y-72450000D03*
X34765000Y-77550000D03*
X32225000Y-72450000D03*
X32225000Y-77550000D03*
D14*
X60400000Y-34000000D03*
X55550000Y-34000000D03*
X60400000Y-32000000D03*
X55550000Y-32000000D03*
X60400000Y-30000000D03*
X55550000Y-30000000D03*
X60400000Y-28000000D03*
X55550000Y-28000000D03*
X60400000Y-26000000D03*
X55550000Y-26000000D03*
G36*
G01*
X52512500Y-66281250D02*
X52512500Y-65718750D01*
G75*
G02*
X52756250Y-65475000I243750J0D01*
G01*
X53243750Y-65475000D01*
G75*
G02*
X53487500Y-65718750I0J-243750D01*
G01*
X53487500Y-66281250D01*
G75*
G02*
X53243750Y-66525000I-243750J0D01*
G01*
X52756250Y-66525000D01*
G75*
G02*
X52512500Y-66281250I0J243750D01*
G01*
G37*
G36*
G01*
X50937500Y-66281250D02*
X50937500Y-65718750D01*
G75*
G02*
X51181250Y-65475000I243750J0D01*
G01*
X51668750Y-65475000D01*
G75*
G02*
X51912500Y-65718750I0J-243750D01*
G01*
X51912500Y-66281250D01*
G75*
G02*
X51668750Y-66525000I-243750J0D01*
G01*
X51181250Y-66525000D01*
G75*
G02*
X50937500Y-66281250I0J243750D01*
G01*
G37*
G36*
G01*
X33500000Y-40918750D02*
X33500000Y-41481250D01*
G75*
G02*
X33256250Y-41725000I-243750J0D01*
G01*
X32768750Y-41725000D01*
G75*
G02*
X32525000Y-41481250I0J243750D01*
G01*
X32525000Y-40918750D01*
G75*
G02*
X32768750Y-40675000I243750J0D01*
G01*
X33256250Y-40675000D01*
G75*
G02*
X33500000Y-40918750I0J-243750D01*
G01*
G37*
G36*
G01*
X35075000Y-40918750D02*
X35075000Y-41481250D01*
G75*
G02*
X34831250Y-41725000I-243750J0D01*
G01*
X34343750Y-41725000D01*
G75*
G02*
X34100000Y-41481250I0J243750D01*
G01*
X34100000Y-40918750D01*
G75*
G02*
X34343750Y-40675000I243750J0D01*
G01*
X34831250Y-40675000D01*
G75*
G02*
X35075000Y-40918750I0J-243750D01*
G01*
G37*
G36*
G01*
X33500000Y-38918750D02*
X33500000Y-39481250D01*
G75*
G02*
X33256250Y-39725000I-243750J0D01*
G01*
X32768750Y-39725000D01*
G75*
G02*
X32525000Y-39481250I0J243750D01*
G01*
X32525000Y-38918750D01*
G75*
G02*
X32768750Y-38675000I243750J0D01*
G01*
X33256250Y-38675000D01*
G75*
G02*
X33500000Y-38918750I0J-243750D01*
G01*
G37*
G36*
G01*
X35075000Y-38918750D02*
X35075000Y-39481250D01*
G75*
G02*
X34831250Y-39725000I-243750J0D01*
G01*
X34343750Y-39725000D01*
G75*
G02*
X34100000Y-39481250I0J243750D01*
G01*
X34100000Y-38918750D01*
G75*
G02*
X34343750Y-38675000I243750J0D01*
G01*
X34831250Y-38675000D01*
G75*
G02*
X35075000Y-38918750I0J-243750D01*
G01*
G37*
G36*
G01*
X33500000Y-34518750D02*
X33500000Y-35081250D01*
G75*
G02*
X33256250Y-35325000I-243750J0D01*
G01*
X32768750Y-35325000D01*
G75*
G02*
X32525000Y-35081250I0J243750D01*
G01*
X32525000Y-34518750D01*
G75*
G02*
X32768750Y-34275000I243750J0D01*
G01*
X33256250Y-34275000D01*
G75*
G02*
X33500000Y-34518750I0J-243750D01*
G01*
G37*
G36*
G01*
X35075000Y-34518750D02*
X35075000Y-35081250D01*
G75*
G02*
X34831250Y-35325000I-243750J0D01*
G01*
X34343750Y-35325000D01*
G75*
G02*
X34100000Y-35081250I0J243750D01*
G01*
X34100000Y-34518750D01*
G75*
G02*
X34343750Y-34275000I243750J0D01*
G01*
X34831250Y-34275000D01*
G75*
G02*
X35075000Y-34518750I0J-243750D01*
G01*
G37*
G36*
G01*
X33500000Y-32518750D02*
X33500000Y-33081250D01*
G75*
G02*
X33256250Y-33325000I-243750J0D01*
G01*
X32768750Y-33325000D01*
G75*
G02*
X32525000Y-33081250I0J243750D01*
G01*
X32525000Y-32518750D01*
G75*
G02*
X32768750Y-32275000I243750J0D01*
G01*
X33256250Y-32275000D01*
G75*
G02*
X33500000Y-32518750I0J-243750D01*
G01*
G37*
G36*
G01*
X35075000Y-32518750D02*
X35075000Y-33081250D01*
G75*
G02*
X34831250Y-33325000I-243750J0D01*
G01*
X34343750Y-33325000D01*
G75*
G02*
X34100000Y-33081250I0J243750D01*
G01*
X34100000Y-32518750D01*
G75*
G02*
X34343750Y-32275000I243750J0D01*
G01*
X34831250Y-32275000D01*
G75*
G02*
X35075000Y-32518750I0J-243750D01*
G01*
G37*
G36*
G01*
X33300000Y-26718750D02*
X33300000Y-27281250D01*
G75*
G02*
X33056250Y-27525000I-243750J0D01*
G01*
X32568750Y-27525000D01*
G75*
G02*
X32325000Y-27281250I0J243750D01*
G01*
X32325000Y-26718750D01*
G75*
G02*
X32568750Y-26475000I243750J0D01*
G01*
X33056250Y-26475000D01*
G75*
G02*
X33300000Y-26718750I0J-243750D01*
G01*
G37*
G36*
G01*
X34875000Y-26718750D02*
X34875000Y-27281250D01*
G75*
G02*
X34631250Y-27525000I-243750J0D01*
G01*
X34143750Y-27525000D01*
G75*
G02*
X33900000Y-27281250I0J243750D01*
G01*
X33900000Y-26718750D01*
G75*
G02*
X34143750Y-26475000I243750J0D01*
G01*
X34631250Y-26475000D01*
G75*
G02*
X34875000Y-26718750I0J-243750D01*
G01*
G37*
D16*
X59000000Y-64000000D03*
X59950000Y-66000000D03*
X58050000Y-66000000D03*
D17*
X25000000Y-65000000D03*
X75000000Y-50000000D03*
X25000000Y-35000000D03*
D18*
X75000000Y-75000000D03*
X25000000Y-75000000D03*
X75000000Y-25000000D03*
X25000000Y-25000000D03*
D19*
X66000000Y-63000000D03*
X66000000Y-59000000D03*
G36*
G01*
X32400000Y-37481250D02*
X32400000Y-36518750D01*
G75*
G02*
X32668750Y-36250000I268750J0D01*
G01*
X33206250Y-36250000D01*
G75*
G02*
X33475000Y-36518750I0J-268750D01*
G01*
X33475000Y-37481250D01*
G75*
G02*
X33206250Y-37750000I-268750J0D01*
G01*
X32668750Y-37750000D01*
G75*
G02*
X32400000Y-37481250I0J268750D01*
G01*
G37*
G36*
G01*
X30525000Y-37481250D02*
X30525000Y-36518750D01*
G75*
G02*
X30793750Y-36250000I268750J0D01*
G01*
X31331250Y-36250000D01*
G75*
G02*
X31600000Y-36518750I0J-268750D01*
G01*
X31600000Y-37481250D01*
G75*
G02*
X31331250Y-37750000I-268750J0D01*
G01*
X30793750Y-37750000D01*
G75*
G02*
X30525000Y-37481250I0J268750D01*
G01*
G37*
G36*
G01*
X32300000Y-31281250D02*
X32300000Y-30718750D01*
G75*
G02*
X32543750Y-30475000I243750J0D01*
G01*
X33031250Y-30475000D01*
G75*
G02*
X33275000Y-30718750I0J-243750D01*
G01*
X33275000Y-31281250D01*
G75*
G02*
X33031250Y-31525000I-243750J0D01*
G01*
X32543750Y-31525000D01*
G75*
G02*
X32300000Y-31281250I0J243750D01*
G01*
G37*
G36*
G01*
X30725000Y-31281250D02*
X30725000Y-30718750D01*
G75*
G02*
X30968750Y-30475000I243750J0D01*
G01*
X31456250Y-30475000D01*
G75*
G02*
X31700000Y-30718750I0J-243750D01*
G01*
X31700000Y-31281250D01*
G75*
G02*
X31456250Y-31525000I-243750J0D01*
G01*
X30968750Y-31525000D01*
G75*
G02*
X30725000Y-31281250I0J243750D01*
G01*
G37*
G36*
G01*
X32300000Y-25281250D02*
X32300000Y-24718750D01*
G75*
G02*
X32543750Y-24475000I243750J0D01*
G01*
X33031250Y-24475000D01*
G75*
G02*
X33275000Y-24718750I0J-243750D01*
G01*
X33275000Y-25281250D01*
G75*
G02*
X33031250Y-25525000I-243750J0D01*
G01*
X32543750Y-25525000D01*
G75*
G02*
X32300000Y-25281250I0J243750D01*
G01*
G37*
G36*
G01*
X30725000Y-25281250D02*
X30725000Y-24718750D01*
G75*
G02*
X30968750Y-24475000I243750J0D01*
G01*
X31456250Y-24475000D01*
G75*
G02*
X31700000Y-24718750I0J-243750D01*
G01*
X31700000Y-25281250D01*
G75*
G02*
X31456250Y-25525000I-243750J0D01*
G01*
X30968750Y-25525000D01*
G75*
G02*
X30725000Y-25281250I0J243750D01*
G01*
G37*
G36*
G01*
X73950000Y-37040000D02*
X73950000Y-34960000D01*
G75*
G02*
X74210000Y-34700000I260000J0D01*
G01*
X78190000Y-34700000D01*
G75*
G02*
X78450000Y-34960000I0J-260000D01*
G01*
X78450000Y-37040000D01*
G75*
G02*
X78190000Y-37300000I-260000J0D01*
G01*
X74210000Y-37300000D01*
G75*
G02*
X73950000Y-37040000I0J260000D01*
G01*
G37*
G36*
G01*
X65550000Y-37040000D02*
X65550000Y-34960000D01*
G75*
G02*
X65810000Y-34700000I260000J0D01*
G01*
X69790000Y-34700000D01*
G75*
G02*
X70050000Y-34960000I0J-260000D01*
G01*
X70050000Y-37040000D01*
G75*
G02*
X69790000Y-37300000I-260000J0D01*
G01*
X65810000Y-37300000D01*
G75*
G02*
X65550000Y-37040000I0J260000D01*
G01*
G37*
D20*
X70450000Y-64550000D03*
X77550000Y-64550000D03*
X77550000Y-57450000D03*
X70450000Y-57450000D03*
M02*
