%TF.GenerationSoftware,KiCad,Pcbnew,(5.1.6)-1*%
%TF.CreationDate,2023-06-16T12:25:10-07:00*%
%TF.ProjectId,ID-12 Board,49442d31-3220-4426-9f61-72642e6b6963,rev?*%
%TF.SameCoordinates,Original*%
%TF.FileFunction,Legend,Bot*%
%TF.FilePolarity,Positive*%
%FSLAX46Y46*%
G04 Gerber Fmt 4.6, Leading zero omitted, Abs format (unit mm)*
G04 Created by KiCad (PCBNEW (5.1.6)-1) date 2023-06-16 12:25:10*
%MOMM*%
%LPD*%
G01*
G04 APERTURE LIST*
%ADD10C,0.150000*%
%ADD11C,1.252000*%
%ADD12C,3.300000*%
G04 APERTURE END LIST*
D10*
X67214285Y-68452380D02*
X67214285Y-67452380D01*
X66976190Y-67452380D01*
X66833333Y-67500000D01*
X66738095Y-67595238D01*
X66690476Y-67690476D01*
X66642857Y-67880952D01*
X66642857Y-68023809D01*
X66690476Y-68214285D01*
X66738095Y-68309523D01*
X66833333Y-68404761D01*
X66976190Y-68452380D01*
X67214285Y-68452380D01*
X65833333Y-68404761D02*
X65928571Y-68452380D01*
X66119047Y-68452380D01*
X66214285Y-68404761D01*
X66261904Y-68309523D01*
X66261904Y-67928571D01*
X66214285Y-67833333D01*
X66119047Y-67785714D01*
X65928571Y-67785714D01*
X65833333Y-67833333D01*
X65785714Y-67928571D01*
X65785714Y-68023809D01*
X66261904Y-68119047D01*
X65404761Y-68404761D02*
X65309523Y-68452380D01*
X65119047Y-68452380D01*
X65023809Y-68404761D01*
X64976190Y-68309523D01*
X64976190Y-68261904D01*
X65023809Y-68166666D01*
X65119047Y-68119047D01*
X65261904Y-68119047D01*
X65357142Y-68071428D01*
X65404761Y-67976190D01*
X65404761Y-67928571D01*
X65357142Y-67833333D01*
X65261904Y-67785714D01*
X65119047Y-67785714D01*
X65023809Y-67833333D01*
X64547619Y-68452380D02*
X64547619Y-67785714D01*
X64547619Y-67452380D02*
X64595238Y-67500000D01*
X64547619Y-67547619D01*
X64500000Y-67500000D01*
X64547619Y-67452380D01*
X64547619Y-67547619D01*
X63642857Y-67785714D02*
X63642857Y-68595238D01*
X63690476Y-68690476D01*
X63738095Y-68738095D01*
X63833333Y-68785714D01*
X63976190Y-68785714D01*
X64071428Y-68738095D01*
X63642857Y-68404761D02*
X63738095Y-68452380D01*
X63928571Y-68452380D01*
X64023809Y-68404761D01*
X64071428Y-68357142D01*
X64119047Y-68261904D01*
X64119047Y-67976190D01*
X64071428Y-67880952D01*
X64023809Y-67833333D01*
X63928571Y-67785714D01*
X63738095Y-67785714D01*
X63642857Y-67833333D01*
X63166666Y-67785714D02*
X63166666Y-68452380D01*
X63166666Y-67880952D02*
X63119047Y-67833333D01*
X63023809Y-67785714D01*
X62880952Y-67785714D01*
X62785714Y-67833333D01*
X62738095Y-67928571D01*
X62738095Y-68452380D01*
X61880952Y-68404761D02*
X61976190Y-68452380D01*
X62166666Y-68452380D01*
X62261904Y-68404761D01*
X62309523Y-68309523D01*
X62309523Y-67928571D01*
X62261904Y-67833333D01*
X62166666Y-67785714D01*
X61976190Y-67785714D01*
X61880952Y-67833333D01*
X61833333Y-67928571D01*
X61833333Y-68023809D01*
X62309523Y-68119047D01*
X60976190Y-68452380D02*
X60976190Y-67452380D01*
X60976190Y-68404761D02*
X61071428Y-68452380D01*
X61261904Y-68452380D01*
X61357142Y-68404761D01*
X61404761Y-68357142D01*
X61452380Y-68261904D01*
X61452380Y-67976190D01*
X61404761Y-67880952D01*
X61357142Y-67833333D01*
X61261904Y-67785714D01*
X61071428Y-67785714D01*
X60976190Y-67833333D01*
X59738095Y-68452380D02*
X59738095Y-67452380D01*
X59738095Y-67833333D02*
X59642857Y-67785714D01*
X59452380Y-67785714D01*
X59357142Y-67833333D01*
X59309523Y-67880952D01*
X59261904Y-67976190D01*
X59261904Y-68261904D01*
X59309523Y-68357142D01*
X59357142Y-68404761D01*
X59452380Y-68452380D01*
X59642857Y-68452380D01*
X59738095Y-68404761D01*
X58928571Y-67785714D02*
X58690476Y-68452380D01*
X58452380Y-67785714D02*
X58690476Y-68452380D01*
X58785714Y-68690476D01*
X58833333Y-68738095D01*
X58928571Y-68785714D01*
X57309523Y-67785714D02*
X57309523Y-68785714D01*
X57309523Y-67833333D02*
X57214285Y-67785714D01*
X57023809Y-67785714D01*
X56928571Y-67833333D01*
X56880952Y-67880952D01*
X56833333Y-67976190D01*
X56833333Y-68261904D01*
X56880952Y-68357142D01*
X56928571Y-68404761D01*
X57023809Y-68452380D01*
X57214285Y-68452380D01*
X57309523Y-68404761D01*
X56404761Y-68452380D02*
X56404761Y-67785714D01*
X56404761Y-67976190D02*
X56357142Y-67880952D01*
X56309523Y-67833333D01*
X56214285Y-67785714D01*
X56119047Y-67785714D01*
X55642857Y-68452380D02*
X55738095Y-68404761D01*
X55785714Y-68357142D01*
X55833333Y-68261904D01*
X55833333Y-67976190D01*
X55785714Y-67880952D01*
X55738095Y-67833333D01*
X55642857Y-67785714D01*
X55500000Y-67785714D01*
X55404761Y-67833333D01*
X55357142Y-67880952D01*
X55309523Y-67976190D01*
X55309523Y-68261904D01*
X55357142Y-68357142D01*
X55404761Y-68404761D01*
X55500000Y-68452380D01*
X55642857Y-68452380D01*
X54880952Y-68452380D02*
X54880952Y-67452380D01*
X54880952Y-67833333D02*
X54785714Y-67785714D01*
X54595238Y-67785714D01*
X54500000Y-67833333D01*
X54452380Y-67880952D01*
X54404761Y-67976190D01*
X54404761Y-68261904D01*
X54452380Y-68357142D01*
X54500000Y-68404761D01*
X54595238Y-68452380D01*
X54785714Y-68452380D01*
X54880952Y-68404761D01*
X53547619Y-68452380D02*
X53547619Y-67928571D01*
X53595238Y-67833333D01*
X53690476Y-67785714D01*
X53880952Y-67785714D01*
X53976190Y-67833333D01*
X53547619Y-68404761D02*
X53642857Y-68452380D01*
X53880952Y-68452380D01*
X53976190Y-68404761D01*
X54023809Y-68309523D01*
X54023809Y-68214285D01*
X53976190Y-68119047D01*
X53880952Y-68071428D01*
X53642857Y-68071428D01*
X53547619Y-68023809D01*
X53071428Y-68452380D02*
X53071428Y-67452380D01*
X53071428Y-67833333D02*
X52976190Y-67785714D01*
X52785714Y-67785714D01*
X52690476Y-67833333D01*
X52642857Y-67880952D01*
X52595238Y-67976190D01*
X52595238Y-68261904D01*
X52642857Y-68357142D01*
X52690476Y-68404761D01*
X52785714Y-68452380D01*
X52976190Y-68452380D01*
X53071428Y-68404761D01*
X52023809Y-68452380D02*
X52119047Y-68404761D01*
X52166666Y-68309523D01*
X52166666Y-67452380D01*
X51738095Y-67785714D02*
X51500000Y-68452380D01*
X51261904Y-67785714D02*
X51500000Y-68452380D01*
X51595238Y-68690476D01*
X51642857Y-68738095D01*
X51738095Y-68785714D01*
X50452380Y-68452380D02*
X50452380Y-67928571D01*
X50500000Y-67833333D01*
X50595238Y-67785714D01*
X50785714Y-67785714D01*
X50880952Y-67833333D01*
X50452380Y-68404761D02*
X50547619Y-68452380D01*
X50785714Y-68452380D01*
X50880952Y-68404761D01*
X50928571Y-68309523D01*
X50928571Y-68214285D01*
X50880952Y-68119047D01*
X50785714Y-68071428D01*
X50547619Y-68071428D01*
X50452380Y-68023809D01*
X49976190Y-67785714D02*
X49976190Y-68452380D01*
X49976190Y-67880952D02*
X49928571Y-67833333D01*
X49833333Y-67785714D01*
X49690476Y-67785714D01*
X49595238Y-67833333D01*
X49547619Y-67928571D01*
X49547619Y-68452380D01*
X48642857Y-68452380D02*
X48642857Y-67928571D01*
X48690476Y-67833333D01*
X48785714Y-67785714D01*
X48976190Y-67785714D01*
X49071428Y-67833333D01*
X48642857Y-68404761D02*
X48738095Y-68452380D01*
X48976190Y-68452380D01*
X49071428Y-68404761D01*
X49119047Y-68309523D01*
X49119047Y-68214285D01*
X49071428Y-68119047D01*
X48976190Y-68071428D01*
X48738095Y-68071428D01*
X48642857Y-68023809D01*
X48214285Y-68404761D02*
X48119047Y-68452380D01*
X47928571Y-68452380D01*
X47833333Y-68404761D01*
X47785714Y-68309523D01*
X47785714Y-68261904D01*
X47833333Y-68166666D01*
X47928571Y-68119047D01*
X48071428Y-68119047D01*
X48166666Y-68071428D01*
X48214285Y-67976190D01*
X48214285Y-67928571D01*
X48166666Y-67833333D01*
X48071428Y-67785714D01*
X47928571Y-67785714D01*
X47833333Y-67833333D01*
X47357142Y-68452380D02*
X47357142Y-67785714D01*
X47357142Y-67452380D02*
X47404761Y-67500000D01*
X47357142Y-67547619D01*
X47309523Y-67500000D01*
X47357142Y-67452380D01*
X47357142Y-67547619D01*
X46452380Y-68452380D02*
X46452380Y-67928571D01*
X46500000Y-67833333D01*
X46595238Y-67785714D01*
X46785714Y-67785714D01*
X46880952Y-67833333D01*
X46452380Y-68404761D02*
X46547619Y-68452380D01*
X46785714Y-68452380D01*
X46880952Y-68404761D01*
X46928571Y-68309523D01*
X46928571Y-68214285D01*
X46880952Y-68119047D01*
X46785714Y-68071428D01*
X46547619Y-68071428D01*
X46452380Y-68023809D01*
X45976190Y-67785714D02*
X45976190Y-68452380D01*
X45976190Y-67880952D02*
X45928571Y-67833333D01*
X45833333Y-67785714D01*
X45690476Y-67785714D01*
X45595238Y-67833333D01*
X45547619Y-67928571D01*
X45547619Y-68452380D01*
X44452380Y-67785714D02*
X44071428Y-67785714D01*
X44309523Y-68452380D02*
X44309523Y-67595238D01*
X44261904Y-67500000D01*
X44166666Y-67452380D01*
X44071428Y-67452380D01*
X43595238Y-68452380D02*
X43690476Y-68404761D01*
X43738095Y-68357142D01*
X43785714Y-68261904D01*
X43785714Y-67976190D01*
X43738095Y-67880952D01*
X43690476Y-67833333D01*
X43595238Y-67785714D01*
X43452380Y-67785714D01*
X43357142Y-67833333D01*
X43309523Y-67880952D01*
X43261904Y-67976190D01*
X43261904Y-68261904D01*
X43309523Y-68357142D01*
X43357142Y-68404761D01*
X43452380Y-68452380D01*
X43595238Y-68452380D01*
X42833333Y-68452380D02*
X42833333Y-67785714D01*
X42833333Y-67976190D02*
X42785714Y-67880952D01*
X42738095Y-67833333D01*
X42642857Y-67785714D01*
X42547619Y-67785714D01*
X41452380Y-68452380D02*
X41452380Y-67452380D01*
X40976190Y-67785714D02*
X40976190Y-68452380D01*
X40976190Y-67880952D02*
X40928571Y-67833333D01*
X40833333Y-67785714D01*
X40690476Y-67785714D01*
X40595238Y-67833333D01*
X40547619Y-67928571D01*
X40547619Y-68452380D01*
X40071428Y-67785714D02*
X40071428Y-68452380D01*
X40071428Y-67880952D02*
X40023809Y-67833333D01*
X39928571Y-67785714D01*
X39785714Y-67785714D01*
X39690476Y-67833333D01*
X39642857Y-67928571D01*
X39642857Y-68452380D01*
X38785714Y-68404761D02*
X38880952Y-68452380D01*
X39071428Y-68452380D01*
X39166666Y-68404761D01*
X39214285Y-68309523D01*
X39214285Y-67928571D01*
X39166666Y-67833333D01*
X39071428Y-67785714D01*
X38880952Y-67785714D01*
X38785714Y-67833333D01*
X38738095Y-67928571D01*
X38738095Y-68023809D01*
X39214285Y-68119047D01*
X38404761Y-68452380D02*
X37880952Y-67785714D01*
X38404761Y-67785714D02*
X37880952Y-68452380D01*
X37071428Y-67785714D02*
X37071428Y-68595238D01*
X37119047Y-68690476D01*
X37166666Y-68738095D01*
X37261904Y-68785714D01*
X37404761Y-68785714D01*
X37500000Y-68738095D01*
X37071428Y-68404761D02*
X37166666Y-68452380D01*
X37357142Y-68452380D01*
X37452380Y-68404761D01*
X37500000Y-68357142D01*
X37547619Y-68261904D01*
X37547619Y-67976190D01*
X37500000Y-67880952D01*
X37452380Y-67833333D01*
X37357142Y-67785714D01*
X37166666Y-67785714D01*
X37071428Y-67833333D01*
X36452380Y-68452380D02*
X36547619Y-68404761D01*
X36595238Y-68357142D01*
X36642857Y-68261904D01*
X36642857Y-67976190D01*
X36595238Y-67880952D01*
X36547619Y-67833333D01*
X36452380Y-67785714D01*
X36309523Y-67785714D01*
X36214285Y-67833333D01*
X36166666Y-67880952D01*
X36119047Y-67976190D01*
X36119047Y-68261904D01*
X36166666Y-68357142D01*
X36214285Y-68404761D01*
X36309523Y-68452380D01*
X36452380Y-68452380D01*
X34452380Y-68452380D02*
X34928571Y-68452380D01*
X34928571Y-67452380D01*
X33642857Y-68452380D02*
X34119047Y-68452380D01*
X34119047Y-67452380D01*
X32738095Y-68357142D02*
X32785714Y-68404761D01*
X32928571Y-68452380D01*
X33023809Y-68452380D01*
X33166666Y-68404761D01*
X33261904Y-68309523D01*
X33309523Y-68214285D01*
X33357142Y-68023809D01*
X33357142Y-67880952D01*
X33309523Y-67690476D01*
X33261904Y-67595238D01*
X33166666Y-67500000D01*
X33023809Y-67452380D01*
X32928571Y-67452380D01*
X32785714Y-67500000D01*
X32738095Y-67547619D01*
X78000000Y-67178571D02*
X77500000Y-68678571D01*
X77000000Y-67178571D01*
X75714285Y-68678571D02*
X76571428Y-68678571D01*
X76142857Y-68678571D02*
X76142857Y-67178571D01*
X76285714Y-67392857D01*
X76428571Y-67535714D01*
X76571428Y-67607142D01*
X75071428Y-68535714D02*
X75000000Y-68607142D01*
X75071428Y-68678571D01*
X75142857Y-68607142D01*
X75071428Y-68535714D01*
X75071428Y-68678571D01*
X74071428Y-67178571D02*
X73928571Y-67178571D01*
X73785714Y-67250000D01*
X73714285Y-67321428D01*
X73642857Y-67464285D01*
X73571428Y-67750000D01*
X73571428Y-68107142D01*
X73642857Y-68392857D01*
X73714285Y-68535714D01*
X73785714Y-68607142D01*
X73928571Y-68678571D01*
X74071428Y-68678571D01*
X74214285Y-68607142D01*
X74285714Y-68535714D01*
X74357142Y-68392857D01*
X74428571Y-68107142D01*
X74428571Y-67750000D01*
X74357142Y-67464285D01*
X74285714Y-67321428D01*
X74214285Y-67250000D01*
X74071428Y-67178571D01*
X72142857Y-68678571D02*
X73000000Y-68678571D01*
X72571428Y-68678571D02*
X72571428Y-67178571D01*
X72714285Y-67392857D01*
X72857142Y-67535714D01*
X73000000Y-67607142D01*
%LPC*%
D11*
X25000000Y-65000000D03*
X75000000Y-50000000D03*
X25000000Y-35000000D03*
D12*
X75000000Y-75000000D03*
X25000000Y-75000000D03*
X75000000Y-25000000D03*
X25000000Y-25000000D03*
M02*
