G04 #@! TF.GenerationSoftware,KiCad,Pcbnew,(5.1.6)-1*
G04 #@! TF.CreationDate,2022-02-06T18:42:46-08:00*
G04 #@! TF.ProjectId,MFRC522 PCB ESP32,4d465243-3532-4322-9050-434220455350,rev?*
G04 #@! TF.SameCoordinates,Original*
G04 #@! TF.FileFunction,Soldermask,Bot*
G04 #@! TF.FilePolarity,Negative*
%FSLAX46Y46*%
G04 Gerber Fmt 4.6, Leading zero omitted, Abs format (unit mm)*
G04 Created by KiCad (PCBNEW (5.1.6)-1) date 2022-02-06 18:42:46*
%MOMM*%
%LPD*%
G01*
G04 APERTURE LIST*
%ADD10C,0.100000*%
G04 APERTURE END LIST*
D10*
G36*
X193001000Y-122601000D02*
G01*
X190999000Y-122601000D01*
X190999000Y-120599000D01*
X193001000Y-120599000D01*
X193001000Y-122601000D01*
G37*
G36*
X225215285Y-120618234D02*
G01*
X225311981Y-120637468D01*
X225494151Y-120712926D01*
X225658100Y-120822473D01*
X225797527Y-120961900D01*
X225907074Y-121125849D01*
X225982532Y-121308019D01*
X226021000Y-121501410D01*
X226021000Y-121698590D01*
X225982532Y-121891981D01*
X225907074Y-122074151D01*
X225797527Y-122238100D01*
X225658100Y-122377527D01*
X225494151Y-122487074D01*
X225311981Y-122562532D01*
X225215285Y-122581766D01*
X225118591Y-122601000D01*
X224921409Y-122601000D01*
X224824715Y-122581766D01*
X224728019Y-122562532D01*
X224545849Y-122487074D01*
X224381900Y-122377527D01*
X224242473Y-122238100D01*
X224132926Y-122074151D01*
X224057468Y-121891981D01*
X224019000Y-121698590D01*
X224019000Y-121501410D01*
X224057468Y-121308019D01*
X224132926Y-121125849D01*
X224242473Y-120961900D01*
X224381900Y-120822473D01*
X224545849Y-120712926D01*
X224728019Y-120637468D01*
X224824715Y-120618234D01*
X224921409Y-120599000D01*
X225118591Y-120599000D01*
X225215285Y-120618234D01*
G37*
G36*
X227755285Y-120618234D02*
G01*
X227851981Y-120637468D01*
X228034151Y-120712926D01*
X228198100Y-120822473D01*
X228337527Y-120961900D01*
X228447074Y-121125849D01*
X228522532Y-121308019D01*
X228561000Y-121501410D01*
X228561000Y-121698590D01*
X228522532Y-121891981D01*
X228447074Y-122074151D01*
X228337527Y-122238100D01*
X228198100Y-122377527D01*
X228034151Y-122487074D01*
X227851981Y-122562532D01*
X227755285Y-122581766D01*
X227658591Y-122601000D01*
X227461409Y-122601000D01*
X227364715Y-122581766D01*
X227268019Y-122562532D01*
X227085849Y-122487074D01*
X226921900Y-122377527D01*
X226782473Y-122238100D01*
X226672926Y-122074151D01*
X226597468Y-121891981D01*
X226559000Y-121698590D01*
X226559000Y-121501410D01*
X226597468Y-121308019D01*
X226672926Y-121125849D01*
X226782473Y-120961900D01*
X226921900Y-120822473D01*
X227085849Y-120712926D01*
X227268019Y-120637468D01*
X227364715Y-120618234D01*
X227461409Y-120599000D01*
X227658591Y-120599000D01*
X227755285Y-120618234D01*
G37*
G36*
X222675285Y-120618234D02*
G01*
X222771981Y-120637468D01*
X222954151Y-120712926D01*
X223118100Y-120822473D01*
X223257527Y-120961900D01*
X223367074Y-121125849D01*
X223442532Y-121308019D01*
X223481000Y-121501410D01*
X223481000Y-121698590D01*
X223442532Y-121891981D01*
X223367074Y-122074151D01*
X223257527Y-122238100D01*
X223118100Y-122377527D01*
X222954151Y-122487074D01*
X222771981Y-122562532D01*
X222675285Y-122581766D01*
X222578591Y-122601000D01*
X222381409Y-122601000D01*
X222284715Y-122581766D01*
X222188019Y-122562532D01*
X222005849Y-122487074D01*
X221841900Y-122377527D01*
X221702473Y-122238100D01*
X221592926Y-122074151D01*
X221517468Y-121891981D01*
X221479000Y-121698590D01*
X221479000Y-121501410D01*
X221517468Y-121308019D01*
X221592926Y-121125849D01*
X221702473Y-120961900D01*
X221841900Y-120822473D01*
X222005849Y-120712926D01*
X222188019Y-120637468D01*
X222284715Y-120618234D01*
X222381409Y-120599000D01*
X222578591Y-120599000D01*
X222675285Y-120618234D01*
G37*
G36*
X220135285Y-120618234D02*
G01*
X220231981Y-120637468D01*
X220414151Y-120712926D01*
X220578100Y-120822473D01*
X220717527Y-120961900D01*
X220827074Y-121125849D01*
X220902532Y-121308019D01*
X220941000Y-121501410D01*
X220941000Y-121698590D01*
X220902532Y-121891981D01*
X220827074Y-122074151D01*
X220717527Y-122238100D01*
X220578100Y-122377527D01*
X220414151Y-122487074D01*
X220231981Y-122562532D01*
X220135285Y-122581766D01*
X220038591Y-122601000D01*
X219841409Y-122601000D01*
X219744715Y-122581766D01*
X219648019Y-122562532D01*
X219465849Y-122487074D01*
X219301900Y-122377527D01*
X219162473Y-122238100D01*
X219052926Y-122074151D01*
X218977468Y-121891981D01*
X218939000Y-121698590D01*
X218939000Y-121501410D01*
X218977468Y-121308019D01*
X219052926Y-121125849D01*
X219162473Y-120961900D01*
X219301900Y-120822473D01*
X219465849Y-120712926D01*
X219648019Y-120637468D01*
X219744715Y-120618234D01*
X219841409Y-120599000D01*
X220038591Y-120599000D01*
X220135285Y-120618234D01*
G37*
G36*
X217595285Y-120618234D02*
G01*
X217691981Y-120637468D01*
X217874151Y-120712926D01*
X218038100Y-120822473D01*
X218177527Y-120961900D01*
X218287074Y-121125849D01*
X218362532Y-121308019D01*
X218401000Y-121501410D01*
X218401000Y-121698590D01*
X218362532Y-121891981D01*
X218287074Y-122074151D01*
X218177527Y-122238100D01*
X218038100Y-122377527D01*
X217874151Y-122487074D01*
X217691981Y-122562532D01*
X217595285Y-122581766D01*
X217498591Y-122601000D01*
X217301409Y-122601000D01*
X217204715Y-122581766D01*
X217108019Y-122562532D01*
X216925849Y-122487074D01*
X216761900Y-122377527D01*
X216622473Y-122238100D01*
X216512926Y-122074151D01*
X216437468Y-121891981D01*
X216399000Y-121698590D01*
X216399000Y-121501410D01*
X216437468Y-121308019D01*
X216512926Y-121125849D01*
X216622473Y-120961900D01*
X216761900Y-120822473D01*
X216925849Y-120712926D01*
X217108019Y-120637468D01*
X217204715Y-120618234D01*
X217301409Y-120599000D01*
X217498591Y-120599000D01*
X217595285Y-120618234D01*
G37*
G36*
X215055285Y-120618234D02*
G01*
X215151981Y-120637468D01*
X215334151Y-120712926D01*
X215498100Y-120822473D01*
X215637527Y-120961900D01*
X215747074Y-121125849D01*
X215822532Y-121308019D01*
X215861000Y-121501410D01*
X215861000Y-121698590D01*
X215822532Y-121891981D01*
X215747074Y-122074151D01*
X215637527Y-122238100D01*
X215498100Y-122377527D01*
X215334151Y-122487074D01*
X215151981Y-122562532D01*
X215055285Y-122581766D01*
X214958591Y-122601000D01*
X214761409Y-122601000D01*
X214664715Y-122581766D01*
X214568019Y-122562532D01*
X214385849Y-122487074D01*
X214221900Y-122377527D01*
X214082473Y-122238100D01*
X213972926Y-122074151D01*
X213897468Y-121891981D01*
X213859000Y-121698590D01*
X213859000Y-121501410D01*
X213897468Y-121308019D01*
X213972926Y-121125849D01*
X214082473Y-120961900D01*
X214221900Y-120822473D01*
X214385849Y-120712926D01*
X214568019Y-120637468D01*
X214664715Y-120618234D01*
X214761409Y-120599000D01*
X214958591Y-120599000D01*
X215055285Y-120618234D01*
G37*
G36*
X212515285Y-120618234D02*
G01*
X212611981Y-120637468D01*
X212794151Y-120712926D01*
X212958100Y-120822473D01*
X213097527Y-120961900D01*
X213207074Y-121125849D01*
X213282532Y-121308019D01*
X213321000Y-121501410D01*
X213321000Y-121698590D01*
X213282532Y-121891981D01*
X213207074Y-122074151D01*
X213097527Y-122238100D01*
X212958100Y-122377527D01*
X212794151Y-122487074D01*
X212611981Y-122562532D01*
X212515285Y-122581766D01*
X212418591Y-122601000D01*
X212221409Y-122601000D01*
X212124715Y-122581766D01*
X212028019Y-122562532D01*
X211845849Y-122487074D01*
X211681900Y-122377527D01*
X211542473Y-122238100D01*
X211432926Y-122074151D01*
X211357468Y-121891981D01*
X211319000Y-121698590D01*
X211319000Y-121501410D01*
X211357468Y-121308019D01*
X211432926Y-121125849D01*
X211542473Y-120961900D01*
X211681900Y-120822473D01*
X211845849Y-120712926D01*
X212028019Y-120637468D01*
X212124715Y-120618234D01*
X212221409Y-120599000D01*
X212418591Y-120599000D01*
X212515285Y-120618234D01*
G37*
G36*
X207435285Y-120618234D02*
G01*
X207531981Y-120637468D01*
X207714151Y-120712926D01*
X207878100Y-120822473D01*
X208017527Y-120961900D01*
X208127074Y-121125849D01*
X208202532Y-121308019D01*
X208241000Y-121501410D01*
X208241000Y-121698590D01*
X208202532Y-121891981D01*
X208127074Y-122074151D01*
X208017527Y-122238100D01*
X207878100Y-122377527D01*
X207714151Y-122487074D01*
X207531981Y-122562532D01*
X207435285Y-122581766D01*
X207338591Y-122601000D01*
X207141409Y-122601000D01*
X207044715Y-122581766D01*
X206948019Y-122562532D01*
X206765849Y-122487074D01*
X206601900Y-122377527D01*
X206462473Y-122238100D01*
X206352926Y-122074151D01*
X206277468Y-121891981D01*
X206239000Y-121698590D01*
X206239000Y-121501410D01*
X206277468Y-121308019D01*
X206352926Y-121125849D01*
X206462473Y-120961900D01*
X206601900Y-120822473D01*
X206765849Y-120712926D01*
X206948019Y-120637468D01*
X207044715Y-120618234D01*
X207141409Y-120599000D01*
X207338591Y-120599000D01*
X207435285Y-120618234D01*
G37*
G36*
X204895285Y-120618234D02*
G01*
X204991981Y-120637468D01*
X205174151Y-120712926D01*
X205338100Y-120822473D01*
X205477527Y-120961900D01*
X205587074Y-121125849D01*
X205662532Y-121308019D01*
X205701000Y-121501410D01*
X205701000Y-121698590D01*
X205662532Y-121891981D01*
X205587074Y-122074151D01*
X205477527Y-122238100D01*
X205338100Y-122377527D01*
X205174151Y-122487074D01*
X204991981Y-122562532D01*
X204895285Y-122581766D01*
X204798591Y-122601000D01*
X204601409Y-122601000D01*
X204504715Y-122581766D01*
X204408019Y-122562532D01*
X204225849Y-122487074D01*
X204061900Y-122377527D01*
X203922473Y-122238100D01*
X203812926Y-122074151D01*
X203737468Y-121891981D01*
X203699000Y-121698590D01*
X203699000Y-121501410D01*
X203737468Y-121308019D01*
X203812926Y-121125849D01*
X203922473Y-120961900D01*
X204061900Y-120822473D01*
X204225849Y-120712926D01*
X204408019Y-120637468D01*
X204504715Y-120618234D01*
X204601409Y-120599000D01*
X204798591Y-120599000D01*
X204895285Y-120618234D01*
G37*
G36*
X202355285Y-120618234D02*
G01*
X202451981Y-120637468D01*
X202634151Y-120712926D01*
X202798100Y-120822473D01*
X202937527Y-120961900D01*
X203047074Y-121125849D01*
X203122532Y-121308019D01*
X203161000Y-121501410D01*
X203161000Y-121698590D01*
X203122532Y-121891981D01*
X203047074Y-122074151D01*
X202937527Y-122238100D01*
X202798100Y-122377527D01*
X202634151Y-122487074D01*
X202451981Y-122562532D01*
X202355285Y-122581766D01*
X202258591Y-122601000D01*
X202061409Y-122601000D01*
X201964715Y-122581766D01*
X201868019Y-122562532D01*
X201685849Y-122487074D01*
X201521900Y-122377527D01*
X201382473Y-122238100D01*
X201272926Y-122074151D01*
X201197468Y-121891981D01*
X201159000Y-121698590D01*
X201159000Y-121501410D01*
X201197468Y-121308019D01*
X201272926Y-121125849D01*
X201382473Y-120961900D01*
X201521900Y-120822473D01*
X201685849Y-120712926D01*
X201868019Y-120637468D01*
X201964715Y-120618234D01*
X202061409Y-120599000D01*
X202258591Y-120599000D01*
X202355285Y-120618234D01*
G37*
G36*
X199815285Y-120618234D02*
G01*
X199911981Y-120637468D01*
X200094151Y-120712926D01*
X200258100Y-120822473D01*
X200397527Y-120961900D01*
X200507074Y-121125849D01*
X200582532Y-121308019D01*
X200621000Y-121501410D01*
X200621000Y-121698590D01*
X200582532Y-121891981D01*
X200507074Y-122074151D01*
X200397527Y-122238100D01*
X200258100Y-122377527D01*
X200094151Y-122487074D01*
X199911981Y-122562532D01*
X199815285Y-122581766D01*
X199718591Y-122601000D01*
X199521409Y-122601000D01*
X199424715Y-122581766D01*
X199328019Y-122562532D01*
X199145849Y-122487074D01*
X198981900Y-122377527D01*
X198842473Y-122238100D01*
X198732926Y-122074151D01*
X198657468Y-121891981D01*
X198619000Y-121698590D01*
X198619000Y-121501410D01*
X198657468Y-121308019D01*
X198732926Y-121125849D01*
X198842473Y-120961900D01*
X198981900Y-120822473D01*
X199145849Y-120712926D01*
X199328019Y-120637468D01*
X199424715Y-120618234D01*
X199521409Y-120599000D01*
X199718591Y-120599000D01*
X199815285Y-120618234D01*
G37*
G36*
X197275285Y-120618234D02*
G01*
X197371981Y-120637468D01*
X197554151Y-120712926D01*
X197718100Y-120822473D01*
X197857527Y-120961900D01*
X197967074Y-121125849D01*
X198042532Y-121308019D01*
X198081000Y-121501410D01*
X198081000Y-121698590D01*
X198042532Y-121891981D01*
X197967074Y-122074151D01*
X197857527Y-122238100D01*
X197718100Y-122377527D01*
X197554151Y-122487074D01*
X197371981Y-122562532D01*
X197275285Y-122581766D01*
X197178591Y-122601000D01*
X196981409Y-122601000D01*
X196884715Y-122581766D01*
X196788019Y-122562532D01*
X196605849Y-122487074D01*
X196441900Y-122377527D01*
X196302473Y-122238100D01*
X196192926Y-122074151D01*
X196117468Y-121891981D01*
X196079000Y-121698590D01*
X196079000Y-121501410D01*
X196117468Y-121308019D01*
X196192926Y-121125849D01*
X196302473Y-120961900D01*
X196441900Y-120822473D01*
X196605849Y-120712926D01*
X196788019Y-120637468D01*
X196884715Y-120618234D01*
X196981409Y-120599000D01*
X197178591Y-120599000D01*
X197275285Y-120618234D01*
G37*
G36*
X194735285Y-120618234D02*
G01*
X194831981Y-120637468D01*
X195014151Y-120712926D01*
X195178100Y-120822473D01*
X195317527Y-120961900D01*
X195427074Y-121125849D01*
X195502532Y-121308019D01*
X195541000Y-121501410D01*
X195541000Y-121698590D01*
X195502532Y-121891981D01*
X195427074Y-122074151D01*
X195317527Y-122238100D01*
X195178100Y-122377527D01*
X195014151Y-122487074D01*
X194831981Y-122562532D01*
X194735285Y-122581766D01*
X194638591Y-122601000D01*
X194441409Y-122601000D01*
X194344715Y-122581766D01*
X194248019Y-122562532D01*
X194065849Y-122487074D01*
X193901900Y-122377527D01*
X193762473Y-122238100D01*
X193652926Y-122074151D01*
X193577468Y-121891981D01*
X193539000Y-121698590D01*
X193539000Y-121501410D01*
X193577468Y-121308019D01*
X193652926Y-121125849D01*
X193762473Y-120961900D01*
X193901900Y-120822473D01*
X194065849Y-120712926D01*
X194248019Y-120637468D01*
X194344715Y-120618234D01*
X194441409Y-120599000D01*
X194638591Y-120599000D01*
X194735285Y-120618234D01*
G37*
G36*
X209975285Y-120618234D02*
G01*
X210071981Y-120637468D01*
X210254151Y-120712926D01*
X210418100Y-120822473D01*
X210557527Y-120961900D01*
X210667074Y-121125849D01*
X210742532Y-121308019D01*
X210781000Y-121501410D01*
X210781000Y-121698590D01*
X210742532Y-121891981D01*
X210667074Y-122074151D01*
X210557527Y-122238100D01*
X210418100Y-122377527D01*
X210254151Y-122487074D01*
X210071981Y-122562532D01*
X209975285Y-122581766D01*
X209878591Y-122601000D01*
X209681409Y-122601000D01*
X209584715Y-122581766D01*
X209488019Y-122562532D01*
X209305849Y-122487074D01*
X209141900Y-122377527D01*
X209002473Y-122238100D01*
X208892926Y-122074151D01*
X208817468Y-121891981D01*
X208779000Y-121698590D01*
X208779000Y-121501410D01*
X208817468Y-121308019D01*
X208892926Y-121125849D01*
X209002473Y-120961900D01*
X209141900Y-120822473D01*
X209305849Y-120712926D01*
X209488019Y-120637468D01*
X209584715Y-120618234D01*
X209681409Y-120599000D01*
X209878591Y-120599000D01*
X209975285Y-120618234D01*
G37*
G36*
X183375256Y-117391298D02*
G01*
X183481579Y-117412447D01*
X183782042Y-117536903D01*
X184052451Y-117717585D01*
X184282415Y-117947549D01*
X184463097Y-118217958D01*
X184587553Y-118518421D01*
X184594595Y-118553823D01*
X184641271Y-118788477D01*
X184651000Y-118837391D01*
X184651000Y-119162609D01*
X184587553Y-119481579D01*
X184463097Y-119782042D01*
X184282415Y-120052451D01*
X184052451Y-120282415D01*
X183782042Y-120463097D01*
X183481579Y-120587553D01*
X183424031Y-120599000D01*
X183162611Y-120651000D01*
X182837389Y-120651000D01*
X182575969Y-120599000D01*
X182518421Y-120587553D01*
X182217958Y-120463097D01*
X181947549Y-120282415D01*
X181717585Y-120052451D01*
X181536903Y-119782042D01*
X181412447Y-119481579D01*
X181349000Y-119162609D01*
X181349000Y-118837391D01*
X181358730Y-118788477D01*
X181405405Y-118553823D01*
X181412447Y-118518421D01*
X181536903Y-118217958D01*
X181717585Y-117947549D01*
X181947549Y-117717585D01*
X182217958Y-117536903D01*
X182518421Y-117412447D01*
X182624744Y-117391298D01*
X182837389Y-117349000D01*
X183162611Y-117349000D01*
X183375256Y-117391298D01*
G37*
G36*
X251375256Y-117391298D02*
G01*
X251481579Y-117412447D01*
X251782042Y-117536903D01*
X252052451Y-117717585D01*
X252282415Y-117947549D01*
X252463097Y-118217958D01*
X252587553Y-118518421D01*
X252594595Y-118553823D01*
X252641271Y-118788477D01*
X252651000Y-118837391D01*
X252651000Y-119162609D01*
X252587553Y-119481579D01*
X252463097Y-119782042D01*
X252282415Y-120052451D01*
X252052451Y-120282415D01*
X251782042Y-120463097D01*
X251481579Y-120587553D01*
X251424031Y-120599000D01*
X251162611Y-120651000D01*
X250837389Y-120651000D01*
X250575969Y-120599000D01*
X250518421Y-120587553D01*
X250217958Y-120463097D01*
X249947549Y-120282415D01*
X249717585Y-120052451D01*
X249536903Y-119782042D01*
X249412447Y-119481579D01*
X249349000Y-119162609D01*
X249349000Y-118837391D01*
X249358730Y-118788477D01*
X249405405Y-118553823D01*
X249412447Y-118518421D01*
X249536903Y-118217958D01*
X249717585Y-117947549D01*
X249947549Y-117717585D01*
X250217958Y-117536903D01*
X250518421Y-117412447D01*
X250624744Y-117391298D01*
X250837389Y-117349000D01*
X251162611Y-117349000D01*
X251375256Y-117391298D01*
G37*
G36*
X234641246Y-118539912D02*
G01*
X234711183Y-118553823D01*
X234765759Y-118576429D01*
X234842942Y-118608399D01*
X234961522Y-118687632D01*
X235062368Y-118788478D01*
X235141601Y-118907058D01*
X235173571Y-118984241D01*
X235196177Y-119038817D01*
X235224000Y-119178692D01*
X235224000Y-119321308D01*
X235196177Y-119461183D01*
X235173571Y-119515759D01*
X235141601Y-119592942D01*
X235062368Y-119711522D01*
X234961522Y-119812368D01*
X234842942Y-119891601D01*
X234765759Y-119923571D01*
X234711183Y-119946177D01*
X234641245Y-119960089D01*
X234571309Y-119974000D01*
X234428691Y-119974000D01*
X234358755Y-119960089D01*
X234288817Y-119946177D01*
X234234241Y-119923571D01*
X234157058Y-119891601D01*
X234038478Y-119812368D01*
X233937632Y-119711522D01*
X233858399Y-119592942D01*
X233826429Y-119515759D01*
X233803823Y-119461183D01*
X233776000Y-119321308D01*
X233776000Y-119178692D01*
X233803823Y-119038817D01*
X233826429Y-118984241D01*
X233858399Y-118907058D01*
X233937632Y-118788478D01*
X234038478Y-118687632D01*
X234157058Y-118608399D01*
X234234241Y-118576429D01*
X234288817Y-118553823D01*
X234358754Y-118539912D01*
X234428691Y-118526000D01*
X234571309Y-118526000D01*
X234641246Y-118539912D01*
G37*
G36*
X222771981Y-95237468D02*
G01*
X222954151Y-95312926D01*
X223118100Y-95422473D01*
X223257527Y-95561900D01*
X223367074Y-95725849D01*
X223442532Y-95908019D01*
X223481000Y-96101410D01*
X223481000Y-96298590D01*
X223442532Y-96491981D01*
X223367074Y-96674151D01*
X223257527Y-96838100D01*
X223118100Y-96977527D01*
X222954151Y-97087074D01*
X222771981Y-97162532D01*
X222675285Y-97181766D01*
X222578591Y-97201000D01*
X222381409Y-97201000D01*
X222284715Y-97181766D01*
X222188019Y-97162532D01*
X222005849Y-97087074D01*
X221841900Y-96977527D01*
X221702473Y-96838100D01*
X221592926Y-96674151D01*
X221517468Y-96491981D01*
X221479000Y-96298590D01*
X221479000Y-96101410D01*
X221517468Y-95908019D01*
X221592926Y-95725849D01*
X221702473Y-95561900D01*
X221841900Y-95422473D01*
X222005849Y-95312926D01*
X222188019Y-95237468D01*
X222381409Y-95199000D01*
X222578591Y-95199000D01*
X222771981Y-95237468D01*
G37*
G36*
X220231981Y-95237468D02*
G01*
X220414151Y-95312926D01*
X220578100Y-95422473D01*
X220717527Y-95561900D01*
X220827074Y-95725849D01*
X220902532Y-95908019D01*
X220941000Y-96101410D01*
X220941000Y-96298590D01*
X220902532Y-96491981D01*
X220827074Y-96674151D01*
X220717527Y-96838100D01*
X220578100Y-96977527D01*
X220414151Y-97087074D01*
X220231981Y-97162532D01*
X220135285Y-97181766D01*
X220038591Y-97201000D01*
X219841409Y-97201000D01*
X219744715Y-97181766D01*
X219648019Y-97162532D01*
X219465849Y-97087074D01*
X219301900Y-96977527D01*
X219162473Y-96838100D01*
X219052926Y-96674151D01*
X218977468Y-96491981D01*
X218939000Y-96298590D01*
X218939000Y-96101410D01*
X218977468Y-95908019D01*
X219052926Y-95725849D01*
X219162473Y-95561900D01*
X219301900Y-95422473D01*
X219465849Y-95312926D01*
X219648019Y-95237468D01*
X219841409Y-95199000D01*
X220038591Y-95199000D01*
X220231981Y-95237468D01*
G37*
G36*
X217691981Y-95237468D02*
G01*
X217874151Y-95312926D01*
X218038100Y-95422473D01*
X218177527Y-95561900D01*
X218287074Y-95725849D01*
X218362532Y-95908019D01*
X218401000Y-96101410D01*
X218401000Y-96298590D01*
X218362532Y-96491981D01*
X218287074Y-96674151D01*
X218177527Y-96838100D01*
X218038100Y-96977527D01*
X217874151Y-97087074D01*
X217691981Y-97162532D01*
X217595285Y-97181766D01*
X217498591Y-97201000D01*
X217301409Y-97201000D01*
X217204715Y-97181766D01*
X217108019Y-97162532D01*
X216925849Y-97087074D01*
X216761900Y-96977527D01*
X216622473Y-96838100D01*
X216512926Y-96674151D01*
X216437468Y-96491981D01*
X216399000Y-96298590D01*
X216399000Y-96101410D01*
X216437468Y-95908019D01*
X216512926Y-95725849D01*
X216622473Y-95561900D01*
X216761900Y-95422473D01*
X216925849Y-95312926D01*
X217108019Y-95237468D01*
X217301409Y-95199000D01*
X217498591Y-95199000D01*
X217691981Y-95237468D01*
G37*
G36*
X215151981Y-95237468D02*
G01*
X215334151Y-95312926D01*
X215498100Y-95422473D01*
X215637527Y-95561900D01*
X215747074Y-95725849D01*
X215822532Y-95908019D01*
X215861000Y-96101410D01*
X215861000Y-96298590D01*
X215822532Y-96491981D01*
X215747074Y-96674151D01*
X215637527Y-96838100D01*
X215498100Y-96977527D01*
X215334151Y-97087074D01*
X215151981Y-97162532D01*
X215055285Y-97181766D01*
X214958591Y-97201000D01*
X214761409Y-97201000D01*
X214664715Y-97181766D01*
X214568019Y-97162532D01*
X214385849Y-97087074D01*
X214221900Y-96977527D01*
X214082473Y-96838100D01*
X213972926Y-96674151D01*
X213897468Y-96491981D01*
X213859000Y-96298590D01*
X213859000Y-96101410D01*
X213897468Y-95908019D01*
X213972926Y-95725849D01*
X214082473Y-95561900D01*
X214221900Y-95422473D01*
X214385849Y-95312926D01*
X214568019Y-95237468D01*
X214761409Y-95199000D01*
X214958591Y-95199000D01*
X215151981Y-95237468D01*
G37*
G36*
X212611981Y-95237468D02*
G01*
X212794151Y-95312926D01*
X212958100Y-95422473D01*
X213097527Y-95561900D01*
X213207074Y-95725849D01*
X213282532Y-95908019D01*
X213321000Y-96101410D01*
X213321000Y-96298590D01*
X213282532Y-96491981D01*
X213207074Y-96674151D01*
X213097527Y-96838100D01*
X212958100Y-96977527D01*
X212794151Y-97087074D01*
X212611981Y-97162532D01*
X212515285Y-97181766D01*
X212418591Y-97201000D01*
X212221409Y-97201000D01*
X212124715Y-97181766D01*
X212028019Y-97162532D01*
X211845849Y-97087074D01*
X211681900Y-96977527D01*
X211542473Y-96838100D01*
X211432926Y-96674151D01*
X211357468Y-96491981D01*
X211319000Y-96298590D01*
X211319000Y-96101410D01*
X211357468Y-95908019D01*
X211432926Y-95725849D01*
X211542473Y-95561900D01*
X211681900Y-95422473D01*
X211845849Y-95312926D01*
X212028019Y-95237468D01*
X212221409Y-95199000D01*
X212418591Y-95199000D01*
X212611981Y-95237468D01*
G37*
G36*
X210071981Y-95237468D02*
G01*
X210254151Y-95312926D01*
X210418100Y-95422473D01*
X210557527Y-95561900D01*
X210667074Y-95725849D01*
X210742532Y-95908019D01*
X210781000Y-96101410D01*
X210781000Y-96298590D01*
X210742532Y-96491981D01*
X210667074Y-96674151D01*
X210557527Y-96838100D01*
X210418100Y-96977527D01*
X210254151Y-97087074D01*
X210071981Y-97162532D01*
X209975285Y-97181766D01*
X209878591Y-97201000D01*
X209681409Y-97201000D01*
X209584715Y-97181766D01*
X209488019Y-97162532D01*
X209305849Y-97087074D01*
X209141900Y-96977527D01*
X209002473Y-96838100D01*
X208892926Y-96674151D01*
X208817468Y-96491981D01*
X208779000Y-96298590D01*
X208779000Y-96101410D01*
X208817468Y-95908019D01*
X208892926Y-95725849D01*
X209002473Y-95561900D01*
X209141900Y-95422473D01*
X209305849Y-95312926D01*
X209488019Y-95237468D01*
X209681409Y-95199000D01*
X209878591Y-95199000D01*
X210071981Y-95237468D01*
G37*
G36*
X207531981Y-95237468D02*
G01*
X207714151Y-95312926D01*
X207878100Y-95422473D01*
X208017527Y-95561900D01*
X208127074Y-95725849D01*
X208202532Y-95908019D01*
X208241000Y-96101410D01*
X208241000Y-96298590D01*
X208202532Y-96491981D01*
X208127074Y-96674151D01*
X208017527Y-96838100D01*
X207878100Y-96977527D01*
X207714151Y-97087074D01*
X207531981Y-97162532D01*
X207435285Y-97181766D01*
X207338591Y-97201000D01*
X207141409Y-97201000D01*
X207044715Y-97181766D01*
X206948019Y-97162532D01*
X206765849Y-97087074D01*
X206601900Y-96977527D01*
X206462473Y-96838100D01*
X206352926Y-96674151D01*
X206277468Y-96491981D01*
X206239000Y-96298590D01*
X206239000Y-96101410D01*
X206277468Y-95908019D01*
X206352926Y-95725849D01*
X206462473Y-95561900D01*
X206601900Y-95422473D01*
X206765849Y-95312926D01*
X206948019Y-95237468D01*
X207141409Y-95199000D01*
X207338591Y-95199000D01*
X207531981Y-95237468D01*
G37*
G36*
X204991981Y-95237468D02*
G01*
X205174151Y-95312926D01*
X205338100Y-95422473D01*
X205477527Y-95561900D01*
X205587074Y-95725849D01*
X205662532Y-95908019D01*
X205701000Y-96101410D01*
X205701000Y-96298590D01*
X205662532Y-96491981D01*
X205587074Y-96674151D01*
X205477527Y-96838100D01*
X205338100Y-96977527D01*
X205174151Y-97087074D01*
X204991981Y-97162532D01*
X204895285Y-97181766D01*
X204798591Y-97201000D01*
X204601409Y-97201000D01*
X204504715Y-97181766D01*
X204408019Y-97162532D01*
X204225849Y-97087074D01*
X204061900Y-96977527D01*
X203922473Y-96838100D01*
X203812926Y-96674151D01*
X203737468Y-96491981D01*
X203699000Y-96298590D01*
X203699000Y-96101410D01*
X203737468Y-95908019D01*
X203812926Y-95725849D01*
X203922473Y-95561900D01*
X204061900Y-95422473D01*
X204225849Y-95312926D01*
X204408019Y-95237468D01*
X204601409Y-95199000D01*
X204798591Y-95199000D01*
X204991981Y-95237468D01*
G37*
G36*
X202451981Y-95237468D02*
G01*
X202634151Y-95312926D01*
X202798100Y-95422473D01*
X202937527Y-95561900D01*
X203047074Y-95725849D01*
X203122532Y-95908019D01*
X203161000Y-96101410D01*
X203161000Y-96298590D01*
X203122532Y-96491981D01*
X203047074Y-96674151D01*
X202937527Y-96838100D01*
X202798100Y-96977527D01*
X202634151Y-97087074D01*
X202451981Y-97162532D01*
X202355285Y-97181766D01*
X202258591Y-97201000D01*
X202061409Y-97201000D01*
X201964715Y-97181766D01*
X201868019Y-97162532D01*
X201685849Y-97087074D01*
X201521900Y-96977527D01*
X201382473Y-96838100D01*
X201272926Y-96674151D01*
X201197468Y-96491981D01*
X201159000Y-96298590D01*
X201159000Y-96101410D01*
X201197468Y-95908019D01*
X201272926Y-95725849D01*
X201382473Y-95561900D01*
X201521900Y-95422473D01*
X201685849Y-95312926D01*
X201868019Y-95237468D01*
X202061409Y-95199000D01*
X202258591Y-95199000D01*
X202451981Y-95237468D01*
G37*
G36*
X199911981Y-95237468D02*
G01*
X200094151Y-95312926D01*
X200258100Y-95422473D01*
X200397527Y-95561900D01*
X200507074Y-95725849D01*
X200582532Y-95908019D01*
X200621000Y-96101410D01*
X200621000Y-96298590D01*
X200582532Y-96491981D01*
X200507074Y-96674151D01*
X200397527Y-96838100D01*
X200258100Y-96977527D01*
X200094151Y-97087074D01*
X199911981Y-97162532D01*
X199815285Y-97181766D01*
X199718591Y-97201000D01*
X199521409Y-97201000D01*
X199424715Y-97181766D01*
X199328019Y-97162532D01*
X199145849Y-97087074D01*
X198981900Y-96977527D01*
X198842473Y-96838100D01*
X198732926Y-96674151D01*
X198657468Y-96491981D01*
X198619000Y-96298590D01*
X198619000Y-96101410D01*
X198657468Y-95908019D01*
X198732926Y-95725849D01*
X198842473Y-95561900D01*
X198981900Y-95422473D01*
X199145849Y-95312926D01*
X199328019Y-95237468D01*
X199521409Y-95199000D01*
X199718591Y-95199000D01*
X199911981Y-95237468D01*
G37*
G36*
X197371981Y-95237468D02*
G01*
X197554151Y-95312926D01*
X197718100Y-95422473D01*
X197857527Y-95561900D01*
X197967074Y-95725849D01*
X198042532Y-95908019D01*
X198081000Y-96101410D01*
X198081000Y-96298590D01*
X198042532Y-96491981D01*
X197967074Y-96674151D01*
X197857527Y-96838100D01*
X197718100Y-96977527D01*
X197554151Y-97087074D01*
X197371981Y-97162532D01*
X197275285Y-97181766D01*
X197178591Y-97201000D01*
X196981409Y-97201000D01*
X196884715Y-97181766D01*
X196788019Y-97162532D01*
X196605849Y-97087074D01*
X196441900Y-96977527D01*
X196302473Y-96838100D01*
X196192926Y-96674151D01*
X196117468Y-96491981D01*
X196079000Y-96298590D01*
X196079000Y-96101410D01*
X196117468Y-95908019D01*
X196192926Y-95725849D01*
X196302473Y-95561900D01*
X196441900Y-95422473D01*
X196605849Y-95312926D01*
X196788019Y-95237468D01*
X196981409Y-95199000D01*
X197178591Y-95199000D01*
X197371981Y-95237468D01*
G37*
G36*
X194831981Y-95237468D02*
G01*
X195014151Y-95312926D01*
X195178100Y-95422473D01*
X195317527Y-95561900D01*
X195427074Y-95725849D01*
X195502532Y-95908019D01*
X195541000Y-96101410D01*
X195541000Y-96298590D01*
X195502532Y-96491981D01*
X195427074Y-96674151D01*
X195317527Y-96838100D01*
X195178100Y-96977527D01*
X195014151Y-97087074D01*
X194831981Y-97162532D01*
X194735285Y-97181766D01*
X194638591Y-97201000D01*
X194441409Y-97201000D01*
X194344715Y-97181766D01*
X194248019Y-97162532D01*
X194065849Y-97087074D01*
X193901900Y-96977527D01*
X193762473Y-96838100D01*
X193652926Y-96674151D01*
X193577468Y-96491981D01*
X193539000Y-96298590D01*
X193539000Y-96101410D01*
X193577468Y-95908019D01*
X193652926Y-95725849D01*
X193762473Y-95561900D01*
X193901900Y-95422473D01*
X194065849Y-95312926D01*
X194248019Y-95237468D01*
X194441409Y-95199000D01*
X194638591Y-95199000D01*
X194831981Y-95237468D01*
G37*
G36*
X225311981Y-95237468D02*
G01*
X225494151Y-95312926D01*
X225658100Y-95422473D01*
X225797527Y-95561900D01*
X225907074Y-95725849D01*
X225982532Y-95908019D01*
X226021000Y-96101410D01*
X226021000Y-96298590D01*
X225982532Y-96491981D01*
X225907074Y-96674151D01*
X225797527Y-96838100D01*
X225658100Y-96977527D01*
X225494151Y-97087074D01*
X225311981Y-97162532D01*
X225215285Y-97181766D01*
X225118591Y-97201000D01*
X224921409Y-97201000D01*
X224824715Y-97181766D01*
X224728019Y-97162532D01*
X224545849Y-97087074D01*
X224381900Y-96977527D01*
X224242473Y-96838100D01*
X224132926Y-96674151D01*
X224057468Y-96491981D01*
X224019000Y-96298590D01*
X224019000Y-96101410D01*
X224057468Y-95908019D01*
X224132926Y-95725849D01*
X224242473Y-95561900D01*
X224381900Y-95422473D01*
X224545849Y-95312926D01*
X224728019Y-95237468D01*
X224921409Y-95199000D01*
X225118591Y-95199000D01*
X225311981Y-95237468D01*
G37*
G36*
X227851981Y-95237468D02*
G01*
X228034151Y-95312926D01*
X228198100Y-95422473D01*
X228337527Y-95561900D01*
X228447074Y-95725849D01*
X228522532Y-95908019D01*
X228561000Y-96101410D01*
X228561000Y-96298590D01*
X228522532Y-96491981D01*
X228447074Y-96674151D01*
X228337527Y-96838100D01*
X228198100Y-96977527D01*
X228034151Y-97087074D01*
X227851981Y-97162532D01*
X227755285Y-97181766D01*
X227658591Y-97201000D01*
X227461409Y-97201000D01*
X227364715Y-97181766D01*
X227268019Y-97162532D01*
X227085849Y-97087074D01*
X226921900Y-96977527D01*
X226782473Y-96838100D01*
X226672926Y-96674151D01*
X226597468Y-96491981D01*
X226559000Y-96298590D01*
X226559000Y-96101410D01*
X226597468Y-95908019D01*
X226672926Y-95725849D01*
X226782473Y-95561900D01*
X226921900Y-95422473D01*
X227085849Y-95312926D01*
X227268019Y-95237468D01*
X227461409Y-95199000D01*
X227658591Y-95199000D01*
X227851981Y-95237468D01*
G37*
G36*
X192901000Y-97101000D02*
G01*
X191099000Y-97101000D01*
X191099000Y-95299000D01*
X192901000Y-95299000D01*
X192901000Y-97101000D01*
G37*
G36*
X251141245Y-56039911D02*
G01*
X251211183Y-56053823D01*
X251265759Y-56076429D01*
X251342942Y-56108399D01*
X251461522Y-56187632D01*
X251562368Y-56288478D01*
X251641601Y-56407058D01*
X251696177Y-56538818D01*
X251724000Y-56678691D01*
X251724000Y-56821309D01*
X251696177Y-56961182D01*
X251641601Y-57092942D01*
X251562368Y-57211522D01*
X251461522Y-57312368D01*
X251342942Y-57391601D01*
X251265759Y-57423571D01*
X251211183Y-57446177D01*
X251141245Y-57460089D01*
X251071309Y-57474000D01*
X250928691Y-57474000D01*
X250858755Y-57460089D01*
X250788817Y-57446177D01*
X250734241Y-57423571D01*
X250657058Y-57391601D01*
X250538478Y-57312368D01*
X250437632Y-57211522D01*
X250358399Y-57092942D01*
X250303823Y-56961182D01*
X250276000Y-56821309D01*
X250276000Y-56678691D01*
X250303823Y-56538818D01*
X250358399Y-56407058D01*
X250437632Y-56288478D01*
X250538478Y-56187632D01*
X250657058Y-56108399D01*
X250734241Y-56076429D01*
X250788817Y-56053823D01*
X250858755Y-56039911D01*
X250928691Y-56026000D01*
X251071309Y-56026000D01*
X251141245Y-56039911D01*
G37*
G36*
X183141245Y-56039911D02*
G01*
X183211183Y-56053823D01*
X183265759Y-56076429D01*
X183342942Y-56108399D01*
X183461522Y-56187632D01*
X183562368Y-56288478D01*
X183641601Y-56407058D01*
X183696177Y-56538818D01*
X183724000Y-56678691D01*
X183724000Y-56821309D01*
X183696177Y-56961182D01*
X183641601Y-57092942D01*
X183562368Y-57211522D01*
X183461522Y-57312368D01*
X183342942Y-57391601D01*
X183265759Y-57423571D01*
X183211183Y-57446177D01*
X183141245Y-57460089D01*
X183071309Y-57474000D01*
X182928691Y-57474000D01*
X182858755Y-57460089D01*
X182788817Y-57446177D01*
X182734241Y-57423571D01*
X182657058Y-57391601D01*
X182538478Y-57312368D01*
X182437632Y-57211522D01*
X182358399Y-57092942D01*
X182303823Y-56961182D01*
X182276000Y-56821309D01*
X182276000Y-56678691D01*
X182303823Y-56538818D01*
X182358399Y-56407058D01*
X182437632Y-56288478D01*
X182538478Y-56187632D01*
X182657058Y-56108399D01*
X182734241Y-56076429D01*
X182788817Y-56053823D01*
X182858755Y-56039911D01*
X182928691Y-56026000D01*
X183071309Y-56026000D01*
X183141245Y-56039911D01*
G37*
G36*
X183375256Y-49391298D02*
G01*
X183481579Y-49412447D01*
X183782042Y-49536903D01*
X184052451Y-49717585D01*
X184282415Y-49947549D01*
X184463097Y-50217958D01*
X184587553Y-50518421D01*
X184651000Y-50837391D01*
X184651000Y-51162609D01*
X184587553Y-51481579D01*
X184463097Y-51782042D01*
X184282415Y-52052451D01*
X184052451Y-52282415D01*
X183782042Y-52463097D01*
X183481579Y-52587553D01*
X183375256Y-52608702D01*
X183162611Y-52651000D01*
X182837389Y-52651000D01*
X182624744Y-52608702D01*
X182518421Y-52587553D01*
X182217958Y-52463097D01*
X181947549Y-52282415D01*
X181717585Y-52052451D01*
X181536903Y-51782042D01*
X181412447Y-51481579D01*
X181349000Y-51162609D01*
X181349000Y-50837391D01*
X181412447Y-50518421D01*
X181536903Y-50217958D01*
X181717585Y-49947549D01*
X181947549Y-49717585D01*
X182217958Y-49536903D01*
X182518421Y-49412447D01*
X182624744Y-49391298D01*
X182837389Y-49349000D01*
X183162611Y-49349000D01*
X183375256Y-49391298D01*
G37*
G36*
X251375256Y-49391298D02*
G01*
X251481579Y-49412447D01*
X251782042Y-49536903D01*
X252052451Y-49717585D01*
X252282415Y-49947549D01*
X252463097Y-50217958D01*
X252587553Y-50518421D01*
X252651000Y-50837391D01*
X252651000Y-51162609D01*
X252587553Y-51481579D01*
X252463097Y-51782042D01*
X252282415Y-52052451D01*
X252052451Y-52282415D01*
X251782042Y-52463097D01*
X251481579Y-52587553D01*
X251375256Y-52608702D01*
X251162611Y-52651000D01*
X250837389Y-52651000D01*
X250624744Y-52608702D01*
X250518421Y-52587553D01*
X250217958Y-52463097D01*
X249947549Y-52282415D01*
X249717585Y-52052451D01*
X249536903Y-51782042D01*
X249412447Y-51481579D01*
X249349000Y-51162609D01*
X249349000Y-50837391D01*
X249412447Y-50518421D01*
X249536903Y-50217958D01*
X249717585Y-49947549D01*
X249947549Y-49717585D01*
X250217958Y-49536903D01*
X250518421Y-49412447D01*
X250624744Y-49391298D01*
X250837389Y-49349000D01*
X251162611Y-49349000D01*
X251375256Y-49391298D01*
G37*
M02*
