G04 #@! TF.GenerationSoftware,KiCad,Pcbnew,(5.1.6)-1*
G04 #@! TF.CreationDate,2022-02-06T18:42:46-08:00*
G04 #@! TF.ProjectId,MFRC522 PCB ESP32,4d465243-3532-4322-9050-434220455350,rev?*
G04 #@! TF.SameCoordinates,Original*
G04 #@! TF.FileFunction,Legend,Bot*
G04 #@! TF.FilePolarity,Positive*
%FSLAX46Y46*%
G04 Gerber Fmt 4.6, Leading zero omitted, Abs format (unit mm)*
G04 Created by KiCad (PCBNEW (5.1.6)-1) date 2022-02-06 18:42:46*
%MOMM*%
%LPD*%
G01*
G04 APERTURE LIST*
%ADD10C,0.150000*%
%ADD11O,2.002000X2.002000*%
%ADD12R,2.002000X2.002000*%
%ADD13R,1.802000X1.802000*%
%ADD14C,1.448000*%
%ADD15C,3.302000*%
G04 APERTURE END LIST*
D10*
X225452380Y-100785714D02*
X224452380Y-100785714D01*
X225166666Y-101119047D01*
X224452380Y-101452380D01*
X225452380Y-101452380D01*
X225452380Y-101928571D02*
X224785714Y-101928571D01*
X224452380Y-101928571D02*
X224500000Y-101880952D01*
X224547619Y-101928571D01*
X224500000Y-101976190D01*
X224452380Y-101928571D01*
X224547619Y-101928571D01*
X225404761Y-102833333D02*
X225452380Y-102738095D01*
X225452380Y-102547619D01*
X225404761Y-102452380D01*
X225357142Y-102404761D01*
X225261904Y-102357142D01*
X224976190Y-102357142D01*
X224880952Y-102404761D01*
X224833333Y-102452380D01*
X224785714Y-102547619D01*
X224785714Y-102738095D01*
X224833333Y-102833333D01*
X225452380Y-103261904D02*
X224785714Y-103261904D01*
X224976190Y-103261904D02*
X224880952Y-103309523D01*
X224833333Y-103357142D01*
X224785714Y-103452380D01*
X224785714Y-103547619D01*
X225452380Y-104023809D02*
X225404761Y-103928571D01*
X225357142Y-103880952D01*
X225261904Y-103833333D01*
X224976190Y-103833333D01*
X224880952Y-103880952D01*
X224833333Y-103928571D01*
X224785714Y-104023809D01*
X224785714Y-104166666D01*
X224833333Y-104261904D01*
X224880952Y-104309523D01*
X224976190Y-104357142D01*
X225261904Y-104357142D01*
X225357142Y-104309523D01*
X225404761Y-104261904D01*
X225452380Y-104166666D01*
X225452380Y-104023809D01*
X224452380Y-104785714D02*
X225261904Y-104785714D01*
X225357142Y-104833333D01*
X225404761Y-104880952D01*
X225452380Y-104976190D01*
X225452380Y-105166666D01*
X225404761Y-105261904D01*
X225357142Y-105309523D01*
X225261904Y-105357142D01*
X224452380Y-105357142D01*
X225404761Y-105785714D02*
X225452380Y-105928571D01*
X225452380Y-106166666D01*
X225404761Y-106261904D01*
X225357142Y-106309523D01*
X225261904Y-106357142D01*
X225166666Y-106357142D01*
X225071428Y-106309523D01*
X225023809Y-106261904D01*
X224976190Y-106166666D01*
X224928571Y-105976190D01*
X224880952Y-105880952D01*
X224833333Y-105833333D01*
X224738095Y-105785714D01*
X224642857Y-105785714D01*
X224547619Y-105833333D01*
X224500000Y-105880952D01*
X224452380Y-105976190D01*
X224452380Y-106214285D01*
X224500000Y-106357142D01*
X224928571Y-107119047D02*
X224976190Y-107261904D01*
X225023809Y-107309523D01*
X225119047Y-107357142D01*
X225261904Y-107357142D01*
X225357142Y-107309523D01*
X225404761Y-107261904D01*
X225452380Y-107166666D01*
X225452380Y-106785714D01*
X224452380Y-106785714D01*
X224452380Y-107119047D01*
X224500000Y-107214285D01*
X224547619Y-107261904D01*
X224642857Y-107309523D01*
X224738095Y-107309523D01*
X224833333Y-107261904D01*
X224880952Y-107214285D01*
X224928571Y-107119047D01*
X224928571Y-106785714D01*
X225452380Y-108690476D02*
X225404761Y-108595238D01*
X225357142Y-108547619D01*
X225261904Y-108500000D01*
X224976190Y-108500000D01*
X224880952Y-108547619D01*
X224833333Y-108595238D01*
X224785714Y-108690476D01*
X224785714Y-108833333D01*
X224833333Y-108928571D01*
X224880952Y-108976190D01*
X224976190Y-109023809D01*
X225261904Y-109023809D01*
X225357142Y-108976190D01*
X225404761Y-108928571D01*
X225452380Y-108833333D01*
X225452380Y-108690476D01*
X224785714Y-109452380D02*
X225452380Y-109452380D01*
X224880952Y-109452380D02*
X224833333Y-109500000D01*
X224785714Y-109595238D01*
X224785714Y-109738095D01*
X224833333Y-109833333D01*
X224928571Y-109880952D01*
X225452380Y-109880952D01*
X224785714Y-110976190D02*
X224785714Y-111357142D01*
X224452380Y-111119047D02*
X225309523Y-111119047D01*
X225404761Y-111166666D01*
X225452380Y-111261904D01*
X225452380Y-111357142D01*
X225452380Y-111690476D02*
X224452380Y-111690476D01*
X225452380Y-112119047D02*
X224928571Y-112119047D01*
X224833333Y-112071428D01*
X224785714Y-111976190D01*
X224785714Y-111833333D01*
X224833333Y-111738095D01*
X224880952Y-111690476D01*
X225452380Y-112595238D02*
X224785714Y-112595238D01*
X224452380Y-112595238D02*
X224500000Y-112547619D01*
X224547619Y-112595238D01*
X224500000Y-112642857D01*
X224452380Y-112595238D01*
X224547619Y-112595238D01*
X225404761Y-113023809D02*
X225452380Y-113119047D01*
X225452380Y-113309523D01*
X225404761Y-113404761D01*
X225309523Y-113452380D01*
X225261904Y-113452380D01*
X225166666Y-113404761D01*
X225119047Y-113309523D01*
X225119047Y-113166666D01*
X225071428Y-113071428D01*
X224976190Y-113023809D01*
X224928571Y-113023809D01*
X224833333Y-113071428D01*
X224785714Y-113166666D01*
X224785714Y-113309523D01*
X224833333Y-113404761D01*
X225404761Y-114595238D02*
X225452380Y-114690476D01*
X225452380Y-114880952D01*
X225404761Y-114976190D01*
X225309523Y-115023809D01*
X225261904Y-115023809D01*
X225166666Y-114976190D01*
X225119047Y-114880952D01*
X225119047Y-114738095D01*
X225071428Y-114642857D01*
X224976190Y-114595238D01*
X224928571Y-114595238D01*
X224833333Y-114642857D01*
X224785714Y-114738095D01*
X224785714Y-114880952D01*
X224833333Y-114976190D01*
X225452380Y-115452380D02*
X224785714Y-115452380D01*
X224452380Y-115452380D02*
X224500000Y-115404761D01*
X224547619Y-115452380D01*
X224500000Y-115500000D01*
X224452380Y-115452380D01*
X224547619Y-115452380D01*
X225452380Y-116357142D02*
X224452380Y-116357142D01*
X225404761Y-116357142D02*
X225452380Y-116261904D01*
X225452380Y-116071428D01*
X225404761Y-115976190D01*
X225357142Y-115928571D01*
X225261904Y-115880952D01*
X224976190Y-115880952D01*
X224880952Y-115928571D01*
X224833333Y-115976190D01*
X224785714Y-116071428D01*
X224785714Y-116261904D01*
X224833333Y-116357142D01*
X225404761Y-117214285D02*
X225452380Y-117119047D01*
X225452380Y-116928571D01*
X225404761Y-116833333D01*
X225309523Y-116785714D01*
X224928571Y-116785714D01*
X224833333Y-116833333D01*
X224785714Y-116928571D01*
X224785714Y-117119047D01*
X224833333Y-117214285D01*
X224928571Y-117261904D01*
X225023809Y-117261904D01*
X225119047Y-116785714D01*
X209678571Y-102738095D02*
X209678571Y-103071428D01*
X210202380Y-103214285D02*
X210202380Y-102738095D01*
X209202380Y-102738095D01*
X209202380Y-103214285D01*
X210154761Y-103595238D02*
X210202380Y-103738095D01*
X210202380Y-103976190D01*
X210154761Y-104071428D01*
X210107142Y-104119047D01*
X210011904Y-104166666D01*
X209916666Y-104166666D01*
X209821428Y-104119047D01*
X209773809Y-104071428D01*
X209726190Y-103976190D01*
X209678571Y-103785714D01*
X209630952Y-103690476D01*
X209583333Y-103642857D01*
X209488095Y-103595238D01*
X209392857Y-103595238D01*
X209297619Y-103642857D01*
X209250000Y-103690476D01*
X209202380Y-103785714D01*
X209202380Y-104023809D01*
X209250000Y-104166666D01*
X210202380Y-104595238D02*
X209202380Y-104595238D01*
X209202380Y-104976190D01*
X209250000Y-105071428D01*
X209297619Y-105119047D01*
X209392857Y-105166666D01*
X209535714Y-105166666D01*
X209630952Y-105119047D01*
X209678571Y-105071428D01*
X209726190Y-104976190D01*
X209726190Y-104595238D01*
X209202380Y-105500000D02*
X209202380Y-106119047D01*
X209583333Y-105785714D01*
X209583333Y-105928571D01*
X209630952Y-106023809D01*
X209678571Y-106071428D01*
X209773809Y-106119047D01*
X210011904Y-106119047D01*
X210107142Y-106071428D01*
X210154761Y-106023809D01*
X210202380Y-105928571D01*
X210202380Y-105642857D01*
X210154761Y-105547619D01*
X210107142Y-105500000D01*
X209297619Y-106500000D02*
X209250000Y-106547619D01*
X209202380Y-106642857D01*
X209202380Y-106880952D01*
X209250000Y-106976190D01*
X209297619Y-107023809D01*
X209392857Y-107071428D01*
X209488095Y-107071428D01*
X209630952Y-107023809D01*
X210202380Y-106452380D01*
X210202380Y-107071428D01*
X209535714Y-108690476D02*
X210345238Y-108690476D01*
X210440476Y-108642857D01*
X210488095Y-108595238D01*
X210535714Y-108500000D01*
X210535714Y-108357142D01*
X210488095Y-108261904D01*
X210154761Y-108690476D02*
X210202380Y-108595238D01*
X210202380Y-108404761D01*
X210154761Y-108309523D01*
X210107142Y-108261904D01*
X210011904Y-108214285D01*
X209726190Y-108214285D01*
X209630952Y-108261904D01*
X209583333Y-108309523D01*
X209535714Y-108404761D01*
X209535714Y-108595238D01*
X209583333Y-108690476D01*
X210202380Y-109309523D02*
X210154761Y-109214285D01*
X210107142Y-109166666D01*
X210011904Y-109119047D01*
X209726190Y-109119047D01*
X209630952Y-109166666D01*
X209583333Y-109214285D01*
X209535714Y-109309523D01*
X209535714Y-109452380D01*
X209583333Y-109547619D01*
X209630952Y-109595238D01*
X209726190Y-109642857D01*
X210011904Y-109642857D01*
X210107142Y-109595238D01*
X210154761Y-109547619D01*
X210202380Y-109452380D01*
X210202380Y-109309523D01*
X210154761Y-110452380D02*
X210202380Y-110357142D01*
X210202380Y-110166666D01*
X210154761Y-110071428D01*
X210059523Y-110023809D01*
X209678571Y-110023809D01*
X209583333Y-110071428D01*
X209535714Y-110166666D01*
X209535714Y-110357142D01*
X209583333Y-110452380D01*
X209678571Y-110500000D01*
X209773809Y-110500000D01*
X209869047Y-110023809D01*
X210154761Y-110880952D02*
X210202380Y-110976190D01*
X210202380Y-111166666D01*
X210154761Y-111261904D01*
X210059523Y-111309523D01*
X210011904Y-111309523D01*
X209916666Y-111261904D01*
X209869047Y-111166666D01*
X209869047Y-111023809D01*
X209821428Y-110928571D01*
X209726190Y-110880952D01*
X209678571Y-110880952D01*
X209583333Y-110928571D01*
X209535714Y-111023809D01*
X209535714Y-111166666D01*
X209583333Y-111261904D01*
X210202380Y-112500000D02*
X209202380Y-112500000D01*
X210202380Y-112928571D02*
X209678571Y-112928571D01*
X209583333Y-112880952D01*
X209535714Y-112785714D01*
X209535714Y-112642857D01*
X209583333Y-112547619D01*
X209630952Y-112500000D01*
X210154761Y-113785714D02*
X210202380Y-113690476D01*
X210202380Y-113500000D01*
X210154761Y-113404761D01*
X210059523Y-113357142D01*
X209678571Y-113357142D01*
X209583333Y-113404761D01*
X209535714Y-113500000D01*
X209535714Y-113690476D01*
X209583333Y-113785714D01*
X209678571Y-113833333D01*
X209773809Y-113833333D01*
X209869047Y-113357142D01*
X210202380Y-114261904D02*
X209535714Y-114261904D01*
X209726190Y-114261904D02*
X209630952Y-114309523D01*
X209583333Y-114357142D01*
X209535714Y-114452380D01*
X209535714Y-114547619D01*
X210154761Y-115261904D02*
X210202380Y-115166666D01*
X210202380Y-114976190D01*
X210154761Y-114880952D01*
X210059523Y-114833333D01*
X209678571Y-114833333D01*
X209583333Y-114880952D01*
X209535714Y-114976190D01*
X209535714Y-115166666D01*
X209583333Y-115261904D01*
X209678571Y-115309523D01*
X209773809Y-115309523D01*
X209869047Y-114833333D01*
%LPC*%
D11*
X227560000Y-121600000D03*
X225020000Y-121600000D03*
X222480000Y-121600000D03*
X219940000Y-121600000D03*
X217400000Y-121600000D03*
X214860000Y-121600000D03*
X212320000Y-121600000D03*
X209780000Y-121600000D03*
X207240000Y-121600000D03*
X204700000Y-121600000D03*
X202160000Y-121600000D03*
X199620000Y-121600000D03*
X197080000Y-121600000D03*
X194540000Y-121600000D03*
D12*
X192000000Y-121600000D03*
D11*
X227560000Y-96200000D03*
X225020000Y-96200000D03*
X222480000Y-96200000D03*
X219940000Y-96200000D03*
X217400000Y-96200000D03*
X214860000Y-96200000D03*
X212320000Y-96200000D03*
X209780000Y-96200000D03*
X207240000Y-96200000D03*
X204700000Y-96200000D03*
X202160000Y-96200000D03*
X199620000Y-96200000D03*
X197080000Y-96200000D03*
X194540000Y-96200000D03*
D13*
X192000000Y-96200000D03*
D14*
X251000000Y-56750000D03*
X183000000Y-56750000D03*
X234500000Y-119250000D03*
D15*
X183000000Y-119000000D03*
X251000000Y-119000000D03*
X251000000Y-51000000D03*
X183000000Y-51000000D03*
M02*
