G04 #@! TF.GenerationSoftware,KiCad,Pcbnew,(5.1.6)-1*
G04 #@! TF.CreationDate,2022-08-14T23:52:23-07:00*
G04 #@! TF.ProjectId,MFRC522 PCB ESP32,4d465243-3532-4322-9050-434220455350,rev?*
G04 #@! TF.SameCoordinates,Original*
G04 #@! TF.FileFunction,Paste,Top*
G04 #@! TF.FilePolarity,Positive*
%FSLAX46Y46*%
G04 Gerber Fmt 4.6, Leading zero omitted, Abs format (unit mm)*
G04 Created by KiCad (PCBNEW (5.1.6)-1) date 2022-08-14 23:52:23*
%MOMM*%
%LPD*%
G01*
G04 APERTURE LIST*
%ADD10C,0.100000*%
%ADD11R,0.900000X0.800000*%
%ADD12R,1.800000X2.500000*%
%ADD13R,2.300000X2.300000*%
G04 APERTURE END LIST*
D10*
G36*
X226769476Y-103493753D02*
G01*
X226203088Y-104193184D01*
X225425942Y-103563863D01*
X225992330Y-102864432D01*
X226769476Y-103493753D01*
G37*
G36*
X225098612Y-102140714D02*
G01*
X224532224Y-102840145D01*
X223755078Y-102210824D01*
X224321466Y-101511393D01*
X225098612Y-102140714D01*
G37*
G36*
X226074058Y-100936137D02*
G01*
X225507670Y-101635568D01*
X224730524Y-101006247D01*
X225296912Y-100306816D01*
X226074058Y-100936137D01*
G37*
G36*
X227744922Y-102289176D02*
G01*
X227178534Y-102988607D01*
X226401388Y-102359286D01*
X226967776Y-101659855D01*
X227744922Y-102289176D01*
G37*
G36*
G01*
X224812500Y-111125000D02*
X224687500Y-111125000D01*
G75*
G02*
X224625000Y-111062500I0J62500D01*
G01*
X224625000Y-110312500D01*
G75*
G02*
X224687500Y-110250000I62500J0D01*
G01*
X224812500Y-110250000D01*
G75*
G02*
X224875000Y-110312500I0J-62500D01*
G01*
X224875000Y-111062500D01*
G75*
G02*
X224812500Y-111125000I-62500J0D01*
G01*
G37*
G36*
G01*
X225312500Y-111125000D02*
X225187500Y-111125000D01*
G75*
G02*
X225125000Y-111062500I0J62500D01*
G01*
X225125000Y-110312500D01*
G75*
G02*
X225187500Y-110250000I62500J0D01*
G01*
X225312500Y-110250000D01*
G75*
G02*
X225375000Y-110312500I0J-62500D01*
G01*
X225375000Y-111062500D01*
G75*
G02*
X225312500Y-111125000I-62500J0D01*
G01*
G37*
G36*
G01*
X225812500Y-111125000D02*
X225687500Y-111125000D01*
G75*
G02*
X225625000Y-111062500I0J62500D01*
G01*
X225625000Y-110312500D01*
G75*
G02*
X225687500Y-110250000I62500J0D01*
G01*
X225812500Y-110250000D01*
G75*
G02*
X225875000Y-110312500I0J-62500D01*
G01*
X225875000Y-111062500D01*
G75*
G02*
X225812500Y-111125000I-62500J0D01*
G01*
G37*
G36*
G01*
X226312500Y-111125000D02*
X226187500Y-111125000D01*
G75*
G02*
X226125000Y-111062500I0J62500D01*
G01*
X226125000Y-110312500D01*
G75*
G02*
X226187500Y-110250000I62500J0D01*
G01*
X226312500Y-110250000D01*
G75*
G02*
X226375000Y-110312500I0J-62500D01*
G01*
X226375000Y-111062500D01*
G75*
G02*
X226312500Y-111125000I-62500J0D01*
G01*
G37*
G36*
G01*
X226812500Y-111125000D02*
X226687500Y-111125000D01*
G75*
G02*
X226625000Y-111062500I0J62500D01*
G01*
X226625000Y-110312500D01*
G75*
G02*
X226687500Y-110250000I62500J0D01*
G01*
X226812500Y-110250000D01*
G75*
G02*
X226875000Y-110312500I0J-62500D01*
G01*
X226875000Y-111062500D01*
G75*
G02*
X226812500Y-111125000I-62500J0D01*
G01*
G37*
G36*
G01*
X227312500Y-111125000D02*
X227187500Y-111125000D01*
G75*
G02*
X227125000Y-111062500I0J62500D01*
G01*
X227125000Y-110312500D01*
G75*
G02*
X227187500Y-110250000I62500J0D01*
G01*
X227312500Y-110250000D01*
G75*
G02*
X227375000Y-110312500I0J-62500D01*
G01*
X227375000Y-111062500D01*
G75*
G02*
X227312500Y-111125000I-62500J0D01*
G01*
G37*
G36*
G01*
X227812500Y-111125000D02*
X227687500Y-111125000D01*
G75*
G02*
X227625000Y-111062500I0J62500D01*
G01*
X227625000Y-110312500D01*
G75*
G02*
X227687500Y-110250000I62500J0D01*
G01*
X227812500Y-110250000D01*
G75*
G02*
X227875000Y-110312500I0J-62500D01*
G01*
X227875000Y-111062500D01*
G75*
G02*
X227812500Y-111125000I-62500J0D01*
G01*
G37*
G36*
G01*
X228312500Y-111125000D02*
X228187500Y-111125000D01*
G75*
G02*
X228125000Y-111062500I0J62500D01*
G01*
X228125000Y-110312500D01*
G75*
G02*
X228187500Y-110250000I62500J0D01*
G01*
X228312500Y-110250000D01*
G75*
G02*
X228375000Y-110312500I0J-62500D01*
G01*
X228375000Y-111062500D01*
G75*
G02*
X228312500Y-111125000I-62500J0D01*
G01*
G37*
G36*
G01*
X229312500Y-110125000D02*
X228562500Y-110125000D01*
G75*
G02*
X228500000Y-110062500I0J62500D01*
G01*
X228500000Y-109937500D01*
G75*
G02*
X228562500Y-109875000I62500J0D01*
G01*
X229312500Y-109875000D01*
G75*
G02*
X229375000Y-109937500I0J-62500D01*
G01*
X229375000Y-110062500D01*
G75*
G02*
X229312500Y-110125000I-62500J0D01*
G01*
G37*
G36*
G01*
X229312500Y-109625000D02*
X228562500Y-109625000D01*
G75*
G02*
X228500000Y-109562500I0J62500D01*
G01*
X228500000Y-109437500D01*
G75*
G02*
X228562500Y-109375000I62500J0D01*
G01*
X229312500Y-109375000D01*
G75*
G02*
X229375000Y-109437500I0J-62500D01*
G01*
X229375000Y-109562500D01*
G75*
G02*
X229312500Y-109625000I-62500J0D01*
G01*
G37*
G36*
G01*
X229312500Y-109125000D02*
X228562500Y-109125000D01*
G75*
G02*
X228500000Y-109062500I0J62500D01*
G01*
X228500000Y-108937500D01*
G75*
G02*
X228562500Y-108875000I62500J0D01*
G01*
X229312500Y-108875000D01*
G75*
G02*
X229375000Y-108937500I0J-62500D01*
G01*
X229375000Y-109062500D01*
G75*
G02*
X229312500Y-109125000I-62500J0D01*
G01*
G37*
G36*
G01*
X229312500Y-108625000D02*
X228562500Y-108625000D01*
G75*
G02*
X228500000Y-108562500I0J62500D01*
G01*
X228500000Y-108437500D01*
G75*
G02*
X228562500Y-108375000I62500J0D01*
G01*
X229312500Y-108375000D01*
G75*
G02*
X229375000Y-108437500I0J-62500D01*
G01*
X229375000Y-108562500D01*
G75*
G02*
X229312500Y-108625000I-62500J0D01*
G01*
G37*
G36*
G01*
X229312500Y-108125000D02*
X228562500Y-108125000D01*
G75*
G02*
X228500000Y-108062500I0J62500D01*
G01*
X228500000Y-107937500D01*
G75*
G02*
X228562500Y-107875000I62500J0D01*
G01*
X229312500Y-107875000D01*
G75*
G02*
X229375000Y-107937500I0J-62500D01*
G01*
X229375000Y-108062500D01*
G75*
G02*
X229312500Y-108125000I-62500J0D01*
G01*
G37*
G36*
G01*
X229312500Y-107625000D02*
X228562500Y-107625000D01*
G75*
G02*
X228500000Y-107562500I0J62500D01*
G01*
X228500000Y-107437500D01*
G75*
G02*
X228562500Y-107375000I62500J0D01*
G01*
X229312500Y-107375000D01*
G75*
G02*
X229375000Y-107437500I0J-62500D01*
G01*
X229375000Y-107562500D01*
G75*
G02*
X229312500Y-107625000I-62500J0D01*
G01*
G37*
G36*
G01*
X229312500Y-107125000D02*
X228562500Y-107125000D01*
G75*
G02*
X228500000Y-107062500I0J62500D01*
G01*
X228500000Y-106937500D01*
G75*
G02*
X228562500Y-106875000I62500J0D01*
G01*
X229312500Y-106875000D01*
G75*
G02*
X229375000Y-106937500I0J-62500D01*
G01*
X229375000Y-107062500D01*
G75*
G02*
X229312500Y-107125000I-62500J0D01*
G01*
G37*
G36*
G01*
X229312500Y-106625000D02*
X228562500Y-106625000D01*
G75*
G02*
X228500000Y-106562500I0J62500D01*
G01*
X228500000Y-106437500D01*
G75*
G02*
X228562500Y-106375000I62500J0D01*
G01*
X229312500Y-106375000D01*
G75*
G02*
X229375000Y-106437500I0J-62500D01*
G01*
X229375000Y-106562500D01*
G75*
G02*
X229312500Y-106625000I-62500J0D01*
G01*
G37*
G36*
G01*
X228312500Y-106250000D02*
X228187500Y-106250000D01*
G75*
G02*
X228125000Y-106187500I0J62500D01*
G01*
X228125000Y-105437500D01*
G75*
G02*
X228187500Y-105375000I62500J0D01*
G01*
X228312500Y-105375000D01*
G75*
G02*
X228375000Y-105437500I0J-62500D01*
G01*
X228375000Y-106187500D01*
G75*
G02*
X228312500Y-106250000I-62500J0D01*
G01*
G37*
G36*
G01*
X227812500Y-106250000D02*
X227687500Y-106250000D01*
G75*
G02*
X227625000Y-106187500I0J62500D01*
G01*
X227625000Y-105437500D01*
G75*
G02*
X227687500Y-105375000I62500J0D01*
G01*
X227812500Y-105375000D01*
G75*
G02*
X227875000Y-105437500I0J-62500D01*
G01*
X227875000Y-106187500D01*
G75*
G02*
X227812500Y-106250000I-62500J0D01*
G01*
G37*
G36*
G01*
X227312500Y-106250000D02*
X227187500Y-106250000D01*
G75*
G02*
X227125000Y-106187500I0J62500D01*
G01*
X227125000Y-105437500D01*
G75*
G02*
X227187500Y-105375000I62500J0D01*
G01*
X227312500Y-105375000D01*
G75*
G02*
X227375000Y-105437500I0J-62500D01*
G01*
X227375000Y-106187500D01*
G75*
G02*
X227312500Y-106250000I-62500J0D01*
G01*
G37*
G36*
G01*
X226812500Y-106250000D02*
X226687500Y-106250000D01*
G75*
G02*
X226625000Y-106187500I0J62500D01*
G01*
X226625000Y-105437500D01*
G75*
G02*
X226687500Y-105375000I62500J0D01*
G01*
X226812500Y-105375000D01*
G75*
G02*
X226875000Y-105437500I0J-62500D01*
G01*
X226875000Y-106187500D01*
G75*
G02*
X226812500Y-106250000I-62500J0D01*
G01*
G37*
G36*
G01*
X226312500Y-106250000D02*
X226187500Y-106250000D01*
G75*
G02*
X226125000Y-106187500I0J62500D01*
G01*
X226125000Y-105437500D01*
G75*
G02*
X226187500Y-105375000I62500J0D01*
G01*
X226312500Y-105375000D01*
G75*
G02*
X226375000Y-105437500I0J-62500D01*
G01*
X226375000Y-106187500D01*
G75*
G02*
X226312500Y-106250000I-62500J0D01*
G01*
G37*
G36*
G01*
X225812500Y-106250000D02*
X225687500Y-106250000D01*
G75*
G02*
X225625000Y-106187500I0J62500D01*
G01*
X225625000Y-105437500D01*
G75*
G02*
X225687500Y-105375000I62500J0D01*
G01*
X225812500Y-105375000D01*
G75*
G02*
X225875000Y-105437500I0J-62500D01*
G01*
X225875000Y-106187500D01*
G75*
G02*
X225812500Y-106250000I-62500J0D01*
G01*
G37*
G36*
G01*
X225312500Y-106250000D02*
X225187500Y-106250000D01*
G75*
G02*
X225125000Y-106187500I0J62500D01*
G01*
X225125000Y-105437500D01*
G75*
G02*
X225187500Y-105375000I62500J0D01*
G01*
X225312500Y-105375000D01*
G75*
G02*
X225375000Y-105437500I0J-62500D01*
G01*
X225375000Y-106187500D01*
G75*
G02*
X225312500Y-106250000I-62500J0D01*
G01*
G37*
G36*
G01*
X224812500Y-106250000D02*
X224687500Y-106250000D01*
G75*
G02*
X224625000Y-106187500I0J62500D01*
G01*
X224625000Y-105437500D01*
G75*
G02*
X224687500Y-105375000I62500J0D01*
G01*
X224812500Y-105375000D01*
G75*
G02*
X224875000Y-105437500I0J-62500D01*
G01*
X224875000Y-106187500D01*
G75*
G02*
X224812500Y-106250000I-62500J0D01*
G01*
G37*
G36*
G01*
X224437500Y-106625000D02*
X223687500Y-106625000D01*
G75*
G02*
X223625000Y-106562500I0J62500D01*
G01*
X223625000Y-106437500D01*
G75*
G02*
X223687500Y-106375000I62500J0D01*
G01*
X224437500Y-106375000D01*
G75*
G02*
X224500000Y-106437500I0J-62500D01*
G01*
X224500000Y-106562500D01*
G75*
G02*
X224437500Y-106625000I-62500J0D01*
G01*
G37*
G36*
G01*
X224437500Y-107125000D02*
X223687500Y-107125000D01*
G75*
G02*
X223625000Y-107062500I0J62500D01*
G01*
X223625000Y-106937500D01*
G75*
G02*
X223687500Y-106875000I62500J0D01*
G01*
X224437500Y-106875000D01*
G75*
G02*
X224500000Y-106937500I0J-62500D01*
G01*
X224500000Y-107062500D01*
G75*
G02*
X224437500Y-107125000I-62500J0D01*
G01*
G37*
G36*
G01*
X224437500Y-107625000D02*
X223687500Y-107625000D01*
G75*
G02*
X223625000Y-107562500I0J62500D01*
G01*
X223625000Y-107437500D01*
G75*
G02*
X223687500Y-107375000I62500J0D01*
G01*
X224437500Y-107375000D01*
G75*
G02*
X224500000Y-107437500I0J-62500D01*
G01*
X224500000Y-107562500D01*
G75*
G02*
X224437500Y-107625000I-62500J0D01*
G01*
G37*
G36*
G01*
X224437500Y-108125000D02*
X223687500Y-108125000D01*
G75*
G02*
X223625000Y-108062500I0J62500D01*
G01*
X223625000Y-107937500D01*
G75*
G02*
X223687500Y-107875000I62500J0D01*
G01*
X224437500Y-107875000D01*
G75*
G02*
X224500000Y-107937500I0J-62500D01*
G01*
X224500000Y-108062500D01*
G75*
G02*
X224437500Y-108125000I-62500J0D01*
G01*
G37*
G36*
G01*
X224437500Y-108625000D02*
X223687500Y-108625000D01*
G75*
G02*
X223625000Y-108562500I0J62500D01*
G01*
X223625000Y-108437500D01*
G75*
G02*
X223687500Y-108375000I62500J0D01*
G01*
X224437500Y-108375000D01*
G75*
G02*
X224500000Y-108437500I0J-62500D01*
G01*
X224500000Y-108562500D01*
G75*
G02*
X224437500Y-108625000I-62500J0D01*
G01*
G37*
G36*
G01*
X224437500Y-109125000D02*
X223687500Y-109125000D01*
G75*
G02*
X223625000Y-109062500I0J62500D01*
G01*
X223625000Y-108937500D01*
G75*
G02*
X223687500Y-108875000I62500J0D01*
G01*
X224437500Y-108875000D01*
G75*
G02*
X224500000Y-108937500I0J-62500D01*
G01*
X224500000Y-109062500D01*
G75*
G02*
X224437500Y-109125000I-62500J0D01*
G01*
G37*
G36*
G01*
X224437500Y-109625000D02*
X223687500Y-109625000D01*
G75*
G02*
X223625000Y-109562500I0J62500D01*
G01*
X223625000Y-109437500D01*
G75*
G02*
X223687500Y-109375000I62500J0D01*
G01*
X224437500Y-109375000D01*
G75*
G02*
X224500000Y-109437500I0J-62500D01*
G01*
X224500000Y-109562500D01*
G75*
G02*
X224437500Y-109625000I-62500J0D01*
G01*
G37*
G36*
G01*
X224437500Y-110125000D02*
X223687500Y-110125000D01*
G75*
G02*
X223625000Y-110062500I0J62500D01*
G01*
X223625000Y-109937500D01*
G75*
G02*
X223687500Y-109875000I62500J0D01*
G01*
X224437500Y-109875000D01*
G75*
G02*
X224500000Y-109937500I0J-62500D01*
G01*
X224500000Y-110062500D01*
G75*
G02*
X224437500Y-110125000I-62500J0D01*
G01*
G37*
G36*
G01*
X225677500Y-109695000D02*
X225262500Y-109695000D01*
G75*
G02*
X225055000Y-109487500I0J207500D01*
G01*
X225055000Y-109072500D01*
G75*
G02*
X225262500Y-108865000I207500J0D01*
G01*
X225677500Y-108865000D01*
G75*
G02*
X225885000Y-109072500I0J-207500D01*
G01*
X225885000Y-109487500D01*
G75*
G02*
X225677500Y-109695000I-207500J0D01*
G01*
G37*
G36*
G01*
X226707500Y-109695000D02*
X226292500Y-109695000D01*
G75*
G02*
X226085000Y-109487500I0J207500D01*
G01*
X226085000Y-109072500D01*
G75*
G02*
X226292500Y-108865000I207500J0D01*
G01*
X226707500Y-108865000D01*
G75*
G02*
X226915000Y-109072500I0J-207500D01*
G01*
X226915000Y-109487500D01*
G75*
G02*
X226707500Y-109695000I-207500J0D01*
G01*
G37*
G36*
G01*
X227737500Y-109695000D02*
X227322500Y-109695000D01*
G75*
G02*
X227115000Y-109487500I0J207500D01*
G01*
X227115000Y-109072500D01*
G75*
G02*
X227322500Y-108865000I207500J0D01*
G01*
X227737500Y-108865000D01*
G75*
G02*
X227945000Y-109072500I0J-207500D01*
G01*
X227945000Y-109487500D01*
G75*
G02*
X227737500Y-109695000I-207500J0D01*
G01*
G37*
G36*
G01*
X225677500Y-108665000D02*
X225262500Y-108665000D01*
G75*
G02*
X225055000Y-108457500I0J207500D01*
G01*
X225055000Y-108042500D01*
G75*
G02*
X225262500Y-107835000I207500J0D01*
G01*
X225677500Y-107835000D01*
G75*
G02*
X225885000Y-108042500I0J-207500D01*
G01*
X225885000Y-108457500D01*
G75*
G02*
X225677500Y-108665000I-207500J0D01*
G01*
G37*
G36*
G01*
X226707500Y-108665000D02*
X226292500Y-108665000D01*
G75*
G02*
X226085000Y-108457500I0J207500D01*
G01*
X226085000Y-108042500D01*
G75*
G02*
X226292500Y-107835000I207500J0D01*
G01*
X226707500Y-107835000D01*
G75*
G02*
X226915000Y-108042500I0J-207500D01*
G01*
X226915000Y-108457500D01*
G75*
G02*
X226707500Y-108665000I-207500J0D01*
G01*
G37*
G36*
G01*
X227737500Y-108665000D02*
X227322500Y-108665000D01*
G75*
G02*
X227115000Y-108457500I0J207500D01*
G01*
X227115000Y-108042500D01*
G75*
G02*
X227322500Y-107835000I207500J0D01*
G01*
X227737500Y-107835000D01*
G75*
G02*
X227945000Y-108042500I0J-207500D01*
G01*
X227945000Y-108457500D01*
G75*
G02*
X227737500Y-108665000I-207500J0D01*
G01*
G37*
G36*
G01*
X225677500Y-107635000D02*
X225262500Y-107635000D01*
G75*
G02*
X225055000Y-107427500I0J207500D01*
G01*
X225055000Y-107012500D01*
G75*
G02*
X225262500Y-106805000I207500J0D01*
G01*
X225677500Y-106805000D01*
G75*
G02*
X225885000Y-107012500I0J-207500D01*
G01*
X225885000Y-107427500D01*
G75*
G02*
X225677500Y-107635000I-207500J0D01*
G01*
G37*
G36*
G01*
X226707500Y-107635000D02*
X226292500Y-107635000D01*
G75*
G02*
X226085000Y-107427500I0J207500D01*
G01*
X226085000Y-107012500D01*
G75*
G02*
X226292500Y-106805000I207500J0D01*
G01*
X226707500Y-106805000D01*
G75*
G02*
X226915000Y-107012500I0J-207500D01*
G01*
X226915000Y-107427500D01*
G75*
G02*
X226707500Y-107635000I-207500J0D01*
G01*
G37*
G36*
G01*
X227737500Y-107635000D02*
X227322500Y-107635000D01*
G75*
G02*
X227115000Y-107427500I0J207500D01*
G01*
X227115000Y-107012500D01*
G75*
G02*
X227322500Y-106805000I207500J0D01*
G01*
X227737500Y-106805000D01*
G75*
G02*
X227945000Y-107012500I0J-207500D01*
G01*
X227945000Y-107427500D01*
G75*
G02*
X227737500Y-107635000I-207500J0D01*
G01*
G37*
G36*
G01*
X184756250Y-95650000D02*
X184243750Y-95650000D01*
G75*
G02*
X184025000Y-95431250I0J218750D01*
G01*
X184025000Y-94993750D01*
G75*
G02*
X184243750Y-94775000I218750J0D01*
G01*
X184756250Y-94775000D01*
G75*
G02*
X184975000Y-94993750I0J-218750D01*
G01*
X184975000Y-95431250D01*
G75*
G02*
X184756250Y-95650000I-218750J0D01*
G01*
G37*
G36*
G01*
X184756250Y-97225000D02*
X184243750Y-97225000D01*
G75*
G02*
X184025000Y-97006250I0J218750D01*
G01*
X184025000Y-96568750D01*
G75*
G02*
X184243750Y-96350000I218750J0D01*
G01*
X184756250Y-96350000D01*
G75*
G02*
X184975000Y-96568750I0J-218750D01*
G01*
X184975000Y-97006250D01*
G75*
G02*
X184756250Y-97225000I-218750J0D01*
G01*
G37*
G36*
G01*
X184756250Y-63650000D02*
X184243750Y-63650000D01*
G75*
G02*
X184025000Y-63431250I0J218750D01*
G01*
X184025000Y-62993750D01*
G75*
G02*
X184243750Y-62775000I218750J0D01*
G01*
X184756250Y-62775000D01*
G75*
G02*
X184975000Y-62993750I0J-218750D01*
G01*
X184975000Y-63431250D01*
G75*
G02*
X184756250Y-63650000I-218750J0D01*
G01*
G37*
G36*
G01*
X184756250Y-65225000D02*
X184243750Y-65225000D01*
G75*
G02*
X184025000Y-65006250I0J218750D01*
G01*
X184025000Y-64568750D01*
G75*
G02*
X184243750Y-64350000I218750J0D01*
G01*
X184756250Y-64350000D01*
G75*
G02*
X184975000Y-64568750I0J-218750D01*
G01*
X184975000Y-65006250D01*
G75*
G02*
X184756250Y-65225000I-218750J0D01*
G01*
G37*
G36*
G01*
X212506250Y-115900000D02*
X211993750Y-115900000D01*
G75*
G02*
X211775000Y-115681250I0J218750D01*
G01*
X211775000Y-115243750D01*
G75*
G02*
X211993750Y-115025000I218750J0D01*
G01*
X212506250Y-115025000D01*
G75*
G02*
X212725000Y-115243750I0J-218750D01*
G01*
X212725000Y-115681250D01*
G75*
G02*
X212506250Y-115900000I-218750J0D01*
G01*
G37*
G36*
G01*
X212506250Y-117475000D02*
X211993750Y-117475000D01*
G75*
G02*
X211775000Y-117256250I0J218750D01*
G01*
X211775000Y-116818750D01*
G75*
G02*
X211993750Y-116600000I218750J0D01*
G01*
X212506250Y-116600000D01*
G75*
G02*
X212725000Y-116818750I0J-218750D01*
G01*
X212725000Y-117256250D01*
G75*
G02*
X212506250Y-117475000I-218750J0D01*
G01*
G37*
G36*
G01*
X181756250Y-95650000D02*
X181243750Y-95650000D01*
G75*
G02*
X181025000Y-95431250I0J218750D01*
G01*
X181025000Y-94993750D01*
G75*
G02*
X181243750Y-94775000I218750J0D01*
G01*
X181756250Y-94775000D01*
G75*
G02*
X181975000Y-94993750I0J-218750D01*
G01*
X181975000Y-95431250D01*
G75*
G02*
X181756250Y-95650000I-218750J0D01*
G01*
G37*
G36*
G01*
X181756250Y-97225000D02*
X181243750Y-97225000D01*
G75*
G02*
X181025000Y-97006250I0J218750D01*
G01*
X181025000Y-96568750D01*
G75*
G02*
X181243750Y-96350000I218750J0D01*
G01*
X181756250Y-96350000D01*
G75*
G02*
X181975000Y-96568750I0J-218750D01*
G01*
X181975000Y-97006250D01*
G75*
G02*
X181756250Y-97225000I-218750J0D01*
G01*
G37*
G36*
G01*
X232243750Y-102850000D02*
X232756250Y-102850000D01*
G75*
G02*
X232975000Y-103068750I0J-218750D01*
G01*
X232975000Y-103506250D01*
G75*
G02*
X232756250Y-103725000I-218750J0D01*
G01*
X232243750Y-103725000D01*
G75*
G02*
X232025000Y-103506250I0J218750D01*
G01*
X232025000Y-103068750D01*
G75*
G02*
X232243750Y-102850000I218750J0D01*
G01*
G37*
G36*
G01*
X232243750Y-101275000D02*
X232756250Y-101275000D01*
G75*
G02*
X232975000Y-101493750I0J-218750D01*
G01*
X232975000Y-101931250D01*
G75*
G02*
X232756250Y-102150000I-218750J0D01*
G01*
X232243750Y-102150000D01*
G75*
G02*
X232025000Y-101931250I0J218750D01*
G01*
X232025000Y-101493750D01*
G75*
G02*
X232243750Y-101275000I218750J0D01*
G01*
G37*
G36*
G01*
X240243750Y-102850000D02*
X240756250Y-102850000D01*
G75*
G02*
X240975000Y-103068750I0J-218750D01*
G01*
X240975000Y-103506250D01*
G75*
G02*
X240756250Y-103725000I-218750J0D01*
G01*
X240243750Y-103725000D01*
G75*
G02*
X240025000Y-103506250I0J218750D01*
G01*
X240025000Y-103068750D01*
G75*
G02*
X240243750Y-102850000I218750J0D01*
G01*
G37*
G36*
G01*
X240243750Y-101275000D02*
X240756250Y-101275000D01*
G75*
G02*
X240975000Y-101493750I0J-218750D01*
G01*
X240975000Y-101931250D01*
G75*
G02*
X240756250Y-102150000I-218750J0D01*
G01*
X240243750Y-102150000D01*
G75*
G02*
X240025000Y-101931250I0J218750D01*
G01*
X240025000Y-101493750D01*
G75*
G02*
X240243750Y-101275000I218750J0D01*
G01*
G37*
G36*
G01*
X181756250Y-63650000D02*
X181243750Y-63650000D01*
G75*
G02*
X181025000Y-63431250I0J218750D01*
G01*
X181025000Y-62993750D01*
G75*
G02*
X181243750Y-62775000I218750J0D01*
G01*
X181756250Y-62775000D01*
G75*
G02*
X181975000Y-62993750I0J-218750D01*
G01*
X181975000Y-63431250D01*
G75*
G02*
X181756250Y-63650000I-218750J0D01*
G01*
G37*
G36*
G01*
X181756250Y-65225000D02*
X181243750Y-65225000D01*
G75*
G02*
X181025000Y-65006250I0J218750D01*
G01*
X181025000Y-64568750D01*
G75*
G02*
X181243750Y-64350000I218750J0D01*
G01*
X181756250Y-64350000D01*
G75*
G02*
X181975000Y-64568750I0J-218750D01*
G01*
X181975000Y-65006250D01*
G75*
G02*
X181756250Y-65225000I-218750J0D01*
G01*
G37*
G36*
G01*
X184056250Y-79650000D02*
X183543750Y-79650000D01*
G75*
G02*
X183325000Y-79431250I0J218750D01*
G01*
X183325000Y-78993750D01*
G75*
G02*
X183543750Y-78775000I218750J0D01*
G01*
X184056250Y-78775000D01*
G75*
G02*
X184275000Y-78993750I0J-218750D01*
G01*
X184275000Y-79431250D01*
G75*
G02*
X184056250Y-79650000I-218750J0D01*
G01*
G37*
G36*
G01*
X184056250Y-81225000D02*
X183543750Y-81225000D01*
G75*
G02*
X183325000Y-81006250I0J218750D01*
G01*
X183325000Y-80568750D01*
G75*
G02*
X183543750Y-80350000I218750J0D01*
G01*
X184056250Y-80350000D01*
G75*
G02*
X184275000Y-80568750I0J-218750D01*
G01*
X184275000Y-81006250D01*
G75*
G02*
X184056250Y-81225000I-218750J0D01*
G01*
G37*
G36*
G01*
X230150000Y-114743750D02*
X230150000Y-115256250D01*
G75*
G02*
X229931250Y-115475000I-218750J0D01*
G01*
X229493750Y-115475000D01*
G75*
G02*
X229275000Y-115256250I0J218750D01*
G01*
X229275000Y-114743750D01*
G75*
G02*
X229493750Y-114525000I218750J0D01*
G01*
X229931250Y-114525000D01*
G75*
G02*
X230150000Y-114743750I0J-218750D01*
G01*
G37*
G36*
G01*
X231725000Y-114743750D02*
X231725000Y-115256250D01*
G75*
G02*
X231506250Y-115475000I-218750J0D01*
G01*
X231068750Y-115475000D01*
G75*
G02*
X230850000Y-115256250I0J218750D01*
G01*
X230850000Y-114743750D01*
G75*
G02*
X231068750Y-114525000I218750J0D01*
G01*
X231506250Y-114525000D01*
G75*
G02*
X231725000Y-114743750I0J-218750D01*
G01*
G37*
G36*
G01*
X217743750Y-101600000D02*
X218256250Y-101600000D01*
G75*
G02*
X218475000Y-101818750I0J-218750D01*
G01*
X218475000Y-102256250D01*
G75*
G02*
X218256250Y-102475000I-218750J0D01*
G01*
X217743750Y-102475000D01*
G75*
G02*
X217525000Y-102256250I0J218750D01*
G01*
X217525000Y-101818750D01*
G75*
G02*
X217743750Y-101600000I218750J0D01*
G01*
G37*
G36*
G01*
X217743750Y-100025000D02*
X218256250Y-100025000D01*
G75*
G02*
X218475000Y-100243750I0J-218750D01*
G01*
X218475000Y-100681250D01*
G75*
G02*
X218256250Y-100900000I-218750J0D01*
G01*
X217743750Y-100900000D01*
G75*
G02*
X217525000Y-100681250I0J218750D01*
G01*
X217525000Y-100243750D01*
G75*
G02*
X217743750Y-100025000I218750J0D01*
G01*
G37*
D11*
X205000000Y-105250000D03*
X207000000Y-104300000D03*
X207000000Y-106200000D03*
G36*
G01*
X183512500Y-92456250D02*
X183512500Y-91543750D01*
G75*
G02*
X183756250Y-91300000I243750J0D01*
G01*
X184243750Y-91300000D01*
G75*
G02*
X184487500Y-91543750I0J-243750D01*
G01*
X184487500Y-92456250D01*
G75*
G02*
X184243750Y-92700000I-243750J0D01*
G01*
X183756250Y-92700000D01*
G75*
G02*
X183512500Y-92456250I0J243750D01*
G01*
G37*
G36*
G01*
X181637500Y-92456250D02*
X181637500Y-91543750D01*
G75*
G02*
X181881250Y-91300000I243750J0D01*
G01*
X182368750Y-91300000D01*
G75*
G02*
X182612500Y-91543750I0J-243750D01*
G01*
X182612500Y-92456250D01*
G75*
G02*
X182368750Y-92700000I-243750J0D01*
G01*
X181881250Y-92700000D01*
G75*
G02*
X181637500Y-92456250I0J243750D01*
G01*
G37*
G36*
G01*
X183350000Y-60256250D02*
X183350000Y-59743750D01*
G75*
G02*
X183568750Y-59525000I218750J0D01*
G01*
X184006250Y-59525000D01*
G75*
G02*
X184225000Y-59743750I0J-218750D01*
G01*
X184225000Y-60256250D01*
G75*
G02*
X184006250Y-60475000I-218750J0D01*
G01*
X183568750Y-60475000D01*
G75*
G02*
X183350000Y-60256250I0J218750D01*
G01*
G37*
G36*
G01*
X181775000Y-60256250D02*
X181775000Y-59743750D01*
G75*
G02*
X181993750Y-59525000I218750J0D01*
G01*
X182431250Y-59525000D01*
G75*
G02*
X182650000Y-59743750I0J-218750D01*
G01*
X182650000Y-60256250D01*
G75*
G02*
X182431250Y-60475000I-218750J0D01*
G01*
X181993750Y-60475000D01*
G75*
G02*
X181775000Y-60256250I0J218750D01*
G01*
G37*
G36*
G01*
X183350000Y-76256250D02*
X183350000Y-75743750D01*
G75*
G02*
X183568750Y-75525000I218750J0D01*
G01*
X184006250Y-75525000D01*
G75*
G02*
X184225000Y-75743750I0J-218750D01*
G01*
X184225000Y-76256250D01*
G75*
G02*
X184006250Y-76475000I-218750J0D01*
G01*
X183568750Y-76475000D01*
G75*
G02*
X183350000Y-76256250I0J218750D01*
G01*
G37*
G36*
G01*
X181775000Y-76256250D02*
X181775000Y-75743750D01*
G75*
G02*
X181993750Y-75525000I218750J0D01*
G01*
X182431250Y-75525000D01*
G75*
G02*
X182650000Y-75743750I0J-218750D01*
G01*
X182650000Y-76256250D01*
G75*
G02*
X182431250Y-76475000I-218750J0D01*
G01*
X181993750Y-76475000D01*
G75*
G02*
X181775000Y-76256250I0J218750D01*
G01*
G37*
G36*
G01*
X238450000Y-106956250D02*
X238450000Y-106043750D01*
G75*
G02*
X238693750Y-105800000I243750J0D01*
G01*
X239181250Y-105800000D01*
G75*
G02*
X239425000Y-106043750I0J-243750D01*
G01*
X239425000Y-106956250D01*
G75*
G02*
X239181250Y-107200000I-243750J0D01*
G01*
X238693750Y-107200000D01*
G75*
G02*
X238450000Y-106956250I0J243750D01*
G01*
G37*
G36*
G01*
X236575000Y-106956250D02*
X236575000Y-106043750D01*
G75*
G02*
X236818750Y-105800000I243750J0D01*
G01*
X237306250Y-105800000D01*
G75*
G02*
X237550000Y-106043750I0J-243750D01*
G01*
X237550000Y-106956250D01*
G75*
G02*
X237306250Y-107200000I-243750J0D01*
G01*
X236818750Y-107200000D01*
G75*
G02*
X236575000Y-106956250I0J243750D01*
G01*
G37*
G36*
G01*
X237550000Y-110043750D02*
X237550000Y-110956250D01*
G75*
G02*
X237306250Y-111200000I-243750J0D01*
G01*
X236818750Y-111200000D01*
G75*
G02*
X236575000Y-110956250I0J243750D01*
G01*
X236575000Y-110043750D01*
G75*
G02*
X236818750Y-109800000I243750J0D01*
G01*
X237306250Y-109800000D01*
G75*
G02*
X237550000Y-110043750I0J-243750D01*
G01*
G37*
G36*
G01*
X239425000Y-110043750D02*
X239425000Y-110956250D01*
G75*
G02*
X239181250Y-111200000I-243750J0D01*
G01*
X238693750Y-111200000D01*
G75*
G02*
X238450000Y-110956250I0J243750D01*
G01*
X238450000Y-110043750D01*
G75*
G02*
X238693750Y-109800000I243750J0D01*
G01*
X239181250Y-109800000D01*
G75*
G02*
X239425000Y-110043750I0J-243750D01*
G01*
G37*
D12*
X201250000Y-105000000D03*
X201250000Y-109000000D03*
G36*
G01*
X244650000Y-105743750D02*
X244650000Y-106256250D01*
G75*
G02*
X244431250Y-106475000I-218750J0D01*
G01*
X243993750Y-106475000D01*
G75*
G02*
X243775000Y-106256250I0J218750D01*
G01*
X243775000Y-105743750D01*
G75*
G02*
X243993750Y-105525000I218750J0D01*
G01*
X244431250Y-105525000D01*
G75*
G02*
X244650000Y-105743750I0J-218750D01*
G01*
G37*
G36*
G01*
X246225000Y-105743750D02*
X246225000Y-106256250D01*
G75*
G02*
X246006250Y-106475000I-218750J0D01*
G01*
X245568750Y-106475000D01*
G75*
G02*
X245350000Y-106256250I0J218750D01*
G01*
X245350000Y-105743750D01*
G75*
G02*
X245568750Y-105525000I218750J0D01*
G01*
X246006250Y-105525000D01*
G75*
G02*
X246225000Y-105743750I0J-218750D01*
G01*
G37*
G36*
G01*
X236350000Y-101756250D02*
X236350000Y-101243750D01*
G75*
G02*
X236568750Y-101025000I218750J0D01*
G01*
X237006250Y-101025000D01*
G75*
G02*
X237225000Y-101243750I0J-218750D01*
G01*
X237225000Y-101756250D01*
G75*
G02*
X237006250Y-101975000I-218750J0D01*
G01*
X236568750Y-101975000D01*
G75*
G02*
X236350000Y-101756250I0J218750D01*
G01*
G37*
G36*
G01*
X234775000Y-101756250D02*
X234775000Y-101243750D01*
G75*
G02*
X234993750Y-101025000I218750J0D01*
G01*
X235431250Y-101025000D01*
G75*
G02*
X235650000Y-101243750I0J-218750D01*
G01*
X235650000Y-101756250D01*
G75*
G02*
X235431250Y-101975000I-218750J0D01*
G01*
X234993750Y-101975000D01*
G75*
G02*
X234775000Y-101756250I0J218750D01*
G01*
G37*
G36*
G01*
X235650000Y-103243750D02*
X235650000Y-103756250D01*
G75*
G02*
X235431250Y-103975000I-218750J0D01*
G01*
X234993750Y-103975000D01*
G75*
G02*
X234775000Y-103756250I0J218750D01*
G01*
X234775000Y-103243750D01*
G75*
G02*
X234993750Y-103025000I218750J0D01*
G01*
X235431250Y-103025000D01*
G75*
G02*
X235650000Y-103243750I0J-218750D01*
G01*
G37*
G36*
G01*
X237225000Y-103243750D02*
X237225000Y-103756250D01*
G75*
G02*
X237006250Y-103975000I-218750J0D01*
G01*
X236568750Y-103975000D01*
G75*
G02*
X236350000Y-103756250I0J218750D01*
G01*
X236350000Y-103243750D01*
G75*
G02*
X236568750Y-103025000I218750J0D01*
G01*
X237006250Y-103025000D01*
G75*
G02*
X237225000Y-103243750I0J-218750D01*
G01*
G37*
G36*
G01*
X247743750Y-106850000D02*
X248256250Y-106850000D01*
G75*
G02*
X248475000Y-107068750I0J-218750D01*
G01*
X248475000Y-107506250D01*
G75*
G02*
X248256250Y-107725000I-218750J0D01*
G01*
X247743750Y-107725000D01*
G75*
G02*
X247525000Y-107506250I0J218750D01*
G01*
X247525000Y-107068750D01*
G75*
G02*
X247743750Y-106850000I218750J0D01*
G01*
G37*
G36*
G01*
X247743750Y-105275000D02*
X248256250Y-105275000D01*
G75*
G02*
X248475000Y-105493750I0J-218750D01*
G01*
X248475000Y-105931250D01*
G75*
G02*
X248256250Y-106150000I-218750J0D01*
G01*
X247743750Y-106150000D01*
G75*
G02*
X247525000Y-105931250I0J218750D01*
G01*
X247525000Y-105493750D01*
G75*
G02*
X247743750Y-105275000I218750J0D01*
G01*
G37*
G36*
G01*
X245350000Y-111256250D02*
X245350000Y-110743750D01*
G75*
G02*
X245568750Y-110525000I218750J0D01*
G01*
X246006250Y-110525000D01*
G75*
G02*
X246225000Y-110743750I0J-218750D01*
G01*
X246225000Y-111256250D01*
G75*
G02*
X246006250Y-111475000I-218750J0D01*
G01*
X245568750Y-111475000D01*
G75*
G02*
X245350000Y-111256250I0J218750D01*
G01*
G37*
G36*
G01*
X243775000Y-111256250D02*
X243775000Y-110743750D01*
G75*
G02*
X243993750Y-110525000I218750J0D01*
G01*
X244431250Y-110525000D01*
G75*
G02*
X244650000Y-110743750I0J-218750D01*
G01*
X244650000Y-111256250D01*
G75*
G02*
X244431250Y-111475000I-218750J0D01*
G01*
X243993750Y-111475000D01*
G75*
G02*
X243775000Y-111256250I0J218750D01*
G01*
G37*
G36*
G01*
X234450000Y-113456250D02*
X234450000Y-112543750D01*
G75*
G02*
X234693750Y-112300000I243750J0D01*
G01*
X235181250Y-112300000D01*
G75*
G02*
X235425000Y-112543750I0J-243750D01*
G01*
X235425000Y-113456250D01*
G75*
G02*
X235181250Y-113700000I-243750J0D01*
G01*
X234693750Y-113700000D01*
G75*
G02*
X234450000Y-113456250I0J243750D01*
G01*
G37*
G36*
G01*
X232575000Y-113456250D02*
X232575000Y-112543750D01*
G75*
G02*
X232818750Y-112300000I243750J0D01*
G01*
X233306250Y-112300000D01*
G75*
G02*
X233550000Y-112543750I0J-243750D01*
G01*
X233550000Y-113456250D01*
G75*
G02*
X233306250Y-113700000I-243750J0D01*
G01*
X232818750Y-113700000D01*
G75*
G02*
X232575000Y-113456250I0J243750D01*
G01*
G37*
G36*
G01*
X241743750Y-110850000D02*
X242256250Y-110850000D01*
G75*
G02*
X242475000Y-111068750I0J-218750D01*
G01*
X242475000Y-111506250D01*
G75*
G02*
X242256250Y-111725000I-218750J0D01*
G01*
X241743750Y-111725000D01*
G75*
G02*
X241525000Y-111506250I0J218750D01*
G01*
X241525000Y-111068750D01*
G75*
G02*
X241743750Y-110850000I218750J0D01*
G01*
G37*
G36*
G01*
X241743750Y-109275000D02*
X242256250Y-109275000D01*
G75*
G02*
X242475000Y-109493750I0J-218750D01*
G01*
X242475000Y-109931250D01*
G75*
G02*
X242256250Y-110150000I-218750J0D01*
G01*
X241743750Y-110150000D01*
G75*
G02*
X241525000Y-109931250I0J218750D01*
G01*
X241525000Y-109493750D01*
G75*
G02*
X241743750Y-109275000I218750J0D01*
G01*
G37*
G36*
G01*
X241743750Y-106850000D02*
X242256250Y-106850000D01*
G75*
G02*
X242475000Y-107068750I0J-218750D01*
G01*
X242475000Y-107506250D01*
G75*
G02*
X242256250Y-107725000I-218750J0D01*
G01*
X241743750Y-107725000D01*
G75*
G02*
X241525000Y-107506250I0J218750D01*
G01*
X241525000Y-107068750D01*
G75*
G02*
X241743750Y-106850000I218750J0D01*
G01*
G37*
G36*
G01*
X241743750Y-105275000D02*
X242256250Y-105275000D01*
G75*
G02*
X242475000Y-105493750I0J-218750D01*
G01*
X242475000Y-105931250D01*
G75*
G02*
X242256250Y-106150000I-218750J0D01*
G01*
X241743750Y-106150000D01*
G75*
G02*
X241525000Y-105931250I0J218750D01*
G01*
X241525000Y-105493750D01*
G75*
G02*
X241743750Y-105275000I218750J0D01*
G01*
G37*
G36*
G01*
X219050000Y-112043750D02*
X219050000Y-112956250D01*
G75*
G02*
X218806250Y-113200000I-243750J0D01*
G01*
X218318750Y-113200000D01*
G75*
G02*
X218075000Y-112956250I0J243750D01*
G01*
X218075000Y-112043750D01*
G75*
G02*
X218318750Y-111800000I243750J0D01*
G01*
X218806250Y-111800000D01*
G75*
G02*
X219050000Y-112043750I0J-243750D01*
G01*
G37*
G36*
G01*
X220925000Y-112043750D02*
X220925000Y-112956250D01*
G75*
G02*
X220681250Y-113200000I-243750J0D01*
G01*
X220193750Y-113200000D01*
G75*
G02*
X219950000Y-112956250I0J243750D01*
G01*
X219950000Y-112043750D01*
G75*
G02*
X220193750Y-111800000I243750J0D01*
G01*
X220681250Y-111800000D01*
G75*
G02*
X220925000Y-112043750I0J-243750D01*
G01*
G37*
G36*
G01*
X247743750Y-110850000D02*
X248256250Y-110850000D01*
G75*
G02*
X248475000Y-111068750I0J-218750D01*
G01*
X248475000Y-111506250D01*
G75*
G02*
X248256250Y-111725000I-218750J0D01*
G01*
X247743750Y-111725000D01*
G75*
G02*
X247525000Y-111506250I0J218750D01*
G01*
X247525000Y-111068750D01*
G75*
G02*
X247743750Y-110850000I218750J0D01*
G01*
G37*
G36*
G01*
X247743750Y-109275000D02*
X248256250Y-109275000D01*
G75*
G02*
X248475000Y-109493750I0J-218750D01*
G01*
X248475000Y-109931250D01*
G75*
G02*
X248256250Y-110150000I-218750J0D01*
G01*
X247743750Y-110150000D01*
G75*
G02*
X247525000Y-109931250I0J218750D01*
G01*
X247525000Y-109493750D01*
G75*
G02*
X247743750Y-109275000I218750J0D01*
G01*
G37*
G36*
G01*
X225840000Y-114293750D02*
X225840000Y-115206250D01*
G75*
G02*
X225596250Y-115450000I-243750J0D01*
G01*
X225108750Y-115450000D01*
G75*
G02*
X224865000Y-115206250I0J243750D01*
G01*
X224865000Y-114293750D01*
G75*
G02*
X225108750Y-114050000I243750J0D01*
G01*
X225596250Y-114050000D01*
G75*
G02*
X225840000Y-114293750I0J-243750D01*
G01*
G37*
G36*
G01*
X227715000Y-114293750D02*
X227715000Y-115206250D01*
G75*
G02*
X227471250Y-115450000I-243750J0D01*
G01*
X226983750Y-115450000D01*
G75*
G02*
X226740000Y-115206250I0J243750D01*
G01*
X226740000Y-114293750D01*
G75*
G02*
X226983750Y-114050000I243750J0D01*
G01*
X227471250Y-114050000D01*
G75*
G02*
X227715000Y-114293750I0J-243750D01*
G01*
G37*
G36*
G01*
X225840000Y-116793750D02*
X225840000Y-117706250D01*
G75*
G02*
X225596250Y-117950000I-243750J0D01*
G01*
X225108750Y-117950000D01*
G75*
G02*
X224865000Y-117706250I0J243750D01*
G01*
X224865000Y-116793750D01*
G75*
G02*
X225108750Y-116550000I243750J0D01*
G01*
X225596250Y-116550000D01*
G75*
G02*
X225840000Y-116793750I0J-243750D01*
G01*
G37*
G36*
G01*
X227715000Y-116793750D02*
X227715000Y-117706250D01*
G75*
G02*
X227471250Y-117950000I-243750J0D01*
G01*
X226983750Y-117950000D01*
G75*
G02*
X226740000Y-117706250I0J243750D01*
G01*
X226740000Y-116793750D01*
G75*
G02*
X226983750Y-116550000I243750J0D01*
G01*
X227471250Y-116550000D01*
G75*
G02*
X227715000Y-116793750I0J-243750D01*
G01*
G37*
G36*
G01*
X227860737Y-100169406D02*
X228183264Y-99771119D01*
G75*
G02*
X228490929Y-99738782I170001J-137664D01*
G01*
X228830930Y-100014109D01*
G75*
G02*
X228863267Y-100321774I-137664J-170001D01*
G01*
X228540740Y-100720061D01*
G75*
G02*
X228233075Y-100752398I-170001J137664D01*
G01*
X227893074Y-100477071D01*
G75*
G02*
X227860737Y-100169406I137664J170001D01*
G01*
G37*
G36*
G01*
X226636733Y-99178226D02*
X226959260Y-98779939D01*
G75*
G02*
X227266925Y-98747602I170001J-137664D01*
G01*
X227606926Y-99022929D01*
G75*
G02*
X227639263Y-99330594I-137664J-170001D01*
G01*
X227316736Y-99728881D01*
G75*
G02*
X227009071Y-99761218I-170001J137664D01*
G01*
X226669070Y-99485891D01*
G75*
G02*
X226636733Y-99178226I137664J170001D01*
G01*
G37*
G36*
G01*
X222580594Y-100110737D02*
X222978881Y-100433264D01*
G75*
G02*
X223011218Y-100740929I-137664J-170001D01*
G01*
X222735891Y-101080930D01*
G75*
G02*
X222428226Y-101113267I-170001J137664D01*
G01*
X222029939Y-100790740D01*
G75*
G02*
X221997602Y-100483075I137664J170001D01*
G01*
X222272929Y-100143074D01*
G75*
G02*
X222580594Y-100110737I170001J-137664D01*
G01*
G37*
G36*
G01*
X223571774Y-98886733D02*
X223970061Y-99209260D01*
G75*
G02*
X224002398Y-99516925I-137664J-170001D01*
G01*
X223727071Y-99856926D01*
G75*
G02*
X223419406Y-99889263I-170001J137664D01*
G01*
X223021119Y-99566736D01*
G75*
G02*
X222988782Y-99259071I137664J170001D01*
G01*
X223264109Y-98919070D01*
G75*
G02*
X223571774Y-98886733I170001J-137664D01*
G01*
G37*
D13*
X196800000Y-110800000D03*
X189700000Y-110800000D03*
X189700000Y-103700000D03*
X196800000Y-103700000D03*
G36*
G01*
X246501110Y-73173635D02*
X247013610Y-73173635D01*
G75*
G02*
X247232360Y-73392385I0J-218750D01*
G01*
X247232360Y-73829885D01*
G75*
G02*
X247013610Y-74048635I-218750J0D01*
G01*
X246501110Y-74048635D01*
G75*
G02*
X246282360Y-73829885I0J218750D01*
G01*
X246282360Y-73392385D01*
G75*
G02*
X246501110Y-73173635I218750J0D01*
G01*
G37*
G36*
G01*
X246501110Y-71598635D02*
X247013610Y-71598635D01*
G75*
G02*
X247232360Y-71817385I0J-218750D01*
G01*
X247232360Y-72254885D01*
G75*
G02*
X247013610Y-72473635I-218750J0D01*
G01*
X246501110Y-72473635D01*
G75*
G02*
X246282360Y-72254885I0J218750D01*
G01*
X246282360Y-71817385D01*
G75*
G02*
X246501110Y-71598635I218750J0D01*
G01*
G37*
G36*
G01*
X246501110Y-65673635D02*
X247013610Y-65673635D01*
G75*
G02*
X247232360Y-65892385I0J-218750D01*
G01*
X247232360Y-66329885D01*
G75*
G02*
X247013610Y-66548635I-218750J0D01*
G01*
X246501110Y-66548635D01*
G75*
G02*
X246282360Y-66329885I0J218750D01*
G01*
X246282360Y-65892385D01*
G75*
G02*
X246501110Y-65673635I218750J0D01*
G01*
G37*
G36*
G01*
X246501110Y-64098635D02*
X247013610Y-64098635D01*
G75*
G02*
X247232360Y-64317385I0J-218750D01*
G01*
X247232360Y-64754885D01*
G75*
G02*
X247013610Y-64973635I-218750J0D01*
G01*
X246501110Y-64973635D01*
G75*
G02*
X246282360Y-64754885I0J218750D01*
G01*
X246282360Y-64317385D01*
G75*
G02*
X246501110Y-64098635I218750J0D01*
G01*
G37*
M02*
