G04 #@! TF.GenerationSoftware,KiCad,Pcbnew,(5.1.6)-1*
G04 #@! TF.CreationDate,2022-08-15T01:44:06-07:00*
G04 #@! TF.ProjectId,MFRC522 PCB ESP32,4d465243-3532-4322-9050-434220455350,rev?*
G04 #@! TF.SameCoordinates,Original*
G04 #@! TF.FileFunction,Copper,L1,Top*
G04 #@! TF.FilePolarity,Positive*
%FSLAX46Y46*%
G04 Gerber Fmt 4.6, Leading zero omitted, Abs format (unit mm)*
G04 Created by KiCad (PCBNEW (5.1.6)-1) date 2022-08-15 01:44:06*
%MOMM*%
%LPD*%
G01*
G04 APERTURE LIST*
G04 #@! TA.AperFunction,EtchedComponent*
%ADD10C,0.254000*%
G04 #@! TD*
G04 #@! TA.AperFunction,EtchedComponent*
%ADD11C,0.100000*%
G04 #@! TD*
G04 #@! TA.AperFunction,ComponentPad*
%ADD12O,1.900000X1.900000*%
G04 #@! TD*
G04 #@! TA.AperFunction,ComponentPad*
%ADD13R,1.900000X1.900000*%
G04 #@! TD*
G04 #@! TA.AperFunction,ComponentPad*
%ADD14R,1.700000X1.700000*%
G04 #@! TD*
G04 #@! TA.AperFunction,SMDPad,CuDef*
%ADD15C,0.100000*%
G04 #@! TD*
G04 #@! TA.AperFunction,SMDPad,CuDef*
%ADD16R,3.100000X3.100000*%
G04 #@! TD*
G04 #@! TA.AperFunction,SMDPad,CuDef*
%ADD17R,0.900000X0.800000*%
G04 #@! TD*
G04 #@! TA.AperFunction,SMDPad,CuDef*
%ADD18R,1.800000X2.500000*%
G04 #@! TD*
G04 #@! TA.AperFunction,SMDPad,CuDef*
%ADD19R,2.300000X2.300000*%
G04 #@! TD*
G04 #@! TA.AperFunction,SMDPad,CuDef*
%ADD20C,1.000000*%
G04 #@! TD*
G04 #@! TA.AperFunction,ViaPad*
%ADD21C,0.600000*%
G04 #@! TD*
G04 #@! TA.AperFunction,ViaPad*
%ADD22C,0.800000*%
G04 #@! TD*
G04 #@! TA.AperFunction,ViaPad*
%ADD23C,0.907000*%
G04 #@! TD*
G04 #@! TA.AperFunction,Conductor*
%ADD24C,0.356000*%
G04 #@! TD*
G04 #@! TA.AperFunction,Conductor*
%ADD25C,0.254000*%
G04 #@! TD*
G04 #@! TA.AperFunction,Conductor*
%ADD26C,0.508000*%
G04 #@! TD*
G04 #@! TA.AperFunction,Conductor*
%ADD27C,0.381000*%
G04 #@! TD*
G04 APERTURE END LIST*
D10*
X240054000Y-119733000D02*
X240418000Y-120613000D01*
X239082000Y-120613000D02*
X239446000Y-119733000D01*
X238186000Y-121002000D02*
X238825000Y-120481000D01*
X237748000Y-120564000D02*
X238186000Y-121002000D01*
X238269000Y-119925000D02*
X237748000Y-120564000D01*
X237229000Y-119310000D02*
X238048000Y-119393000D01*
X237229000Y-118690000D02*
X237229000Y-119310000D01*
X238048000Y-118607000D02*
X237229000Y-118690000D01*
X237748000Y-117436000D02*
X238269000Y-118075000D01*
X238186000Y-116998000D02*
X237748000Y-117436000D01*
X238825000Y-117519000D02*
X238186000Y-116998000D01*
X239440000Y-116479000D02*
X239357000Y-117298000D01*
X240060000Y-116479000D02*
X239440000Y-116479000D01*
X240143000Y-117298000D02*
X240060000Y-116479000D01*
X241314000Y-116998000D02*
X240675000Y-117519000D01*
X241752000Y-117436000D02*
X241314000Y-116998000D01*
X241231000Y-118075000D02*
X241752000Y-117436000D01*
X242271000Y-118690000D02*
X241452000Y-118607000D01*
X242271000Y-119310000D02*
X242271000Y-118690000D01*
X241452000Y-119393000D02*
X242271000Y-119310000D01*
X241752000Y-120564000D02*
X241231000Y-119925000D01*
X241314000Y-121002000D02*
X241752000Y-120564000D01*
X240675000Y-120481000D02*
X241314000Y-121002000D01*
D11*
G36*
X240418000Y-120613000D02*
G01*
X240550000Y-120552000D01*
X240675000Y-120481000D01*
X241314000Y-121002000D01*
X241752000Y-120564000D01*
X241231000Y-119925000D01*
X241324000Y-119756000D01*
X241398000Y-119578000D01*
X241452000Y-119393000D01*
X242271000Y-119310000D01*
X242271000Y-118690000D01*
X241452000Y-118607000D01*
X241398000Y-118422000D01*
X241324000Y-118244000D01*
X241231000Y-118075000D01*
X241752000Y-117436000D01*
X241314000Y-116998000D01*
X240675000Y-117519000D01*
X240506000Y-117426000D01*
X240328000Y-117352000D01*
X240143000Y-117298000D01*
X240060000Y-116479000D01*
X239440000Y-116479000D01*
X239357000Y-117298000D01*
X239172000Y-117352000D01*
X238994000Y-117426000D01*
X238825000Y-117519000D01*
X238186000Y-116998000D01*
X237748000Y-117436000D01*
X238269000Y-118075000D01*
X238176000Y-118244000D01*
X238102000Y-118422000D01*
X238048000Y-118607000D01*
X237229000Y-118690000D01*
X237229000Y-119310000D01*
X238048000Y-119393000D01*
X238102000Y-119578000D01*
X238176000Y-119756000D01*
X238269000Y-119925000D01*
X237748000Y-120564000D01*
X238186000Y-121002000D01*
X238825000Y-120481000D01*
X238950000Y-120552000D01*
X239082000Y-120613000D01*
X239446000Y-119733000D01*
X239362000Y-119693000D01*
X239283000Y-119642000D01*
X239211000Y-119583000D01*
X239146000Y-119516000D01*
X239090000Y-119441000D01*
X239043000Y-119360000D01*
X239005000Y-119275000D01*
X238978000Y-119185000D01*
X238962000Y-119093000D01*
X238956000Y-119000000D01*
X238962000Y-118902000D01*
X238980000Y-118806000D01*
X239010000Y-118713000D01*
X239051000Y-118624000D01*
X239103000Y-118541000D01*
X239164000Y-118465000D01*
X239234000Y-118396000D01*
X239313000Y-118338000D01*
X239398000Y-118289000D01*
X239488000Y-118251000D01*
X239582000Y-118224000D01*
X239679000Y-118210000D01*
X239777000Y-118207000D01*
X239874000Y-118216000D01*
X239970000Y-118237000D01*
X240062000Y-118270000D01*
X240149000Y-118314000D01*
X240231000Y-118369000D01*
X240305000Y-118433000D01*
X240371000Y-118505000D01*
X240427000Y-118585000D01*
X240473000Y-118672000D01*
X240508000Y-118763000D01*
X240531000Y-118858000D01*
X240542000Y-118956000D01*
X240542000Y-119053000D01*
X240529000Y-119151000D01*
X240505000Y-119245000D01*
X240469000Y-119336000D01*
X240422000Y-119422000D01*
X240365000Y-119502000D01*
X240299000Y-119574000D01*
X240224000Y-119637000D01*
X240142000Y-119690000D01*
X240054000Y-119733000D01*
X240418000Y-120613000D01*
G37*
D10*
X240053863Y-119733555D02*
G75*
G03*
X238956000Y-119000000I-303863J733555D01*
G01*
X238956460Y-118999703D02*
G75*
G03*
X239446000Y-119733000I793540J-297D01*
G01*
X238824927Y-120480446D02*
G75*
G03*
X239082000Y-120613000I926073J1480446D01*
G01*
X238048509Y-119392320D02*
G75*
G03*
X238269000Y-119925000I1701491J392320D01*
G01*
X238268740Y-118074191D02*
G75*
G03*
X238048000Y-118607000I1481260J-925809D01*
G01*
X239357680Y-117298509D02*
G75*
G03*
X238825000Y-117519000I392320J-1701491D01*
G01*
X240675809Y-117518740D02*
G75*
G03*
X240143000Y-117298000I-925809J-1481260D01*
G01*
X241451491Y-118607680D02*
G75*
G03*
X241231000Y-118075000I-1701491J-392320D01*
G01*
X241231260Y-119925809D02*
G75*
G03*
X241452000Y-119393000I-1481260J925809D01*
G01*
X240417837Y-120613535D02*
G75*
G03*
X240675000Y-120481000I-668837J1613535D01*
G01*
D12*
X227560000Y-121600000D03*
X225020000Y-121600000D03*
X222480000Y-121600000D03*
X219940000Y-121600000D03*
X217400000Y-121600000D03*
X214860000Y-121600000D03*
X212320000Y-121600000D03*
X209780000Y-121600000D03*
X207240000Y-121600000D03*
X204700000Y-121600000D03*
X202160000Y-121600000D03*
X199620000Y-121600000D03*
X197080000Y-121600000D03*
X194540000Y-121600000D03*
D13*
X192000000Y-121600000D03*
D12*
X227560000Y-96200000D03*
X225020000Y-96200000D03*
X222480000Y-96200000D03*
X219940000Y-96200000D03*
X217400000Y-96200000D03*
X214860000Y-96200000D03*
X212320000Y-96200000D03*
X209780000Y-96200000D03*
X207240000Y-96200000D03*
X204700000Y-96200000D03*
X202160000Y-96200000D03*
X199620000Y-96200000D03*
X197080000Y-96200000D03*
X194540000Y-96200000D03*
D14*
X192000000Y-96200000D03*
G04 #@! TA.AperFunction,SMDPad,CuDef*
D15*
G36*
X226769476Y-103493753D02*
G01*
X226203088Y-104193184D01*
X225425942Y-103563863D01*
X225992330Y-102864432D01*
X226769476Y-103493753D01*
G37*
G04 #@! TD.AperFunction*
G04 #@! TA.AperFunction,SMDPad,CuDef*
G36*
X225098612Y-102140714D02*
G01*
X224532224Y-102840145D01*
X223755078Y-102210824D01*
X224321466Y-101511393D01*
X225098612Y-102140714D01*
G37*
G04 #@! TD.AperFunction*
G04 #@! TA.AperFunction,SMDPad,CuDef*
G36*
X226074058Y-100936137D02*
G01*
X225507670Y-101635568D01*
X224730524Y-101006247D01*
X225296912Y-100306816D01*
X226074058Y-100936137D01*
G37*
G04 #@! TD.AperFunction*
G04 #@! TA.AperFunction,SMDPad,CuDef*
G36*
X227744922Y-102289176D02*
G01*
X227178534Y-102988607D01*
X226401388Y-102359286D01*
X226967776Y-101659855D01*
X227744922Y-102289176D01*
G37*
G04 #@! TD.AperFunction*
G04 #@! TA.AperFunction,SMDPad,CuDef*
G36*
G01*
X224812500Y-111125000D02*
X224687500Y-111125000D01*
G75*
G02*
X224625000Y-111062500I0J62500D01*
G01*
X224625000Y-110312500D01*
G75*
G02*
X224687500Y-110250000I62500J0D01*
G01*
X224812500Y-110250000D01*
G75*
G02*
X224875000Y-110312500I0J-62500D01*
G01*
X224875000Y-111062500D01*
G75*
G02*
X224812500Y-111125000I-62500J0D01*
G01*
G37*
G04 #@! TD.AperFunction*
G04 #@! TA.AperFunction,SMDPad,CuDef*
G36*
G01*
X225312500Y-111125000D02*
X225187500Y-111125000D01*
G75*
G02*
X225125000Y-111062500I0J62500D01*
G01*
X225125000Y-110312500D01*
G75*
G02*
X225187500Y-110250000I62500J0D01*
G01*
X225312500Y-110250000D01*
G75*
G02*
X225375000Y-110312500I0J-62500D01*
G01*
X225375000Y-111062500D01*
G75*
G02*
X225312500Y-111125000I-62500J0D01*
G01*
G37*
G04 #@! TD.AperFunction*
G04 #@! TA.AperFunction,SMDPad,CuDef*
G36*
G01*
X225812500Y-111125000D02*
X225687500Y-111125000D01*
G75*
G02*
X225625000Y-111062500I0J62500D01*
G01*
X225625000Y-110312500D01*
G75*
G02*
X225687500Y-110250000I62500J0D01*
G01*
X225812500Y-110250000D01*
G75*
G02*
X225875000Y-110312500I0J-62500D01*
G01*
X225875000Y-111062500D01*
G75*
G02*
X225812500Y-111125000I-62500J0D01*
G01*
G37*
G04 #@! TD.AperFunction*
G04 #@! TA.AperFunction,SMDPad,CuDef*
G36*
G01*
X226312500Y-111125000D02*
X226187500Y-111125000D01*
G75*
G02*
X226125000Y-111062500I0J62500D01*
G01*
X226125000Y-110312500D01*
G75*
G02*
X226187500Y-110250000I62500J0D01*
G01*
X226312500Y-110250000D01*
G75*
G02*
X226375000Y-110312500I0J-62500D01*
G01*
X226375000Y-111062500D01*
G75*
G02*
X226312500Y-111125000I-62500J0D01*
G01*
G37*
G04 #@! TD.AperFunction*
G04 #@! TA.AperFunction,SMDPad,CuDef*
G36*
G01*
X226812500Y-111125000D02*
X226687500Y-111125000D01*
G75*
G02*
X226625000Y-111062500I0J62500D01*
G01*
X226625000Y-110312500D01*
G75*
G02*
X226687500Y-110250000I62500J0D01*
G01*
X226812500Y-110250000D01*
G75*
G02*
X226875000Y-110312500I0J-62500D01*
G01*
X226875000Y-111062500D01*
G75*
G02*
X226812500Y-111125000I-62500J0D01*
G01*
G37*
G04 #@! TD.AperFunction*
G04 #@! TA.AperFunction,SMDPad,CuDef*
G36*
G01*
X227312500Y-111125000D02*
X227187500Y-111125000D01*
G75*
G02*
X227125000Y-111062500I0J62500D01*
G01*
X227125000Y-110312500D01*
G75*
G02*
X227187500Y-110250000I62500J0D01*
G01*
X227312500Y-110250000D01*
G75*
G02*
X227375000Y-110312500I0J-62500D01*
G01*
X227375000Y-111062500D01*
G75*
G02*
X227312500Y-111125000I-62500J0D01*
G01*
G37*
G04 #@! TD.AperFunction*
G04 #@! TA.AperFunction,SMDPad,CuDef*
G36*
G01*
X227812500Y-111125000D02*
X227687500Y-111125000D01*
G75*
G02*
X227625000Y-111062500I0J62500D01*
G01*
X227625000Y-110312500D01*
G75*
G02*
X227687500Y-110250000I62500J0D01*
G01*
X227812500Y-110250000D01*
G75*
G02*
X227875000Y-110312500I0J-62500D01*
G01*
X227875000Y-111062500D01*
G75*
G02*
X227812500Y-111125000I-62500J0D01*
G01*
G37*
G04 #@! TD.AperFunction*
G04 #@! TA.AperFunction,SMDPad,CuDef*
G36*
G01*
X228312500Y-111125000D02*
X228187500Y-111125000D01*
G75*
G02*
X228125000Y-111062500I0J62500D01*
G01*
X228125000Y-110312500D01*
G75*
G02*
X228187500Y-110250000I62500J0D01*
G01*
X228312500Y-110250000D01*
G75*
G02*
X228375000Y-110312500I0J-62500D01*
G01*
X228375000Y-111062500D01*
G75*
G02*
X228312500Y-111125000I-62500J0D01*
G01*
G37*
G04 #@! TD.AperFunction*
G04 #@! TA.AperFunction,SMDPad,CuDef*
G36*
G01*
X229312500Y-110125000D02*
X228562500Y-110125000D01*
G75*
G02*
X228500000Y-110062500I0J62500D01*
G01*
X228500000Y-109937500D01*
G75*
G02*
X228562500Y-109875000I62500J0D01*
G01*
X229312500Y-109875000D01*
G75*
G02*
X229375000Y-109937500I0J-62500D01*
G01*
X229375000Y-110062500D01*
G75*
G02*
X229312500Y-110125000I-62500J0D01*
G01*
G37*
G04 #@! TD.AperFunction*
G04 #@! TA.AperFunction,SMDPad,CuDef*
G36*
G01*
X229312500Y-109625000D02*
X228562500Y-109625000D01*
G75*
G02*
X228500000Y-109562500I0J62500D01*
G01*
X228500000Y-109437500D01*
G75*
G02*
X228562500Y-109375000I62500J0D01*
G01*
X229312500Y-109375000D01*
G75*
G02*
X229375000Y-109437500I0J-62500D01*
G01*
X229375000Y-109562500D01*
G75*
G02*
X229312500Y-109625000I-62500J0D01*
G01*
G37*
G04 #@! TD.AperFunction*
G04 #@! TA.AperFunction,SMDPad,CuDef*
G36*
G01*
X229312500Y-109125000D02*
X228562500Y-109125000D01*
G75*
G02*
X228500000Y-109062500I0J62500D01*
G01*
X228500000Y-108937500D01*
G75*
G02*
X228562500Y-108875000I62500J0D01*
G01*
X229312500Y-108875000D01*
G75*
G02*
X229375000Y-108937500I0J-62500D01*
G01*
X229375000Y-109062500D01*
G75*
G02*
X229312500Y-109125000I-62500J0D01*
G01*
G37*
G04 #@! TD.AperFunction*
G04 #@! TA.AperFunction,SMDPad,CuDef*
G36*
G01*
X229312500Y-108625000D02*
X228562500Y-108625000D01*
G75*
G02*
X228500000Y-108562500I0J62500D01*
G01*
X228500000Y-108437500D01*
G75*
G02*
X228562500Y-108375000I62500J0D01*
G01*
X229312500Y-108375000D01*
G75*
G02*
X229375000Y-108437500I0J-62500D01*
G01*
X229375000Y-108562500D01*
G75*
G02*
X229312500Y-108625000I-62500J0D01*
G01*
G37*
G04 #@! TD.AperFunction*
G04 #@! TA.AperFunction,SMDPad,CuDef*
G36*
G01*
X229312500Y-108125000D02*
X228562500Y-108125000D01*
G75*
G02*
X228500000Y-108062500I0J62500D01*
G01*
X228500000Y-107937500D01*
G75*
G02*
X228562500Y-107875000I62500J0D01*
G01*
X229312500Y-107875000D01*
G75*
G02*
X229375000Y-107937500I0J-62500D01*
G01*
X229375000Y-108062500D01*
G75*
G02*
X229312500Y-108125000I-62500J0D01*
G01*
G37*
G04 #@! TD.AperFunction*
G04 #@! TA.AperFunction,SMDPad,CuDef*
G36*
G01*
X229312500Y-107625000D02*
X228562500Y-107625000D01*
G75*
G02*
X228500000Y-107562500I0J62500D01*
G01*
X228500000Y-107437500D01*
G75*
G02*
X228562500Y-107375000I62500J0D01*
G01*
X229312500Y-107375000D01*
G75*
G02*
X229375000Y-107437500I0J-62500D01*
G01*
X229375000Y-107562500D01*
G75*
G02*
X229312500Y-107625000I-62500J0D01*
G01*
G37*
G04 #@! TD.AperFunction*
G04 #@! TA.AperFunction,SMDPad,CuDef*
G36*
G01*
X229312500Y-107125000D02*
X228562500Y-107125000D01*
G75*
G02*
X228500000Y-107062500I0J62500D01*
G01*
X228500000Y-106937500D01*
G75*
G02*
X228562500Y-106875000I62500J0D01*
G01*
X229312500Y-106875000D01*
G75*
G02*
X229375000Y-106937500I0J-62500D01*
G01*
X229375000Y-107062500D01*
G75*
G02*
X229312500Y-107125000I-62500J0D01*
G01*
G37*
G04 #@! TD.AperFunction*
G04 #@! TA.AperFunction,SMDPad,CuDef*
G36*
G01*
X229312500Y-106625000D02*
X228562500Y-106625000D01*
G75*
G02*
X228500000Y-106562500I0J62500D01*
G01*
X228500000Y-106437500D01*
G75*
G02*
X228562500Y-106375000I62500J0D01*
G01*
X229312500Y-106375000D01*
G75*
G02*
X229375000Y-106437500I0J-62500D01*
G01*
X229375000Y-106562500D01*
G75*
G02*
X229312500Y-106625000I-62500J0D01*
G01*
G37*
G04 #@! TD.AperFunction*
G04 #@! TA.AperFunction,SMDPad,CuDef*
G36*
G01*
X228312500Y-106250000D02*
X228187500Y-106250000D01*
G75*
G02*
X228125000Y-106187500I0J62500D01*
G01*
X228125000Y-105437500D01*
G75*
G02*
X228187500Y-105375000I62500J0D01*
G01*
X228312500Y-105375000D01*
G75*
G02*
X228375000Y-105437500I0J-62500D01*
G01*
X228375000Y-106187500D01*
G75*
G02*
X228312500Y-106250000I-62500J0D01*
G01*
G37*
G04 #@! TD.AperFunction*
G04 #@! TA.AperFunction,SMDPad,CuDef*
G36*
G01*
X227812500Y-106250000D02*
X227687500Y-106250000D01*
G75*
G02*
X227625000Y-106187500I0J62500D01*
G01*
X227625000Y-105437500D01*
G75*
G02*
X227687500Y-105375000I62500J0D01*
G01*
X227812500Y-105375000D01*
G75*
G02*
X227875000Y-105437500I0J-62500D01*
G01*
X227875000Y-106187500D01*
G75*
G02*
X227812500Y-106250000I-62500J0D01*
G01*
G37*
G04 #@! TD.AperFunction*
G04 #@! TA.AperFunction,SMDPad,CuDef*
G36*
G01*
X227312500Y-106250000D02*
X227187500Y-106250000D01*
G75*
G02*
X227125000Y-106187500I0J62500D01*
G01*
X227125000Y-105437500D01*
G75*
G02*
X227187500Y-105375000I62500J0D01*
G01*
X227312500Y-105375000D01*
G75*
G02*
X227375000Y-105437500I0J-62500D01*
G01*
X227375000Y-106187500D01*
G75*
G02*
X227312500Y-106250000I-62500J0D01*
G01*
G37*
G04 #@! TD.AperFunction*
G04 #@! TA.AperFunction,SMDPad,CuDef*
G36*
G01*
X226812500Y-106250000D02*
X226687500Y-106250000D01*
G75*
G02*
X226625000Y-106187500I0J62500D01*
G01*
X226625000Y-105437500D01*
G75*
G02*
X226687500Y-105375000I62500J0D01*
G01*
X226812500Y-105375000D01*
G75*
G02*
X226875000Y-105437500I0J-62500D01*
G01*
X226875000Y-106187500D01*
G75*
G02*
X226812500Y-106250000I-62500J0D01*
G01*
G37*
G04 #@! TD.AperFunction*
G04 #@! TA.AperFunction,SMDPad,CuDef*
G36*
G01*
X226312500Y-106250000D02*
X226187500Y-106250000D01*
G75*
G02*
X226125000Y-106187500I0J62500D01*
G01*
X226125000Y-105437500D01*
G75*
G02*
X226187500Y-105375000I62500J0D01*
G01*
X226312500Y-105375000D01*
G75*
G02*
X226375000Y-105437500I0J-62500D01*
G01*
X226375000Y-106187500D01*
G75*
G02*
X226312500Y-106250000I-62500J0D01*
G01*
G37*
G04 #@! TD.AperFunction*
G04 #@! TA.AperFunction,SMDPad,CuDef*
G36*
G01*
X225812500Y-106250000D02*
X225687500Y-106250000D01*
G75*
G02*
X225625000Y-106187500I0J62500D01*
G01*
X225625000Y-105437500D01*
G75*
G02*
X225687500Y-105375000I62500J0D01*
G01*
X225812500Y-105375000D01*
G75*
G02*
X225875000Y-105437500I0J-62500D01*
G01*
X225875000Y-106187500D01*
G75*
G02*
X225812500Y-106250000I-62500J0D01*
G01*
G37*
G04 #@! TD.AperFunction*
G04 #@! TA.AperFunction,SMDPad,CuDef*
G36*
G01*
X225312500Y-106250000D02*
X225187500Y-106250000D01*
G75*
G02*
X225125000Y-106187500I0J62500D01*
G01*
X225125000Y-105437500D01*
G75*
G02*
X225187500Y-105375000I62500J0D01*
G01*
X225312500Y-105375000D01*
G75*
G02*
X225375000Y-105437500I0J-62500D01*
G01*
X225375000Y-106187500D01*
G75*
G02*
X225312500Y-106250000I-62500J0D01*
G01*
G37*
G04 #@! TD.AperFunction*
G04 #@! TA.AperFunction,SMDPad,CuDef*
G36*
G01*
X224812500Y-106250000D02*
X224687500Y-106250000D01*
G75*
G02*
X224625000Y-106187500I0J62500D01*
G01*
X224625000Y-105437500D01*
G75*
G02*
X224687500Y-105375000I62500J0D01*
G01*
X224812500Y-105375000D01*
G75*
G02*
X224875000Y-105437500I0J-62500D01*
G01*
X224875000Y-106187500D01*
G75*
G02*
X224812500Y-106250000I-62500J0D01*
G01*
G37*
G04 #@! TD.AperFunction*
G04 #@! TA.AperFunction,SMDPad,CuDef*
G36*
G01*
X224437500Y-106625000D02*
X223687500Y-106625000D01*
G75*
G02*
X223625000Y-106562500I0J62500D01*
G01*
X223625000Y-106437500D01*
G75*
G02*
X223687500Y-106375000I62500J0D01*
G01*
X224437500Y-106375000D01*
G75*
G02*
X224500000Y-106437500I0J-62500D01*
G01*
X224500000Y-106562500D01*
G75*
G02*
X224437500Y-106625000I-62500J0D01*
G01*
G37*
G04 #@! TD.AperFunction*
G04 #@! TA.AperFunction,SMDPad,CuDef*
G36*
G01*
X224437500Y-107125000D02*
X223687500Y-107125000D01*
G75*
G02*
X223625000Y-107062500I0J62500D01*
G01*
X223625000Y-106937500D01*
G75*
G02*
X223687500Y-106875000I62500J0D01*
G01*
X224437500Y-106875000D01*
G75*
G02*
X224500000Y-106937500I0J-62500D01*
G01*
X224500000Y-107062500D01*
G75*
G02*
X224437500Y-107125000I-62500J0D01*
G01*
G37*
G04 #@! TD.AperFunction*
G04 #@! TA.AperFunction,SMDPad,CuDef*
G36*
G01*
X224437500Y-107625000D02*
X223687500Y-107625000D01*
G75*
G02*
X223625000Y-107562500I0J62500D01*
G01*
X223625000Y-107437500D01*
G75*
G02*
X223687500Y-107375000I62500J0D01*
G01*
X224437500Y-107375000D01*
G75*
G02*
X224500000Y-107437500I0J-62500D01*
G01*
X224500000Y-107562500D01*
G75*
G02*
X224437500Y-107625000I-62500J0D01*
G01*
G37*
G04 #@! TD.AperFunction*
G04 #@! TA.AperFunction,SMDPad,CuDef*
G36*
G01*
X224437500Y-108125000D02*
X223687500Y-108125000D01*
G75*
G02*
X223625000Y-108062500I0J62500D01*
G01*
X223625000Y-107937500D01*
G75*
G02*
X223687500Y-107875000I62500J0D01*
G01*
X224437500Y-107875000D01*
G75*
G02*
X224500000Y-107937500I0J-62500D01*
G01*
X224500000Y-108062500D01*
G75*
G02*
X224437500Y-108125000I-62500J0D01*
G01*
G37*
G04 #@! TD.AperFunction*
G04 #@! TA.AperFunction,SMDPad,CuDef*
G36*
G01*
X224437500Y-108625000D02*
X223687500Y-108625000D01*
G75*
G02*
X223625000Y-108562500I0J62500D01*
G01*
X223625000Y-108437500D01*
G75*
G02*
X223687500Y-108375000I62500J0D01*
G01*
X224437500Y-108375000D01*
G75*
G02*
X224500000Y-108437500I0J-62500D01*
G01*
X224500000Y-108562500D01*
G75*
G02*
X224437500Y-108625000I-62500J0D01*
G01*
G37*
G04 #@! TD.AperFunction*
G04 #@! TA.AperFunction,SMDPad,CuDef*
G36*
G01*
X224437500Y-109125000D02*
X223687500Y-109125000D01*
G75*
G02*
X223625000Y-109062500I0J62500D01*
G01*
X223625000Y-108937500D01*
G75*
G02*
X223687500Y-108875000I62500J0D01*
G01*
X224437500Y-108875000D01*
G75*
G02*
X224500000Y-108937500I0J-62500D01*
G01*
X224500000Y-109062500D01*
G75*
G02*
X224437500Y-109125000I-62500J0D01*
G01*
G37*
G04 #@! TD.AperFunction*
G04 #@! TA.AperFunction,SMDPad,CuDef*
G36*
G01*
X224437500Y-109625000D02*
X223687500Y-109625000D01*
G75*
G02*
X223625000Y-109562500I0J62500D01*
G01*
X223625000Y-109437500D01*
G75*
G02*
X223687500Y-109375000I62500J0D01*
G01*
X224437500Y-109375000D01*
G75*
G02*
X224500000Y-109437500I0J-62500D01*
G01*
X224500000Y-109562500D01*
G75*
G02*
X224437500Y-109625000I-62500J0D01*
G01*
G37*
G04 #@! TD.AperFunction*
G04 #@! TA.AperFunction,SMDPad,CuDef*
G36*
G01*
X224437500Y-110125000D02*
X223687500Y-110125000D01*
G75*
G02*
X223625000Y-110062500I0J62500D01*
G01*
X223625000Y-109937500D01*
G75*
G02*
X223687500Y-109875000I62500J0D01*
G01*
X224437500Y-109875000D01*
G75*
G02*
X224500000Y-109937500I0J-62500D01*
G01*
X224500000Y-110062500D01*
G75*
G02*
X224437500Y-110125000I-62500J0D01*
G01*
G37*
G04 #@! TD.AperFunction*
D16*
X226500000Y-108250000D03*
G04 #@! TA.AperFunction,SMDPad,CuDef*
G36*
G01*
X184756250Y-95650000D02*
X184243750Y-95650000D01*
G75*
G02*
X184025000Y-95431250I0J218750D01*
G01*
X184025000Y-94993750D01*
G75*
G02*
X184243750Y-94775000I218750J0D01*
G01*
X184756250Y-94775000D01*
G75*
G02*
X184975000Y-94993750I0J-218750D01*
G01*
X184975000Y-95431250D01*
G75*
G02*
X184756250Y-95650000I-218750J0D01*
G01*
G37*
G04 #@! TD.AperFunction*
G04 #@! TA.AperFunction,SMDPad,CuDef*
G36*
G01*
X184756250Y-97225000D02*
X184243750Y-97225000D01*
G75*
G02*
X184025000Y-97006250I0J218750D01*
G01*
X184025000Y-96568750D01*
G75*
G02*
X184243750Y-96350000I218750J0D01*
G01*
X184756250Y-96350000D01*
G75*
G02*
X184975000Y-96568750I0J-218750D01*
G01*
X184975000Y-97006250D01*
G75*
G02*
X184756250Y-97225000I-218750J0D01*
G01*
G37*
G04 #@! TD.AperFunction*
G04 #@! TA.AperFunction,SMDPad,CuDef*
G36*
G01*
X184756250Y-63650000D02*
X184243750Y-63650000D01*
G75*
G02*
X184025000Y-63431250I0J218750D01*
G01*
X184025000Y-62993750D01*
G75*
G02*
X184243750Y-62775000I218750J0D01*
G01*
X184756250Y-62775000D01*
G75*
G02*
X184975000Y-62993750I0J-218750D01*
G01*
X184975000Y-63431250D01*
G75*
G02*
X184756250Y-63650000I-218750J0D01*
G01*
G37*
G04 #@! TD.AperFunction*
G04 #@! TA.AperFunction,SMDPad,CuDef*
G36*
G01*
X184756250Y-65225000D02*
X184243750Y-65225000D01*
G75*
G02*
X184025000Y-65006250I0J218750D01*
G01*
X184025000Y-64568750D01*
G75*
G02*
X184243750Y-64350000I218750J0D01*
G01*
X184756250Y-64350000D01*
G75*
G02*
X184975000Y-64568750I0J-218750D01*
G01*
X184975000Y-65006250D01*
G75*
G02*
X184756250Y-65225000I-218750J0D01*
G01*
G37*
G04 #@! TD.AperFunction*
G04 #@! TA.AperFunction,SMDPad,CuDef*
G36*
G01*
X212506250Y-115900000D02*
X211993750Y-115900000D01*
G75*
G02*
X211775000Y-115681250I0J218750D01*
G01*
X211775000Y-115243750D01*
G75*
G02*
X211993750Y-115025000I218750J0D01*
G01*
X212506250Y-115025000D01*
G75*
G02*
X212725000Y-115243750I0J-218750D01*
G01*
X212725000Y-115681250D01*
G75*
G02*
X212506250Y-115900000I-218750J0D01*
G01*
G37*
G04 #@! TD.AperFunction*
G04 #@! TA.AperFunction,SMDPad,CuDef*
G36*
G01*
X212506250Y-117475000D02*
X211993750Y-117475000D01*
G75*
G02*
X211775000Y-117256250I0J218750D01*
G01*
X211775000Y-116818750D01*
G75*
G02*
X211993750Y-116600000I218750J0D01*
G01*
X212506250Y-116600000D01*
G75*
G02*
X212725000Y-116818750I0J-218750D01*
G01*
X212725000Y-117256250D01*
G75*
G02*
X212506250Y-117475000I-218750J0D01*
G01*
G37*
G04 #@! TD.AperFunction*
G04 #@! TA.AperFunction,SMDPad,CuDef*
G36*
G01*
X181756250Y-95650000D02*
X181243750Y-95650000D01*
G75*
G02*
X181025000Y-95431250I0J218750D01*
G01*
X181025000Y-94993750D01*
G75*
G02*
X181243750Y-94775000I218750J0D01*
G01*
X181756250Y-94775000D01*
G75*
G02*
X181975000Y-94993750I0J-218750D01*
G01*
X181975000Y-95431250D01*
G75*
G02*
X181756250Y-95650000I-218750J0D01*
G01*
G37*
G04 #@! TD.AperFunction*
G04 #@! TA.AperFunction,SMDPad,CuDef*
G36*
G01*
X181756250Y-97225000D02*
X181243750Y-97225000D01*
G75*
G02*
X181025000Y-97006250I0J218750D01*
G01*
X181025000Y-96568750D01*
G75*
G02*
X181243750Y-96350000I218750J0D01*
G01*
X181756250Y-96350000D01*
G75*
G02*
X181975000Y-96568750I0J-218750D01*
G01*
X181975000Y-97006250D01*
G75*
G02*
X181756250Y-97225000I-218750J0D01*
G01*
G37*
G04 #@! TD.AperFunction*
G04 #@! TA.AperFunction,SMDPad,CuDef*
G36*
G01*
X232243750Y-102850000D02*
X232756250Y-102850000D01*
G75*
G02*
X232975000Y-103068750I0J-218750D01*
G01*
X232975000Y-103506250D01*
G75*
G02*
X232756250Y-103725000I-218750J0D01*
G01*
X232243750Y-103725000D01*
G75*
G02*
X232025000Y-103506250I0J218750D01*
G01*
X232025000Y-103068750D01*
G75*
G02*
X232243750Y-102850000I218750J0D01*
G01*
G37*
G04 #@! TD.AperFunction*
G04 #@! TA.AperFunction,SMDPad,CuDef*
G36*
G01*
X232243750Y-101275000D02*
X232756250Y-101275000D01*
G75*
G02*
X232975000Y-101493750I0J-218750D01*
G01*
X232975000Y-101931250D01*
G75*
G02*
X232756250Y-102150000I-218750J0D01*
G01*
X232243750Y-102150000D01*
G75*
G02*
X232025000Y-101931250I0J218750D01*
G01*
X232025000Y-101493750D01*
G75*
G02*
X232243750Y-101275000I218750J0D01*
G01*
G37*
G04 #@! TD.AperFunction*
G04 #@! TA.AperFunction,SMDPad,CuDef*
G36*
G01*
X240243750Y-102850000D02*
X240756250Y-102850000D01*
G75*
G02*
X240975000Y-103068750I0J-218750D01*
G01*
X240975000Y-103506250D01*
G75*
G02*
X240756250Y-103725000I-218750J0D01*
G01*
X240243750Y-103725000D01*
G75*
G02*
X240025000Y-103506250I0J218750D01*
G01*
X240025000Y-103068750D01*
G75*
G02*
X240243750Y-102850000I218750J0D01*
G01*
G37*
G04 #@! TD.AperFunction*
G04 #@! TA.AperFunction,SMDPad,CuDef*
G36*
G01*
X240243750Y-101275000D02*
X240756250Y-101275000D01*
G75*
G02*
X240975000Y-101493750I0J-218750D01*
G01*
X240975000Y-101931250D01*
G75*
G02*
X240756250Y-102150000I-218750J0D01*
G01*
X240243750Y-102150000D01*
G75*
G02*
X240025000Y-101931250I0J218750D01*
G01*
X240025000Y-101493750D01*
G75*
G02*
X240243750Y-101275000I218750J0D01*
G01*
G37*
G04 #@! TD.AperFunction*
G04 #@! TA.AperFunction,SMDPad,CuDef*
G36*
G01*
X181756250Y-63650000D02*
X181243750Y-63650000D01*
G75*
G02*
X181025000Y-63431250I0J218750D01*
G01*
X181025000Y-62993750D01*
G75*
G02*
X181243750Y-62775000I218750J0D01*
G01*
X181756250Y-62775000D01*
G75*
G02*
X181975000Y-62993750I0J-218750D01*
G01*
X181975000Y-63431250D01*
G75*
G02*
X181756250Y-63650000I-218750J0D01*
G01*
G37*
G04 #@! TD.AperFunction*
G04 #@! TA.AperFunction,SMDPad,CuDef*
G36*
G01*
X181756250Y-65225000D02*
X181243750Y-65225000D01*
G75*
G02*
X181025000Y-65006250I0J218750D01*
G01*
X181025000Y-64568750D01*
G75*
G02*
X181243750Y-64350000I218750J0D01*
G01*
X181756250Y-64350000D01*
G75*
G02*
X181975000Y-64568750I0J-218750D01*
G01*
X181975000Y-65006250D01*
G75*
G02*
X181756250Y-65225000I-218750J0D01*
G01*
G37*
G04 #@! TD.AperFunction*
G04 #@! TA.AperFunction,SMDPad,CuDef*
G36*
G01*
X184056250Y-79650000D02*
X183543750Y-79650000D01*
G75*
G02*
X183325000Y-79431250I0J218750D01*
G01*
X183325000Y-78993750D01*
G75*
G02*
X183543750Y-78775000I218750J0D01*
G01*
X184056250Y-78775000D01*
G75*
G02*
X184275000Y-78993750I0J-218750D01*
G01*
X184275000Y-79431250D01*
G75*
G02*
X184056250Y-79650000I-218750J0D01*
G01*
G37*
G04 #@! TD.AperFunction*
G04 #@! TA.AperFunction,SMDPad,CuDef*
G36*
G01*
X184056250Y-81225000D02*
X183543750Y-81225000D01*
G75*
G02*
X183325000Y-81006250I0J218750D01*
G01*
X183325000Y-80568750D01*
G75*
G02*
X183543750Y-80350000I218750J0D01*
G01*
X184056250Y-80350000D01*
G75*
G02*
X184275000Y-80568750I0J-218750D01*
G01*
X184275000Y-81006250D01*
G75*
G02*
X184056250Y-81225000I-218750J0D01*
G01*
G37*
G04 #@! TD.AperFunction*
G04 #@! TA.AperFunction,SMDPad,CuDef*
G36*
G01*
X230150000Y-114743750D02*
X230150000Y-115256250D01*
G75*
G02*
X229931250Y-115475000I-218750J0D01*
G01*
X229493750Y-115475000D01*
G75*
G02*
X229275000Y-115256250I0J218750D01*
G01*
X229275000Y-114743750D01*
G75*
G02*
X229493750Y-114525000I218750J0D01*
G01*
X229931250Y-114525000D01*
G75*
G02*
X230150000Y-114743750I0J-218750D01*
G01*
G37*
G04 #@! TD.AperFunction*
G04 #@! TA.AperFunction,SMDPad,CuDef*
G36*
G01*
X231725000Y-114743750D02*
X231725000Y-115256250D01*
G75*
G02*
X231506250Y-115475000I-218750J0D01*
G01*
X231068750Y-115475000D01*
G75*
G02*
X230850000Y-115256250I0J218750D01*
G01*
X230850000Y-114743750D01*
G75*
G02*
X231068750Y-114525000I218750J0D01*
G01*
X231506250Y-114525000D01*
G75*
G02*
X231725000Y-114743750I0J-218750D01*
G01*
G37*
G04 #@! TD.AperFunction*
G04 #@! TA.AperFunction,SMDPad,CuDef*
G36*
G01*
X217743750Y-101600000D02*
X218256250Y-101600000D01*
G75*
G02*
X218475000Y-101818750I0J-218750D01*
G01*
X218475000Y-102256250D01*
G75*
G02*
X218256250Y-102475000I-218750J0D01*
G01*
X217743750Y-102475000D01*
G75*
G02*
X217525000Y-102256250I0J218750D01*
G01*
X217525000Y-101818750D01*
G75*
G02*
X217743750Y-101600000I218750J0D01*
G01*
G37*
G04 #@! TD.AperFunction*
G04 #@! TA.AperFunction,SMDPad,CuDef*
G36*
G01*
X217743750Y-100025000D02*
X218256250Y-100025000D01*
G75*
G02*
X218475000Y-100243750I0J-218750D01*
G01*
X218475000Y-100681250D01*
G75*
G02*
X218256250Y-100900000I-218750J0D01*
G01*
X217743750Y-100900000D01*
G75*
G02*
X217525000Y-100681250I0J218750D01*
G01*
X217525000Y-100243750D01*
G75*
G02*
X217743750Y-100025000I218750J0D01*
G01*
G37*
G04 #@! TD.AperFunction*
D17*
X205000000Y-105250000D03*
X207000000Y-104300000D03*
X207000000Y-106200000D03*
G04 #@! TA.AperFunction,SMDPad,CuDef*
G36*
G01*
X183512500Y-92456250D02*
X183512500Y-91543750D01*
G75*
G02*
X183756250Y-91300000I243750J0D01*
G01*
X184243750Y-91300000D01*
G75*
G02*
X184487500Y-91543750I0J-243750D01*
G01*
X184487500Y-92456250D01*
G75*
G02*
X184243750Y-92700000I-243750J0D01*
G01*
X183756250Y-92700000D01*
G75*
G02*
X183512500Y-92456250I0J243750D01*
G01*
G37*
G04 #@! TD.AperFunction*
G04 #@! TA.AperFunction,SMDPad,CuDef*
G36*
G01*
X181637500Y-92456250D02*
X181637500Y-91543750D01*
G75*
G02*
X181881250Y-91300000I243750J0D01*
G01*
X182368750Y-91300000D01*
G75*
G02*
X182612500Y-91543750I0J-243750D01*
G01*
X182612500Y-92456250D01*
G75*
G02*
X182368750Y-92700000I-243750J0D01*
G01*
X181881250Y-92700000D01*
G75*
G02*
X181637500Y-92456250I0J243750D01*
G01*
G37*
G04 #@! TD.AperFunction*
G04 #@! TA.AperFunction,SMDPad,CuDef*
G36*
G01*
X183350000Y-60256250D02*
X183350000Y-59743750D01*
G75*
G02*
X183568750Y-59525000I218750J0D01*
G01*
X184006250Y-59525000D01*
G75*
G02*
X184225000Y-59743750I0J-218750D01*
G01*
X184225000Y-60256250D01*
G75*
G02*
X184006250Y-60475000I-218750J0D01*
G01*
X183568750Y-60475000D01*
G75*
G02*
X183350000Y-60256250I0J218750D01*
G01*
G37*
G04 #@! TD.AperFunction*
G04 #@! TA.AperFunction,SMDPad,CuDef*
G36*
G01*
X181775000Y-60256250D02*
X181775000Y-59743750D01*
G75*
G02*
X181993750Y-59525000I218750J0D01*
G01*
X182431250Y-59525000D01*
G75*
G02*
X182650000Y-59743750I0J-218750D01*
G01*
X182650000Y-60256250D01*
G75*
G02*
X182431250Y-60475000I-218750J0D01*
G01*
X181993750Y-60475000D01*
G75*
G02*
X181775000Y-60256250I0J218750D01*
G01*
G37*
G04 #@! TD.AperFunction*
G04 #@! TA.AperFunction,SMDPad,CuDef*
G36*
G01*
X183350000Y-76256250D02*
X183350000Y-75743750D01*
G75*
G02*
X183568750Y-75525000I218750J0D01*
G01*
X184006250Y-75525000D01*
G75*
G02*
X184225000Y-75743750I0J-218750D01*
G01*
X184225000Y-76256250D01*
G75*
G02*
X184006250Y-76475000I-218750J0D01*
G01*
X183568750Y-76475000D01*
G75*
G02*
X183350000Y-76256250I0J218750D01*
G01*
G37*
G04 #@! TD.AperFunction*
G04 #@! TA.AperFunction,SMDPad,CuDef*
G36*
G01*
X181775000Y-76256250D02*
X181775000Y-75743750D01*
G75*
G02*
X181993750Y-75525000I218750J0D01*
G01*
X182431250Y-75525000D01*
G75*
G02*
X182650000Y-75743750I0J-218750D01*
G01*
X182650000Y-76256250D01*
G75*
G02*
X182431250Y-76475000I-218750J0D01*
G01*
X181993750Y-76475000D01*
G75*
G02*
X181775000Y-76256250I0J218750D01*
G01*
G37*
G04 #@! TD.AperFunction*
G04 #@! TA.AperFunction,SMDPad,CuDef*
G36*
G01*
X238450000Y-106956250D02*
X238450000Y-106043750D01*
G75*
G02*
X238693750Y-105800000I243750J0D01*
G01*
X239181250Y-105800000D01*
G75*
G02*
X239425000Y-106043750I0J-243750D01*
G01*
X239425000Y-106956250D01*
G75*
G02*
X239181250Y-107200000I-243750J0D01*
G01*
X238693750Y-107200000D01*
G75*
G02*
X238450000Y-106956250I0J243750D01*
G01*
G37*
G04 #@! TD.AperFunction*
G04 #@! TA.AperFunction,SMDPad,CuDef*
G36*
G01*
X236575000Y-106956250D02*
X236575000Y-106043750D01*
G75*
G02*
X236818750Y-105800000I243750J0D01*
G01*
X237306250Y-105800000D01*
G75*
G02*
X237550000Y-106043750I0J-243750D01*
G01*
X237550000Y-106956250D01*
G75*
G02*
X237306250Y-107200000I-243750J0D01*
G01*
X236818750Y-107200000D01*
G75*
G02*
X236575000Y-106956250I0J243750D01*
G01*
G37*
G04 #@! TD.AperFunction*
G04 #@! TA.AperFunction,SMDPad,CuDef*
G36*
G01*
X237550000Y-110043750D02*
X237550000Y-110956250D01*
G75*
G02*
X237306250Y-111200000I-243750J0D01*
G01*
X236818750Y-111200000D01*
G75*
G02*
X236575000Y-110956250I0J243750D01*
G01*
X236575000Y-110043750D01*
G75*
G02*
X236818750Y-109800000I243750J0D01*
G01*
X237306250Y-109800000D01*
G75*
G02*
X237550000Y-110043750I0J-243750D01*
G01*
G37*
G04 #@! TD.AperFunction*
G04 #@! TA.AperFunction,SMDPad,CuDef*
G36*
G01*
X239425000Y-110043750D02*
X239425000Y-110956250D01*
G75*
G02*
X239181250Y-111200000I-243750J0D01*
G01*
X238693750Y-111200000D01*
G75*
G02*
X238450000Y-110956250I0J243750D01*
G01*
X238450000Y-110043750D01*
G75*
G02*
X238693750Y-109800000I243750J0D01*
G01*
X239181250Y-109800000D01*
G75*
G02*
X239425000Y-110043750I0J-243750D01*
G01*
G37*
G04 #@! TD.AperFunction*
D18*
X201250000Y-105000000D03*
X201250000Y-109000000D03*
G04 #@! TA.AperFunction,SMDPad,CuDef*
G36*
G01*
X244650000Y-105743750D02*
X244650000Y-106256250D01*
G75*
G02*
X244431250Y-106475000I-218750J0D01*
G01*
X243993750Y-106475000D01*
G75*
G02*
X243775000Y-106256250I0J218750D01*
G01*
X243775000Y-105743750D01*
G75*
G02*
X243993750Y-105525000I218750J0D01*
G01*
X244431250Y-105525000D01*
G75*
G02*
X244650000Y-105743750I0J-218750D01*
G01*
G37*
G04 #@! TD.AperFunction*
G04 #@! TA.AperFunction,SMDPad,CuDef*
G36*
G01*
X246225000Y-105743750D02*
X246225000Y-106256250D01*
G75*
G02*
X246006250Y-106475000I-218750J0D01*
G01*
X245568750Y-106475000D01*
G75*
G02*
X245350000Y-106256250I0J218750D01*
G01*
X245350000Y-105743750D01*
G75*
G02*
X245568750Y-105525000I218750J0D01*
G01*
X246006250Y-105525000D01*
G75*
G02*
X246225000Y-105743750I0J-218750D01*
G01*
G37*
G04 #@! TD.AperFunction*
G04 #@! TA.AperFunction,SMDPad,CuDef*
G36*
G01*
X236350000Y-101756250D02*
X236350000Y-101243750D01*
G75*
G02*
X236568750Y-101025000I218750J0D01*
G01*
X237006250Y-101025000D01*
G75*
G02*
X237225000Y-101243750I0J-218750D01*
G01*
X237225000Y-101756250D01*
G75*
G02*
X237006250Y-101975000I-218750J0D01*
G01*
X236568750Y-101975000D01*
G75*
G02*
X236350000Y-101756250I0J218750D01*
G01*
G37*
G04 #@! TD.AperFunction*
G04 #@! TA.AperFunction,SMDPad,CuDef*
G36*
G01*
X234775000Y-101756250D02*
X234775000Y-101243750D01*
G75*
G02*
X234993750Y-101025000I218750J0D01*
G01*
X235431250Y-101025000D01*
G75*
G02*
X235650000Y-101243750I0J-218750D01*
G01*
X235650000Y-101756250D01*
G75*
G02*
X235431250Y-101975000I-218750J0D01*
G01*
X234993750Y-101975000D01*
G75*
G02*
X234775000Y-101756250I0J218750D01*
G01*
G37*
G04 #@! TD.AperFunction*
G04 #@! TA.AperFunction,SMDPad,CuDef*
G36*
G01*
X235650000Y-103243750D02*
X235650000Y-103756250D01*
G75*
G02*
X235431250Y-103975000I-218750J0D01*
G01*
X234993750Y-103975000D01*
G75*
G02*
X234775000Y-103756250I0J218750D01*
G01*
X234775000Y-103243750D01*
G75*
G02*
X234993750Y-103025000I218750J0D01*
G01*
X235431250Y-103025000D01*
G75*
G02*
X235650000Y-103243750I0J-218750D01*
G01*
G37*
G04 #@! TD.AperFunction*
G04 #@! TA.AperFunction,SMDPad,CuDef*
G36*
G01*
X237225000Y-103243750D02*
X237225000Y-103756250D01*
G75*
G02*
X237006250Y-103975000I-218750J0D01*
G01*
X236568750Y-103975000D01*
G75*
G02*
X236350000Y-103756250I0J218750D01*
G01*
X236350000Y-103243750D01*
G75*
G02*
X236568750Y-103025000I218750J0D01*
G01*
X237006250Y-103025000D01*
G75*
G02*
X237225000Y-103243750I0J-218750D01*
G01*
G37*
G04 #@! TD.AperFunction*
G04 #@! TA.AperFunction,SMDPad,CuDef*
G36*
G01*
X247743750Y-106850000D02*
X248256250Y-106850000D01*
G75*
G02*
X248475000Y-107068750I0J-218750D01*
G01*
X248475000Y-107506250D01*
G75*
G02*
X248256250Y-107725000I-218750J0D01*
G01*
X247743750Y-107725000D01*
G75*
G02*
X247525000Y-107506250I0J218750D01*
G01*
X247525000Y-107068750D01*
G75*
G02*
X247743750Y-106850000I218750J0D01*
G01*
G37*
G04 #@! TD.AperFunction*
G04 #@! TA.AperFunction,SMDPad,CuDef*
G36*
G01*
X247743750Y-105275000D02*
X248256250Y-105275000D01*
G75*
G02*
X248475000Y-105493750I0J-218750D01*
G01*
X248475000Y-105931250D01*
G75*
G02*
X248256250Y-106150000I-218750J0D01*
G01*
X247743750Y-106150000D01*
G75*
G02*
X247525000Y-105931250I0J218750D01*
G01*
X247525000Y-105493750D01*
G75*
G02*
X247743750Y-105275000I218750J0D01*
G01*
G37*
G04 #@! TD.AperFunction*
G04 #@! TA.AperFunction,SMDPad,CuDef*
G36*
G01*
X245350000Y-111256250D02*
X245350000Y-110743750D01*
G75*
G02*
X245568750Y-110525000I218750J0D01*
G01*
X246006250Y-110525000D01*
G75*
G02*
X246225000Y-110743750I0J-218750D01*
G01*
X246225000Y-111256250D01*
G75*
G02*
X246006250Y-111475000I-218750J0D01*
G01*
X245568750Y-111475000D01*
G75*
G02*
X245350000Y-111256250I0J218750D01*
G01*
G37*
G04 #@! TD.AperFunction*
G04 #@! TA.AperFunction,SMDPad,CuDef*
G36*
G01*
X243775000Y-111256250D02*
X243775000Y-110743750D01*
G75*
G02*
X243993750Y-110525000I218750J0D01*
G01*
X244431250Y-110525000D01*
G75*
G02*
X244650000Y-110743750I0J-218750D01*
G01*
X244650000Y-111256250D01*
G75*
G02*
X244431250Y-111475000I-218750J0D01*
G01*
X243993750Y-111475000D01*
G75*
G02*
X243775000Y-111256250I0J218750D01*
G01*
G37*
G04 #@! TD.AperFunction*
G04 #@! TA.AperFunction,SMDPad,CuDef*
G36*
G01*
X234450000Y-113456250D02*
X234450000Y-112543750D01*
G75*
G02*
X234693750Y-112300000I243750J0D01*
G01*
X235181250Y-112300000D01*
G75*
G02*
X235425000Y-112543750I0J-243750D01*
G01*
X235425000Y-113456250D01*
G75*
G02*
X235181250Y-113700000I-243750J0D01*
G01*
X234693750Y-113700000D01*
G75*
G02*
X234450000Y-113456250I0J243750D01*
G01*
G37*
G04 #@! TD.AperFunction*
G04 #@! TA.AperFunction,SMDPad,CuDef*
G36*
G01*
X232575000Y-113456250D02*
X232575000Y-112543750D01*
G75*
G02*
X232818750Y-112300000I243750J0D01*
G01*
X233306250Y-112300000D01*
G75*
G02*
X233550000Y-112543750I0J-243750D01*
G01*
X233550000Y-113456250D01*
G75*
G02*
X233306250Y-113700000I-243750J0D01*
G01*
X232818750Y-113700000D01*
G75*
G02*
X232575000Y-113456250I0J243750D01*
G01*
G37*
G04 #@! TD.AperFunction*
G04 #@! TA.AperFunction,SMDPad,CuDef*
G36*
G01*
X241743750Y-110850000D02*
X242256250Y-110850000D01*
G75*
G02*
X242475000Y-111068750I0J-218750D01*
G01*
X242475000Y-111506250D01*
G75*
G02*
X242256250Y-111725000I-218750J0D01*
G01*
X241743750Y-111725000D01*
G75*
G02*
X241525000Y-111506250I0J218750D01*
G01*
X241525000Y-111068750D01*
G75*
G02*
X241743750Y-110850000I218750J0D01*
G01*
G37*
G04 #@! TD.AperFunction*
G04 #@! TA.AperFunction,SMDPad,CuDef*
G36*
G01*
X241743750Y-109275000D02*
X242256250Y-109275000D01*
G75*
G02*
X242475000Y-109493750I0J-218750D01*
G01*
X242475000Y-109931250D01*
G75*
G02*
X242256250Y-110150000I-218750J0D01*
G01*
X241743750Y-110150000D01*
G75*
G02*
X241525000Y-109931250I0J218750D01*
G01*
X241525000Y-109493750D01*
G75*
G02*
X241743750Y-109275000I218750J0D01*
G01*
G37*
G04 #@! TD.AperFunction*
G04 #@! TA.AperFunction,SMDPad,CuDef*
G36*
G01*
X241743750Y-106850000D02*
X242256250Y-106850000D01*
G75*
G02*
X242475000Y-107068750I0J-218750D01*
G01*
X242475000Y-107506250D01*
G75*
G02*
X242256250Y-107725000I-218750J0D01*
G01*
X241743750Y-107725000D01*
G75*
G02*
X241525000Y-107506250I0J218750D01*
G01*
X241525000Y-107068750D01*
G75*
G02*
X241743750Y-106850000I218750J0D01*
G01*
G37*
G04 #@! TD.AperFunction*
G04 #@! TA.AperFunction,SMDPad,CuDef*
G36*
G01*
X241743750Y-105275000D02*
X242256250Y-105275000D01*
G75*
G02*
X242475000Y-105493750I0J-218750D01*
G01*
X242475000Y-105931250D01*
G75*
G02*
X242256250Y-106150000I-218750J0D01*
G01*
X241743750Y-106150000D01*
G75*
G02*
X241525000Y-105931250I0J218750D01*
G01*
X241525000Y-105493750D01*
G75*
G02*
X241743750Y-105275000I218750J0D01*
G01*
G37*
G04 #@! TD.AperFunction*
G04 #@! TA.AperFunction,SMDPad,CuDef*
G36*
G01*
X219050000Y-112043750D02*
X219050000Y-112956250D01*
G75*
G02*
X218806250Y-113200000I-243750J0D01*
G01*
X218318750Y-113200000D01*
G75*
G02*
X218075000Y-112956250I0J243750D01*
G01*
X218075000Y-112043750D01*
G75*
G02*
X218318750Y-111800000I243750J0D01*
G01*
X218806250Y-111800000D01*
G75*
G02*
X219050000Y-112043750I0J-243750D01*
G01*
G37*
G04 #@! TD.AperFunction*
G04 #@! TA.AperFunction,SMDPad,CuDef*
G36*
G01*
X220925000Y-112043750D02*
X220925000Y-112956250D01*
G75*
G02*
X220681250Y-113200000I-243750J0D01*
G01*
X220193750Y-113200000D01*
G75*
G02*
X219950000Y-112956250I0J243750D01*
G01*
X219950000Y-112043750D01*
G75*
G02*
X220193750Y-111800000I243750J0D01*
G01*
X220681250Y-111800000D01*
G75*
G02*
X220925000Y-112043750I0J-243750D01*
G01*
G37*
G04 #@! TD.AperFunction*
G04 #@! TA.AperFunction,SMDPad,CuDef*
G36*
G01*
X247743750Y-110850000D02*
X248256250Y-110850000D01*
G75*
G02*
X248475000Y-111068750I0J-218750D01*
G01*
X248475000Y-111506250D01*
G75*
G02*
X248256250Y-111725000I-218750J0D01*
G01*
X247743750Y-111725000D01*
G75*
G02*
X247525000Y-111506250I0J218750D01*
G01*
X247525000Y-111068750D01*
G75*
G02*
X247743750Y-110850000I218750J0D01*
G01*
G37*
G04 #@! TD.AperFunction*
G04 #@! TA.AperFunction,SMDPad,CuDef*
G36*
G01*
X247743750Y-109275000D02*
X248256250Y-109275000D01*
G75*
G02*
X248475000Y-109493750I0J-218750D01*
G01*
X248475000Y-109931250D01*
G75*
G02*
X248256250Y-110150000I-218750J0D01*
G01*
X247743750Y-110150000D01*
G75*
G02*
X247525000Y-109931250I0J218750D01*
G01*
X247525000Y-109493750D01*
G75*
G02*
X247743750Y-109275000I218750J0D01*
G01*
G37*
G04 #@! TD.AperFunction*
G04 #@! TA.AperFunction,SMDPad,CuDef*
G36*
G01*
X225840000Y-114293750D02*
X225840000Y-115206250D01*
G75*
G02*
X225596250Y-115450000I-243750J0D01*
G01*
X225108750Y-115450000D01*
G75*
G02*
X224865000Y-115206250I0J243750D01*
G01*
X224865000Y-114293750D01*
G75*
G02*
X225108750Y-114050000I243750J0D01*
G01*
X225596250Y-114050000D01*
G75*
G02*
X225840000Y-114293750I0J-243750D01*
G01*
G37*
G04 #@! TD.AperFunction*
G04 #@! TA.AperFunction,SMDPad,CuDef*
G36*
G01*
X227715000Y-114293750D02*
X227715000Y-115206250D01*
G75*
G02*
X227471250Y-115450000I-243750J0D01*
G01*
X226983750Y-115450000D01*
G75*
G02*
X226740000Y-115206250I0J243750D01*
G01*
X226740000Y-114293750D01*
G75*
G02*
X226983750Y-114050000I243750J0D01*
G01*
X227471250Y-114050000D01*
G75*
G02*
X227715000Y-114293750I0J-243750D01*
G01*
G37*
G04 #@! TD.AperFunction*
G04 #@! TA.AperFunction,SMDPad,CuDef*
G36*
G01*
X225840000Y-116793750D02*
X225840000Y-117706250D01*
G75*
G02*
X225596250Y-117950000I-243750J0D01*
G01*
X225108750Y-117950000D01*
G75*
G02*
X224865000Y-117706250I0J243750D01*
G01*
X224865000Y-116793750D01*
G75*
G02*
X225108750Y-116550000I243750J0D01*
G01*
X225596250Y-116550000D01*
G75*
G02*
X225840000Y-116793750I0J-243750D01*
G01*
G37*
G04 #@! TD.AperFunction*
G04 #@! TA.AperFunction,SMDPad,CuDef*
G36*
G01*
X227715000Y-116793750D02*
X227715000Y-117706250D01*
G75*
G02*
X227471250Y-117950000I-243750J0D01*
G01*
X226983750Y-117950000D01*
G75*
G02*
X226740000Y-117706250I0J243750D01*
G01*
X226740000Y-116793750D01*
G75*
G02*
X226983750Y-116550000I243750J0D01*
G01*
X227471250Y-116550000D01*
G75*
G02*
X227715000Y-116793750I0J-243750D01*
G01*
G37*
G04 #@! TD.AperFunction*
G04 #@! TA.AperFunction,SMDPad,CuDef*
G36*
G01*
X227860737Y-100169406D02*
X228183264Y-99771119D01*
G75*
G02*
X228490929Y-99738782I170001J-137664D01*
G01*
X228830930Y-100014109D01*
G75*
G02*
X228863267Y-100321774I-137664J-170001D01*
G01*
X228540740Y-100720061D01*
G75*
G02*
X228233075Y-100752398I-170001J137664D01*
G01*
X227893074Y-100477071D01*
G75*
G02*
X227860737Y-100169406I137664J170001D01*
G01*
G37*
G04 #@! TD.AperFunction*
G04 #@! TA.AperFunction,SMDPad,CuDef*
G36*
G01*
X226636733Y-99178226D02*
X226959260Y-98779939D01*
G75*
G02*
X227266925Y-98747602I170001J-137664D01*
G01*
X227606926Y-99022929D01*
G75*
G02*
X227639263Y-99330594I-137664J-170001D01*
G01*
X227316736Y-99728881D01*
G75*
G02*
X227009071Y-99761218I-170001J137664D01*
G01*
X226669070Y-99485891D01*
G75*
G02*
X226636733Y-99178226I137664J170001D01*
G01*
G37*
G04 #@! TD.AperFunction*
G04 #@! TA.AperFunction,SMDPad,CuDef*
G36*
G01*
X222580594Y-100110737D02*
X222978881Y-100433264D01*
G75*
G02*
X223011218Y-100740929I-137664J-170001D01*
G01*
X222735891Y-101080930D01*
G75*
G02*
X222428226Y-101113267I-170001J137664D01*
G01*
X222029939Y-100790740D01*
G75*
G02*
X221997602Y-100483075I137664J170001D01*
G01*
X222272929Y-100143074D01*
G75*
G02*
X222580594Y-100110737I170001J-137664D01*
G01*
G37*
G04 #@! TD.AperFunction*
G04 #@! TA.AperFunction,SMDPad,CuDef*
G36*
G01*
X223571774Y-98886733D02*
X223970061Y-99209260D01*
G75*
G02*
X224002398Y-99516925I-137664J-170001D01*
G01*
X223727071Y-99856926D01*
G75*
G02*
X223419406Y-99889263I-170001J137664D01*
G01*
X223021119Y-99566736D01*
G75*
G02*
X222988782Y-99259071I137664J170001D01*
G01*
X223264109Y-98919070D01*
G75*
G02*
X223571774Y-98886733I170001J-137664D01*
G01*
G37*
G04 #@! TD.AperFunction*
D19*
X196800000Y-110800000D03*
X189700000Y-110800000D03*
X189700000Y-103700000D03*
X196800000Y-103700000D03*
D20*
X246757360Y-62823635D03*
X246757360Y-75823635D03*
G04 #@! TA.AperFunction,SMDPad,CuDef*
G36*
G01*
X246501110Y-73173635D02*
X247013610Y-73173635D01*
G75*
G02*
X247232360Y-73392385I0J-218750D01*
G01*
X247232360Y-73829885D01*
G75*
G02*
X247013610Y-74048635I-218750J0D01*
G01*
X246501110Y-74048635D01*
G75*
G02*
X246282360Y-73829885I0J218750D01*
G01*
X246282360Y-73392385D01*
G75*
G02*
X246501110Y-73173635I218750J0D01*
G01*
G37*
G04 #@! TD.AperFunction*
G04 #@! TA.AperFunction,SMDPad,CuDef*
G36*
G01*
X246501110Y-71598635D02*
X247013610Y-71598635D01*
G75*
G02*
X247232360Y-71817385I0J-218750D01*
G01*
X247232360Y-72254885D01*
G75*
G02*
X247013610Y-72473635I-218750J0D01*
G01*
X246501110Y-72473635D01*
G75*
G02*
X246282360Y-72254885I0J218750D01*
G01*
X246282360Y-71817385D01*
G75*
G02*
X246501110Y-71598635I218750J0D01*
G01*
G37*
G04 #@! TD.AperFunction*
G04 #@! TA.AperFunction,SMDPad,CuDef*
G36*
G01*
X246501110Y-65673635D02*
X247013610Y-65673635D01*
G75*
G02*
X247232360Y-65892385I0J-218750D01*
G01*
X247232360Y-66329885D01*
G75*
G02*
X247013610Y-66548635I-218750J0D01*
G01*
X246501110Y-66548635D01*
G75*
G02*
X246282360Y-66329885I0J218750D01*
G01*
X246282360Y-65892385D01*
G75*
G02*
X246501110Y-65673635I218750J0D01*
G01*
G37*
G04 #@! TD.AperFunction*
G04 #@! TA.AperFunction,SMDPad,CuDef*
G36*
G01*
X246501110Y-64098635D02*
X247013610Y-64098635D01*
G75*
G02*
X247232360Y-64317385I0J-218750D01*
G01*
X247232360Y-64754885D01*
G75*
G02*
X247013610Y-64973635I-218750J0D01*
G01*
X246501110Y-64973635D01*
G75*
G02*
X246282360Y-64754885I0J218750D01*
G01*
X246282360Y-64317385D01*
G75*
G02*
X246501110Y-64098635I218750J0D01*
G01*
G37*
G04 #@! TD.AperFunction*
D21*
X189250000Y-103250000D03*
X190250000Y-103250000D03*
X190250000Y-104250000D03*
X189250000Y-104250000D03*
D22*
X227500000Y-109250000D03*
X226500000Y-109250000D03*
X225500000Y-109250000D03*
X225500000Y-108250000D03*
X226500000Y-108250000D03*
X227500000Y-108250000D03*
X227500000Y-107250000D03*
X226500000Y-107250000D03*
X225500000Y-107250000D03*
D21*
X226000000Y-103500000D03*
D23*
X191097000Y-68534000D03*
X190081000Y-70566000D03*
X243929000Y-69931000D03*
X244945000Y-68153000D03*
X189065000Y-68534000D03*
X188049000Y-70566000D03*
D21*
X242913000Y-69042000D03*
D22*
X246000000Y-109000000D03*
X246000000Y-108000000D03*
X245000000Y-108000000D03*
X244000000Y-108000000D03*
X245000000Y-109000000D03*
X243999970Y-109000000D03*
X238500000Y-103500000D03*
X235000000Y-105500012D03*
X224000000Y-116000000D03*
X231500000Y-110500000D03*
X236500000Y-113000000D03*
X218500000Y-114500000D03*
X209250000Y-105250000D03*
X180500000Y-92000000D03*
X180500000Y-76000000D03*
X180500000Y-60000000D03*
X230250000Y-101250000D03*
X225387998Y-99362002D03*
D21*
X222999968Y-111500000D03*
D22*
X184500000Y-84250000D03*
X230250000Y-99000000D03*
X235500000Y-108500000D03*
X233000006Y-105500006D03*
X233000000Y-111500000D03*
X220500000Y-114500000D03*
X219750000Y-104750000D03*
X208500000Y-110500000D03*
D24*
X245969000Y-91132000D02*
X245969000Y-76611995D01*
X244691000Y-92410000D02*
X245969000Y-91132000D01*
X188049000Y-70566000D02*
X188049000Y-90886000D01*
X189573000Y-92410000D02*
X244691000Y-92410000D01*
X188049000Y-90886000D02*
X189573000Y-92410000D01*
X245969000Y-76611995D02*
X246757360Y-75823635D01*
X242913000Y-50246000D02*
X242913000Y-69042000D01*
X242151000Y-49484000D02*
X242913000Y-50246000D01*
X191859000Y-49484000D02*
X242151000Y-49484000D01*
X191097000Y-50246000D02*
X191859000Y-49484000D01*
X191097000Y-68534000D02*
X191097000Y-50246000D01*
X189065000Y-48976000D02*
X189065000Y-68534000D01*
X190589000Y-47452000D02*
X189065000Y-48976000D01*
X243421000Y-47452000D02*
X190589000Y-47452000D01*
X244945000Y-48976000D02*
X243421000Y-47452000D01*
X244945000Y-68153000D02*
X244945000Y-48976000D01*
X190081000Y-89616000D02*
X190081000Y-70566000D01*
X190843000Y-90378000D02*
X190081000Y-89616000D01*
X243421000Y-90378000D02*
X190843000Y-90378000D01*
X243929000Y-89870000D02*
X243421000Y-90378000D01*
X243929000Y-69931000D02*
X243929000Y-89870000D01*
X242913000Y-88854000D02*
X242913000Y-69042000D01*
X244183000Y-91394000D02*
X244945000Y-90632000D01*
X190081000Y-69042000D02*
X191097000Y-70058000D01*
X190081000Y-91394000D02*
X244183000Y-91394000D01*
X189065000Y-70058000D02*
X189065000Y-90378000D01*
X246757360Y-62823635D02*
X245969000Y-62035275D01*
X188049000Y-48468000D02*
X188049000Y-69042000D01*
X189065000Y-90378000D02*
X190081000Y-91394000D01*
X190081000Y-49484000D02*
X190081000Y-69042000D01*
X191097000Y-48468000D02*
X190081000Y-49484000D01*
X188049000Y-69042000D02*
X189065000Y-70058000D01*
X190081000Y-46436000D02*
X188049000Y-48468000D01*
X244945000Y-90632000D02*
X244945000Y-69550000D01*
X244945000Y-69550000D02*
X243929000Y-68534000D01*
X243929000Y-68534000D02*
X243929000Y-49738000D01*
X243929000Y-49738000D02*
X242659000Y-48468000D01*
X244183000Y-46436000D02*
X190081000Y-46436000D01*
X242659000Y-48468000D02*
X191097000Y-48468000D01*
X245969000Y-62035275D02*
X245969000Y-48222000D01*
X191097000Y-70058000D02*
X191097000Y-88600000D01*
X191097000Y-88600000D02*
X191859000Y-89362000D01*
X245969000Y-48222000D02*
X244183000Y-46436000D01*
X191859000Y-89362000D02*
X242405000Y-89362000D01*
X242405000Y-89362000D02*
X242913000Y-88854000D01*
D25*
X246757360Y-62823635D02*
X246757360Y-64536135D01*
X246757360Y-75823635D02*
X246757360Y-73611135D01*
D26*
X245000000Y-108000000D02*
X246000000Y-108000000D01*
X247287500Y-109000000D02*
X248000000Y-109712500D01*
X246000000Y-109000000D02*
X247287500Y-109000000D01*
X246000000Y-108000000D02*
X246000000Y-109000000D01*
X246000000Y-109000000D02*
X243999970Y-109000000D01*
X244000000Y-108000000D02*
X245000000Y-108000000D01*
X245000000Y-108000000D02*
X245000000Y-109000000D01*
X244000000Y-108999970D02*
X243999970Y-109000000D01*
X244000000Y-108000000D02*
X244000000Y-108999970D01*
X242000000Y-109712500D02*
X242574970Y-109712500D01*
X243287470Y-109000000D02*
X243999970Y-109000000D01*
X242574970Y-109712500D02*
X243287470Y-109000000D01*
X243287500Y-108000000D02*
X244000000Y-108000000D01*
X242000000Y-107287500D02*
X242575000Y-107287500D01*
X242575000Y-107287500D02*
X243287500Y-108000000D01*
X247287500Y-108000000D02*
X248000000Y-107287500D01*
X246000000Y-108000000D02*
X247287500Y-108000000D01*
X236787500Y-103500000D02*
X238500000Y-103500000D01*
D25*
X233000012Y-107500000D02*
X235000000Y-105500012D01*
X228937500Y-107500000D02*
X233000012Y-107500000D01*
D26*
X225020000Y-121600000D02*
X225020000Y-119480000D01*
X225020000Y-119480000D02*
X225352500Y-119147500D01*
X225352500Y-119147500D02*
X225352500Y-117250000D01*
X225352500Y-114750000D02*
X225352500Y-117250000D01*
X225352500Y-117250000D02*
X225352500Y-116352500D01*
X225000000Y-116000000D02*
X224000000Y-116000000D01*
X225352500Y-116352500D02*
X225000000Y-116000000D01*
X225352500Y-115647500D02*
X225000000Y-116000000D01*
X225352500Y-114750000D02*
X225352500Y-115647500D01*
D25*
X228937500Y-109500000D02*
X230500000Y-109500000D01*
X230500000Y-109500000D02*
X231500000Y-110500000D01*
D26*
X234937500Y-113000000D02*
X236500000Y-113000000D01*
X236500000Y-113000000D02*
X236500000Y-113000000D01*
X218500000Y-112562500D02*
X218562500Y-112500000D01*
X218500000Y-114500000D02*
X218500000Y-112562500D01*
D27*
X227387998Y-99254410D02*
X227119073Y-99254410D01*
X223495590Y-99387998D02*
X223819097Y-99387998D01*
X223819097Y-99387998D02*
X225402291Y-100971192D01*
X227004410Y-99387998D02*
X227137998Y-99254410D01*
X223495590Y-99387998D02*
X227004410Y-99387998D01*
X225402291Y-100971192D02*
X225387998Y-100956899D01*
X225020000Y-98270000D02*
X225020000Y-96200000D01*
X225387998Y-98637998D02*
X225020000Y-98270000D01*
X225387998Y-100956899D02*
X225387998Y-99362002D01*
D26*
X207000000Y-104300000D02*
X208300000Y-104300000D01*
X208300000Y-104300000D02*
X209250000Y-105250000D01*
X182125000Y-92000000D02*
X180500000Y-92000000D01*
X182212500Y-76000000D02*
X180500000Y-76000000D01*
X182212500Y-60000000D02*
X180500000Y-60000000D01*
X180500000Y-60000000D02*
X180500000Y-60000000D01*
D27*
X227137998Y-99254410D02*
X225773418Y-100618990D01*
X225402291Y-100971192D02*
X225402291Y-100619014D01*
X225402291Y-100619014D02*
X225402267Y-100618990D01*
X225773418Y-100618990D02*
X225402267Y-100618990D01*
D25*
X230250000Y-102000000D02*
X230250000Y-101250000D01*
X227750000Y-105812500D02*
X227750000Y-104500000D01*
X227750000Y-104500000D02*
X230250000Y-102000000D01*
D27*
X225387998Y-99362002D02*
X225387998Y-98637998D01*
D25*
X226250000Y-110687500D02*
X226250000Y-112350000D01*
X226250000Y-113150000D02*
X226250000Y-112350000D01*
X225352500Y-114750000D02*
X225352500Y-114047500D01*
X225352500Y-114047500D02*
X226250000Y-113150000D01*
X226750000Y-111850000D02*
X226750000Y-110687500D01*
X226250000Y-112350000D02*
X226750000Y-111850000D01*
X224250000Y-111500000D02*
X222999968Y-111500000D01*
X224750000Y-110687500D02*
X224750000Y-111000000D01*
X224750000Y-111000000D02*
X224250000Y-111500000D01*
D26*
X227560000Y-96200000D02*
X229450000Y-96200000D01*
X229450000Y-96200000D02*
X230250000Y-97000000D01*
X230250000Y-97000000D02*
X230250000Y-99000000D01*
X230250000Y-99000000D02*
X230250000Y-99000000D01*
X183800000Y-82400000D02*
X183800000Y-80787500D01*
X184500000Y-84250000D02*
X184500000Y-83100000D01*
X184500000Y-83100000D02*
X183800000Y-82400000D01*
D25*
X225750000Y-104750000D02*
X225750000Y-105812500D01*
X224426845Y-102175769D02*
X224426845Y-103426845D01*
X224426845Y-103426845D02*
X225750000Y-104750000D01*
D27*
X224175769Y-102175769D02*
X224426845Y-102175769D01*
X222504410Y-100612002D02*
X222612002Y-100612002D01*
X222612002Y-100612002D02*
X224175769Y-102175769D01*
X227073155Y-102324231D02*
X227750000Y-101647386D01*
X227750000Y-100857592D02*
X228362002Y-100245590D01*
X227750000Y-101647386D02*
X227750000Y-100857592D01*
D25*
X227250000Y-104137074D02*
X227250000Y-102501076D01*
X227250000Y-102501076D02*
X227073155Y-102324231D01*
X226250000Y-105812500D02*
X226250000Y-105137074D01*
X226250000Y-105137074D02*
X227250000Y-104137074D01*
X228937500Y-108500000D02*
X235500000Y-108500000D01*
X228937500Y-107000000D02*
X231500012Y-107000000D01*
X231500012Y-107000000D02*
X233000006Y-105500006D01*
X233000006Y-105500006D02*
X233000012Y-105500000D01*
D26*
X227560000Y-121600000D02*
X227560000Y-119560000D01*
X227560000Y-119560000D02*
X227227500Y-119227500D01*
X227227500Y-119227500D02*
X227227500Y-117250000D01*
X227227500Y-117250000D02*
X227227500Y-114750000D01*
X233062500Y-111562500D02*
X233000000Y-111500000D01*
X233062500Y-113000000D02*
X233062500Y-111562500D01*
D25*
X225250000Y-110687500D02*
X225250000Y-111750000D01*
X225250000Y-111750000D02*
X224500000Y-112500000D01*
X220437500Y-112500000D02*
X220500000Y-112500000D01*
X223000000Y-110000000D02*
X224062500Y-110000000D01*
X220500000Y-112500000D02*
X223000000Y-110000000D01*
D26*
X220500000Y-112562500D02*
X220437500Y-112500000D01*
X220500000Y-114500000D02*
X220500000Y-112562500D01*
D27*
X218000000Y-103000000D02*
X218000000Y-102037500D01*
X219750000Y-104750000D02*
X218000000Y-103000000D01*
X228750000Y-115000000D02*
X229712500Y-115000000D01*
X227227500Y-114750000D02*
X228500000Y-114750000D01*
X228500000Y-114750000D02*
X228750000Y-115000000D01*
D25*
X225750000Y-111750000D02*
X225000000Y-112500000D01*
X225750000Y-110687500D02*
X225750000Y-111750000D01*
D27*
X224500000Y-112500000D02*
X220437500Y-112500000D01*
X225000000Y-112500000D02*
X224500000Y-112500000D01*
D26*
X208500000Y-110500000D02*
X208468750Y-110500000D01*
X198200000Y-110800000D02*
X196800000Y-110800000D01*
X201250000Y-109000000D02*
X200000000Y-109000000D01*
X200000000Y-109000000D02*
X198200000Y-110800000D01*
X204125000Y-109000000D02*
X201250000Y-109000000D01*
X208500000Y-110500000D02*
X205625000Y-110500000D01*
X205625000Y-110500000D02*
X204125000Y-109000000D01*
X243212500Y-105712500D02*
X243500000Y-106000000D01*
X243500000Y-106000000D02*
X244212500Y-106000000D01*
X242000000Y-105712500D02*
X243212500Y-105712500D01*
X242000000Y-105712500D02*
X240787500Y-105712500D01*
X240000000Y-106500000D02*
X238937500Y-106500000D01*
X240787500Y-105712500D02*
X240000000Y-106500000D01*
X242000000Y-104787500D02*
X240500000Y-103287500D01*
X242000000Y-105712500D02*
X242000000Y-104787500D01*
X243500000Y-111000000D02*
X244212500Y-111000000D01*
X243212500Y-111287500D02*
X243500000Y-111000000D01*
X242000000Y-111287500D02*
X243212500Y-111287500D01*
X242000000Y-111287500D02*
X241287500Y-111287500D01*
X240500000Y-110500000D02*
X238937500Y-110500000D01*
X241287500Y-111287500D02*
X240500000Y-110500000D01*
D25*
X232500000Y-104000000D02*
X232500000Y-103287500D01*
X228937500Y-106500000D02*
X230000000Y-106500000D01*
X230000000Y-106500000D02*
X232500000Y-104000000D01*
D26*
X234212500Y-103500000D02*
X235212500Y-103500000D01*
X232500000Y-103287500D02*
X234000000Y-103287500D01*
X234000000Y-103287500D02*
X234212500Y-103500000D01*
X240500000Y-101712500D02*
X238712500Y-101712500D01*
X238500000Y-101500000D02*
X236787500Y-101500000D01*
X238712500Y-101712500D02*
X238500000Y-101500000D01*
D25*
X231787500Y-101712500D02*
X232500000Y-101712500D01*
X228250000Y-105812500D02*
X228250000Y-105250000D01*
X228250000Y-105250000D02*
X231787500Y-101712500D01*
D26*
X234212500Y-101500000D02*
X235212500Y-101500000D01*
X232500000Y-101712500D02*
X234000000Y-101712500D01*
X234000000Y-101712500D02*
X234212500Y-101500000D01*
D25*
X228937500Y-109000000D02*
X234000000Y-109000000D01*
X234000000Y-109000000D02*
X235500000Y-110500000D01*
X235500000Y-110500000D02*
X237062500Y-110500000D01*
X228937500Y-108000000D02*
X234000000Y-108000000D01*
X234000000Y-108000000D02*
X235500000Y-106500000D01*
X235500000Y-106500000D02*
X237062500Y-106500000D01*
D27*
X183800000Y-76012500D02*
X183800000Y-79212500D01*
X183787500Y-76000000D02*
X183800000Y-76012500D01*
X181500000Y-63212500D02*
X184500000Y-63212500D01*
X183787500Y-61287500D02*
X183787500Y-60000000D01*
X184500000Y-63212500D02*
X184500000Y-62000000D01*
X184500000Y-62000000D02*
X183787500Y-61287500D01*
D25*
X209780000Y-98030000D02*
X209780000Y-96200000D01*
X224062500Y-108500000D02*
X220250000Y-108500000D01*
X220250000Y-108500000D02*
X209780000Y-98030000D01*
X204700000Y-98200000D02*
X204700000Y-96200000D01*
X224062500Y-109500000D02*
X216000000Y-109500000D01*
X216000000Y-109500000D02*
X204700000Y-98200000D01*
X207240000Y-98240000D02*
X207240000Y-96200000D01*
X224062500Y-109000000D02*
X218000000Y-109000000D01*
X218000000Y-109000000D02*
X207240000Y-98240000D01*
X220500000Y-98180000D02*
X222480000Y-96200000D01*
X220500000Y-100300000D02*
X220500000Y-98180000D01*
X225250000Y-105812500D02*
X225250000Y-105050000D01*
X225250000Y-105050000D02*
X220500000Y-100300000D01*
D27*
X212250000Y-121530000D02*
X212320000Y-121600000D01*
X212250000Y-117037500D02*
X212250000Y-121530000D01*
D25*
X216435000Y-100500000D02*
X212320000Y-96385000D01*
X219900000Y-100500000D02*
X216435000Y-100500000D01*
X212320000Y-96385000D02*
X212320000Y-96200000D01*
X224750000Y-105812500D02*
X224750000Y-105350000D01*
X224750000Y-105350000D02*
X219900000Y-100500000D01*
X228300000Y-112880000D02*
X227250000Y-111830000D01*
X230170000Y-112880000D02*
X228300000Y-112880000D01*
X227250000Y-111830000D02*
X227250000Y-110687500D01*
X231287500Y-115000000D02*
X231287500Y-113997500D01*
X231287500Y-113997500D02*
X230170000Y-112880000D01*
X214860000Y-123110000D02*
X214860000Y-121600000D01*
X215500000Y-123750000D02*
X214860000Y-123110000D01*
X229750000Y-123750000D02*
X215500000Y-123750000D01*
X231287500Y-115000000D02*
X231287500Y-122212500D01*
X231287500Y-122212500D02*
X229750000Y-123750000D01*
D27*
X212250000Y-110500000D02*
X212250000Y-115462500D01*
X207000000Y-106200000D02*
X207950000Y-106200000D01*
X207950000Y-106200000D02*
X212250000Y-110500000D01*
D26*
X199750000Y-105000000D02*
X201250000Y-105000000D01*
X196800000Y-103700000D02*
X198450000Y-103700000D01*
X198450000Y-103700000D02*
X199750000Y-105000000D01*
X203500000Y-105250000D02*
X205000000Y-105250000D01*
X201250000Y-105000000D02*
X203250000Y-105000000D01*
X203250000Y-105000000D02*
X203500000Y-105250000D01*
D27*
X181500000Y-95212500D02*
X184500000Y-95212500D01*
X184000000Y-93500000D02*
X184000000Y-92000000D01*
X184500000Y-95212500D02*
X184500000Y-94000000D01*
X184500000Y-94000000D02*
X184000000Y-93500000D01*
X181500000Y-96787500D02*
X184500000Y-96787500D01*
X181500000Y-107000000D02*
X181500000Y-96787500D01*
X203350000Y-115750000D02*
X190250000Y-115750000D01*
X190250000Y-115750000D02*
X181500000Y-107000000D01*
X207240000Y-121600000D02*
X207240000Y-119640000D01*
X207240000Y-119640000D02*
X203350000Y-115750000D01*
X181500000Y-64787500D02*
X184500000Y-64787500D01*
X180212500Y-64787500D02*
X181500000Y-64787500D01*
X178750000Y-66250000D02*
X180212500Y-64787500D01*
X194540000Y-120040000D02*
X192250000Y-117750000D01*
X192250000Y-117750000D02*
X189250000Y-117750000D01*
X194540000Y-121600000D02*
X194540000Y-120040000D01*
X189250000Y-117750000D02*
X178750000Y-107250000D01*
X178750000Y-107250000D02*
X178750000Y-66250000D01*
D26*
X245787500Y-111000000D02*
X246500000Y-111000000D01*
X246500000Y-111000000D02*
X246787500Y-111287500D01*
X246787500Y-111287500D02*
X248000000Y-111287500D01*
D27*
X252712500Y-111287500D02*
X255250000Y-108750000D01*
X248000000Y-111287500D02*
X252712500Y-111287500D01*
X252111135Y-66111135D02*
X246757360Y-66111135D01*
X255250000Y-108750000D02*
X255250000Y-69250000D01*
X255250000Y-69250000D02*
X252111135Y-66111135D01*
X246589500Y-72064500D02*
X246423400Y-72064500D01*
D26*
X245787500Y-106000000D02*
X246500000Y-106000000D01*
X246500000Y-106000000D02*
X246787500Y-105712500D01*
X246787500Y-105712500D02*
X248000000Y-105712500D01*
D27*
X251509552Y-84840780D02*
X251500000Y-84756000D01*
X252353355Y-85815877D02*
X252413683Y-85755549D01*
X250718885Y-85936730D02*
X250799414Y-85908552D01*
X250586317Y-86042450D02*
X250646645Y-85982122D01*
X250799414Y-86651447D02*
X250718885Y-86623269D01*
X252115806Y-86661000D02*
X250884194Y-86661000D01*
X252281115Y-86698730D02*
X252200586Y-86670552D01*
X252353355Y-86744122D02*
X252281115Y-86698730D01*
X252413683Y-86804450D02*
X252353355Y-86744122D01*
X252487253Y-86957219D02*
X252459075Y-86876690D01*
X252496806Y-87042000D02*
X252487253Y-86957219D01*
X252487253Y-87126780D02*
X252496806Y-87042000D01*
X252413683Y-87279549D02*
X252459075Y-87207309D01*
X250503194Y-87804000D02*
X250512747Y-87719219D01*
X250512747Y-87888780D02*
X250503194Y-87804000D01*
X250540925Y-87969309D02*
X250512747Y-87888780D01*
X250586317Y-88041549D02*
X250540925Y-87969309D01*
X250646645Y-88101877D02*
X250586317Y-88041549D01*
X250718885Y-88147269D02*
X250646645Y-88101877D01*
X250799414Y-88175447D02*
X250718885Y-88147269D01*
X250718885Y-87460730D02*
X250799414Y-87432552D01*
X250884194Y-88185000D02*
X250799414Y-88175447D01*
X250646645Y-87506122D02*
X250718885Y-87460730D01*
X252115806Y-88185000D02*
X250884194Y-88185000D01*
X252353355Y-87339877D02*
X252413683Y-87279549D01*
X252200586Y-88194552D02*
X252115806Y-88185000D01*
X252281115Y-88222730D02*
X252200586Y-88194552D01*
X252353355Y-88268122D02*
X252281115Y-88222730D01*
X252413683Y-88328450D02*
X252353355Y-88268122D01*
X252459075Y-88400690D02*
X252413683Y-88328450D01*
X252487253Y-88481219D02*
X252459075Y-88400690D01*
X250799414Y-87432552D02*
X250884194Y-87423000D01*
X252496806Y-88566000D02*
X252487253Y-88481219D01*
X252487253Y-88650780D02*
X252496806Y-88566000D01*
X252413683Y-85280450D02*
X252353355Y-85220122D01*
X252459075Y-88731309D02*
X252487253Y-88650780D01*
X252413683Y-88803549D02*
X252459075Y-88731309D01*
X252353355Y-88863877D02*
X252413683Y-88803549D01*
X252281115Y-88909269D02*
X252353355Y-88863877D01*
X252200586Y-88937447D02*
X252281115Y-88909269D01*
X252115806Y-88947000D02*
X252200586Y-88937447D01*
X250512747Y-86195219D02*
X250540925Y-86114690D01*
X250884194Y-88947000D02*
X252115806Y-88947000D01*
X250799414Y-88956552D02*
X250884194Y-88947000D01*
X250718885Y-88984730D02*
X250799414Y-88956552D01*
X250540925Y-86445309D02*
X250512747Y-86364780D01*
X250646645Y-89030122D02*
X250718885Y-88984730D01*
X252353355Y-91911877D02*
X252413683Y-91851549D01*
X252353355Y-93435877D02*
X252413683Y-93375549D01*
X250512747Y-86364780D02*
X250503194Y-86280000D01*
X252281115Y-91957269D02*
X252353355Y-91911877D01*
X252353355Y-85220122D02*
X252281115Y-85174730D01*
X252200586Y-91985447D02*
X252281115Y-91957269D01*
X251715690Y-85099269D02*
X251643450Y-85053877D01*
X252115806Y-91995000D02*
X252200586Y-91985447D01*
X250884194Y-91995000D02*
X252115806Y-91995000D01*
X252281115Y-87385269D02*
X252353355Y-87339877D01*
X252353355Y-90387877D02*
X252413683Y-90327549D01*
X250799414Y-92004552D02*
X250884194Y-91995000D01*
X252115806Y-87423000D02*
X252200586Y-87413447D01*
X250884194Y-90471000D02*
X252115806Y-90471000D01*
X252459075Y-87207309D02*
X252487253Y-87126780D01*
X250718885Y-92032730D02*
X250799414Y-92004552D01*
X250884194Y-91233000D02*
X250799414Y-91223447D01*
X250586317Y-92138450D02*
X250646645Y-92078122D01*
X250799414Y-91223447D02*
X250718885Y-91195269D01*
X250540925Y-92210690D02*
X250586317Y-92138450D01*
X250540925Y-89493309D02*
X250512747Y-89412780D01*
X250512747Y-92460780D02*
X250503194Y-92376000D01*
X250799414Y-89699447D02*
X250718885Y-89671269D01*
X250540925Y-92541309D02*
X250512747Y-92460780D01*
X252459075Y-91448690D02*
X252413683Y-91376450D01*
X250586317Y-92613549D02*
X250540925Y-92541309D01*
X252487253Y-91698780D02*
X252496806Y-91614000D01*
X250503194Y-92376000D02*
X250512747Y-92291219D01*
X250646645Y-92673877D02*
X250586317Y-92613549D01*
X250586317Y-91089549D02*
X250540925Y-91017309D01*
X250799414Y-92747447D02*
X250718885Y-92719269D01*
X250512747Y-92291219D02*
X250540925Y-92210690D01*
X250799414Y-90480552D02*
X250884194Y-90471000D01*
X250718885Y-86623269D02*
X250646645Y-86577877D01*
X250884194Y-92757000D02*
X250799414Y-92747447D01*
X251881000Y-85137000D02*
X251796219Y-85127447D01*
X252115806Y-92757000D02*
X250884194Y-92757000D01*
X251500000Y-74500000D02*
X249036135Y-72036135D01*
X252200586Y-92766552D02*
X252115806Y-92757000D01*
X252281115Y-92794730D02*
X252200586Y-92766552D01*
X250884194Y-87423000D02*
X252115806Y-87423000D01*
X252115806Y-90471000D02*
X252200586Y-90461447D01*
X252459075Y-86876690D02*
X252413683Y-86804450D01*
X252353355Y-92840122D02*
X252281115Y-92794730D01*
X252487253Y-91529219D02*
X252459075Y-91448690D01*
X252459075Y-85352690D02*
X252413683Y-85280450D01*
X251643450Y-93602122D02*
X251715690Y-93556730D01*
X251537730Y-93734690D02*
X251583122Y-93662450D01*
X250718885Y-89671269D02*
X250646645Y-89625877D01*
X250646645Y-92078122D02*
X250718885Y-92032730D01*
X252200586Y-89718552D02*
X252115806Y-89709000D01*
X252487253Y-93222780D02*
X252496806Y-93138000D01*
X252459075Y-91779309D02*
X252487253Y-91698780D01*
X252200586Y-86670552D02*
X252115806Y-86661000D01*
X251881000Y-93519000D02*
X252115806Y-93519000D01*
X250037500Y-105712500D02*
X251500000Y-104250000D01*
X252200586Y-85146552D02*
X252115806Y-85137000D01*
X252459075Y-92972690D02*
X252413683Y-92900450D01*
X250586317Y-87566450D02*
X250646645Y-87506122D01*
X250512747Y-90767219D02*
X250540925Y-90686690D01*
X251537730Y-84921309D02*
X251509552Y-84840780D01*
X251796219Y-93528552D02*
X251881000Y-93519000D01*
X252459075Y-93303309D02*
X252487253Y-93222780D01*
X252459075Y-85683309D02*
X252487253Y-85602780D01*
X248000000Y-105712500D02*
X250037500Y-105712500D01*
X252487253Y-85433219D02*
X252459075Y-85352690D01*
X251715690Y-93556730D02*
X251796219Y-93528552D01*
X252200586Y-93509447D02*
X252281115Y-93481269D01*
X252413683Y-89852450D02*
X252353355Y-89792122D01*
X250540925Y-86114690D02*
X250586317Y-86042450D01*
X251583122Y-93662450D02*
X251643450Y-93602122D01*
X250884194Y-86661000D02*
X250799414Y-86651447D01*
X251500000Y-104250000D02*
X251500000Y-93900000D01*
X252200586Y-87413447D02*
X252281115Y-87385269D01*
X252496806Y-91614000D02*
X252487253Y-91529219D01*
X252413683Y-91851549D02*
X252459075Y-91779309D01*
X251500000Y-93900000D02*
X251509552Y-93815219D01*
X252281115Y-85174730D02*
X252200586Y-85146552D01*
X251509552Y-93815219D02*
X251537730Y-93734690D01*
X251643450Y-85053877D02*
X251583122Y-84993549D01*
X250718885Y-92719269D02*
X250646645Y-92673877D01*
X252115806Y-93519000D02*
X252200586Y-93509447D01*
X250586317Y-90614450D02*
X250646645Y-90554122D01*
X252281115Y-85861269D02*
X252353355Y-85815877D01*
X252413683Y-93375549D02*
X252459075Y-93303309D01*
X252115806Y-85137000D02*
X251881000Y-85137000D01*
X252281115Y-93481269D02*
X252353355Y-93435877D01*
X252200586Y-85889447D02*
X252281115Y-85861269D01*
X252496806Y-93138000D02*
X252487253Y-93053219D01*
X251500000Y-84756000D02*
X251500000Y-74500000D01*
X252487253Y-93053219D02*
X252459075Y-92972690D01*
X250646645Y-86577877D02*
X250586317Y-86517549D01*
X252413683Y-92900450D02*
X252353355Y-92840122D01*
X250503194Y-86280000D02*
X250512747Y-86195219D01*
X252413683Y-91376450D02*
X252353355Y-91316122D01*
X252353355Y-91316122D02*
X252281115Y-91270730D01*
X251583122Y-84993549D02*
X251537730Y-84921309D01*
X252281115Y-91270730D02*
X252200586Y-91242552D01*
X252200586Y-91242552D02*
X252115806Y-91233000D01*
X252487253Y-85602780D02*
X252496806Y-85518000D01*
X252115806Y-91233000D02*
X250884194Y-91233000D01*
X250718885Y-91195269D02*
X250646645Y-91149877D01*
X250646645Y-91149877D02*
X250586317Y-91089549D01*
X250586317Y-86517549D02*
X250540925Y-86445309D01*
X250540925Y-91017309D02*
X250512747Y-90936780D01*
X250512747Y-90936780D02*
X250503194Y-90852000D01*
X250503194Y-90852000D02*
X250512747Y-90767219D01*
X250540925Y-90686690D02*
X250586317Y-90614450D01*
X250646645Y-90554122D02*
X250718885Y-90508730D01*
X249036135Y-72036135D02*
X246757360Y-72036135D01*
X250718885Y-90508730D02*
X250799414Y-90480552D01*
X250540925Y-87638690D02*
X250586317Y-87566450D01*
X252200586Y-90461447D02*
X252281115Y-90433269D01*
X250799414Y-85908552D02*
X250884194Y-85899000D01*
X252281115Y-90433269D02*
X252353355Y-90387877D01*
X250512747Y-87719219D02*
X250540925Y-87638690D01*
X252413683Y-90327549D02*
X252459075Y-90255309D01*
X252496806Y-85518000D02*
X252487253Y-85433219D01*
X252459075Y-90255309D02*
X252487253Y-90174780D01*
X250646645Y-85982122D02*
X250718885Y-85936730D01*
X252487253Y-90174780D02*
X252496806Y-90090000D01*
X252496806Y-90090000D02*
X252487253Y-90005219D01*
X252115806Y-85899000D02*
X252200586Y-85889447D01*
X252487253Y-90005219D02*
X252459075Y-89924690D01*
X252413683Y-85755549D02*
X252459075Y-85683309D01*
X252459075Y-89924690D02*
X252413683Y-89852450D01*
X252353355Y-89792122D02*
X252281115Y-89746730D01*
X252281115Y-89746730D02*
X252200586Y-89718552D01*
X251796219Y-85127447D02*
X251715690Y-85099269D01*
X252115806Y-89709000D02*
X250884194Y-89709000D01*
X250884194Y-89709000D02*
X250799414Y-89699447D01*
X250646645Y-89625877D02*
X250586317Y-89565549D01*
X250586317Y-89565549D02*
X250540925Y-89493309D01*
X250512747Y-89412780D02*
X250503194Y-89328000D01*
X250503194Y-89328000D02*
X250512747Y-89243219D01*
X250512747Y-89243219D02*
X250540925Y-89162690D01*
X250540925Y-89162690D02*
X250586317Y-89090450D01*
X250884194Y-85899000D02*
X252115806Y-85899000D01*
X250586317Y-89090450D02*
X250646645Y-89030122D01*
M02*
