G04 #@! TF.GenerationSoftware,KiCad,Pcbnew,(5.1.6)-1*
G04 #@! TF.CreationDate,2022-08-15T01:44:06-07:00*
G04 #@! TF.ProjectId,MFRC522 PCB ESP32,4d465243-3532-4322-9050-434220455350,rev?*
G04 #@! TF.SameCoordinates,Original*
G04 #@! TF.FileFunction,Soldermask,Top*
G04 #@! TF.FilePolarity,Negative*
%FSLAX46Y46*%
G04 Gerber Fmt 4.6, Leading zero omitted, Abs format (unit mm)*
G04 Created by KiCad (PCBNEW (5.1.6)-1) date 2022-08-15 01:44:06*
%MOMM*%
%LPD*%
G01*
G04 APERTURE LIST*
%ADD10C,0.100000*%
G04 APERTURE END LIST*
D10*
G36*
X227755285Y-120618234D02*
G01*
X227851981Y-120637468D01*
X228034151Y-120712926D01*
X228198100Y-120822473D01*
X228337527Y-120961900D01*
X228447074Y-121125849D01*
X228522532Y-121308019D01*
X228561000Y-121501410D01*
X228561000Y-121698590D01*
X228522532Y-121891981D01*
X228447074Y-122074151D01*
X228337527Y-122238100D01*
X228198100Y-122377527D01*
X228034151Y-122487074D01*
X227851981Y-122562532D01*
X227755285Y-122581766D01*
X227658591Y-122601000D01*
X227461409Y-122601000D01*
X227364715Y-122581766D01*
X227268019Y-122562532D01*
X227085849Y-122487074D01*
X226921900Y-122377527D01*
X226782473Y-122238100D01*
X226672926Y-122074151D01*
X226597468Y-121891981D01*
X226559000Y-121698590D01*
X226559000Y-121501410D01*
X226597468Y-121308019D01*
X226672926Y-121125849D01*
X226782473Y-120961900D01*
X226921900Y-120822473D01*
X227085849Y-120712926D01*
X227268019Y-120637468D01*
X227364715Y-120618234D01*
X227461409Y-120599000D01*
X227658591Y-120599000D01*
X227755285Y-120618234D01*
G37*
G36*
X225215285Y-120618234D02*
G01*
X225311981Y-120637468D01*
X225494151Y-120712926D01*
X225658100Y-120822473D01*
X225797527Y-120961900D01*
X225907074Y-121125849D01*
X225982532Y-121308019D01*
X226021000Y-121501410D01*
X226021000Y-121698590D01*
X225982532Y-121891981D01*
X225907074Y-122074151D01*
X225797527Y-122238100D01*
X225658100Y-122377527D01*
X225494151Y-122487074D01*
X225311981Y-122562532D01*
X225215285Y-122581766D01*
X225118591Y-122601000D01*
X224921409Y-122601000D01*
X224824715Y-122581766D01*
X224728019Y-122562532D01*
X224545849Y-122487074D01*
X224381900Y-122377527D01*
X224242473Y-122238100D01*
X224132926Y-122074151D01*
X224057468Y-121891981D01*
X224019000Y-121698590D01*
X224019000Y-121501410D01*
X224057468Y-121308019D01*
X224132926Y-121125849D01*
X224242473Y-120961900D01*
X224381900Y-120822473D01*
X224545849Y-120712926D01*
X224728019Y-120637468D01*
X224824715Y-120618234D01*
X224921409Y-120599000D01*
X225118591Y-120599000D01*
X225215285Y-120618234D01*
G37*
G36*
X222675285Y-120618234D02*
G01*
X222771981Y-120637468D01*
X222954151Y-120712926D01*
X223118100Y-120822473D01*
X223257527Y-120961900D01*
X223367074Y-121125849D01*
X223442532Y-121308019D01*
X223481000Y-121501410D01*
X223481000Y-121698590D01*
X223442532Y-121891981D01*
X223367074Y-122074151D01*
X223257527Y-122238100D01*
X223118100Y-122377527D01*
X222954151Y-122487074D01*
X222771981Y-122562532D01*
X222675285Y-122581766D01*
X222578591Y-122601000D01*
X222381409Y-122601000D01*
X222284715Y-122581766D01*
X222188019Y-122562532D01*
X222005849Y-122487074D01*
X221841900Y-122377527D01*
X221702473Y-122238100D01*
X221592926Y-122074151D01*
X221517468Y-121891981D01*
X221479000Y-121698590D01*
X221479000Y-121501410D01*
X221517468Y-121308019D01*
X221592926Y-121125849D01*
X221702473Y-120961900D01*
X221841900Y-120822473D01*
X222005849Y-120712926D01*
X222188019Y-120637468D01*
X222284715Y-120618234D01*
X222381409Y-120599000D01*
X222578591Y-120599000D01*
X222675285Y-120618234D01*
G37*
G36*
X220135285Y-120618234D02*
G01*
X220231981Y-120637468D01*
X220414151Y-120712926D01*
X220578100Y-120822473D01*
X220717527Y-120961900D01*
X220827074Y-121125849D01*
X220902532Y-121308019D01*
X220941000Y-121501410D01*
X220941000Y-121698590D01*
X220902532Y-121891981D01*
X220827074Y-122074151D01*
X220717527Y-122238100D01*
X220578100Y-122377527D01*
X220414151Y-122487074D01*
X220231981Y-122562532D01*
X220135285Y-122581766D01*
X220038591Y-122601000D01*
X219841409Y-122601000D01*
X219744715Y-122581766D01*
X219648019Y-122562532D01*
X219465849Y-122487074D01*
X219301900Y-122377527D01*
X219162473Y-122238100D01*
X219052926Y-122074151D01*
X218977468Y-121891981D01*
X218939000Y-121698590D01*
X218939000Y-121501410D01*
X218977468Y-121308019D01*
X219052926Y-121125849D01*
X219162473Y-120961900D01*
X219301900Y-120822473D01*
X219465849Y-120712926D01*
X219648019Y-120637468D01*
X219744715Y-120618234D01*
X219841409Y-120599000D01*
X220038591Y-120599000D01*
X220135285Y-120618234D01*
G37*
G36*
X217595285Y-120618234D02*
G01*
X217691981Y-120637468D01*
X217874151Y-120712926D01*
X218038100Y-120822473D01*
X218177527Y-120961900D01*
X218287074Y-121125849D01*
X218362532Y-121308019D01*
X218401000Y-121501410D01*
X218401000Y-121698590D01*
X218362532Y-121891981D01*
X218287074Y-122074151D01*
X218177527Y-122238100D01*
X218038100Y-122377527D01*
X217874151Y-122487074D01*
X217691981Y-122562532D01*
X217595285Y-122581766D01*
X217498591Y-122601000D01*
X217301409Y-122601000D01*
X217204715Y-122581766D01*
X217108019Y-122562532D01*
X216925849Y-122487074D01*
X216761900Y-122377527D01*
X216622473Y-122238100D01*
X216512926Y-122074151D01*
X216437468Y-121891981D01*
X216399000Y-121698590D01*
X216399000Y-121501410D01*
X216437468Y-121308019D01*
X216512926Y-121125849D01*
X216622473Y-120961900D01*
X216761900Y-120822473D01*
X216925849Y-120712926D01*
X217108019Y-120637468D01*
X217204715Y-120618234D01*
X217301409Y-120599000D01*
X217498591Y-120599000D01*
X217595285Y-120618234D01*
G37*
G36*
X215055285Y-120618234D02*
G01*
X215151981Y-120637468D01*
X215334151Y-120712926D01*
X215498100Y-120822473D01*
X215637527Y-120961900D01*
X215747074Y-121125849D01*
X215822532Y-121308019D01*
X215861000Y-121501410D01*
X215861000Y-121698590D01*
X215822532Y-121891981D01*
X215747074Y-122074151D01*
X215637527Y-122238100D01*
X215498100Y-122377527D01*
X215334151Y-122487074D01*
X215151981Y-122562532D01*
X215055285Y-122581766D01*
X214958591Y-122601000D01*
X214761409Y-122601000D01*
X214664715Y-122581766D01*
X214568019Y-122562532D01*
X214385849Y-122487074D01*
X214221900Y-122377527D01*
X214082473Y-122238100D01*
X213972926Y-122074151D01*
X213897468Y-121891981D01*
X213859000Y-121698590D01*
X213859000Y-121501410D01*
X213897468Y-121308019D01*
X213972926Y-121125849D01*
X214082473Y-120961900D01*
X214221900Y-120822473D01*
X214385849Y-120712926D01*
X214568019Y-120637468D01*
X214664715Y-120618234D01*
X214761409Y-120599000D01*
X214958591Y-120599000D01*
X215055285Y-120618234D01*
G37*
G36*
X212515285Y-120618234D02*
G01*
X212611981Y-120637468D01*
X212794151Y-120712926D01*
X212958100Y-120822473D01*
X213097527Y-120961900D01*
X213207074Y-121125849D01*
X213282532Y-121308019D01*
X213321000Y-121501410D01*
X213321000Y-121698590D01*
X213282532Y-121891981D01*
X213207074Y-122074151D01*
X213097527Y-122238100D01*
X212958100Y-122377527D01*
X212794151Y-122487074D01*
X212611981Y-122562532D01*
X212515285Y-122581766D01*
X212418591Y-122601000D01*
X212221409Y-122601000D01*
X212124715Y-122581766D01*
X212028019Y-122562532D01*
X211845849Y-122487074D01*
X211681900Y-122377527D01*
X211542473Y-122238100D01*
X211432926Y-122074151D01*
X211357468Y-121891981D01*
X211319000Y-121698590D01*
X211319000Y-121501410D01*
X211357468Y-121308019D01*
X211432926Y-121125849D01*
X211542473Y-120961900D01*
X211681900Y-120822473D01*
X211845849Y-120712926D01*
X212028019Y-120637468D01*
X212124715Y-120618234D01*
X212221409Y-120599000D01*
X212418591Y-120599000D01*
X212515285Y-120618234D01*
G37*
G36*
X209975285Y-120618234D02*
G01*
X210071981Y-120637468D01*
X210254151Y-120712926D01*
X210418100Y-120822473D01*
X210557527Y-120961900D01*
X210667074Y-121125849D01*
X210742532Y-121308019D01*
X210781000Y-121501410D01*
X210781000Y-121698590D01*
X210742532Y-121891981D01*
X210667074Y-122074151D01*
X210557527Y-122238100D01*
X210418100Y-122377527D01*
X210254151Y-122487074D01*
X210071981Y-122562532D01*
X209975285Y-122581766D01*
X209878591Y-122601000D01*
X209681409Y-122601000D01*
X209584715Y-122581766D01*
X209488019Y-122562532D01*
X209305849Y-122487074D01*
X209141900Y-122377527D01*
X209002473Y-122238100D01*
X208892926Y-122074151D01*
X208817468Y-121891981D01*
X208779000Y-121698590D01*
X208779000Y-121501410D01*
X208817468Y-121308019D01*
X208892926Y-121125849D01*
X209002473Y-120961900D01*
X209141900Y-120822473D01*
X209305849Y-120712926D01*
X209488019Y-120637468D01*
X209584715Y-120618234D01*
X209681409Y-120599000D01*
X209878591Y-120599000D01*
X209975285Y-120618234D01*
G37*
G36*
X204895285Y-120618234D02*
G01*
X204991981Y-120637468D01*
X205174151Y-120712926D01*
X205338100Y-120822473D01*
X205477527Y-120961900D01*
X205587074Y-121125849D01*
X205662532Y-121308019D01*
X205701000Y-121501410D01*
X205701000Y-121698590D01*
X205662532Y-121891981D01*
X205587074Y-122074151D01*
X205477527Y-122238100D01*
X205338100Y-122377527D01*
X205174151Y-122487074D01*
X204991981Y-122562532D01*
X204895285Y-122581766D01*
X204798591Y-122601000D01*
X204601409Y-122601000D01*
X204504715Y-122581766D01*
X204408019Y-122562532D01*
X204225849Y-122487074D01*
X204061900Y-122377527D01*
X203922473Y-122238100D01*
X203812926Y-122074151D01*
X203737468Y-121891981D01*
X203699000Y-121698590D01*
X203699000Y-121501410D01*
X203737468Y-121308019D01*
X203812926Y-121125849D01*
X203922473Y-120961900D01*
X204061900Y-120822473D01*
X204225849Y-120712926D01*
X204408019Y-120637468D01*
X204504715Y-120618234D01*
X204601409Y-120599000D01*
X204798591Y-120599000D01*
X204895285Y-120618234D01*
G37*
G36*
X193001000Y-122601000D02*
G01*
X190999000Y-122601000D01*
X190999000Y-120599000D01*
X193001000Y-120599000D01*
X193001000Y-122601000D01*
G37*
G36*
X194735285Y-120618234D02*
G01*
X194831981Y-120637468D01*
X195014151Y-120712926D01*
X195178100Y-120822473D01*
X195317527Y-120961900D01*
X195427074Y-121125849D01*
X195502532Y-121308019D01*
X195541000Y-121501410D01*
X195541000Y-121698590D01*
X195502532Y-121891981D01*
X195427074Y-122074151D01*
X195317527Y-122238100D01*
X195178100Y-122377527D01*
X195014151Y-122487074D01*
X194831981Y-122562532D01*
X194735285Y-122581766D01*
X194638591Y-122601000D01*
X194441409Y-122601000D01*
X194344715Y-122581766D01*
X194248019Y-122562532D01*
X194065849Y-122487074D01*
X193901900Y-122377527D01*
X193762473Y-122238100D01*
X193652926Y-122074151D01*
X193577468Y-121891981D01*
X193539000Y-121698590D01*
X193539000Y-121501410D01*
X193577468Y-121308019D01*
X193652926Y-121125849D01*
X193762473Y-120961900D01*
X193901900Y-120822473D01*
X194065849Y-120712926D01*
X194248019Y-120637468D01*
X194344715Y-120618234D01*
X194441409Y-120599000D01*
X194638591Y-120599000D01*
X194735285Y-120618234D01*
G37*
G36*
X197275285Y-120618234D02*
G01*
X197371981Y-120637468D01*
X197554151Y-120712926D01*
X197718100Y-120822473D01*
X197857527Y-120961900D01*
X197967074Y-121125849D01*
X198042532Y-121308019D01*
X198081000Y-121501410D01*
X198081000Y-121698590D01*
X198042532Y-121891981D01*
X197967074Y-122074151D01*
X197857527Y-122238100D01*
X197718100Y-122377527D01*
X197554151Y-122487074D01*
X197371981Y-122562532D01*
X197275285Y-122581766D01*
X197178591Y-122601000D01*
X196981409Y-122601000D01*
X196884715Y-122581766D01*
X196788019Y-122562532D01*
X196605849Y-122487074D01*
X196441900Y-122377527D01*
X196302473Y-122238100D01*
X196192926Y-122074151D01*
X196117468Y-121891981D01*
X196079000Y-121698590D01*
X196079000Y-121501410D01*
X196117468Y-121308019D01*
X196192926Y-121125849D01*
X196302473Y-120961900D01*
X196441900Y-120822473D01*
X196605849Y-120712926D01*
X196788019Y-120637468D01*
X196884715Y-120618234D01*
X196981409Y-120599000D01*
X197178591Y-120599000D01*
X197275285Y-120618234D01*
G37*
G36*
X202355285Y-120618234D02*
G01*
X202451981Y-120637468D01*
X202634151Y-120712926D01*
X202798100Y-120822473D01*
X202937527Y-120961900D01*
X203047074Y-121125849D01*
X203122532Y-121308019D01*
X203161000Y-121501410D01*
X203161000Y-121698590D01*
X203122532Y-121891981D01*
X203047074Y-122074151D01*
X202937527Y-122238100D01*
X202798100Y-122377527D01*
X202634151Y-122487074D01*
X202451981Y-122562532D01*
X202355285Y-122581766D01*
X202258591Y-122601000D01*
X202061409Y-122601000D01*
X201964715Y-122581766D01*
X201868019Y-122562532D01*
X201685849Y-122487074D01*
X201521900Y-122377527D01*
X201382473Y-122238100D01*
X201272926Y-122074151D01*
X201197468Y-121891981D01*
X201159000Y-121698590D01*
X201159000Y-121501410D01*
X201197468Y-121308019D01*
X201272926Y-121125849D01*
X201382473Y-120961900D01*
X201521900Y-120822473D01*
X201685849Y-120712926D01*
X201868019Y-120637468D01*
X201964715Y-120618234D01*
X202061409Y-120599000D01*
X202258591Y-120599000D01*
X202355285Y-120618234D01*
G37*
G36*
X207435285Y-120618234D02*
G01*
X207531981Y-120637468D01*
X207714151Y-120712926D01*
X207878100Y-120822473D01*
X208017527Y-120961900D01*
X208127074Y-121125849D01*
X208202532Y-121308019D01*
X208241000Y-121501410D01*
X208241000Y-121698590D01*
X208202532Y-121891981D01*
X208127074Y-122074151D01*
X208017527Y-122238100D01*
X207878100Y-122377527D01*
X207714151Y-122487074D01*
X207531981Y-122562532D01*
X207435285Y-122581766D01*
X207338591Y-122601000D01*
X207141409Y-122601000D01*
X207044715Y-122581766D01*
X206948019Y-122562532D01*
X206765849Y-122487074D01*
X206601900Y-122377527D01*
X206462473Y-122238100D01*
X206352926Y-122074151D01*
X206277468Y-121891981D01*
X206239000Y-121698590D01*
X206239000Y-121501410D01*
X206277468Y-121308019D01*
X206352926Y-121125849D01*
X206462473Y-120961900D01*
X206601900Y-120822473D01*
X206765849Y-120712926D01*
X206948019Y-120637468D01*
X207044715Y-120618234D01*
X207141409Y-120599000D01*
X207338591Y-120599000D01*
X207435285Y-120618234D01*
G37*
G36*
X199815285Y-120618234D02*
G01*
X199911981Y-120637468D01*
X200094151Y-120712926D01*
X200258100Y-120822473D01*
X200397527Y-120961900D01*
X200507074Y-121125849D01*
X200582532Y-121308019D01*
X200621000Y-121501410D01*
X200621000Y-121698590D01*
X200582532Y-121891981D01*
X200507074Y-122074151D01*
X200397527Y-122238100D01*
X200258100Y-122377527D01*
X200094151Y-122487074D01*
X199911981Y-122562532D01*
X199815285Y-122581766D01*
X199718591Y-122601000D01*
X199521409Y-122601000D01*
X199424715Y-122581766D01*
X199328019Y-122562532D01*
X199145849Y-122487074D01*
X198981900Y-122377527D01*
X198842473Y-122238100D01*
X198732926Y-122074151D01*
X198657468Y-121891981D01*
X198619000Y-121698590D01*
X198619000Y-121501410D01*
X198657468Y-121308019D01*
X198732926Y-121125849D01*
X198842473Y-120961900D01*
X198981900Y-120822473D01*
X199145849Y-120712926D01*
X199328019Y-120637468D01*
X199424715Y-120618234D01*
X199521409Y-120599000D01*
X199718591Y-120599000D01*
X199815285Y-120618234D01*
G37*
G36*
X251316401Y-117379591D02*
G01*
X251481579Y-117412447D01*
X251782042Y-117536903D01*
X252052451Y-117717585D01*
X252282415Y-117947549D01*
X252463097Y-118217958D01*
X252587553Y-118518421D01*
X252594595Y-118553823D01*
X252641271Y-118788477D01*
X252651000Y-118837391D01*
X252651000Y-119162609D01*
X252587553Y-119481579D01*
X252463097Y-119782042D01*
X252282415Y-120052451D01*
X252052451Y-120282415D01*
X251782042Y-120463097D01*
X251481579Y-120587553D01*
X251424031Y-120599000D01*
X251162611Y-120651000D01*
X250837389Y-120651000D01*
X250575969Y-120599000D01*
X250518421Y-120587553D01*
X250217958Y-120463097D01*
X249947549Y-120282415D01*
X249717585Y-120052451D01*
X249536903Y-119782042D01*
X249412447Y-119481579D01*
X249349000Y-119162609D01*
X249349000Y-118837391D01*
X249358730Y-118788477D01*
X249405405Y-118553823D01*
X249412447Y-118518421D01*
X249536903Y-118217958D01*
X249717585Y-117947549D01*
X249947549Y-117717585D01*
X250217958Y-117536903D01*
X250518421Y-117412447D01*
X250683599Y-117379591D01*
X250837389Y-117349000D01*
X251162611Y-117349000D01*
X251316401Y-117379591D01*
G37*
G36*
X183316401Y-117379591D02*
G01*
X183481579Y-117412447D01*
X183782042Y-117536903D01*
X184052451Y-117717585D01*
X184282415Y-117947549D01*
X184463097Y-118217958D01*
X184587553Y-118518421D01*
X184594595Y-118553823D01*
X184641271Y-118788477D01*
X184651000Y-118837391D01*
X184651000Y-119162609D01*
X184587553Y-119481579D01*
X184463097Y-119782042D01*
X184282415Y-120052451D01*
X184052451Y-120282415D01*
X183782042Y-120463097D01*
X183481579Y-120587553D01*
X183424031Y-120599000D01*
X183162611Y-120651000D01*
X182837389Y-120651000D01*
X182575969Y-120599000D01*
X182518421Y-120587553D01*
X182217958Y-120463097D01*
X181947549Y-120282415D01*
X181717585Y-120052451D01*
X181536903Y-119782042D01*
X181412447Y-119481579D01*
X181349000Y-119162609D01*
X181349000Y-118837391D01*
X181358730Y-118788477D01*
X181405405Y-118553823D01*
X181412447Y-118518421D01*
X181536903Y-118217958D01*
X181717585Y-117947549D01*
X181947549Y-117717585D01*
X182217958Y-117536903D01*
X182518421Y-117412447D01*
X182683599Y-117379591D01*
X182837389Y-117349000D01*
X183162611Y-117349000D01*
X183316401Y-117379591D01*
G37*
G36*
X234641246Y-118539912D02*
G01*
X234711183Y-118553823D01*
X234765759Y-118576429D01*
X234842942Y-118608399D01*
X234961522Y-118687632D01*
X235062368Y-118788478D01*
X235141601Y-118907058D01*
X235173571Y-118984241D01*
X235196177Y-119038817D01*
X235224000Y-119178692D01*
X235224000Y-119321308D01*
X235196177Y-119461183D01*
X235173571Y-119515759D01*
X235141601Y-119592942D01*
X235062368Y-119711522D01*
X234961522Y-119812368D01*
X234842942Y-119891601D01*
X234765759Y-119923571D01*
X234711183Y-119946177D01*
X234641245Y-119960089D01*
X234571309Y-119974000D01*
X234428691Y-119974000D01*
X234358755Y-119960089D01*
X234288817Y-119946177D01*
X234234241Y-119923571D01*
X234157058Y-119891601D01*
X234038478Y-119812368D01*
X233937632Y-119711522D01*
X233858399Y-119592942D01*
X233826429Y-119515759D01*
X233803823Y-119461183D01*
X233776000Y-119321308D01*
X233776000Y-119178692D01*
X233803823Y-119038817D01*
X233826429Y-118984241D01*
X233858399Y-118907058D01*
X233937632Y-118788478D01*
X234038478Y-118687632D01*
X234157058Y-118608399D01*
X234234241Y-118576429D01*
X234288817Y-118553823D01*
X234358754Y-118539912D01*
X234428691Y-118526000D01*
X234571309Y-118526000D01*
X234641246Y-118539912D01*
G37*
G36*
X227599468Y-116503565D02*
G01*
X227638138Y-116515296D01*
X227673777Y-116534346D01*
X227705017Y-116559983D01*
X227730654Y-116591223D01*
X227749704Y-116626862D01*
X227761435Y-116665532D01*
X227766000Y-116711888D01*
X227766000Y-117788112D01*
X227761435Y-117834468D01*
X227749704Y-117873138D01*
X227730654Y-117908777D01*
X227705017Y-117940017D01*
X227673777Y-117965654D01*
X227638138Y-117984704D01*
X227599468Y-117996435D01*
X227553112Y-118001000D01*
X226901888Y-118001000D01*
X226855532Y-117996435D01*
X226816862Y-117984704D01*
X226781223Y-117965654D01*
X226749983Y-117940017D01*
X226724346Y-117908777D01*
X226705296Y-117873138D01*
X226693565Y-117834468D01*
X226689000Y-117788112D01*
X226689000Y-116711888D01*
X226693565Y-116665532D01*
X226705296Y-116626862D01*
X226724346Y-116591223D01*
X226749983Y-116559983D01*
X226781223Y-116534346D01*
X226816862Y-116515296D01*
X226855532Y-116503565D01*
X226901888Y-116499000D01*
X227553112Y-116499000D01*
X227599468Y-116503565D01*
G37*
G36*
X225724468Y-116503565D02*
G01*
X225763138Y-116515296D01*
X225798777Y-116534346D01*
X225830017Y-116559983D01*
X225855654Y-116591223D01*
X225874704Y-116626862D01*
X225886435Y-116665532D01*
X225891000Y-116711888D01*
X225891000Y-117788112D01*
X225886435Y-117834468D01*
X225874704Y-117873138D01*
X225855654Y-117908777D01*
X225830017Y-117940017D01*
X225798777Y-117965654D01*
X225763138Y-117984704D01*
X225724468Y-117996435D01*
X225678112Y-118001000D01*
X225026888Y-118001000D01*
X224980532Y-117996435D01*
X224941862Y-117984704D01*
X224906223Y-117965654D01*
X224874983Y-117940017D01*
X224849346Y-117908777D01*
X224830296Y-117873138D01*
X224818565Y-117834468D01*
X224814000Y-117788112D01*
X224814000Y-116711888D01*
X224818565Y-116665532D01*
X224830296Y-116626862D01*
X224849346Y-116591223D01*
X224874983Y-116559983D01*
X224906223Y-116534346D01*
X224941862Y-116515296D01*
X224980532Y-116503565D01*
X225026888Y-116499000D01*
X225678112Y-116499000D01*
X225724468Y-116503565D01*
G37*
G36*
X212629591Y-116553085D02*
G01*
X212663569Y-116563393D01*
X212694890Y-116580134D01*
X212722339Y-116602661D01*
X212744866Y-116630110D01*
X212761607Y-116661431D01*
X212771915Y-116695409D01*
X212776000Y-116736890D01*
X212776000Y-117338110D01*
X212771915Y-117379591D01*
X212761607Y-117413569D01*
X212744866Y-117444890D01*
X212722339Y-117472339D01*
X212694890Y-117494866D01*
X212663569Y-117511607D01*
X212629591Y-117521915D01*
X212588110Y-117526000D01*
X211911890Y-117526000D01*
X211870409Y-117521915D01*
X211836431Y-117511607D01*
X211805110Y-117494866D01*
X211777661Y-117472339D01*
X211755134Y-117444890D01*
X211738393Y-117413569D01*
X211728085Y-117379591D01*
X211724000Y-117338110D01*
X211724000Y-116736890D01*
X211728085Y-116695409D01*
X211738393Y-116661431D01*
X211755134Y-116630110D01*
X211777661Y-116602661D01*
X211805110Y-116580134D01*
X211836431Y-116563393D01*
X211870409Y-116553085D01*
X211911890Y-116549000D01*
X212588110Y-116549000D01*
X212629591Y-116553085D01*
G37*
G36*
X212629591Y-114978085D02*
G01*
X212663569Y-114988393D01*
X212694890Y-115005134D01*
X212722339Y-115027661D01*
X212744866Y-115055110D01*
X212761607Y-115086431D01*
X212771915Y-115120409D01*
X212776000Y-115161890D01*
X212776000Y-115763110D01*
X212771915Y-115804591D01*
X212761607Y-115838569D01*
X212744866Y-115869890D01*
X212722339Y-115897339D01*
X212694890Y-115919866D01*
X212663569Y-115936607D01*
X212629591Y-115946915D01*
X212588110Y-115951000D01*
X211911890Y-115951000D01*
X211870409Y-115946915D01*
X211836431Y-115936607D01*
X211805110Y-115919866D01*
X211777661Y-115897339D01*
X211755134Y-115869890D01*
X211738393Y-115838569D01*
X211728085Y-115804591D01*
X211724000Y-115763110D01*
X211724000Y-115161890D01*
X211728085Y-115120409D01*
X211738393Y-115086431D01*
X211755134Y-115055110D01*
X211777661Y-115027661D01*
X211805110Y-115005134D01*
X211836431Y-114988393D01*
X211870409Y-114978085D01*
X211911890Y-114974000D01*
X212588110Y-114974000D01*
X212629591Y-114978085D01*
G37*
G36*
X230054591Y-114478085D02*
G01*
X230088569Y-114488393D01*
X230119890Y-114505134D01*
X230147339Y-114527661D01*
X230169866Y-114555110D01*
X230186607Y-114586431D01*
X230196915Y-114620409D01*
X230201000Y-114661890D01*
X230201000Y-115338110D01*
X230196915Y-115379591D01*
X230186607Y-115413569D01*
X230169866Y-115444890D01*
X230147339Y-115472339D01*
X230119890Y-115494866D01*
X230088569Y-115511607D01*
X230054591Y-115521915D01*
X230013110Y-115526000D01*
X229411890Y-115526000D01*
X229370409Y-115521915D01*
X229336431Y-115511607D01*
X229305110Y-115494866D01*
X229277661Y-115472339D01*
X229255134Y-115444890D01*
X229238393Y-115413569D01*
X229228085Y-115379591D01*
X229224000Y-115338110D01*
X229224000Y-114661890D01*
X229228085Y-114620409D01*
X229238393Y-114586431D01*
X229255134Y-114555110D01*
X229277661Y-114527661D01*
X229305110Y-114505134D01*
X229336431Y-114488393D01*
X229370409Y-114478085D01*
X229411890Y-114474000D01*
X230013110Y-114474000D01*
X230054591Y-114478085D01*
G37*
G36*
X231629591Y-114478085D02*
G01*
X231663569Y-114488393D01*
X231694890Y-114505134D01*
X231722339Y-114527661D01*
X231744866Y-114555110D01*
X231761607Y-114586431D01*
X231771915Y-114620409D01*
X231776000Y-114661890D01*
X231776000Y-115338110D01*
X231771915Y-115379591D01*
X231761607Y-115413569D01*
X231744866Y-115444890D01*
X231722339Y-115472339D01*
X231694890Y-115494866D01*
X231663569Y-115511607D01*
X231629591Y-115521915D01*
X231588110Y-115526000D01*
X230986890Y-115526000D01*
X230945409Y-115521915D01*
X230911431Y-115511607D01*
X230880110Y-115494866D01*
X230852661Y-115472339D01*
X230830134Y-115444890D01*
X230813393Y-115413569D01*
X230803085Y-115379591D01*
X230799000Y-115338110D01*
X230799000Y-114661890D01*
X230803085Y-114620409D01*
X230813393Y-114586431D01*
X230830134Y-114555110D01*
X230852661Y-114527661D01*
X230880110Y-114505134D01*
X230911431Y-114488393D01*
X230945409Y-114478085D01*
X230986890Y-114474000D01*
X231588110Y-114474000D01*
X231629591Y-114478085D01*
G37*
G36*
X227599468Y-114003565D02*
G01*
X227638138Y-114015296D01*
X227673777Y-114034346D01*
X227705017Y-114059983D01*
X227730654Y-114091223D01*
X227749704Y-114126862D01*
X227761435Y-114165532D01*
X227766000Y-114211888D01*
X227766000Y-115288112D01*
X227761435Y-115334468D01*
X227749704Y-115373138D01*
X227730654Y-115408777D01*
X227705017Y-115440017D01*
X227673777Y-115465654D01*
X227638138Y-115484704D01*
X227599468Y-115496435D01*
X227553112Y-115501000D01*
X226901888Y-115501000D01*
X226855532Y-115496435D01*
X226816862Y-115484704D01*
X226781223Y-115465654D01*
X226749983Y-115440017D01*
X226724346Y-115408777D01*
X226705296Y-115373138D01*
X226693565Y-115334468D01*
X226689000Y-115288112D01*
X226689000Y-114211888D01*
X226693565Y-114165532D01*
X226705296Y-114126862D01*
X226724346Y-114091223D01*
X226749983Y-114059983D01*
X226781223Y-114034346D01*
X226816862Y-114015296D01*
X226855532Y-114003565D01*
X226901888Y-113999000D01*
X227553112Y-113999000D01*
X227599468Y-114003565D01*
G37*
G36*
X225724468Y-114003565D02*
G01*
X225763138Y-114015296D01*
X225798777Y-114034346D01*
X225830017Y-114059983D01*
X225855654Y-114091223D01*
X225874704Y-114126862D01*
X225886435Y-114165532D01*
X225891000Y-114211888D01*
X225891000Y-115288112D01*
X225886435Y-115334468D01*
X225874704Y-115373138D01*
X225855654Y-115408777D01*
X225830017Y-115440017D01*
X225798777Y-115465654D01*
X225763138Y-115484704D01*
X225724468Y-115496435D01*
X225678112Y-115501000D01*
X225026888Y-115501000D01*
X224980532Y-115496435D01*
X224941862Y-115484704D01*
X224906223Y-115465654D01*
X224874983Y-115440017D01*
X224849346Y-115408777D01*
X224830296Y-115373138D01*
X224818565Y-115334468D01*
X224814000Y-115288112D01*
X224814000Y-114211888D01*
X224818565Y-114165532D01*
X224830296Y-114126862D01*
X224849346Y-114091223D01*
X224874983Y-114059983D01*
X224906223Y-114034346D01*
X224941862Y-114015296D01*
X224980532Y-114003565D01*
X225026888Y-113999000D01*
X225678112Y-113999000D01*
X225724468Y-114003565D01*
G37*
G36*
X233434468Y-112253565D02*
G01*
X233473138Y-112265296D01*
X233508777Y-112284346D01*
X233540017Y-112309983D01*
X233565654Y-112341223D01*
X233584704Y-112376862D01*
X233596435Y-112415532D01*
X233601000Y-112461888D01*
X233601000Y-113538112D01*
X233596435Y-113584468D01*
X233584704Y-113623138D01*
X233565654Y-113658777D01*
X233540017Y-113690017D01*
X233508777Y-113715654D01*
X233473138Y-113734704D01*
X233434468Y-113746435D01*
X233388112Y-113751000D01*
X232736888Y-113751000D01*
X232690532Y-113746435D01*
X232651862Y-113734704D01*
X232616223Y-113715654D01*
X232584983Y-113690017D01*
X232559346Y-113658777D01*
X232540296Y-113623138D01*
X232528565Y-113584468D01*
X232524000Y-113538112D01*
X232524000Y-112461888D01*
X232528565Y-112415532D01*
X232540296Y-112376862D01*
X232559346Y-112341223D01*
X232584983Y-112309983D01*
X232616223Y-112284346D01*
X232651862Y-112265296D01*
X232690532Y-112253565D01*
X232736888Y-112249000D01*
X233388112Y-112249000D01*
X233434468Y-112253565D01*
G37*
G36*
X235309468Y-112253565D02*
G01*
X235348138Y-112265296D01*
X235383777Y-112284346D01*
X235415017Y-112309983D01*
X235440654Y-112341223D01*
X235459704Y-112376862D01*
X235471435Y-112415532D01*
X235476000Y-112461888D01*
X235476000Y-113538112D01*
X235471435Y-113584468D01*
X235459704Y-113623138D01*
X235440654Y-113658777D01*
X235415017Y-113690017D01*
X235383777Y-113715654D01*
X235348138Y-113734704D01*
X235309468Y-113746435D01*
X235263112Y-113751000D01*
X234611888Y-113751000D01*
X234565532Y-113746435D01*
X234526862Y-113734704D01*
X234491223Y-113715654D01*
X234459983Y-113690017D01*
X234434346Y-113658777D01*
X234415296Y-113623138D01*
X234403565Y-113584468D01*
X234399000Y-113538112D01*
X234399000Y-112461888D01*
X234403565Y-112415532D01*
X234415296Y-112376862D01*
X234434346Y-112341223D01*
X234459983Y-112309983D01*
X234491223Y-112284346D01*
X234526862Y-112265296D01*
X234565532Y-112253565D01*
X234611888Y-112249000D01*
X235263112Y-112249000D01*
X235309468Y-112253565D01*
G37*
G36*
X218934468Y-111753565D02*
G01*
X218973138Y-111765296D01*
X219008777Y-111784346D01*
X219040017Y-111809983D01*
X219065654Y-111841223D01*
X219084704Y-111876862D01*
X219096435Y-111915532D01*
X219101000Y-111961888D01*
X219101000Y-113038112D01*
X219096435Y-113084468D01*
X219084704Y-113123138D01*
X219065654Y-113158777D01*
X219040017Y-113190017D01*
X219008777Y-113215654D01*
X218973138Y-113234704D01*
X218934468Y-113246435D01*
X218888112Y-113251000D01*
X218236888Y-113251000D01*
X218190532Y-113246435D01*
X218151862Y-113234704D01*
X218116223Y-113215654D01*
X218084983Y-113190017D01*
X218059346Y-113158777D01*
X218040296Y-113123138D01*
X218028565Y-113084468D01*
X218024000Y-113038112D01*
X218024000Y-111961888D01*
X218028565Y-111915532D01*
X218040296Y-111876862D01*
X218059346Y-111841223D01*
X218084983Y-111809983D01*
X218116223Y-111784346D01*
X218151862Y-111765296D01*
X218190532Y-111753565D01*
X218236888Y-111749000D01*
X218888112Y-111749000D01*
X218934468Y-111753565D01*
G37*
G36*
X220809468Y-111753565D02*
G01*
X220848138Y-111765296D01*
X220883777Y-111784346D01*
X220915017Y-111809983D01*
X220940654Y-111841223D01*
X220959704Y-111876862D01*
X220971435Y-111915532D01*
X220976000Y-111961888D01*
X220976000Y-113038112D01*
X220971435Y-113084468D01*
X220959704Y-113123138D01*
X220940654Y-113158777D01*
X220915017Y-113190017D01*
X220883777Y-113215654D01*
X220848138Y-113234704D01*
X220809468Y-113246435D01*
X220763112Y-113251000D01*
X220111888Y-113251000D01*
X220065532Y-113246435D01*
X220026862Y-113234704D01*
X219991223Y-113215654D01*
X219959983Y-113190017D01*
X219934346Y-113158777D01*
X219915296Y-113123138D01*
X219903565Y-113084468D01*
X219899000Y-113038112D01*
X219899000Y-111961888D01*
X219903565Y-111915532D01*
X219915296Y-111876862D01*
X219934346Y-111841223D01*
X219959983Y-111809983D01*
X219991223Y-111784346D01*
X220026862Y-111765296D01*
X220065532Y-111753565D01*
X220111888Y-111749000D01*
X220763112Y-111749000D01*
X220809468Y-111753565D01*
G37*
G36*
X198001000Y-112001000D02*
G01*
X195599000Y-112001000D01*
X195599000Y-109599000D01*
X198001000Y-109599000D01*
X198001000Y-112001000D01*
G37*
G36*
X190901000Y-112001000D02*
G01*
X188499000Y-112001000D01*
X188499000Y-109599000D01*
X190901000Y-109599000D01*
X190901000Y-112001000D01*
G37*
G36*
X242379591Y-110803085D02*
G01*
X242413569Y-110813393D01*
X242444890Y-110830134D01*
X242472339Y-110852661D01*
X242494866Y-110880110D01*
X242511607Y-110911431D01*
X242521915Y-110945409D01*
X242526000Y-110986890D01*
X242526000Y-111588110D01*
X242521915Y-111629591D01*
X242511607Y-111663569D01*
X242494866Y-111694890D01*
X242472339Y-111722339D01*
X242444890Y-111744866D01*
X242413569Y-111761607D01*
X242379591Y-111771915D01*
X242338110Y-111776000D01*
X241661890Y-111776000D01*
X241620409Y-111771915D01*
X241586431Y-111761607D01*
X241555110Y-111744866D01*
X241527661Y-111722339D01*
X241505134Y-111694890D01*
X241488393Y-111663569D01*
X241478085Y-111629591D01*
X241474000Y-111588110D01*
X241474000Y-110986890D01*
X241478085Y-110945409D01*
X241488393Y-110911431D01*
X241505134Y-110880110D01*
X241527661Y-110852661D01*
X241555110Y-110830134D01*
X241586431Y-110813393D01*
X241620409Y-110803085D01*
X241661890Y-110799000D01*
X242338110Y-110799000D01*
X242379591Y-110803085D01*
G37*
G36*
X248379591Y-110803085D02*
G01*
X248413569Y-110813393D01*
X248444890Y-110830134D01*
X248472339Y-110852661D01*
X248494866Y-110880110D01*
X248511607Y-110911431D01*
X248521915Y-110945409D01*
X248526000Y-110986890D01*
X248526000Y-111588110D01*
X248521915Y-111629591D01*
X248511607Y-111663569D01*
X248494866Y-111694890D01*
X248472339Y-111722339D01*
X248444890Y-111744866D01*
X248413569Y-111761607D01*
X248379591Y-111771915D01*
X248338110Y-111776000D01*
X247661890Y-111776000D01*
X247620409Y-111771915D01*
X247586431Y-111761607D01*
X247555110Y-111744866D01*
X247527661Y-111722339D01*
X247505134Y-111694890D01*
X247488393Y-111663569D01*
X247478085Y-111629591D01*
X247474000Y-111588110D01*
X247474000Y-110986890D01*
X247478085Y-110945409D01*
X247488393Y-110911431D01*
X247505134Y-110880110D01*
X247527661Y-110852661D01*
X247555110Y-110830134D01*
X247586431Y-110813393D01*
X247620409Y-110803085D01*
X247661890Y-110799000D01*
X248338110Y-110799000D01*
X248379591Y-110803085D01*
G37*
G36*
X246129591Y-110478085D02*
G01*
X246163569Y-110488393D01*
X246194890Y-110505134D01*
X246222339Y-110527661D01*
X246244866Y-110555110D01*
X246261607Y-110586431D01*
X246271915Y-110620409D01*
X246276000Y-110661890D01*
X246276000Y-111338110D01*
X246271915Y-111379591D01*
X246261607Y-111413569D01*
X246244866Y-111444890D01*
X246222339Y-111472339D01*
X246194890Y-111494866D01*
X246163569Y-111511607D01*
X246129591Y-111521915D01*
X246088110Y-111526000D01*
X245486890Y-111526000D01*
X245445409Y-111521915D01*
X245411431Y-111511607D01*
X245380110Y-111494866D01*
X245352661Y-111472339D01*
X245330134Y-111444890D01*
X245313393Y-111413569D01*
X245303085Y-111379591D01*
X245299000Y-111338110D01*
X245299000Y-110661890D01*
X245303085Y-110620409D01*
X245313393Y-110586431D01*
X245330134Y-110555110D01*
X245352661Y-110527661D01*
X245380110Y-110505134D01*
X245411431Y-110488393D01*
X245445409Y-110478085D01*
X245486890Y-110474000D01*
X246088110Y-110474000D01*
X246129591Y-110478085D01*
G37*
G36*
X244554591Y-110478085D02*
G01*
X244588569Y-110488393D01*
X244619890Y-110505134D01*
X244647339Y-110527661D01*
X244669866Y-110555110D01*
X244686607Y-110586431D01*
X244696915Y-110620409D01*
X244701000Y-110661890D01*
X244701000Y-111338110D01*
X244696915Y-111379591D01*
X244686607Y-111413569D01*
X244669866Y-111444890D01*
X244647339Y-111472339D01*
X244619890Y-111494866D01*
X244588569Y-111511607D01*
X244554591Y-111521915D01*
X244513110Y-111526000D01*
X243911890Y-111526000D01*
X243870409Y-111521915D01*
X243836431Y-111511607D01*
X243805110Y-111494866D01*
X243777661Y-111472339D01*
X243755134Y-111444890D01*
X243738393Y-111413569D01*
X243728085Y-111379591D01*
X243724000Y-111338110D01*
X243724000Y-110661890D01*
X243728085Y-110620409D01*
X243738393Y-110586431D01*
X243755134Y-110555110D01*
X243777661Y-110527661D01*
X243805110Y-110505134D01*
X243836431Y-110488393D01*
X243870409Y-110478085D01*
X243911890Y-110474000D01*
X244513110Y-110474000D01*
X244554591Y-110478085D01*
G37*
G36*
X239309468Y-109753565D02*
G01*
X239348138Y-109765296D01*
X239383777Y-109784346D01*
X239415017Y-109809983D01*
X239440654Y-109841223D01*
X239459704Y-109876862D01*
X239471435Y-109915532D01*
X239476000Y-109961888D01*
X239476000Y-111038112D01*
X239471435Y-111084468D01*
X239459704Y-111123138D01*
X239440654Y-111158777D01*
X239415017Y-111190017D01*
X239383777Y-111215654D01*
X239348138Y-111234704D01*
X239309468Y-111246435D01*
X239263112Y-111251000D01*
X238611888Y-111251000D01*
X238565532Y-111246435D01*
X238526862Y-111234704D01*
X238491223Y-111215654D01*
X238459983Y-111190017D01*
X238434346Y-111158777D01*
X238415296Y-111123138D01*
X238403565Y-111084468D01*
X238399000Y-111038112D01*
X238399000Y-109961888D01*
X238403565Y-109915532D01*
X238415296Y-109876862D01*
X238434346Y-109841223D01*
X238459983Y-109809983D01*
X238491223Y-109784346D01*
X238526862Y-109765296D01*
X238565532Y-109753565D01*
X238611888Y-109749000D01*
X239263112Y-109749000D01*
X239309468Y-109753565D01*
G37*
G36*
X237434468Y-109753565D02*
G01*
X237473138Y-109765296D01*
X237508777Y-109784346D01*
X237540017Y-109809983D01*
X237565654Y-109841223D01*
X237584704Y-109876862D01*
X237596435Y-109915532D01*
X237601000Y-109961888D01*
X237601000Y-111038112D01*
X237596435Y-111084468D01*
X237584704Y-111123138D01*
X237565654Y-111158777D01*
X237540017Y-111190017D01*
X237508777Y-111215654D01*
X237473138Y-111234704D01*
X237434468Y-111246435D01*
X237388112Y-111251000D01*
X236736888Y-111251000D01*
X236690532Y-111246435D01*
X236651862Y-111234704D01*
X236616223Y-111215654D01*
X236584983Y-111190017D01*
X236559346Y-111158777D01*
X236540296Y-111123138D01*
X236528565Y-111084468D01*
X236524000Y-111038112D01*
X236524000Y-109961888D01*
X236528565Y-109915532D01*
X236540296Y-109876862D01*
X236559346Y-109841223D01*
X236584983Y-109809983D01*
X236616223Y-109784346D01*
X236651862Y-109765296D01*
X236690532Y-109753565D01*
X236736888Y-109749000D01*
X237388112Y-109749000D01*
X237434468Y-109753565D01*
G37*
G36*
X224905355Y-105325083D02*
G01*
X224910029Y-105326501D01*
X224914330Y-105328800D01*
X224920702Y-105334029D01*
X224941076Y-105347643D01*
X224963715Y-105357020D01*
X224987749Y-105361800D01*
X225012253Y-105361800D01*
X225036286Y-105357019D01*
X225058925Y-105347642D01*
X225079298Y-105334029D01*
X225085670Y-105328800D01*
X225089971Y-105326501D01*
X225094645Y-105325083D01*
X225105641Y-105324000D01*
X225394359Y-105324000D01*
X225405355Y-105325083D01*
X225410029Y-105326501D01*
X225414330Y-105328800D01*
X225420702Y-105334029D01*
X225441076Y-105347643D01*
X225463715Y-105357020D01*
X225487749Y-105361800D01*
X225512253Y-105361800D01*
X225536286Y-105357019D01*
X225558925Y-105347642D01*
X225579298Y-105334029D01*
X225585670Y-105328800D01*
X225589971Y-105326501D01*
X225594645Y-105325083D01*
X225605641Y-105324000D01*
X225894359Y-105324000D01*
X225905355Y-105325083D01*
X225910029Y-105326501D01*
X225914330Y-105328800D01*
X225920702Y-105334029D01*
X225941076Y-105347643D01*
X225963715Y-105357020D01*
X225987749Y-105361800D01*
X226012253Y-105361800D01*
X226036286Y-105357019D01*
X226058925Y-105347642D01*
X226079298Y-105334029D01*
X226085670Y-105328800D01*
X226089971Y-105326501D01*
X226094645Y-105325083D01*
X226105641Y-105324000D01*
X226394359Y-105324000D01*
X226405355Y-105325083D01*
X226410029Y-105326501D01*
X226414330Y-105328800D01*
X226420702Y-105334029D01*
X226441076Y-105347643D01*
X226463715Y-105357020D01*
X226487749Y-105361800D01*
X226512253Y-105361800D01*
X226536286Y-105357019D01*
X226558925Y-105347642D01*
X226579298Y-105334029D01*
X226585670Y-105328800D01*
X226589971Y-105326501D01*
X226594645Y-105325083D01*
X226605641Y-105324000D01*
X226894359Y-105324000D01*
X226905355Y-105325083D01*
X226910029Y-105326501D01*
X226914330Y-105328800D01*
X226920702Y-105334029D01*
X226941076Y-105347643D01*
X226963715Y-105357020D01*
X226987749Y-105361800D01*
X227012253Y-105361800D01*
X227036286Y-105357019D01*
X227058925Y-105347642D01*
X227079298Y-105334029D01*
X227085670Y-105328800D01*
X227089971Y-105326501D01*
X227094645Y-105325083D01*
X227105641Y-105324000D01*
X227394359Y-105324000D01*
X227405355Y-105325083D01*
X227410029Y-105326501D01*
X227414330Y-105328800D01*
X227420702Y-105334029D01*
X227441076Y-105347643D01*
X227463715Y-105357020D01*
X227487749Y-105361800D01*
X227512253Y-105361800D01*
X227536286Y-105357019D01*
X227558925Y-105347642D01*
X227579298Y-105334029D01*
X227585670Y-105328800D01*
X227589971Y-105326501D01*
X227594645Y-105325083D01*
X227605641Y-105324000D01*
X227894359Y-105324000D01*
X227905355Y-105325083D01*
X227910029Y-105326501D01*
X227914330Y-105328800D01*
X227920702Y-105334029D01*
X227941076Y-105347643D01*
X227963715Y-105357020D01*
X227987749Y-105361800D01*
X228012253Y-105361800D01*
X228036286Y-105357019D01*
X228058925Y-105347642D01*
X228079298Y-105334029D01*
X228085670Y-105328800D01*
X228089971Y-105326501D01*
X228094645Y-105325083D01*
X228105641Y-105324000D01*
X228394359Y-105324000D01*
X228405355Y-105325083D01*
X228410029Y-105326501D01*
X228414331Y-105328800D01*
X228418104Y-105331896D01*
X228421200Y-105335669D01*
X228423499Y-105339971D01*
X228424917Y-105344645D01*
X228426000Y-105355641D01*
X228426000Y-106199001D01*
X228428402Y-106223387D01*
X228435515Y-106246836D01*
X228447066Y-106268447D01*
X228462611Y-106287389D01*
X228481553Y-106302934D01*
X228503164Y-106314485D01*
X228526613Y-106321598D01*
X228550999Y-106324000D01*
X229394359Y-106324000D01*
X229405355Y-106325083D01*
X229410029Y-106326501D01*
X229414331Y-106328800D01*
X229418104Y-106331896D01*
X229421200Y-106335669D01*
X229423499Y-106339971D01*
X229424917Y-106344645D01*
X229426000Y-106355641D01*
X229426000Y-106644359D01*
X229424917Y-106655355D01*
X229423499Y-106660029D01*
X229421200Y-106664330D01*
X229415971Y-106670702D01*
X229402357Y-106691076D01*
X229392980Y-106713715D01*
X229388200Y-106737749D01*
X229388200Y-106762253D01*
X229392981Y-106786286D01*
X229402358Y-106808925D01*
X229415971Y-106829298D01*
X229421200Y-106835670D01*
X229423499Y-106839971D01*
X229424917Y-106844645D01*
X229426000Y-106855641D01*
X229426000Y-107144359D01*
X229424917Y-107155355D01*
X229423499Y-107160029D01*
X229421200Y-107164330D01*
X229415971Y-107170702D01*
X229402357Y-107191076D01*
X229392980Y-107213715D01*
X229388200Y-107237749D01*
X229388200Y-107262253D01*
X229392981Y-107286286D01*
X229402358Y-107308925D01*
X229415971Y-107329298D01*
X229421200Y-107335670D01*
X229423499Y-107339971D01*
X229424917Y-107344645D01*
X229426000Y-107355641D01*
X229426000Y-107644359D01*
X229424917Y-107655355D01*
X229423499Y-107660029D01*
X229421200Y-107664330D01*
X229415971Y-107670702D01*
X229402357Y-107691076D01*
X229392980Y-107713715D01*
X229388200Y-107737749D01*
X229388200Y-107762253D01*
X229392981Y-107786286D01*
X229402358Y-107808925D01*
X229415971Y-107829298D01*
X229421200Y-107835670D01*
X229423499Y-107839971D01*
X229424917Y-107844645D01*
X229426000Y-107855641D01*
X229426000Y-108144359D01*
X229424917Y-108155355D01*
X229423499Y-108160029D01*
X229421200Y-108164330D01*
X229415971Y-108170702D01*
X229402357Y-108191076D01*
X229392980Y-108213715D01*
X229388200Y-108237749D01*
X229388200Y-108262253D01*
X229392981Y-108286286D01*
X229402358Y-108308925D01*
X229415971Y-108329298D01*
X229421200Y-108335670D01*
X229423499Y-108339971D01*
X229424917Y-108344645D01*
X229426000Y-108355641D01*
X229426000Y-108644359D01*
X229424917Y-108655355D01*
X229423499Y-108660029D01*
X229421200Y-108664330D01*
X229415971Y-108670702D01*
X229402357Y-108691076D01*
X229392980Y-108713715D01*
X229388200Y-108737749D01*
X229388200Y-108762253D01*
X229392981Y-108786286D01*
X229402358Y-108808925D01*
X229415971Y-108829298D01*
X229421200Y-108835670D01*
X229423499Y-108839971D01*
X229424917Y-108844645D01*
X229426000Y-108855641D01*
X229426000Y-109144359D01*
X229424917Y-109155355D01*
X229423499Y-109160029D01*
X229421200Y-109164330D01*
X229415971Y-109170702D01*
X229402357Y-109191076D01*
X229392980Y-109213715D01*
X229388200Y-109237749D01*
X229388200Y-109262253D01*
X229392981Y-109286286D01*
X229402358Y-109308925D01*
X229415971Y-109329298D01*
X229421200Y-109335670D01*
X229423499Y-109339971D01*
X229424917Y-109344645D01*
X229426000Y-109355641D01*
X229426000Y-109644359D01*
X229424917Y-109655355D01*
X229423499Y-109660029D01*
X229421200Y-109664330D01*
X229415971Y-109670702D01*
X229402357Y-109691076D01*
X229392980Y-109713715D01*
X229388200Y-109737749D01*
X229388200Y-109762253D01*
X229392981Y-109786286D01*
X229402358Y-109808925D01*
X229415971Y-109829298D01*
X229421200Y-109835670D01*
X229423499Y-109839971D01*
X229424917Y-109844645D01*
X229426000Y-109855641D01*
X229426000Y-110144359D01*
X229424917Y-110155355D01*
X229423499Y-110160029D01*
X229421200Y-110164331D01*
X229418104Y-110168104D01*
X229414331Y-110171200D01*
X229410029Y-110173499D01*
X229405355Y-110174917D01*
X229394359Y-110176000D01*
X228550999Y-110176000D01*
X228526613Y-110178402D01*
X228503164Y-110185515D01*
X228481553Y-110197066D01*
X228462611Y-110212611D01*
X228447066Y-110231553D01*
X228435515Y-110253164D01*
X228428402Y-110276613D01*
X228426000Y-110300999D01*
X228426000Y-111144359D01*
X228424917Y-111155355D01*
X228423499Y-111160029D01*
X228421200Y-111164331D01*
X228418104Y-111168104D01*
X228414331Y-111171200D01*
X228410029Y-111173499D01*
X228405355Y-111174917D01*
X228394359Y-111176000D01*
X228105641Y-111176000D01*
X228094645Y-111174917D01*
X228089971Y-111173499D01*
X228085670Y-111171200D01*
X228079298Y-111165971D01*
X228058924Y-111152357D01*
X228036285Y-111142980D01*
X228012251Y-111138200D01*
X227987747Y-111138200D01*
X227963714Y-111142981D01*
X227941075Y-111152358D01*
X227920702Y-111165971D01*
X227914330Y-111171200D01*
X227910029Y-111173499D01*
X227905355Y-111174917D01*
X227894359Y-111176000D01*
X227605641Y-111176000D01*
X227594645Y-111174917D01*
X227589971Y-111173499D01*
X227585670Y-111171200D01*
X227579298Y-111165971D01*
X227558924Y-111152357D01*
X227536285Y-111142980D01*
X227512251Y-111138200D01*
X227487747Y-111138200D01*
X227463714Y-111142981D01*
X227441075Y-111152358D01*
X227420702Y-111165971D01*
X227414330Y-111171200D01*
X227410029Y-111173499D01*
X227405355Y-111174917D01*
X227394359Y-111176000D01*
X227105641Y-111176000D01*
X227094645Y-111174917D01*
X227089971Y-111173499D01*
X227085670Y-111171200D01*
X227079298Y-111165971D01*
X227058924Y-111152357D01*
X227036285Y-111142980D01*
X227012251Y-111138200D01*
X226987747Y-111138200D01*
X226963714Y-111142981D01*
X226941075Y-111152358D01*
X226920702Y-111165971D01*
X226914330Y-111171200D01*
X226910029Y-111173499D01*
X226905355Y-111174917D01*
X226894359Y-111176000D01*
X226605641Y-111176000D01*
X226594645Y-111174917D01*
X226589971Y-111173499D01*
X226585670Y-111171200D01*
X226579298Y-111165971D01*
X226558924Y-111152357D01*
X226536285Y-111142980D01*
X226512251Y-111138200D01*
X226487747Y-111138200D01*
X226463714Y-111142981D01*
X226441075Y-111152358D01*
X226420702Y-111165971D01*
X226414330Y-111171200D01*
X226410029Y-111173499D01*
X226405355Y-111174917D01*
X226394359Y-111176000D01*
X226105641Y-111176000D01*
X226094645Y-111174917D01*
X226089971Y-111173499D01*
X226085670Y-111171200D01*
X226079298Y-111165971D01*
X226058924Y-111152357D01*
X226036285Y-111142980D01*
X226012251Y-111138200D01*
X225987747Y-111138200D01*
X225963714Y-111142981D01*
X225941075Y-111152358D01*
X225920702Y-111165971D01*
X225914330Y-111171200D01*
X225910029Y-111173499D01*
X225905355Y-111174917D01*
X225894359Y-111176000D01*
X225605641Y-111176000D01*
X225594645Y-111174917D01*
X225589971Y-111173499D01*
X225585670Y-111171200D01*
X225579298Y-111165971D01*
X225558924Y-111152357D01*
X225536285Y-111142980D01*
X225512251Y-111138200D01*
X225487747Y-111138200D01*
X225463714Y-111142981D01*
X225441075Y-111152358D01*
X225420702Y-111165971D01*
X225414330Y-111171200D01*
X225410029Y-111173499D01*
X225405355Y-111174917D01*
X225394359Y-111176000D01*
X225105641Y-111176000D01*
X225094645Y-111174917D01*
X225089971Y-111173499D01*
X225085670Y-111171200D01*
X225079298Y-111165971D01*
X225058924Y-111152357D01*
X225036285Y-111142980D01*
X225012251Y-111138200D01*
X224987747Y-111138200D01*
X224963714Y-111142981D01*
X224941075Y-111152358D01*
X224920702Y-111165971D01*
X224914330Y-111171200D01*
X224910029Y-111173499D01*
X224905355Y-111174917D01*
X224894359Y-111176000D01*
X224605641Y-111176000D01*
X224594645Y-111174917D01*
X224589971Y-111173499D01*
X224585669Y-111171200D01*
X224581896Y-111168104D01*
X224578800Y-111164331D01*
X224576501Y-111160029D01*
X224575083Y-111155355D01*
X224574000Y-111144359D01*
X224574000Y-110300999D01*
X224571598Y-110276613D01*
X224564485Y-110253164D01*
X224552934Y-110231553D01*
X224537389Y-110212611D01*
X224518447Y-110197066D01*
X224496836Y-110185515D01*
X224473387Y-110178402D01*
X224449001Y-110176000D01*
X223605641Y-110176000D01*
X223594645Y-110174917D01*
X223589971Y-110173499D01*
X223585669Y-110171200D01*
X223581896Y-110168104D01*
X223578800Y-110164331D01*
X223576501Y-110160029D01*
X223575083Y-110155355D01*
X223574000Y-110144359D01*
X223574000Y-109855641D01*
X223575083Y-109844645D01*
X223576501Y-109839971D01*
X223578800Y-109835670D01*
X223584029Y-109829298D01*
X223597643Y-109808924D01*
X223607020Y-109786285D01*
X223611800Y-109762251D01*
X223611800Y-109737747D01*
X223607019Y-109713714D01*
X223597642Y-109691075D01*
X223584029Y-109670702D01*
X223578800Y-109664330D01*
X223576501Y-109660029D01*
X223575083Y-109655355D01*
X223574000Y-109644359D01*
X223574000Y-109355641D01*
X223575083Y-109344645D01*
X223576501Y-109339971D01*
X223578800Y-109335670D01*
X223584029Y-109329298D01*
X223597643Y-109308924D01*
X223607020Y-109286285D01*
X223611800Y-109262251D01*
X223611800Y-109237747D01*
X223607019Y-109213714D01*
X223597642Y-109191075D01*
X223584029Y-109170702D01*
X223578800Y-109164330D01*
X223576501Y-109160029D01*
X223575083Y-109155355D01*
X223574000Y-109144359D01*
X223574000Y-108855641D01*
X223575083Y-108844645D01*
X223576501Y-108839971D01*
X223578800Y-108835670D01*
X223584029Y-108829298D01*
X223597643Y-108808924D01*
X223607020Y-108786285D01*
X223611800Y-108762251D01*
X223611800Y-108737747D01*
X223607019Y-108713714D01*
X223597642Y-108691075D01*
X223584029Y-108670702D01*
X223578800Y-108664330D01*
X223576501Y-108660029D01*
X223575083Y-108655355D01*
X223574000Y-108644359D01*
X223574000Y-108355641D01*
X223575083Y-108344645D01*
X223576501Y-108339971D01*
X223578800Y-108335670D01*
X223584029Y-108329298D01*
X223597643Y-108308924D01*
X223607020Y-108286285D01*
X223611800Y-108262251D01*
X223611800Y-108237747D01*
X223607019Y-108213714D01*
X223597642Y-108191075D01*
X223584029Y-108170702D01*
X223578800Y-108164330D01*
X223576501Y-108160029D01*
X223575083Y-108155355D01*
X223574000Y-108144359D01*
X223574000Y-107855641D01*
X223575083Y-107844645D01*
X223576501Y-107839971D01*
X223578800Y-107835670D01*
X223584029Y-107829298D01*
X223597643Y-107808924D01*
X223607020Y-107786285D01*
X223611800Y-107762251D01*
X223611800Y-107737747D01*
X223607019Y-107713714D01*
X223597642Y-107691075D01*
X223584029Y-107670702D01*
X223578800Y-107664330D01*
X223576501Y-107660029D01*
X223575083Y-107655355D01*
X223574000Y-107644359D01*
X223574000Y-107355641D01*
X223575083Y-107344645D01*
X223576501Y-107339971D01*
X223578800Y-107335670D01*
X223584029Y-107329298D01*
X223597643Y-107308924D01*
X223607020Y-107286285D01*
X223611800Y-107262251D01*
X223611800Y-107237747D01*
X223607019Y-107213714D01*
X223597642Y-107191075D01*
X223584029Y-107170702D01*
X223578800Y-107164330D01*
X223576501Y-107160029D01*
X223575083Y-107155355D01*
X223574000Y-107144359D01*
X223574000Y-106855641D01*
X223575083Y-106844645D01*
X223576501Y-106839971D01*
X223578800Y-106835670D01*
X223584029Y-106829298D01*
X223597643Y-106808924D01*
X223607020Y-106786285D01*
X223611800Y-106762251D01*
X223611800Y-106737749D01*
X224513200Y-106737749D01*
X224513200Y-106762253D01*
X224517981Y-106786286D01*
X224527358Y-106808925D01*
X224540971Y-106829298D01*
X224546200Y-106835670D01*
X224548499Y-106839971D01*
X224549917Y-106844645D01*
X224551000Y-106855641D01*
X224551000Y-107144359D01*
X224549917Y-107155355D01*
X224548499Y-107160029D01*
X224546200Y-107164330D01*
X224540971Y-107170702D01*
X224527357Y-107191076D01*
X224517980Y-107213715D01*
X224513200Y-107237749D01*
X224513200Y-107262253D01*
X224517981Y-107286286D01*
X224527358Y-107308925D01*
X224540971Y-107329298D01*
X224546200Y-107335670D01*
X224548499Y-107339971D01*
X224549917Y-107344645D01*
X224551000Y-107355641D01*
X224551000Y-107644359D01*
X224549917Y-107655355D01*
X224548499Y-107660029D01*
X224546200Y-107664330D01*
X224540971Y-107670702D01*
X224527357Y-107691076D01*
X224517980Y-107713715D01*
X224513200Y-107737749D01*
X224513200Y-107762253D01*
X224517981Y-107786286D01*
X224527358Y-107808925D01*
X224540971Y-107829298D01*
X224546200Y-107835670D01*
X224548499Y-107839971D01*
X224549917Y-107844645D01*
X224551000Y-107855641D01*
X224551000Y-108144359D01*
X224549917Y-108155355D01*
X224548499Y-108160029D01*
X224546200Y-108164330D01*
X224540971Y-108170702D01*
X224527357Y-108191076D01*
X224517980Y-108213715D01*
X224513200Y-108237749D01*
X224513200Y-108262253D01*
X224517981Y-108286286D01*
X224527358Y-108308925D01*
X224540971Y-108329298D01*
X224546200Y-108335670D01*
X224548499Y-108339971D01*
X224549917Y-108344645D01*
X224551000Y-108355641D01*
X224551000Y-108644359D01*
X224549917Y-108655355D01*
X224548499Y-108660029D01*
X224546200Y-108664330D01*
X224540971Y-108670702D01*
X224527357Y-108691076D01*
X224517980Y-108713715D01*
X224513200Y-108737749D01*
X224513200Y-108762253D01*
X224517981Y-108786286D01*
X224527358Y-108808925D01*
X224540971Y-108829298D01*
X224546200Y-108835670D01*
X224548499Y-108839971D01*
X224549917Y-108844645D01*
X224551000Y-108855641D01*
X224551000Y-109144359D01*
X224549917Y-109155355D01*
X224548499Y-109160029D01*
X224546200Y-109164330D01*
X224540971Y-109170702D01*
X224527357Y-109191076D01*
X224517980Y-109213715D01*
X224513200Y-109237749D01*
X224513200Y-109262253D01*
X224517981Y-109286286D01*
X224527358Y-109308925D01*
X224540971Y-109329298D01*
X224546200Y-109335670D01*
X224548499Y-109339971D01*
X224549917Y-109344645D01*
X224551000Y-109355641D01*
X224551000Y-109644359D01*
X224549917Y-109655355D01*
X224548499Y-109660029D01*
X224546200Y-109664330D01*
X224540971Y-109670702D01*
X224527357Y-109691076D01*
X224517980Y-109713715D01*
X224513200Y-109737749D01*
X224513200Y-109762253D01*
X224517981Y-109786286D01*
X224527358Y-109808925D01*
X224540971Y-109829298D01*
X224546200Y-109835670D01*
X224548499Y-109839971D01*
X224549917Y-109844645D01*
X224551000Y-109855641D01*
X224551000Y-110074001D01*
X224553402Y-110098387D01*
X224560515Y-110121836D01*
X224572066Y-110143447D01*
X224587611Y-110162389D01*
X224606553Y-110177934D01*
X224628164Y-110189485D01*
X224651613Y-110196598D01*
X224675999Y-110199000D01*
X224894359Y-110199000D01*
X224905355Y-110200083D01*
X224910029Y-110201501D01*
X224914330Y-110203800D01*
X224920702Y-110209029D01*
X224941076Y-110222643D01*
X224963715Y-110232020D01*
X224987749Y-110236800D01*
X225012253Y-110236800D01*
X225036286Y-110232019D01*
X225058925Y-110222642D01*
X225079298Y-110209029D01*
X225085670Y-110203800D01*
X225089971Y-110201501D01*
X225094645Y-110200083D01*
X225105641Y-110199000D01*
X225394359Y-110199000D01*
X225405355Y-110200083D01*
X225410029Y-110201501D01*
X225414330Y-110203800D01*
X225420702Y-110209029D01*
X225441076Y-110222643D01*
X225463715Y-110232020D01*
X225487749Y-110236800D01*
X225512253Y-110236800D01*
X225536286Y-110232019D01*
X225558925Y-110222642D01*
X225579298Y-110209029D01*
X225585670Y-110203800D01*
X225589971Y-110201501D01*
X225594645Y-110200083D01*
X225605641Y-110199000D01*
X225894359Y-110199000D01*
X225905355Y-110200083D01*
X225910029Y-110201501D01*
X225914330Y-110203800D01*
X225920702Y-110209029D01*
X225941076Y-110222643D01*
X225963715Y-110232020D01*
X225987749Y-110236800D01*
X226012253Y-110236800D01*
X226036286Y-110232019D01*
X226058925Y-110222642D01*
X226079298Y-110209029D01*
X226085670Y-110203800D01*
X226089971Y-110201501D01*
X226094645Y-110200083D01*
X226105641Y-110199000D01*
X226394359Y-110199000D01*
X226405355Y-110200083D01*
X226410029Y-110201501D01*
X226414330Y-110203800D01*
X226420702Y-110209029D01*
X226441076Y-110222643D01*
X226463715Y-110232020D01*
X226487749Y-110236800D01*
X226512253Y-110236800D01*
X226536286Y-110232019D01*
X226558925Y-110222642D01*
X226579298Y-110209029D01*
X226585670Y-110203800D01*
X226589971Y-110201501D01*
X226594645Y-110200083D01*
X226605641Y-110199000D01*
X226894359Y-110199000D01*
X226905355Y-110200083D01*
X226910029Y-110201501D01*
X226914330Y-110203800D01*
X226920702Y-110209029D01*
X226941076Y-110222643D01*
X226963715Y-110232020D01*
X226987749Y-110236800D01*
X227012253Y-110236800D01*
X227036286Y-110232019D01*
X227058925Y-110222642D01*
X227079298Y-110209029D01*
X227085670Y-110203800D01*
X227089971Y-110201501D01*
X227094645Y-110200083D01*
X227105641Y-110199000D01*
X227394359Y-110199000D01*
X227405355Y-110200083D01*
X227410029Y-110201501D01*
X227414330Y-110203800D01*
X227420702Y-110209029D01*
X227441076Y-110222643D01*
X227463715Y-110232020D01*
X227487749Y-110236800D01*
X227512253Y-110236800D01*
X227536286Y-110232019D01*
X227558925Y-110222642D01*
X227579298Y-110209029D01*
X227585670Y-110203800D01*
X227589971Y-110201501D01*
X227594645Y-110200083D01*
X227605641Y-110199000D01*
X227894359Y-110199000D01*
X227905355Y-110200083D01*
X227910029Y-110201501D01*
X227914330Y-110203800D01*
X227920702Y-110209029D01*
X227941076Y-110222643D01*
X227963715Y-110232020D01*
X227987749Y-110236800D01*
X228012253Y-110236800D01*
X228036286Y-110232019D01*
X228058925Y-110222642D01*
X228079298Y-110209029D01*
X228085670Y-110203800D01*
X228089971Y-110201501D01*
X228094645Y-110200083D01*
X228105641Y-110199000D01*
X228324001Y-110199000D01*
X228348387Y-110196598D01*
X228371836Y-110189485D01*
X228393447Y-110177934D01*
X228412389Y-110162389D01*
X228427934Y-110143447D01*
X228439485Y-110121836D01*
X228446598Y-110098387D01*
X228449000Y-110074001D01*
X228449000Y-109855641D01*
X228450083Y-109844645D01*
X228451501Y-109839971D01*
X228453800Y-109835670D01*
X228459029Y-109829298D01*
X228472643Y-109808924D01*
X228482020Y-109786285D01*
X228486800Y-109762251D01*
X228486800Y-109737747D01*
X228482019Y-109713714D01*
X228472642Y-109691075D01*
X228459029Y-109670702D01*
X228453800Y-109664330D01*
X228451501Y-109660029D01*
X228450083Y-109655355D01*
X228449000Y-109644359D01*
X228449000Y-109355641D01*
X228450083Y-109344645D01*
X228451501Y-109339971D01*
X228453800Y-109335670D01*
X228459029Y-109329298D01*
X228472643Y-109308924D01*
X228482020Y-109286285D01*
X228486800Y-109262251D01*
X228486800Y-109237747D01*
X228482019Y-109213714D01*
X228472642Y-109191075D01*
X228459029Y-109170702D01*
X228453800Y-109164330D01*
X228451501Y-109160029D01*
X228450083Y-109155355D01*
X228449000Y-109144359D01*
X228449000Y-108855641D01*
X228450083Y-108844645D01*
X228451501Y-108839971D01*
X228453800Y-108835670D01*
X228459029Y-108829298D01*
X228472643Y-108808924D01*
X228482020Y-108786285D01*
X228486800Y-108762251D01*
X228486800Y-108737747D01*
X228482019Y-108713714D01*
X228472642Y-108691075D01*
X228459029Y-108670702D01*
X228453800Y-108664330D01*
X228451501Y-108660029D01*
X228450083Y-108655355D01*
X228449000Y-108644359D01*
X228449000Y-108355641D01*
X228450083Y-108344645D01*
X228451501Y-108339971D01*
X228453800Y-108335670D01*
X228459029Y-108329298D01*
X228472643Y-108308924D01*
X228482020Y-108286285D01*
X228486800Y-108262251D01*
X228486800Y-108237747D01*
X228482019Y-108213714D01*
X228472642Y-108191075D01*
X228459029Y-108170702D01*
X228453800Y-108164330D01*
X228451501Y-108160029D01*
X228450083Y-108155355D01*
X228449000Y-108144359D01*
X228449000Y-107855641D01*
X228450083Y-107844645D01*
X228451501Y-107839971D01*
X228453800Y-107835670D01*
X228459029Y-107829298D01*
X228472643Y-107808924D01*
X228482020Y-107786285D01*
X228486800Y-107762251D01*
X228486800Y-107737747D01*
X228482019Y-107713714D01*
X228472642Y-107691075D01*
X228459029Y-107670702D01*
X228453800Y-107664330D01*
X228451501Y-107660029D01*
X228450083Y-107655355D01*
X228449000Y-107644359D01*
X228449000Y-107355641D01*
X228450083Y-107344645D01*
X228451501Y-107339971D01*
X228453800Y-107335670D01*
X228459029Y-107329298D01*
X228472643Y-107308924D01*
X228482020Y-107286285D01*
X228486800Y-107262251D01*
X228486800Y-107237747D01*
X228482019Y-107213714D01*
X228472642Y-107191075D01*
X228459029Y-107170702D01*
X228453800Y-107164330D01*
X228451501Y-107160029D01*
X228450083Y-107155355D01*
X228449000Y-107144359D01*
X228449000Y-106855641D01*
X228450083Y-106844645D01*
X228451501Y-106839971D01*
X228453800Y-106835670D01*
X228459029Y-106829298D01*
X228472643Y-106808924D01*
X228482020Y-106786285D01*
X228486800Y-106762251D01*
X228486800Y-106737747D01*
X228482019Y-106713714D01*
X228472642Y-106691075D01*
X228459029Y-106670702D01*
X228453800Y-106664330D01*
X228451501Y-106660029D01*
X228450083Y-106655355D01*
X228449000Y-106644359D01*
X228449000Y-106425999D01*
X228446598Y-106401613D01*
X228439485Y-106378164D01*
X228427934Y-106356553D01*
X228412389Y-106337611D01*
X228393447Y-106322066D01*
X228371836Y-106310515D01*
X228348387Y-106303402D01*
X228324001Y-106301000D01*
X228105641Y-106301000D01*
X228094645Y-106299917D01*
X228089971Y-106298499D01*
X228085670Y-106296200D01*
X228079298Y-106290971D01*
X228058924Y-106277357D01*
X228036285Y-106267980D01*
X228012251Y-106263200D01*
X227987747Y-106263200D01*
X227963714Y-106267981D01*
X227941075Y-106277358D01*
X227920702Y-106290971D01*
X227914330Y-106296200D01*
X227910029Y-106298499D01*
X227905355Y-106299917D01*
X227894359Y-106301000D01*
X227605641Y-106301000D01*
X227594645Y-106299917D01*
X227589971Y-106298499D01*
X227585670Y-106296200D01*
X227579298Y-106290971D01*
X227558924Y-106277357D01*
X227536285Y-106267980D01*
X227512251Y-106263200D01*
X227487747Y-106263200D01*
X227463714Y-106267981D01*
X227441075Y-106277358D01*
X227420702Y-106290971D01*
X227414330Y-106296200D01*
X227410029Y-106298499D01*
X227405355Y-106299917D01*
X227394359Y-106301000D01*
X227105641Y-106301000D01*
X227094645Y-106299917D01*
X227089971Y-106298499D01*
X227085670Y-106296200D01*
X227079298Y-106290971D01*
X227058924Y-106277357D01*
X227036285Y-106267980D01*
X227012251Y-106263200D01*
X226987747Y-106263200D01*
X226963714Y-106267981D01*
X226941075Y-106277358D01*
X226920702Y-106290971D01*
X226914330Y-106296200D01*
X226910029Y-106298499D01*
X226905355Y-106299917D01*
X226894359Y-106301000D01*
X226605641Y-106301000D01*
X226594645Y-106299917D01*
X226589971Y-106298499D01*
X226585670Y-106296200D01*
X226579298Y-106290971D01*
X226558924Y-106277357D01*
X226536285Y-106267980D01*
X226512251Y-106263200D01*
X226487747Y-106263200D01*
X226463714Y-106267981D01*
X226441075Y-106277358D01*
X226420702Y-106290971D01*
X226414330Y-106296200D01*
X226410029Y-106298499D01*
X226405355Y-106299917D01*
X226394359Y-106301000D01*
X226105641Y-106301000D01*
X226094645Y-106299917D01*
X226089971Y-106298499D01*
X226085670Y-106296200D01*
X226079298Y-106290971D01*
X226058924Y-106277357D01*
X226036285Y-106267980D01*
X226012251Y-106263200D01*
X225987747Y-106263200D01*
X225963714Y-106267981D01*
X225941075Y-106277358D01*
X225920702Y-106290971D01*
X225914330Y-106296200D01*
X225910029Y-106298499D01*
X225905355Y-106299917D01*
X225894359Y-106301000D01*
X225605641Y-106301000D01*
X225594645Y-106299917D01*
X225589971Y-106298499D01*
X225585670Y-106296200D01*
X225579298Y-106290971D01*
X225558924Y-106277357D01*
X225536285Y-106267980D01*
X225512251Y-106263200D01*
X225487747Y-106263200D01*
X225463714Y-106267981D01*
X225441075Y-106277358D01*
X225420702Y-106290971D01*
X225414330Y-106296200D01*
X225410029Y-106298499D01*
X225405355Y-106299917D01*
X225394359Y-106301000D01*
X225105641Y-106301000D01*
X225094645Y-106299917D01*
X225089971Y-106298499D01*
X225085670Y-106296200D01*
X225079298Y-106290971D01*
X225058924Y-106277357D01*
X225036285Y-106267980D01*
X225012251Y-106263200D01*
X224987747Y-106263200D01*
X224963714Y-106267981D01*
X224941075Y-106277358D01*
X224920702Y-106290971D01*
X224914330Y-106296200D01*
X224910029Y-106298499D01*
X224905355Y-106299917D01*
X224894359Y-106301000D01*
X224675999Y-106301000D01*
X224651613Y-106303402D01*
X224628164Y-106310515D01*
X224606553Y-106322066D01*
X224587611Y-106337611D01*
X224572066Y-106356553D01*
X224560515Y-106378164D01*
X224553402Y-106401613D01*
X224551000Y-106425999D01*
X224551000Y-106644359D01*
X224549917Y-106655355D01*
X224548499Y-106660029D01*
X224546200Y-106664330D01*
X224540971Y-106670702D01*
X224527357Y-106691076D01*
X224517980Y-106713715D01*
X224513200Y-106737749D01*
X223611800Y-106737749D01*
X223611800Y-106737747D01*
X223607019Y-106713714D01*
X223597642Y-106691075D01*
X223584029Y-106670702D01*
X223578800Y-106664330D01*
X223576501Y-106660029D01*
X223575083Y-106655355D01*
X223574000Y-106644359D01*
X223574000Y-106355641D01*
X223575083Y-106344645D01*
X223576501Y-106339971D01*
X223578800Y-106335669D01*
X223581896Y-106331896D01*
X223585669Y-106328800D01*
X223589971Y-106326501D01*
X223594645Y-106325083D01*
X223605641Y-106324000D01*
X224449001Y-106324000D01*
X224473387Y-106321598D01*
X224496836Y-106314485D01*
X224518447Y-106302934D01*
X224537389Y-106287389D01*
X224552934Y-106268447D01*
X224564485Y-106246836D01*
X224571598Y-106223387D01*
X224574000Y-106199001D01*
X224574000Y-105355641D01*
X224575083Y-105344645D01*
X224576501Y-105339971D01*
X224578800Y-105335669D01*
X224581896Y-105331896D01*
X224585669Y-105328800D01*
X224589971Y-105326501D01*
X224594645Y-105325083D01*
X224605641Y-105324000D01*
X224894359Y-105324000D01*
X224905355Y-105325083D01*
G37*
G36*
X228101000Y-109851000D02*
G01*
X224899000Y-109851000D01*
X224899000Y-106649000D01*
X228101000Y-106649000D01*
X228101000Y-109851000D01*
G37*
G36*
X202201000Y-110301000D02*
G01*
X200299000Y-110301000D01*
X200299000Y-107699000D01*
X202201000Y-107699000D01*
X202201000Y-110301000D01*
G37*
G36*
X248379591Y-109228085D02*
G01*
X248413569Y-109238393D01*
X248444890Y-109255134D01*
X248472339Y-109277661D01*
X248494866Y-109305110D01*
X248511607Y-109336431D01*
X248521915Y-109370409D01*
X248526000Y-109411890D01*
X248526000Y-110013110D01*
X248521915Y-110054591D01*
X248511607Y-110088569D01*
X248494866Y-110119890D01*
X248472339Y-110147339D01*
X248444890Y-110169866D01*
X248413569Y-110186607D01*
X248379591Y-110196915D01*
X248338110Y-110201000D01*
X247661890Y-110201000D01*
X247620409Y-110196915D01*
X247586431Y-110186607D01*
X247555110Y-110169866D01*
X247527661Y-110147339D01*
X247505134Y-110119890D01*
X247488393Y-110088569D01*
X247478085Y-110054591D01*
X247474000Y-110013110D01*
X247474000Y-109411890D01*
X247478085Y-109370409D01*
X247488393Y-109336431D01*
X247505134Y-109305110D01*
X247527661Y-109277661D01*
X247555110Y-109255134D01*
X247586431Y-109238393D01*
X247620409Y-109228085D01*
X247661890Y-109224000D01*
X248338110Y-109224000D01*
X248379591Y-109228085D01*
G37*
G36*
X242379591Y-109228085D02*
G01*
X242413569Y-109238393D01*
X242444890Y-109255134D01*
X242472339Y-109277661D01*
X242494866Y-109305110D01*
X242511607Y-109336431D01*
X242521915Y-109370409D01*
X242526000Y-109411890D01*
X242526000Y-110013110D01*
X242521915Y-110054591D01*
X242511607Y-110088569D01*
X242494866Y-110119890D01*
X242472339Y-110147339D01*
X242444890Y-110169866D01*
X242413569Y-110186607D01*
X242379591Y-110196915D01*
X242338110Y-110201000D01*
X241661890Y-110201000D01*
X241620409Y-110196915D01*
X241586431Y-110186607D01*
X241555110Y-110169866D01*
X241527661Y-110147339D01*
X241505134Y-110119890D01*
X241488393Y-110088569D01*
X241478085Y-110054591D01*
X241474000Y-110013110D01*
X241474000Y-109411890D01*
X241478085Y-109370409D01*
X241488393Y-109336431D01*
X241505134Y-109305110D01*
X241527661Y-109277661D01*
X241555110Y-109255134D01*
X241586431Y-109238393D01*
X241620409Y-109228085D01*
X241661890Y-109224000D01*
X242338110Y-109224000D01*
X242379591Y-109228085D01*
G37*
G36*
X248379591Y-106803085D02*
G01*
X248413569Y-106813393D01*
X248444890Y-106830134D01*
X248472339Y-106852661D01*
X248494866Y-106880110D01*
X248511607Y-106911431D01*
X248521915Y-106945409D01*
X248526000Y-106986890D01*
X248526000Y-107588110D01*
X248521915Y-107629591D01*
X248511607Y-107663569D01*
X248494866Y-107694890D01*
X248472339Y-107722339D01*
X248444890Y-107744866D01*
X248413569Y-107761607D01*
X248379591Y-107771915D01*
X248338110Y-107776000D01*
X247661890Y-107776000D01*
X247620409Y-107771915D01*
X247586431Y-107761607D01*
X247555110Y-107744866D01*
X247527661Y-107722339D01*
X247505134Y-107694890D01*
X247488393Y-107663569D01*
X247478085Y-107629591D01*
X247474000Y-107588110D01*
X247474000Y-106986890D01*
X247478085Y-106945409D01*
X247488393Y-106911431D01*
X247505134Y-106880110D01*
X247527661Y-106852661D01*
X247555110Y-106830134D01*
X247586431Y-106813393D01*
X247620409Y-106803085D01*
X247661890Y-106799000D01*
X248338110Y-106799000D01*
X248379591Y-106803085D01*
G37*
G36*
X242379591Y-106803085D02*
G01*
X242413569Y-106813393D01*
X242444890Y-106830134D01*
X242472339Y-106852661D01*
X242494866Y-106880110D01*
X242511607Y-106911431D01*
X242521915Y-106945409D01*
X242526000Y-106986890D01*
X242526000Y-107588110D01*
X242521915Y-107629591D01*
X242511607Y-107663569D01*
X242494866Y-107694890D01*
X242472339Y-107722339D01*
X242444890Y-107744866D01*
X242413569Y-107761607D01*
X242379591Y-107771915D01*
X242338110Y-107776000D01*
X241661890Y-107776000D01*
X241620409Y-107771915D01*
X241586431Y-107761607D01*
X241555110Y-107744866D01*
X241527661Y-107722339D01*
X241505134Y-107694890D01*
X241488393Y-107663569D01*
X241478085Y-107629591D01*
X241474000Y-107588110D01*
X241474000Y-106986890D01*
X241478085Y-106945409D01*
X241488393Y-106911431D01*
X241505134Y-106880110D01*
X241527661Y-106852661D01*
X241555110Y-106830134D01*
X241586431Y-106813393D01*
X241620409Y-106803085D01*
X241661890Y-106799000D01*
X242338110Y-106799000D01*
X242379591Y-106803085D01*
G37*
G36*
X239309468Y-105753565D02*
G01*
X239348138Y-105765296D01*
X239383777Y-105784346D01*
X239415017Y-105809983D01*
X239440654Y-105841223D01*
X239459704Y-105876862D01*
X239471435Y-105915532D01*
X239476000Y-105961888D01*
X239476000Y-107038112D01*
X239471435Y-107084468D01*
X239459704Y-107123138D01*
X239440654Y-107158777D01*
X239415017Y-107190017D01*
X239383777Y-107215654D01*
X239348138Y-107234704D01*
X239309468Y-107246435D01*
X239263112Y-107251000D01*
X238611888Y-107251000D01*
X238565532Y-107246435D01*
X238526862Y-107234704D01*
X238491223Y-107215654D01*
X238459983Y-107190017D01*
X238434346Y-107158777D01*
X238415296Y-107123138D01*
X238403565Y-107084468D01*
X238399000Y-107038112D01*
X238399000Y-105961888D01*
X238403565Y-105915532D01*
X238415296Y-105876862D01*
X238434346Y-105841223D01*
X238459983Y-105809983D01*
X238491223Y-105784346D01*
X238526862Y-105765296D01*
X238565532Y-105753565D01*
X238611888Y-105749000D01*
X239263112Y-105749000D01*
X239309468Y-105753565D01*
G37*
G36*
X237434468Y-105753565D02*
G01*
X237473138Y-105765296D01*
X237508777Y-105784346D01*
X237540017Y-105809983D01*
X237565654Y-105841223D01*
X237584704Y-105876862D01*
X237596435Y-105915532D01*
X237601000Y-105961888D01*
X237601000Y-107038112D01*
X237596435Y-107084468D01*
X237584704Y-107123138D01*
X237565654Y-107158777D01*
X237540017Y-107190017D01*
X237508777Y-107215654D01*
X237473138Y-107234704D01*
X237434468Y-107246435D01*
X237388112Y-107251000D01*
X236736888Y-107251000D01*
X236690532Y-107246435D01*
X236651862Y-107234704D01*
X236616223Y-107215654D01*
X236584983Y-107190017D01*
X236559346Y-107158777D01*
X236540296Y-107123138D01*
X236528565Y-107084468D01*
X236524000Y-107038112D01*
X236524000Y-105961888D01*
X236528565Y-105915532D01*
X236540296Y-105876862D01*
X236559346Y-105841223D01*
X236584983Y-105809983D01*
X236616223Y-105784346D01*
X236651862Y-105765296D01*
X236690532Y-105753565D01*
X236736888Y-105749000D01*
X237388112Y-105749000D01*
X237434468Y-105753565D01*
G37*
G36*
X207501000Y-106651000D02*
G01*
X206499000Y-106651000D01*
X206499000Y-105749000D01*
X207501000Y-105749000D01*
X207501000Y-106651000D01*
G37*
G36*
X246129591Y-105478085D02*
G01*
X246163569Y-105488393D01*
X246194890Y-105505134D01*
X246222339Y-105527661D01*
X246244866Y-105555110D01*
X246261607Y-105586431D01*
X246271915Y-105620409D01*
X246276000Y-105661890D01*
X246276000Y-106338110D01*
X246271915Y-106379591D01*
X246261607Y-106413569D01*
X246244866Y-106444890D01*
X246222339Y-106472339D01*
X246194890Y-106494866D01*
X246163569Y-106511607D01*
X246129591Y-106521915D01*
X246088110Y-106526000D01*
X245486890Y-106526000D01*
X245445409Y-106521915D01*
X245411431Y-106511607D01*
X245380110Y-106494866D01*
X245352661Y-106472339D01*
X245330134Y-106444890D01*
X245313393Y-106413569D01*
X245303085Y-106379591D01*
X245299000Y-106338110D01*
X245299000Y-105661890D01*
X245303085Y-105620409D01*
X245313393Y-105586431D01*
X245330134Y-105555110D01*
X245352661Y-105527661D01*
X245380110Y-105505134D01*
X245411431Y-105488393D01*
X245445409Y-105478085D01*
X245486890Y-105474000D01*
X246088110Y-105474000D01*
X246129591Y-105478085D01*
G37*
G36*
X244554591Y-105478085D02*
G01*
X244588569Y-105488393D01*
X244619890Y-105505134D01*
X244647339Y-105527661D01*
X244669866Y-105555110D01*
X244686607Y-105586431D01*
X244696915Y-105620409D01*
X244701000Y-105661890D01*
X244701000Y-106338110D01*
X244696915Y-106379591D01*
X244686607Y-106413569D01*
X244669866Y-106444890D01*
X244647339Y-106472339D01*
X244619890Y-106494866D01*
X244588569Y-106511607D01*
X244554591Y-106521915D01*
X244513110Y-106526000D01*
X243911890Y-106526000D01*
X243870409Y-106521915D01*
X243836431Y-106511607D01*
X243805110Y-106494866D01*
X243777661Y-106472339D01*
X243755134Y-106444890D01*
X243738393Y-106413569D01*
X243728085Y-106379591D01*
X243724000Y-106338110D01*
X243724000Y-105661890D01*
X243728085Y-105620409D01*
X243738393Y-105586431D01*
X243755134Y-105555110D01*
X243777661Y-105527661D01*
X243805110Y-105505134D01*
X243836431Y-105488393D01*
X243870409Y-105478085D01*
X243911890Y-105474000D01*
X244513110Y-105474000D01*
X244554591Y-105478085D01*
G37*
G36*
X202201000Y-106301000D02*
G01*
X200299000Y-106301000D01*
X200299000Y-103699000D01*
X202201000Y-103699000D01*
X202201000Y-106301000D01*
G37*
G36*
X248379591Y-105228085D02*
G01*
X248413569Y-105238393D01*
X248444890Y-105255134D01*
X248472339Y-105277661D01*
X248494866Y-105305110D01*
X248511607Y-105336431D01*
X248521915Y-105370409D01*
X248526000Y-105411890D01*
X248526000Y-106013110D01*
X248521915Y-106054591D01*
X248511607Y-106088569D01*
X248494866Y-106119890D01*
X248472339Y-106147339D01*
X248444890Y-106169866D01*
X248413569Y-106186607D01*
X248379591Y-106196915D01*
X248338110Y-106201000D01*
X247661890Y-106201000D01*
X247620409Y-106196915D01*
X247586431Y-106186607D01*
X247555110Y-106169866D01*
X247527661Y-106147339D01*
X247505134Y-106119890D01*
X247488393Y-106088569D01*
X247478085Y-106054591D01*
X247474000Y-106013110D01*
X247474000Y-105411890D01*
X247478085Y-105370409D01*
X247488393Y-105336431D01*
X247505134Y-105305110D01*
X247527661Y-105277661D01*
X247555110Y-105255134D01*
X247586431Y-105238393D01*
X247620409Y-105228085D01*
X247661890Y-105224000D01*
X248338110Y-105224000D01*
X248379591Y-105228085D01*
G37*
G36*
X242379591Y-105228085D02*
G01*
X242413569Y-105238393D01*
X242444890Y-105255134D01*
X242472339Y-105277661D01*
X242494866Y-105305110D01*
X242511607Y-105336431D01*
X242521915Y-105370409D01*
X242526000Y-105411890D01*
X242526000Y-106013110D01*
X242521915Y-106054591D01*
X242511607Y-106088569D01*
X242494866Y-106119890D01*
X242472339Y-106147339D01*
X242444890Y-106169866D01*
X242413569Y-106186607D01*
X242379591Y-106196915D01*
X242338110Y-106201000D01*
X241661890Y-106201000D01*
X241620409Y-106196915D01*
X241586431Y-106186607D01*
X241555110Y-106169866D01*
X241527661Y-106147339D01*
X241505134Y-106119890D01*
X241488393Y-106088569D01*
X241478085Y-106054591D01*
X241474000Y-106013110D01*
X241474000Y-105411890D01*
X241478085Y-105370409D01*
X241488393Y-105336431D01*
X241505134Y-105305110D01*
X241527661Y-105277661D01*
X241555110Y-105255134D01*
X241586431Y-105238393D01*
X241620409Y-105228085D01*
X241661890Y-105224000D01*
X242338110Y-105224000D01*
X242379591Y-105228085D01*
G37*
G36*
X205501000Y-105701000D02*
G01*
X204499000Y-105701000D01*
X204499000Y-104799000D01*
X205501000Y-104799000D01*
X205501000Y-105701000D01*
G37*
G36*
X198001000Y-104901000D02*
G01*
X195599000Y-104901000D01*
X195599000Y-102499000D01*
X198001000Y-102499000D01*
X198001000Y-104901000D01*
G37*
G36*
X190901000Y-104901000D02*
G01*
X188499000Y-104901000D01*
X188499000Y-102499000D01*
X190901000Y-102499000D01*
X190901000Y-104901000D01*
G37*
G36*
X207501000Y-104751000D02*
G01*
X206499000Y-104751000D01*
X206499000Y-103849000D01*
X207501000Y-103849000D01*
X207501000Y-104751000D01*
G37*
G36*
X226841207Y-103486213D02*
G01*
X226210627Y-104264915D01*
X225354211Y-103571403D01*
X225984791Y-102792701D01*
X226841207Y-103486213D01*
G37*
G36*
X235554591Y-102978085D02*
G01*
X235588569Y-102988393D01*
X235619890Y-103005134D01*
X235647339Y-103027661D01*
X235669866Y-103055110D01*
X235686607Y-103086431D01*
X235696915Y-103120409D01*
X235701000Y-103161890D01*
X235701000Y-103838110D01*
X235696915Y-103879591D01*
X235686607Y-103913569D01*
X235669866Y-103944890D01*
X235647339Y-103972339D01*
X235619890Y-103994866D01*
X235588569Y-104011607D01*
X235554591Y-104021915D01*
X235513110Y-104026000D01*
X234911890Y-104026000D01*
X234870409Y-104021915D01*
X234836431Y-104011607D01*
X234805110Y-103994866D01*
X234777661Y-103972339D01*
X234755134Y-103944890D01*
X234738393Y-103913569D01*
X234728085Y-103879591D01*
X234724000Y-103838110D01*
X234724000Y-103161890D01*
X234728085Y-103120409D01*
X234738393Y-103086431D01*
X234755134Y-103055110D01*
X234777661Y-103027661D01*
X234805110Y-103005134D01*
X234836431Y-102988393D01*
X234870409Y-102978085D01*
X234911890Y-102974000D01*
X235513110Y-102974000D01*
X235554591Y-102978085D01*
G37*
G36*
X237129591Y-102978085D02*
G01*
X237163569Y-102988393D01*
X237194890Y-103005134D01*
X237222339Y-103027661D01*
X237244866Y-103055110D01*
X237261607Y-103086431D01*
X237271915Y-103120409D01*
X237276000Y-103161890D01*
X237276000Y-103838110D01*
X237271915Y-103879591D01*
X237261607Y-103913569D01*
X237244866Y-103944890D01*
X237222339Y-103972339D01*
X237194890Y-103994866D01*
X237163569Y-104011607D01*
X237129591Y-104021915D01*
X237088110Y-104026000D01*
X236486890Y-104026000D01*
X236445409Y-104021915D01*
X236411431Y-104011607D01*
X236380110Y-103994866D01*
X236352661Y-103972339D01*
X236330134Y-103944890D01*
X236313393Y-103913569D01*
X236303085Y-103879591D01*
X236299000Y-103838110D01*
X236299000Y-103161890D01*
X236303085Y-103120409D01*
X236313393Y-103086431D01*
X236330134Y-103055110D01*
X236352661Y-103027661D01*
X236380110Y-103005134D01*
X236411431Y-102988393D01*
X236445409Y-102978085D01*
X236486890Y-102974000D01*
X237088110Y-102974000D01*
X237129591Y-102978085D01*
G37*
G36*
X240879591Y-102803085D02*
G01*
X240913569Y-102813393D01*
X240944890Y-102830134D01*
X240972339Y-102852661D01*
X240994866Y-102880110D01*
X241011607Y-102911431D01*
X241021915Y-102945409D01*
X241026000Y-102986890D01*
X241026000Y-103588110D01*
X241021915Y-103629591D01*
X241011607Y-103663569D01*
X240994866Y-103694890D01*
X240972339Y-103722339D01*
X240944890Y-103744866D01*
X240913569Y-103761607D01*
X240879591Y-103771915D01*
X240838110Y-103776000D01*
X240161890Y-103776000D01*
X240120409Y-103771915D01*
X240086431Y-103761607D01*
X240055110Y-103744866D01*
X240027661Y-103722339D01*
X240005134Y-103694890D01*
X239988393Y-103663569D01*
X239978085Y-103629591D01*
X239974000Y-103588110D01*
X239974000Y-102986890D01*
X239978085Y-102945409D01*
X239988393Y-102911431D01*
X240005134Y-102880110D01*
X240027661Y-102852661D01*
X240055110Y-102830134D01*
X240086431Y-102813393D01*
X240120409Y-102803085D01*
X240161890Y-102799000D01*
X240838110Y-102799000D01*
X240879591Y-102803085D01*
G37*
G36*
X232879591Y-102803085D02*
G01*
X232913569Y-102813393D01*
X232944890Y-102830134D01*
X232972339Y-102852661D01*
X232994866Y-102880110D01*
X233011607Y-102911431D01*
X233021915Y-102945409D01*
X233026000Y-102986890D01*
X233026000Y-103588110D01*
X233021915Y-103629591D01*
X233011607Y-103663569D01*
X232994866Y-103694890D01*
X232972339Y-103722339D01*
X232944890Y-103744866D01*
X232913569Y-103761607D01*
X232879591Y-103771915D01*
X232838110Y-103776000D01*
X232161890Y-103776000D01*
X232120409Y-103771915D01*
X232086431Y-103761607D01*
X232055110Y-103744866D01*
X232027661Y-103722339D01*
X232005134Y-103694890D01*
X231988393Y-103663569D01*
X231978085Y-103629591D01*
X231974000Y-103588110D01*
X231974000Y-102986890D01*
X231978085Y-102945409D01*
X231988393Y-102911431D01*
X232005134Y-102880110D01*
X232027661Y-102852661D01*
X232055110Y-102830134D01*
X232086431Y-102813393D01*
X232120409Y-102803085D01*
X232161890Y-102799000D01*
X232838110Y-102799000D01*
X232879591Y-102803085D01*
G37*
G36*
X227816653Y-102281636D02*
G01*
X227186073Y-103060338D01*
X226329657Y-102366826D01*
X226960237Y-101588124D01*
X227816653Y-102281636D01*
G37*
G36*
X225170343Y-102133174D02*
G01*
X224539763Y-102911876D01*
X223683347Y-102218364D01*
X224313927Y-101439662D01*
X225170343Y-102133174D01*
G37*
G36*
X218379591Y-101553085D02*
G01*
X218413569Y-101563393D01*
X218444890Y-101580134D01*
X218472339Y-101602661D01*
X218494866Y-101630110D01*
X218511607Y-101661431D01*
X218521915Y-101695409D01*
X218526000Y-101736890D01*
X218526000Y-102338110D01*
X218521915Y-102379591D01*
X218511607Y-102413569D01*
X218494866Y-102444890D01*
X218472339Y-102472339D01*
X218444890Y-102494866D01*
X218413569Y-102511607D01*
X218379591Y-102521915D01*
X218338110Y-102526000D01*
X217661890Y-102526000D01*
X217620409Y-102521915D01*
X217586431Y-102511607D01*
X217555110Y-102494866D01*
X217527661Y-102472339D01*
X217505134Y-102444890D01*
X217488393Y-102413569D01*
X217478085Y-102379591D01*
X217474000Y-102338110D01*
X217474000Y-101736890D01*
X217478085Y-101695409D01*
X217488393Y-101661431D01*
X217505134Y-101630110D01*
X217527661Y-101602661D01*
X217555110Y-101580134D01*
X217586431Y-101563393D01*
X217620409Y-101553085D01*
X217661890Y-101549000D01*
X218338110Y-101549000D01*
X218379591Y-101553085D01*
G37*
G36*
X232879591Y-101228085D02*
G01*
X232913569Y-101238393D01*
X232944890Y-101255134D01*
X232972339Y-101277661D01*
X232994866Y-101305110D01*
X233011607Y-101336431D01*
X233021915Y-101370409D01*
X233026000Y-101411890D01*
X233026000Y-102013110D01*
X233021915Y-102054591D01*
X233011607Y-102088569D01*
X232994866Y-102119890D01*
X232972339Y-102147339D01*
X232944890Y-102169866D01*
X232913569Y-102186607D01*
X232879591Y-102196915D01*
X232838110Y-102201000D01*
X232161890Y-102201000D01*
X232120409Y-102196915D01*
X232086431Y-102186607D01*
X232055110Y-102169866D01*
X232027661Y-102147339D01*
X232005134Y-102119890D01*
X231988393Y-102088569D01*
X231978085Y-102054591D01*
X231974000Y-102013110D01*
X231974000Y-101411890D01*
X231978085Y-101370409D01*
X231988393Y-101336431D01*
X232005134Y-101305110D01*
X232027661Y-101277661D01*
X232055110Y-101255134D01*
X232086431Y-101238393D01*
X232120409Y-101228085D01*
X232161890Y-101224000D01*
X232838110Y-101224000D01*
X232879591Y-101228085D01*
G37*
G36*
X240879591Y-101228085D02*
G01*
X240913569Y-101238393D01*
X240944890Y-101255134D01*
X240972339Y-101277661D01*
X240994866Y-101305110D01*
X241011607Y-101336431D01*
X241021915Y-101370409D01*
X241026000Y-101411890D01*
X241026000Y-102013110D01*
X241021915Y-102054591D01*
X241011607Y-102088569D01*
X240994866Y-102119890D01*
X240972339Y-102147339D01*
X240944890Y-102169866D01*
X240913569Y-102186607D01*
X240879591Y-102196915D01*
X240838110Y-102201000D01*
X240161890Y-102201000D01*
X240120409Y-102196915D01*
X240086431Y-102186607D01*
X240055110Y-102169866D01*
X240027661Y-102147339D01*
X240005134Y-102119890D01*
X239988393Y-102088569D01*
X239978085Y-102054591D01*
X239974000Y-102013110D01*
X239974000Y-101411890D01*
X239978085Y-101370409D01*
X239988393Y-101336431D01*
X240005134Y-101305110D01*
X240027661Y-101277661D01*
X240055110Y-101255134D01*
X240086431Y-101238393D01*
X240120409Y-101228085D01*
X240161890Y-101224000D01*
X240838110Y-101224000D01*
X240879591Y-101228085D01*
G37*
G36*
X235554591Y-100978085D02*
G01*
X235588569Y-100988393D01*
X235619890Y-101005134D01*
X235647339Y-101027661D01*
X235669866Y-101055110D01*
X235686607Y-101086431D01*
X235696915Y-101120409D01*
X235701000Y-101161890D01*
X235701000Y-101838110D01*
X235696915Y-101879591D01*
X235686607Y-101913569D01*
X235669866Y-101944890D01*
X235647339Y-101972339D01*
X235619890Y-101994866D01*
X235588569Y-102011607D01*
X235554591Y-102021915D01*
X235513110Y-102026000D01*
X234911890Y-102026000D01*
X234870409Y-102021915D01*
X234836431Y-102011607D01*
X234805110Y-101994866D01*
X234777661Y-101972339D01*
X234755134Y-101944890D01*
X234738393Y-101913569D01*
X234728085Y-101879591D01*
X234724000Y-101838110D01*
X234724000Y-101161890D01*
X234728085Y-101120409D01*
X234738393Y-101086431D01*
X234755134Y-101055110D01*
X234777661Y-101027661D01*
X234805110Y-101005134D01*
X234836431Y-100988393D01*
X234870409Y-100978085D01*
X234911890Y-100974000D01*
X235513110Y-100974000D01*
X235554591Y-100978085D01*
G37*
G36*
X237129591Y-100978085D02*
G01*
X237163569Y-100988393D01*
X237194890Y-101005134D01*
X237222339Y-101027661D01*
X237244866Y-101055110D01*
X237261607Y-101086431D01*
X237271915Y-101120409D01*
X237276000Y-101161890D01*
X237276000Y-101838110D01*
X237271915Y-101879591D01*
X237261607Y-101913569D01*
X237244866Y-101944890D01*
X237222339Y-101972339D01*
X237194890Y-101994866D01*
X237163569Y-102011607D01*
X237129591Y-102021915D01*
X237088110Y-102026000D01*
X236486890Y-102026000D01*
X236445409Y-102021915D01*
X236411431Y-102011607D01*
X236380110Y-101994866D01*
X236352661Y-101972339D01*
X236330134Y-101944890D01*
X236313393Y-101913569D01*
X236303085Y-101879591D01*
X236299000Y-101838110D01*
X236299000Y-101161890D01*
X236303085Y-101120409D01*
X236313393Y-101086431D01*
X236330134Y-101055110D01*
X236352661Y-101027661D01*
X236380110Y-101005134D01*
X236411431Y-100988393D01*
X236445409Y-100978085D01*
X236486890Y-100974000D01*
X237088110Y-100974000D01*
X237129591Y-100978085D01*
G37*
G36*
X226145789Y-100928597D02*
G01*
X225515209Y-101707299D01*
X224658793Y-101013787D01*
X225289373Y-100235085D01*
X226145789Y-100928597D01*
G37*
G36*
X222481371Y-99983283D02*
G01*
X222514265Y-99996657D01*
X222549077Y-100019590D01*
X222592871Y-100055054D01*
X222592873Y-100055055D01*
X222595377Y-100057083D01*
X223074586Y-100445138D01*
X223104259Y-100474426D01*
X223124179Y-100503820D01*
X223137984Y-100536540D01*
X223145140Y-100571325D01*
X223145373Y-100606830D01*
X223138673Y-100641702D01*
X223125297Y-100674601D01*
X223102368Y-100709409D01*
X222724012Y-101176639D01*
X222694730Y-101206306D01*
X222665331Y-101226229D01*
X222632614Y-101240033D01*
X222597831Y-101247188D01*
X222562324Y-101247421D01*
X222527449Y-101240721D01*
X222494555Y-101227347D01*
X222459743Y-101204414D01*
X221934234Y-100778866D01*
X221904561Y-100749578D01*
X221884641Y-100720184D01*
X221870836Y-100687464D01*
X221863680Y-100652679D01*
X221863447Y-100617174D01*
X221870147Y-100582302D01*
X221883523Y-100549403D01*
X221906452Y-100514595D01*
X222284808Y-100047365D01*
X222314090Y-100017698D01*
X222343489Y-99997775D01*
X222376206Y-99983971D01*
X222410989Y-99976816D01*
X222446496Y-99976583D01*
X222481371Y-99983283D01*
G37*
G36*
X218379591Y-99978085D02*
G01*
X218413569Y-99988393D01*
X218444890Y-100005134D01*
X218472339Y-100027661D01*
X218494866Y-100055110D01*
X218511607Y-100086431D01*
X218521915Y-100120409D01*
X218526000Y-100161890D01*
X218526000Y-100763110D01*
X218521915Y-100804591D01*
X218511607Y-100838569D01*
X218494866Y-100869890D01*
X218472339Y-100897339D01*
X218444890Y-100919866D01*
X218413569Y-100936607D01*
X218379591Y-100946915D01*
X218338110Y-100951000D01*
X217661890Y-100951000D01*
X217620409Y-100946915D01*
X217586431Y-100936607D01*
X217555110Y-100919866D01*
X217527661Y-100897339D01*
X217505134Y-100869890D01*
X217488393Y-100838569D01*
X217478085Y-100804591D01*
X217474000Y-100763110D01*
X217474000Y-100161890D01*
X217478085Y-100120409D01*
X217488393Y-100086431D01*
X217505134Y-100055110D01*
X217527661Y-100027661D01*
X217555110Y-100005134D01*
X217586431Y-99988393D01*
X217620409Y-99978085D01*
X217661890Y-99974000D01*
X218338110Y-99974000D01*
X218379591Y-99978085D01*
G37*
G36*
X228391702Y-99611327D02*
G01*
X228424601Y-99624703D01*
X228459409Y-99647632D01*
X228926639Y-100025988D01*
X228956306Y-100055270D01*
X228976229Y-100084669D01*
X228990033Y-100117386D01*
X228997188Y-100152169D01*
X228997421Y-100187676D01*
X228990721Y-100222551D01*
X228977347Y-100255445D01*
X228954414Y-100290257D01*
X228918950Y-100334051D01*
X228918949Y-100334053D01*
X228914934Y-100339011D01*
X228528866Y-100815766D01*
X228499578Y-100845439D01*
X228470184Y-100865359D01*
X228437464Y-100879164D01*
X228402679Y-100886320D01*
X228367174Y-100886553D01*
X228332302Y-100879853D01*
X228299403Y-100866477D01*
X228264595Y-100843548D01*
X227797365Y-100465192D01*
X227767698Y-100435910D01*
X227747775Y-100406511D01*
X227733971Y-100373794D01*
X227726816Y-100339011D01*
X227726583Y-100303504D01*
X227733283Y-100268629D01*
X227746657Y-100235735D01*
X227769590Y-100200923D01*
X227806932Y-100154810D01*
X227916430Y-100019590D01*
X228195138Y-99675414D01*
X228224426Y-99645741D01*
X228253820Y-99625821D01*
X228286540Y-99612016D01*
X228321325Y-99604860D01*
X228356830Y-99604627D01*
X228391702Y-99611327D01*
G37*
G36*
X223472551Y-98759279D02*
G01*
X223505445Y-98772653D01*
X223540257Y-98795586D01*
X224065766Y-99221134D01*
X224095439Y-99250422D01*
X224115359Y-99279816D01*
X224129164Y-99312536D01*
X224136320Y-99347321D01*
X224136553Y-99382826D01*
X224129853Y-99417698D01*
X224116477Y-99450597D01*
X224093548Y-99485405D01*
X223715192Y-99952635D01*
X223685910Y-99982302D01*
X223656511Y-100002225D01*
X223623794Y-100016029D01*
X223589011Y-100023184D01*
X223553504Y-100023417D01*
X223518629Y-100016717D01*
X223485735Y-100003343D01*
X223450923Y-99980410D01*
X222925414Y-99554862D01*
X222895741Y-99525574D01*
X222875821Y-99496180D01*
X222862016Y-99463460D01*
X222854860Y-99428675D01*
X222854627Y-99393170D01*
X222861327Y-99358298D01*
X222874703Y-99325399D01*
X222897632Y-99290591D01*
X223275988Y-98823361D01*
X223305270Y-98793694D01*
X223334669Y-98773771D01*
X223367386Y-98759967D01*
X223402169Y-98752812D01*
X223437676Y-98752579D01*
X223472551Y-98759279D01*
G37*
G36*
X227167698Y-98620147D02*
G01*
X227200597Y-98633523D01*
X227235405Y-98656452D01*
X227702635Y-99034808D01*
X227732302Y-99064090D01*
X227752225Y-99093489D01*
X227766029Y-99126206D01*
X227773184Y-99160989D01*
X227773417Y-99196496D01*
X227766717Y-99231371D01*
X227753343Y-99264265D01*
X227730410Y-99299077D01*
X227694946Y-99342871D01*
X227694945Y-99342873D01*
X227636270Y-99415331D01*
X227304862Y-99824586D01*
X227275574Y-99854259D01*
X227246180Y-99874179D01*
X227213460Y-99887984D01*
X227178675Y-99895140D01*
X227143170Y-99895373D01*
X227108298Y-99888673D01*
X227075399Y-99875297D01*
X227040591Y-99852368D01*
X226573361Y-99474012D01*
X226543694Y-99444730D01*
X226523771Y-99415331D01*
X226509967Y-99382614D01*
X226502812Y-99347831D01*
X226502579Y-99312324D01*
X226509279Y-99277449D01*
X226522653Y-99244555D01*
X226545586Y-99209743D01*
X226582928Y-99163630D01*
X226715964Y-98999343D01*
X226971134Y-98684234D01*
X227000422Y-98654561D01*
X227029816Y-98634641D01*
X227062536Y-98620836D01*
X227097321Y-98613680D01*
X227132826Y-98613447D01*
X227167698Y-98620147D01*
G37*
G36*
X181879591Y-96303085D02*
G01*
X181913569Y-96313393D01*
X181944890Y-96330134D01*
X181972339Y-96352661D01*
X181994866Y-96380110D01*
X182011607Y-96411431D01*
X182021915Y-96445409D01*
X182026000Y-96486890D01*
X182026000Y-97088110D01*
X182021915Y-97129591D01*
X182011607Y-97163569D01*
X181994866Y-97194890D01*
X181972339Y-97222339D01*
X181944890Y-97244866D01*
X181913569Y-97261607D01*
X181879591Y-97271915D01*
X181838110Y-97276000D01*
X181161890Y-97276000D01*
X181120409Y-97271915D01*
X181086431Y-97261607D01*
X181055110Y-97244866D01*
X181027661Y-97222339D01*
X181005134Y-97194890D01*
X180988393Y-97163569D01*
X180978085Y-97129591D01*
X180974000Y-97088110D01*
X180974000Y-96486890D01*
X180978085Y-96445409D01*
X180988393Y-96411431D01*
X181005134Y-96380110D01*
X181027661Y-96352661D01*
X181055110Y-96330134D01*
X181086431Y-96313393D01*
X181120409Y-96303085D01*
X181161890Y-96299000D01*
X181838110Y-96299000D01*
X181879591Y-96303085D01*
G37*
G36*
X184879591Y-96303085D02*
G01*
X184913569Y-96313393D01*
X184944890Y-96330134D01*
X184972339Y-96352661D01*
X184994866Y-96380110D01*
X185011607Y-96411431D01*
X185021915Y-96445409D01*
X185026000Y-96486890D01*
X185026000Y-97088110D01*
X185021915Y-97129591D01*
X185011607Y-97163569D01*
X184994866Y-97194890D01*
X184972339Y-97222339D01*
X184944890Y-97244866D01*
X184913569Y-97261607D01*
X184879591Y-97271915D01*
X184838110Y-97276000D01*
X184161890Y-97276000D01*
X184120409Y-97271915D01*
X184086431Y-97261607D01*
X184055110Y-97244866D01*
X184027661Y-97222339D01*
X184005134Y-97194890D01*
X183988393Y-97163569D01*
X183978085Y-97129591D01*
X183974000Y-97088110D01*
X183974000Y-96486890D01*
X183978085Y-96445409D01*
X183988393Y-96411431D01*
X184005134Y-96380110D01*
X184027661Y-96352661D01*
X184055110Y-96330134D01*
X184086431Y-96313393D01*
X184120409Y-96303085D01*
X184161890Y-96299000D01*
X184838110Y-96299000D01*
X184879591Y-96303085D01*
G37*
G36*
X220231981Y-95237468D02*
G01*
X220414151Y-95312926D01*
X220578100Y-95422473D01*
X220717527Y-95561900D01*
X220807741Y-95696915D01*
X220827075Y-95725851D01*
X220902532Y-95908020D01*
X220941000Y-96101409D01*
X220941000Y-96298591D01*
X220930245Y-96352661D01*
X220902532Y-96491981D01*
X220827074Y-96674151D01*
X220717527Y-96838100D01*
X220578100Y-96977527D01*
X220414151Y-97087074D01*
X220231981Y-97162532D01*
X220135285Y-97181766D01*
X220038591Y-97201000D01*
X219841409Y-97201000D01*
X219744715Y-97181766D01*
X219648019Y-97162532D01*
X219465849Y-97087074D01*
X219301900Y-96977527D01*
X219162473Y-96838100D01*
X219052926Y-96674151D01*
X218977468Y-96491981D01*
X218949755Y-96352661D01*
X218939000Y-96298591D01*
X218939000Y-96101409D01*
X218977468Y-95908020D01*
X219052925Y-95725851D01*
X219072259Y-95696915D01*
X219162473Y-95561900D01*
X219301900Y-95422473D01*
X219465849Y-95312926D01*
X219648019Y-95237468D01*
X219841409Y-95199000D01*
X220038591Y-95199000D01*
X220231981Y-95237468D01*
G37*
G36*
X204991981Y-95237468D02*
G01*
X205174151Y-95312926D01*
X205338100Y-95422473D01*
X205477527Y-95561900D01*
X205567741Y-95696915D01*
X205587075Y-95725851D01*
X205662532Y-95908020D01*
X205701000Y-96101409D01*
X205701000Y-96298591D01*
X205690245Y-96352661D01*
X205662532Y-96491981D01*
X205587074Y-96674151D01*
X205477527Y-96838100D01*
X205338100Y-96977527D01*
X205174151Y-97087074D01*
X204991981Y-97162532D01*
X204895285Y-97181766D01*
X204798591Y-97201000D01*
X204601409Y-97201000D01*
X204504715Y-97181766D01*
X204408019Y-97162532D01*
X204225849Y-97087074D01*
X204061900Y-96977527D01*
X203922473Y-96838100D01*
X203812926Y-96674151D01*
X203737468Y-96491981D01*
X203709755Y-96352661D01*
X203699000Y-96298591D01*
X203699000Y-96101409D01*
X203737468Y-95908020D01*
X203812925Y-95725851D01*
X203832259Y-95696915D01*
X203922473Y-95561900D01*
X204061900Y-95422473D01*
X204225849Y-95312926D01*
X204408019Y-95237468D01*
X204601409Y-95199000D01*
X204798591Y-95199000D01*
X204991981Y-95237468D01*
G37*
G36*
X202451981Y-95237468D02*
G01*
X202634151Y-95312926D01*
X202798100Y-95422473D01*
X202937527Y-95561900D01*
X203027741Y-95696915D01*
X203047075Y-95725851D01*
X203122532Y-95908020D01*
X203161000Y-96101409D01*
X203161000Y-96298591D01*
X203150245Y-96352661D01*
X203122532Y-96491981D01*
X203047074Y-96674151D01*
X202937527Y-96838100D01*
X202798100Y-96977527D01*
X202634151Y-97087074D01*
X202451981Y-97162532D01*
X202355285Y-97181766D01*
X202258591Y-97201000D01*
X202061409Y-97201000D01*
X201964715Y-97181766D01*
X201868019Y-97162532D01*
X201685849Y-97087074D01*
X201521900Y-96977527D01*
X201382473Y-96838100D01*
X201272926Y-96674151D01*
X201197468Y-96491981D01*
X201169755Y-96352661D01*
X201159000Y-96298591D01*
X201159000Y-96101409D01*
X201197468Y-95908020D01*
X201272925Y-95725851D01*
X201292259Y-95696915D01*
X201382473Y-95561900D01*
X201521900Y-95422473D01*
X201685849Y-95312926D01*
X201868019Y-95237468D01*
X202061409Y-95199000D01*
X202258591Y-95199000D01*
X202451981Y-95237468D01*
G37*
G36*
X199911981Y-95237468D02*
G01*
X200094151Y-95312926D01*
X200258100Y-95422473D01*
X200397527Y-95561900D01*
X200487741Y-95696915D01*
X200507075Y-95725851D01*
X200582532Y-95908020D01*
X200621000Y-96101409D01*
X200621000Y-96298591D01*
X200610245Y-96352661D01*
X200582532Y-96491981D01*
X200507074Y-96674151D01*
X200397527Y-96838100D01*
X200258100Y-96977527D01*
X200094151Y-97087074D01*
X199911981Y-97162532D01*
X199815285Y-97181766D01*
X199718591Y-97201000D01*
X199521409Y-97201000D01*
X199424715Y-97181766D01*
X199328019Y-97162532D01*
X199145849Y-97087074D01*
X198981900Y-96977527D01*
X198842473Y-96838100D01*
X198732926Y-96674151D01*
X198657468Y-96491981D01*
X198629755Y-96352661D01*
X198619000Y-96298591D01*
X198619000Y-96101409D01*
X198657468Y-95908020D01*
X198732925Y-95725851D01*
X198752259Y-95696915D01*
X198842473Y-95561900D01*
X198981900Y-95422473D01*
X199145849Y-95312926D01*
X199328019Y-95237468D01*
X199521409Y-95199000D01*
X199718591Y-95199000D01*
X199911981Y-95237468D01*
G37*
G36*
X197371981Y-95237468D02*
G01*
X197554151Y-95312926D01*
X197718100Y-95422473D01*
X197857527Y-95561900D01*
X197947741Y-95696915D01*
X197967075Y-95725851D01*
X198042532Y-95908020D01*
X198081000Y-96101409D01*
X198081000Y-96298591D01*
X198070245Y-96352661D01*
X198042532Y-96491981D01*
X197967074Y-96674151D01*
X197857527Y-96838100D01*
X197718100Y-96977527D01*
X197554151Y-97087074D01*
X197371981Y-97162532D01*
X197275285Y-97181766D01*
X197178591Y-97201000D01*
X196981409Y-97201000D01*
X196884715Y-97181766D01*
X196788019Y-97162532D01*
X196605849Y-97087074D01*
X196441900Y-96977527D01*
X196302473Y-96838100D01*
X196192926Y-96674151D01*
X196117468Y-96491981D01*
X196089755Y-96352661D01*
X196079000Y-96298591D01*
X196079000Y-96101409D01*
X196117468Y-95908020D01*
X196192925Y-95725851D01*
X196212259Y-95696915D01*
X196302473Y-95561900D01*
X196441900Y-95422473D01*
X196605849Y-95312926D01*
X196788019Y-95237468D01*
X196981409Y-95199000D01*
X197178591Y-95199000D01*
X197371981Y-95237468D01*
G37*
G36*
X194831981Y-95237468D02*
G01*
X195014151Y-95312926D01*
X195178100Y-95422473D01*
X195317527Y-95561900D01*
X195407741Y-95696915D01*
X195427075Y-95725851D01*
X195502532Y-95908020D01*
X195541000Y-96101409D01*
X195541000Y-96298591D01*
X195530245Y-96352661D01*
X195502532Y-96491981D01*
X195427074Y-96674151D01*
X195317527Y-96838100D01*
X195178100Y-96977527D01*
X195014151Y-97087074D01*
X194831981Y-97162532D01*
X194735285Y-97181766D01*
X194638591Y-97201000D01*
X194441409Y-97201000D01*
X194344715Y-97181766D01*
X194248019Y-97162532D01*
X194065849Y-97087074D01*
X193901900Y-96977527D01*
X193762473Y-96838100D01*
X193652926Y-96674151D01*
X193577468Y-96491981D01*
X193549755Y-96352661D01*
X193539000Y-96298591D01*
X193539000Y-96101409D01*
X193577468Y-95908020D01*
X193652925Y-95725851D01*
X193672259Y-95696915D01*
X193762473Y-95561900D01*
X193901900Y-95422473D01*
X194065849Y-95312926D01*
X194248019Y-95237468D01*
X194441409Y-95199000D01*
X194638591Y-95199000D01*
X194831981Y-95237468D01*
G37*
G36*
X207531981Y-95237468D02*
G01*
X207714151Y-95312926D01*
X207878100Y-95422473D01*
X208017527Y-95561900D01*
X208107741Y-95696915D01*
X208127075Y-95725851D01*
X208202532Y-95908020D01*
X208241000Y-96101409D01*
X208241000Y-96298591D01*
X208230245Y-96352661D01*
X208202532Y-96491981D01*
X208127074Y-96674151D01*
X208017527Y-96838100D01*
X207878100Y-96977527D01*
X207714151Y-97087074D01*
X207531981Y-97162532D01*
X207435285Y-97181766D01*
X207338591Y-97201000D01*
X207141409Y-97201000D01*
X207044715Y-97181766D01*
X206948019Y-97162532D01*
X206765849Y-97087074D01*
X206601900Y-96977527D01*
X206462473Y-96838100D01*
X206352926Y-96674151D01*
X206277468Y-96491981D01*
X206249755Y-96352661D01*
X206239000Y-96298591D01*
X206239000Y-96101409D01*
X206277468Y-95908020D01*
X206352925Y-95725851D01*
X206372259Y-95696915D01*
X206462473Y-95561900D01*
X206601900Y-95422473D01*
X206765849Y-95312926D01*
X206948019Y-95237468D01*
X207141409Y-95199000D01*
X207338591Y-95199000D01*
X207531981Y-95237468D01*
G37*
G36*
X210071981Y-95237468D02*
G01*
X210254151Y-95312926D01*
X210418100Y-95422473D01*
X210557527Y-95561900D01*
X210647741Y-95696915D01*
X210667075Y-95725851D01*
X210742532Y-95908020D01*
X210781000Y-96101409D01*
X210781000Y-96298591D01*
X210770245Y-96352661D01*
X210742532Y-96491981D01*
X210667074Y-96674151D01*
X210557527Y-96838100D01*
X210418100Y-96977527D01*
X210254151Y-97087074D01*
X210071981Y-97162532D01*
X209975285Y-97181766D01*
X209878591Y-97201000D01*
X209681409Y-97201000D01*
X209584715Y-97181766D01*
X209488019Y-97162532D01*
X209305849Y-97087074D01*
X209141900Y-96977527D01*
X209002473Y-96838100D01*
X208892926Y-96674151D01*
X208817468Y-96491981D01*
X208789755Y-96352661D01*
X208779000Y-96298591D01*
X208779000Y-96101409D01*
X208817468Y-95908020D01*
X208892925Y-95725851D01*
X208912259Y-95696915D01*
X209002473Y-95561900D01*
X209141900Y-95422473D01*
X209305849Y-95312926D01*
X209488019Y-95237468D01*
X209681409Y-95199000D01*
X209878591Y-95199000D01*
X210071981Y-95237468D01*
G37*
G36*
X212611981Y-95237468D02*
G01*
X212794151Y-95312926D01*
X212958100Y-95422473D01*
X213097527Y-95561900D01*
X213187741Y-95696915D01*
X213207075Y-95725851D01*
X213282532Y-95908020D01*
X213321000Y-96101409D01*
X213321000Y-96298591D01*
X213310245Y-96352661D01*
X213282532Y-96491981D01*
X213207074Y-96674151D01*
X213097527Y-96838100D01*
X212958100Y-96977527D01*
X212794151Y-97087074D01*
X212611981Y-97162532D01*
X212515285Y-97181766D01*
X212418591Y-97201000D01*
X212221409Y-97201000D01*
X212124715Y-97181766D01*
X212028019Y-97162532D01*
X211845849Y-97087074D01*
X211681900Y-96977527D01*
X211542473Y-96838100D01*
X211432926Y-96674151D01*
X211357468Y-96491981D01*
X211329755Y-96352661D01*
X211319000Y-96298591D01*
X211319000Y-96101409D01*
X211357468Y-95908020D01*
X211432925Y-95725851D01*
X211452259Y-95696915D01*
X211542473Y-95561900D01*
X211681900Y-95422473D01*
X211845849Y-95312926D01*
X212028019Y-95237468D01*
X212221409Y-95199000D01*
X212418591Y-95199000D01*
X212611981Y-95237468D01*
G37*
G36*
X217691981Y-95237468D02*
G01*
X217874151Y-95312926D01*
X218038100Y-95422473D01*
X218177527Y-95561900D01*
X218267741Y-95696915D01*
X218287075Y-95725851D01*
X218362532Y-95908020D01*
X218401000Y-96101409D01*
X218401000Y-96298591D01*
X218390245Y-96352661D01*
X218362532Y-96491981D01*
X218287074Y-96674151D01*
X218177527Y-96838100D01*
X218038100Y-96977527D01*
X217874151Y-97087074D01*
X217691981Y-97162532D01*
X217595285Y-97181766D01*
X217498591Y-97201000D01*
X217301409Y-97201000D01*
X217204715Y-97181766D01*
X217108019Y-97162532D01*
X216925849Y-97087074D01*
X216761900Y-96977527D01*
X216622473Y-96838100D01*
X216512926Y-96674151D01*
X216437468Y-96491981D01*
X216409755Y-96352661D01*
X216399000Y-96298591D01*
X216399000Y-96101409D01*
X216437468Y-95908020D01*
X216512925Y-95725851D01*
X216532259Y-95696915D01*
X216622473Y-95561900D01*
X216761900Y-95422473D01*
X216925849Y-95312926D01*
X217108019Y-95237468D01*
X217301409Y-95199000D01*
X217498591Y-95199000D01*
X217691981Y-95237468D01*
G37*
G36*
X227851981Y-95237468D02*
G01*
X228034151Y-95312926D01*
X228198100Y-95422473D01*
X228337527Y-95561900D01*
X228427741Y-95696915D01*
X228447075Y-95725851D01*
X228522532Y-95908020D01*
X228561000Y-96101409D01*
X228561000Y-96298591D01*
X228550245Y-96352661D01*
X228522532Y-96491981D01*
X228447074Y-96674151D01*
X228337527Y-96838100D01*
X228198100Y-96977527D01*
X228034151Y-97087074D01*
X227851981Y-97162532D01*
X227755285Y-97181766D01*
X227658591Y-97201000D01*
X227461409Y-97201000D01*
X227364715Y-97181766D01*
X227268019Y-97162532D01*
X227085849Y-97087074D01*
X226921900Y-96977527D01*
X226782473Y-96838100D01*
X226672926Y-96674151D01*
X226597468Y-96491981D01*
X226569755Y-96352661D01*
X226559000Y-96298591D01*
X226559000Y-96101409D01*
X226597468Y-95908020D01*
X226672925Y-95725851D01*
X226692259Y-95696915D01*
X226782473Y-95561900D01*
X226921900Y-95422473D01*
X227085849Y-95312926D01*
X227268019Y-95237468D01*
X227461409Y-95199000D01*
X227658591Y-95199000D01*
X227851981Y-95237468D01*
G37*
G36*
X225311981Y-95237468D02*
G01*
X225494151Y-95312926D01*
X225658100Y-95422473D01*
X225797527Y-95561900D01*
X225887741Y-95696915D01*
X225907075Y-95725851D01*
X225982532Y-95908020D01*
X226021000Y-96101409D01*
X226021000Y-96298591D01*
X226010245Y-96352661D01*
X225982532Y-96491981D01*
X225907074Y-96674151D01*
X225797527Y-96838100D01*
X225658100Y-96977527D01*
X225494151Y-97087074D01*
X225311981Y-97162532D01*
X225215285Y-97181766D01*
X225118591Y-97201000D01*
X224921409Y-97201000D01*
X224824715Y-97181766D01*
X224728019Y-97162532D01*
X224545849Y-97087074D01*
X224381900Y-96977527D01*
X224242473Y-96838100D01*
X224132926Y-96674151D01*
X224057468Y-96491981D01*
X224029755Y-96352661D01*
X224019000Y-96298591D01*
X224019000Y-96101409D01*
X224057468Y-95908020D01*
X224132925Y-95725851D01*
X224152259Y-95696915D01*
X224242473Y-95561900D01*
X224381900Y-95422473D01*
X224545849Y-95312926D01*
X224728019Y-95237468D01*
X224921409Y-95199000D01*
X225118591Y-95199000D01*
X225311981Y-95237468D01*
G37*
G36*
X222771981Y-95237468D02*
G01*
X222954151Y-95312926D01*
X223118100Y-95422473D01*
X223257527Y-95561900D01*
X223347741Y-95696915D01*
X223367075Y-95725851D01*
X223442532Y-95908020D01*
X223481000Y-96101409D01*
X223481000Y-96298591D01*
X223470245Y-96352661D01*
X223442532Y-96491981D01*
X223367074Y-96674151D01*
X223257527Y-96838100D01*
X223118100Y-96977527D01*
X222954151Y-97087074D01*
X222771981Y-97162532D01*
X222675285Y-97181766D01*
X222578591Y-97201000D01*
X222381409Y-97201000D01*
X222284715Y-97181766D01*
X222188019Y-97162532D01*
X222005849Y-97087074D01*
X221841900Y-96977527D01*
X221702473Y-96838100D01*
X221592926Y-96674151D01*
X221517468Y-96491981D01*
X221489755Y-96352661D01*
X221479000Y-96298591D01*
X221479000Y-96101409D01*
X221517468Y-95908020D01*
X221592925Y-95725851D01*
X221612259Y-95696915D01*
X221702473Y-95561900D01*
X221841900Y-95422473D01*
X222005849Y-95312926D01*
X222188019Y-95237468D01*
X222381409Y-95199000D01*
X222578591Y-95199000D01*
X222771981Y-95237468D01*
G37*
G36*
X215151981Y-95237468D02*
G01*
X215334151Y-95312926D01*
X215498100Y-95422473D01*
X215637527Y-95561900D01*
X215727741Y-95696915D01*
X215747075Y-95725851D01*
X215822532Y-95908020D01*
X215861000Y-96101409D01*
X215861000Y-96298591D01*
X215850245Y-96352661D01*
X215822532Y-96491981D01*
X215747074Y-96674151D01*
X215637527Y-96838100D01*
X215498100Y-96977527D01*
X215334151Y-97087074D01*
X215151981Y-97162532D01*
X215055285Y-97181766D01*
X214958591Y-97201000D01*
X214761409Y-97201000D01*
X214664715Y-97181766D01*
X214568019Y-97162532D01*
X214385849Y-97087074D01*
X214221900Y-96977527D01*
X214082473Y-96838100D01*
X213972926Y-96674151D01*
X213897468Y-96491981D01*
X213869755Y-96352661D01*
X213859000Y-96298591D01*
X213859000Y-96101409D01*
X213897468Y-95908020D01*
X213972925Y-95725851D01*
X213992259Y-95696915D01*
X214082473Y-95561900D01*
X214221900Y-95422473D01*
X214385849Y-95312926D01*
X214568019Y-95237468D01*
X214761409Y-95199000D01*
X214958591Y-95199000D01*
X215151981Y-95237468D01*
G37*
G36*
X192901000Y-97101000D02*
G01*
X191099000Y-97101000D01*
X191099000Y-95299000D01*
X192901000Y-95299000D01*
X192901000Y-97101000D01*
G37*
G36*
X184879591Y-94728085D02*
G01*
X184913569Y-94738393D01*
X184944890Y-94755134D01*
X184972339Y-94777661D01*
X184994866Y-94805110D01*
X185011607Y-94836431D01*
X185021915Y-94870409D01*
X185026000Y-94911890D01*
X185026000Y-95513110D01*
X185021915Y-95554591D01*
X185011607Y-95588569D01*
X184994866Y-95619890D01*
X184972339Y-95647339D01*
X184944890Y-95669866D01*
X184913569Y-95686607D01*
X184879591Y-95696915D01*
X184838110Y-95701000D01*
X184161890Y-95701000D01*
X184120409Y-95696915D01*
X184086431Y-95686607D01*
X184055110Y-95669866D01*
X184027661Y-95647339D01*
X184005134Y-95619890D01*
X183988393Y-95588569D01*
X183978085Y-95554591D01*
X183974000Y-95513110D01*
X183974000Y-94911890D01*
X183978085Y-94870409D01*
X183988393Y-94836431D01*
X184005134Y-94805110D01*
X184027661Y-94777661D01*
X184055110Y-94755134D01*
X184086431Y-94738393D01*
X184120409Y-94728085D01*
X184161890Y-94724000D01*
X184838110Y-94724000D01*
X184879591Y-94728085D01*
G37*
G36*
X181879591Y-94728085D02*
G01*
X181913569Y-94738393D01*
X181944890Y-94755134D01*
X181972339Y-94777661D01*
X181994866Y-94805110D01*
X182011607Y-94836431D01*
X182021915Y-94870409D01*
X182026000Y-94911890D01*
X182026000Y-95513110D01*
X182021915Y-95554591D01*
X182011607Y-95588569D01*
X181994866Y-95619890D01*
X181972339Y-95647339D01*
X181944890Y-95669866D01*
X181913569Y-95686607D01*
X181879591Y-95696915D01*
X181838110Y-95701000D01*
X181161890Y-95701000D01*
X181120409Y-95696915D01*
X181086431Y-95686607D01*
X181055110Y-95669866D01*
X181027661Y-95647339D01*
X181005134Y-95619890D01*
X180988393Y-95588569D01*
X180978085Y-95554591D01*
X180974000Y-95513110D01*
X180974000Y-94911890D01*
X180978085Y-94870409D01*
X180988393Y-94836431D01*
X181005134Y-94805110D01*
X181027661Y-94777661D01*
X181055110Y-94755134D01*
X181086431Y-94738393D01*
X181120409Y-94728085D01*
X181161890Y-94724000D01*
X181838110Y-94724000D01*
X181879591Y-94728085D01*
G37*
G36*
X184371968Y-91253565D02*
G01*
X184410638Y-91265296D01*
X184446277Y-91284346D01*
X184477517Y-91309983D01*
X184503154Y-91341223D01*
X184522204Y-91376862D01*
X184533935Y-91415532D01*
X184538500Y-91461888D01*
X184538500Y-92538112D01*
X184533935Y-92584468D01*
X184522204Y-92623138D01*
X184503154Y-92658777D01*
X184477517Y-92690017D01*
X184446277Y-92715654D01*
X184410638Y-92734704D01*
X184371968Y-92746435D01*
X184325612Y-92751000D01*
X183674388Y-92751000D01*
X183628032Y-92746435D01*
X183589362Y-92734704D01*
X183553723Y-92715654D01*
X183522483Y-92690017D01*
X183496846Y-92658777D01*
X183477796Y-92623138D01*
X183466065Y-92584468D01*
X183461500Y-92538112D01*
X183461500Y-91461888D01*
X183466065Y-91415532D01*
X183477796Y-91376862D01*
X183496846Y-91341223D01*
X183522483Y-91309983D01*
X183553723Y-91284346D01*
X183589362Y-91265296D01*
X183628032Y-91253565D01*
X183674388Y-91249000D01*
X184325612Y-91249000D01*
X184371968Y-91253565D01*
G37*
G36*
X182496968Y-91253565D02*
G01*
X182535638Y-91265296D01*
X182571277Y-91284346D01*
X182602517Y-91309983D01*
X182628154Y-91341223D01*
X182647204Y-91376862D01*
X182658935Y-91415532D01*
X182663500Y-91461888D01*
X182663500Y-92538112D01*
X182658935Y-92584468D01*
X182647204Y-92623138D01*
X182628154Y-92658777D01*
X182602517Y-92690017D01*
X182571277Y-92715654D01*
X182535638Y-92734704D01*
X182496968Y-92746435D01*
X182450612Y-92751000D01*
X181799388Y-92751000D01*
X181753032Y-92746435D01*
X181714362Y-92734704D01*
X181678723Y-92715654D01*
X181647483Y-92690017D01*
X181621846Y-92658777D01*
X181602796Y-92623138D01*
X181591065Y-92584468D01*
X181586500Y-92538112D01*
X181586500Y-91461888D01*
X181591065Y-91415532D01*
X181602796Y-91376862D01*
X181621846Y-91341223D01*
X181647483Y-91309983D01*
X181678723Y-91284346D01*
X181714362Y-91265296D01*
X181753032Y-91253565D01*
X181799388Y-91249000D01*
X182450612Y-91249000D01*
X182496968Y-91253565D01*
G37*
G36*
X184179591Y-80303085D02*
G01*
X184213569Y-80313393D01*
X184244890Y-80330134D01*
X184272339Y-80352661D01*
X184294866Y-80380110D01*
X184311607Y-80411431D01*
X184321915Y-80445409D01*
X184326000Y-80486890D01*
X184326000Y-81088110D01*
X184321915Y-81129591D01*
X184311607Y-81163569D01*
X184294866Y-81194890D01*
X184272339Y-81222339D01*
X184244890Y-81244866D01*
X184213569Y-81261607D01*
X184179591Y-81271915D01*
X184138110Y-81276000D01*
X183461890Y-81276000D01*
X183420409Y-81271915D01*
X183386431Y-81261607D01*
X183355110Y-81244866D01*
X183327661Y-81222339D01*
X183305134Y-81194890D01*
X183288393Y-81163569D01*
X183278085Y-81129591D01*
X183274000Y-81088110D01*
X183274000Y-80486890D01*
X183278085Y-80445409D01*
X183288393Y-80411431D01*
X183305134Y-80380110D01*
X183327661Y-80352661D01*
X183355110Y-80330134D01*
X183386431Y-80313393D01*
X183420409Y-80303085D01*
X183461890Y-80299000D01*
X184138110Y-80299000D01*
X184179591Y-80303085D01*
G37*
G36*
X184179591Y-78728085D02*
G01*
X184213569Y-78738393D01*
X184244890Y-78755134D01*
X184272339Y-78777661D01*
X184294866Y-78805110D01*
X184311607Y-78836431D01*
X184321915Y-78870409D01*
X184326000Y-78911890D01*
X184326000Y-79513110D01*
X184321915Y-79554591D01*
X184311607Y-79588569D01*
X184294866Y-79619890D01*
X184272339Y-79647339D01*
X184244890Y-79669866D01*
X184213569Y-79686607D01*
X184179591Y-79696915D01*
X184138110Y-79701000D01*
X183461890Y-79701000D01*
X183420409Y-79696915D01*
X183386431Y-79686607D01*
X183355110Y-79669866D01*
X183327661Y-79647339D01*
X183305134Y-79619890D01*
X183288393Y-79588569D01*
X183278085Y-79554591D01*
X183274000Y-79513110D01*
X183274000Y-78911890D01*
X183278085Y-78870409D01*
X183288393Y-78836431D01*
X183305134Y-78805110D01*
X183327661Y-78777661D01*
X183355110Y-78755134D01*
X183386431Y-78738393D01*
X183420409Y-78728085D01*
X183461890Y-78724000D01*
X184138110Y-78724000D01*
X184179591Y-78728085D01*
G37*
G36*
X184129591Y-75478085D02*
G01*
X184163569Y-75488393D01*
X184194890Y-75505134D01*
X184222339Y-75527661D01*
X184244866Y-75555110D01*
X184261607Y-75586431D01*
X184271915Y-75620409D01*
X184276000Y-75661890D01*
X184276000Y-76338110D01*
X184271915Y-76379591D01*
X184261607Y-76413569D01*
X184244866Y-76444890D01*
X184222339Y-76472339D01*
X184194890Y-76494866D01*
X184163569Y-76511607D01*
X184129591Y-76521915D01*
X184088110Y-76526000D01*
X183486890Y-76526000D01*
X183445409Y-76521915D01*
X183411431Y-76511607D01*
X183380110Y-76494866D01*
X183352661Y-76472339D01*
X183330134Y-76444890D01*
X183313393Y-76413569D01*
X183303085Y-76379591D01*
X183299000Y-76338110D01*
X183299000Y-75661890D01*
X183303085Y-75620409D01*
X183313393Y-75586431D01*
X183330134Y-75555110D01*
X183352661Y-75527661D01*
X183380110Y-75505134D01*
X183411431Y-75488393D01*
X183445409Y-75478085D01*
X183486890Y-75474000D01*
X184088110Y-75474000D01*
X184129591Y-75478085D01*
G37*
G36*
X182554591Y-75478085D02*
G01*
X182588569Y-75488393D01*
X182619890Y-75505134D01*
X182647339Y-75527661D01*
X182669866Y-75555110D01*
X182686607Y-75586431D01*
X182696915Y-75620409D01*
X182701000Y-75661890D01*
X182701000Y-76338110D01*
X182696915Y-76379591D01*
X182686607Y-76413569D01*
X182669866Y-76444890D01*
X182647339Y-76472339D01*
X182619890Y-76494866D01*
X182588569Y-76511607D01*
X182554591Y-76521915D01*
X182513110Y-76526000D01*
X181911890Y-76526000D01*
X181870409Y-76521915D01*
X181836431Y-76511607D01*
X181805110Y-76494866D01*
X181777661Y-76472339D01*
X181755134Y-76444890D01*
X181738393Y-76413569D01*
X181728085Y-76379591D01*
X181724000Y-76338110D01*
X181724000Y-75661890D01*
X181728085Y-75620409D01*
X181738393Y-75586431D01*
X181755134Y-75555110D01*
X181777661Y-75527661D01*
X181805110Y-75505134D01*
X181836431Y-75488393D01*
X181870409Y-75478085D01*
X181911890Y-75474000D01*
X182513110Y-75474000D01*
X182554591Y-75478085D01*
G37*
G36*
X246918081Y-75293809D02*
G01*
X247018355Y-75335344D01*
X247018356Y-75335345D01*
X247108602Y-75395645D01*
X247185350Y-75472393D01*
X247189153Y-75478085D01*
X247245651Y-75562640D01*
X247287186Y-75662914D01*
X247308360Y-75769365D01*
X247308360Y-75877905D01*
X247287186Y-75984356D01*
X247245651Y-76084630D01*
X247245650Y-76084631D01*
X247185350Y-76174877D01*
X247108602Y-76251625D01*
X247063516Y-76281750D01*
X247018355Y-76311926D01*
X246918081Y-76353461D01*
X246811630Y-76374635D01*
X246703090Y-76374635D01*
X246596639Y-76353461D01*
X246496365Y-76311926D01*
X246451204Y-76281750D01*
X246406118Y-76251625D01*
X246329370Y-76174877D01*
X246269070Y-76084631D01*
X246269069Y-76084630D01*
X246227534Y-75984356D01*
X246206360Y-75877905D01*
X246206360Y-75769365D01*
X246227534Y-75662914D01*
X246269069Y-75562640D01*
X246325567Y-75478085D01*
X246329370Y-75472393D01*
X246406118Y-75395645D01*
X246496364Y-75335345D01*
X246496365Y-75335344D01*
X246596639Y-75293809D01*
X246703090Y-75272635D01*
X246811630Y-75272635D01*
X246918081Y-75293809D01*
G37*
G36*
X247136951Y-73126720D02*
G01*
X247170929Y-73137028D01*
X247202250Y-73153769D01*
X247229699Y-73176296D01*
X247252226Y-73203745D01*
X247268967Y-73235066D01*
X247279275Y-73269044D01*
X247283360Y-73310525D01*
X247283360Y-73911745D01*
X247279275Y-73953226D01*
X247268967Y-73987204D01*
X247252226Y-74018525D01*
X247229699Y-74045974D01*
X247202250Y-74068501D01*
X247170929Y-74085242D01*
X247136951Y-74095550D01*
X247095470Y-74099635D01*
X246419250Y-74099635D01*
X246377769Y-74095550D01*
X246343791Y-74085242D01*
X246312470Y-74068501D01*
X246285021Y-74045974D01*
X246262494Y-74018525D01*
X246245753Y-73987204D01*
X246235445Y-73953226D01*
X246231360Y-73911745D01*
X246231360Y-73310525D01*
X246235445Y-73269044D01*
X246245753Y-73235066D01*
X246262494Y-73203745D01*
X246285021Y-73176296D01*
X246312470Y-73153769D01*
X246343791Y-73137028D01*
X246377769Y-73126720D01*
X246419250Y-73122635D01*
X247095470Y-73122635D01*
X247136951Y-73126720D01*
G37*
G36*
X247136951Y-71551720D02*
G01*
X247170929Y-71562028D01*
X247202250Y-71578769D01*
X247229699Y-71601296D01*
X247252226Y-71628745D01*
X247268967Y-71660066D01*
X247279275Y-71694044D01*
X247283360Y-71735525D01*
X247283360Y-72336745D01*
X247279275Y-72378226D01*
X247268967Y-72412204D01*
X247252226Y-72443525D01*
X247229699Y-72470974D01*
X247202250Y-72493501D01*
X247170929Y-72510242D01*
X247136951Y-72520550D01*
X247095470Y-72524635D01*
X246419250Y-72524635D01*
X246377769Y-72520550D01*
X246343791Y-72510242D01*
X246312470Y-72493501D01*
X246285021Y-72470974D01*
X246262494Y-72443525D01*
X246245753Y-72412204D01*
X246235445Y-72378226D01*
X246231360Y-72336745D01*
X246231360Y-71735525D01*
X246235445Y-71694044D01*
X246245753Y-71660066D01*
X246262494Y-71628745D01*
X246285021Y-71601296D01*
X246312470Y-71578769D01*
X246343791Y-71562028D01*
X246377769Y-71551720D01*
X246419250Y-71547635D01*
X247095470Y-71547635D01*
X247136951Y-71551720D01*
G37*
G36*
X247136951Y-65626720D02*
G01*
X247170929Y-65637028D01*
X247202250Y-65653769D01*
X247229699Y-65676296D01*
X247252226Y-65703745D01*
X247268967Y-65735066D01*
X247279275Y-65769044D01*
X247283360Y-65810525D01*
X247283360Y-66411745D01*
X247279275Y-66453226D01*
X247268967Y-66487204D01*
X247252226Y-66518525D01*
X247229699Y-66545974D01*
X247202250Y-66568501D01*
X247170929Y-66585242D01*
X247136951Y-66595550D01*
X247095470Y-66599635D01*
X246419250Y-66599635D01*
X246377769Y-66595550D01*
X246343791Y-66585242D01*
X246312470Y-66568501D01*
X246285021Y-66545974D01*
X246262494Y-66518525D01*
X246245753Y-66487204D01*
X246235445Y-66453226D01*
X246231360Y-66411745D01*
X246231360Y-65810525D01*
X246235445Y-65769044D01*
X246245753Y-65735066D01*
X246262494Y-65703745D01*
X246285021Y-65676296D01*
X246312470Y-65653769D01*
X246343791Y-65637028D01*
X246377769Y-65626720D01*
X246419250Y-65622635D01*
X247095470Y-65622635D01*
X247136951Y-65626720D01*
G37*
G36*
X181879591Y-64303085D02*
G01*
X181913569Y-64313393D01*
X181944890Y-64330134D01*
X181972339Y-64352661D01*
X181994866Y-64380110D01*
X182011607Y-64411431D01*
X182021915Y-64445409D01*
X182026000Y-64486890D01*
X182026000Y-65088110D01*
X182021915Y-65129591D01*
X182011607Y-65163569D01*
X181994866Y-65194890D01*
X181972339Y-65222339D01*
X181944890Y-65244866D01*
X181913569Y-65261607D01*
X181879591Y-65271915D01*
X181838110Y-65276000D01*
X181161890Y-65276000D01*
X181120409Y-65271915D01*
X181086431Y-65261607D01*
X181055110Y-65244866D01*
X181027661Y-65222339D01*
X181005134Y-65194890D01*
X180988393Y-65163569D01*
X180978085Y-65129591D01*
X180974000Y-65088110D01*
X180974000Y-64486890D01*
X180978085Y-64445409D01*
X180988393Y-64411431D01*
X181005134Y-64380110D01*
X181027661Y-64352661D01*
X181055110Y-64330134D01*
X181086431Y-64313393D01*
X181120409Y-64303085D01*
X181161890Y-64299000D01*
X181838110Y-64299000D01*
X181879591Y-64303085D01*
G37*
G36*
X184879591Y-64303085D02*
G01*
X184913569Y-64313393D01*
X184944890Y-64330134D01*
X184972339Y-64352661D01*
X184994866Y-64380110D01*
X185011607Y-64411431D01*
X185021915Y-64445409D01*
X185026000Y-64486890D01*
X185026000Y-65088110D01*
X185021915Y-65129591D01*
X185011607Y-65163569D01*
X184994866Y-65194890D01*
X184972339Y-65222339D01*
X184944890Y-65244866D01*
X184913569Y-65261607D01*
X184879591Y-65271915D01*
X184838110Y-65276000D01*
X184161890Y-65276000D01*
X184120409Y-65271915D01*
X184086431Y-65261607D01*
X184055110Y-65244866D01*
X184027661Y-65222339D01*
X184005134Y-65194890D01*
X183988393Y-65163569D01*
X183978085Y-65129591D01*
X183974000Y-65088110D01*
X183974000Y-64486890D01*
X183978085Y-64445409D01*
X183988393Y-64411431D01*
X184005134Y-64380110D01*
X184027661Y-64352661D01*
X184055110Y-64330134D01*
X184086431Y-64313393D01*
X184120409Y-64303085D01*
X184161890Y-64299000D01*
X184838110Y-64299000D01*
X184879591Y-64303085D01*
G37*
G36*
X247136951Y-64051720D02*
G01*
X247170929Y-64062028D01*
X247202250Y-64078769D01*
X247229699Y-64101296D01*
X247252226Y-64128745D01*
X247268967Y-64160066D01*
X247279275Y-64194044D01*
X247283360Y-64235525D01*
X247283360Y-64836745D01*
X247279275Y-64878226D01*
X247268967Y-64912204D01*
X247252226Y-64943525D01*
X247229699Y-64970974D01*
X247202250Y-64993501D01*
X247170929Y-65010242D01*
X247136951Y-65020550D01*
X247095470Y-65024635D01*
X246419250Y-65024635D01*
X246377769Y-65020550D01*
X246343791Y-65010242D01*
X246312470Y-64993501D01*
X246285021Y-64970974D01*
X246262494Y-64943525D01*
X246245753Y-64912204D01*
X246235445Y-64878226D01*
X246231360Y-64836745D01*
X246231360Y-64235525D01*
X246235445Y-64194044D01*
X246245753Y-64160066D01*
X246262494Y-64128745D01*
X246285021Y-64101296D01*
X246312470Y-64078769D01*
X246343791Y-64062028D01*
X246377769Y-64051720D01*
X246419250Y-64047635D01*
X247095470Y-64047635D01*
X247136951Y-64051720D01*
G37*
G36*
X184879591Y-62728085D02*
G01*
X184913569Y-62738393D01*
X184944890Y-62755134D01*
X184972339Y-62777661D01*
X184994866Y-62805110D01*
X185011607Y-62836431D01*
X185021915Y-62870409D01*
X185026000Y-62911890D01*
X185026000Y-63513110D01*
X185021915Y-63554591D01*
X185011607Y-63588569D01*
X184994866Y-63619890D01*
X184972339Y-63647339D01*
X184944890Y-63669866D01*
X184913569Y-63686607D01*
X184879591Y-63696915D01*
X184838110Y-63701000D01*
X184161890Y-63701000D01*
X184120409Y-63696915D01*
X184086431Y-63686607D01*
X184055110Y-63669866D01*
X184027661Y-63647339D01*
X184005134Y-63619890D01*
X183988393Y-63588569D01*
X183978085Y-63554591D01*
X183974000Y-63513110D01*
X183974000Y-62911890D01*
X183978085Y-62870409D01*
X183988393Y-62836431D01*
X184005134Y-62805110D01*
X184027661Y-62777661D01*
X184055110Y-62755134D01*
X184086431Y-62738393D01*
X184120409Y-62728085D01*
X184161890Y-62724000D01*
X184838110Y-62724000D01*
X184879591Y-62728085D01*
G37*
G36*
X181879591Y-62728085D02*
G01*
X181913569Y-62738393D01*
X181944890Y-62755134D01*
X181972339Y-62777661D01*
X181994866Y-62805110D01*
X182011607Y-62836431D01*
X182021915Y-62870409D01*
X182026000Y-62911890D01*
X182026000Y-63513110D01*
X182021915Y-63554591D01*
X182011607Y-63588569D01*
X181994866Y-63619890D01*
X181972339Y-63647339D01*
X181944890Y-63669866D01*
X181913569Y-63686607D01*
X181879591Y-63696915D01*
X181838110Y-63701000D01*
X181161890Y-63701000D01*
X181120409Y-63696915D01*
X181086431Y-63686607D01*
X181055110Y-63669866D01*
X181027661Y-63647339D01*
X181005134Y-63619890D01*
X180988393Y-63588569D01*
X180978085Y-63554591D01*
X180974000Y-63513110D01*
X180974000Y-62911890D01*
X180978085Y-62870409D01*
X180988393Y-62836431D01*
X181005134Y-62805110D01*
X181027661Y-62777661D01*
X181055110Y-62755134D01*
X181086431Y-62738393D01*
X181120409Y-62728085D01*
X181161890Y-62724000D01*
X181838110Y-62724000D01*
X181879591Y-62728085D01*
G37*
G36*
X246918081Y-62293809D02*
G01*
X247018355Y-62335344D01*
X247018356Y-62335345D01*
X247108602Y-62395645D01*
X247185350Y-62472393D01*
X247185351Y-62472395D01*
X247245651Y-62562640D01*
X247287186Y-62662914D01*
X247308360Y-62769365D01*
X247308360Y-62877905D01*
X247287186Y-62984356D01*
X247245651Y-63084630D01*
X247245650Y-63084631D01*
X247185350Y-63174877D01*
X247108602Y-63251625D01*
X247063172Y-63281980D01*
X247018355Y-63311926D01*
X246918081Y-63353461D01*
X246811630Y-63374635D01*
X246703090Y-63374635D01*
X246596639Y-63353461D01*
X246496365Y-63311926D01*
X246451548Y-63281980D01*
X246406118Y-63251625D01*
X246329370Y-63174877D01*
X246269070Y-63084631D01*
X246269069Y-63084630D01*
X246227534Y-62984356D01*
X246206360Y-62877905D01*
X246206360Y-62769365D01*
X246227534Y-62662914D01*
X246269069Y-62562640D01*
X246329369Y-62472395D01*
X246329370Y-62472393D01*
X246406118Y-62395645D01*
X246496364Y-62335345D01*
X246496365Y-62335344D01*
X246596639Y-62293809D01*
X246703090Y-62272635D01*
X246811630Y-62272635D01*
X246918081Y-62293809D01*
G37*
G36*
X184129591Y-59478085D02*
G01*
X184163569Y-59488393D01*
X184194890Y-59505134D01*
X184222339Y-59527661D01*
X184244866Y-59555110D01*
X184261607Y-59586431D01*
X184271915Y-59620409D01*
X184276000Y-59661890D01*
X184276000Y-60338110D01*
X184271915Y-60379591D01*
X184261607Y-60413569D01*
X184244866Y-60444890D01*
X184222339Y-60472339D01*
X184194890Y-60494866D01*
X184163569Y-60511607D01*
X184129591Y-60521915D01*
X184088110Y-60526000D01*
X183486890Y-60526000D01*
X183445409Y-60521915D01*
X183411431Y-60511607D01*
X183380110Y-60494866D01*
X183352661Y-60472339D01*
X183330134Y-60444890D01*
X183313393Y-60413569D01*
X183303085Y-60379591D01*
X183299000Y-60338110D01*
X183299000Y-59661890D01*
X183303085Y-59620409D01*
X183313393Y-59586431D01*
X183330134Y-59555110D01*
X183352661Y-59527661D01*
X183380110Y-59505134D01*
X183411431Y-59488393D01*
X183445409Y-59478085D01*
X183486890Y-59474000D01*
X184088110Y-59474000D01*
X184129591Y-59478085D01*
G37*
G36*
X182554591Y-59478085D02*
G01*
X182588569Y-59488393D01*
X182619890Y-59505134D01*
X182647339Y-59527661D01*
X182669866Y-59555110D01*
X182686607Y-59586431D01*
X182696915Y-59620409D01*
X182701000Y-59661890D01*
X182701000Y-60338110D01*
X182696915Y-60379591D01*
X182686607Y-60413569D01*
X182669866Y-60444890D01*
X182647339Y-60472339D01*
X182619890Y-60494866D01*
X182588569Y-60511607D01*
X182554591Y-60521915D01*
X182513110Y-60526000D01*
X181911890Y-60526000D01*
X181870409Y-60521915D01*
X181836431Y-60511607D01*
X181805110Y-60494866D01*
X181777661Y-60472339D01*
X181755134Y-60444890D01*
X181738393Y-60413569D01*
X181728085Y-60379591D01*
X181724000Y-60338110D01*
X181724000Y-59661890D01*
X181728085Y-59620409D01*
X181738393Y-59586431D01*
X181755134Y-59555110D01*
X181777661Y-59527661D01*
X181805110Y-59505134D01*
X181836431Y-59488393D01*
X181870409Y-59478085D01*
X181911890Y-59474000D01*
X182513110Y-59474000D01*
X182554591Y-59478085D01*
G37*
G36*
X251141245Y-56039911D02*
G01*
X251211183Y-56053823D01*
X251265759Y-56076429D01*
X251342942Y-56108399D01*
X251461522Y-56187632D01*
X251562368Y-56288478D01*
X251641601Y-56407058D01*
X251696177Y-56538818D01*
X251724000Y-56678691D01*
X251724000Y-56821309D01*
X251696177Y-56961182D01*
X251641601Y-57092942D01*
X251562368Y-57211522D01*
X251461522Y-57312368D01*
X251342942Y-57391601D01*
X251265759Y-57423571D01*
X251211183Y-57446177D01*
X251141245Y-57460089D01*
X251071309Y-57474000D01*
X250928691Y-57474000D01*
X250858755Y-57460089D01*
X250788817Y-57446177D01*
X250734241Y-57423571D01*
X250657058Y-57391601D01*
X250538478Y-57312368D01*
X250437632Y-57211522D01*
X250358399Y-57092942D01*
X250303823Y-56961182D01*
X250276000Y-56821309D01*
X250276000Y-56678691D01*
X250303823Y-56538818D01*
X250358399Y-56407058D01*
X250437632Y-56288478D01*
X250538478Y-56187632D01*
X250657058Y-56108399D01*
X250734241Y-56076429D01*
X250788817Y-56053823D01*
X250858755Y-56039911D01*
X250928691Y-56026000D01*
X251071309Y-56026000D01*
X251141245Y-56039911D01*
G37*
G36*
X183141245Y-56039911D02*
G01*
X183211183Y-56053823D01*
X183265759Y-56076429D01*
X183342942Y-56108399D01*
X183461522Y-56187632D01*
X183562368Y-56288478D01*
X183641601Y-56407058D01*
X183696177Y-56538818D01*
X183724000Y-56678691D01*
X183724000Y-56821309D01*
X183696177Y-56961182D01*
X183641601Y-57092942D01*
X183562368Y-57211522D01*
X183461522Y-57312368D01*
X183342942Y-57391601D01*
X183265759Y-57423571D01*
X183211183Y-57446177D01*
X183141245Y-57460089D01*
X183071309Y-57474000D01*
X182928691Y-57474000D01*
X182858755Y-57460089D01*
X182788817Y-57446177D01*
X182734241Y-57423571D01*
X182657058Y-57391601D01*
X182538478Y-57312368D01*
X182437632Y-57211522D01*
X182358399Y-57092942D01*
X182303823Y-56961182D01*
X182276000Y-56821309D01*
X182276000Y-56678691D01*
X182303823Y-56538818D01*
X182358399Y-56407058D01*
X182437632Y-56288478D01*
X182538478Y-56187632D01*
X182657058Y-56108399D01*
X182734241Y-56076429D01*
X182788817Y-56053823D01*
X182858755Y-56039911D01*
X182928691Y-56026000D01*
X183071309Y-56026000D01*
X183141245Y-56039911D01*
G37*
G36*
X251375256Y-49391298D02*
G01*
X251481579Y-49412447D01*
X251782042Y-49536903D01*
X252052451Y-49717585D01*
X252282415Y-49947549D01*
X252463097Y-50217958D01*
X252587553Y-50518421D01*
X252651000Y-50837391D01*
X252651000Y-51162609D01*
X252587553Y-51481579D01*
X252463097Y-51782042D01*
X252282415Y-52052451D01*
X252052451Y-52282415D01*
X251782042Y-52463097D01*
X251481579Y-52587553D01*
X251375256Y-52608702D01*
X251162611Y-52651000D01*
X250837389Y-52651000D01*
X250624744Y-52608702D01*
X250518421Y-52587553D01*
X250217958Y-52463097D01*
X249947549Y-52282415D01*
X249717585Y-52052451D01*
X249536903Y-51782042D01*
X249412447Y-51481579D01*
X249349000Y-51162609D01*
X249349000Y-50837391D01*
X249412447Y-50518421D01*
X249536903Y-50217958D01*
X249717585Y-49947549D01*
X249947549Y-49717585D01*
X250217958Y-49536903D01*
X250518421Y-49412447D01*
X250624744Y-49391298D01*
X250837389Y-49349000D01*
X251162611Y-49349000D01*
X251375256Y-49391298D01*
G37*
G36*
X183375256Y-49391298D02*
G01*
X183481579Y-49412447D01*
X183782042Y-49536903D01*
X184052451Y-49717585D01*
X184282415Y-49947549D01*
X184463097Y-50217958D01*
X184587553Y-50518421D01*
X184651000Y-50837391D01*
X184651000Y-51162609D01*
X184587553Y-51481579D01*
X184463097Y-51782042D01*
X184282415Y-52052451D01*
X184052451Y-52282415D01*
X183782042Y-52463097D01*
X183481579Y-52587553D01*
X183375256Y-52608702D01*
X183162611Y-52651000D01*
X182837389Y-52651000D01*
X182624744Y-52608702D01*
X182518421Y-52587553D01*
X182217958Y-52463097D01*
X181947549Y-52282415D01*
X181717585Y-52052451D01*
X181536903Y-51782042D01*
X181412447Y-51481579D01*
X181349000Y-51162609D01*
X181349000Y-50837391D01*
X181412447Y-50518421D01*
X181536903Y-50217958D01*
X181717585Y-49947549D01*
X181947549Y-49717585D01*
X182217958Y-49536903D01*
X182518421Y-49412447D01*
X182624744Y-49391298D01*
X182837389Y-49349000D01*
X183162611Y-49349000D01*
X183375256Y-49391298D01*
G37*
M02*
