G04 #@! TF.GenerationSoftware,KiCad,Pcbnew,(5.1.6)-1*
G04 #@! TF.CreationDate,2022-08-15T01:44:06-07:00*
G04 #@! TF.ProjectId,MFRC522 PCB ESP32,4d465243-3532-4322-9050-434220455350,rev?*
G04 #@! TF.SameCoordinates,Original*
G04 #@! TF.FileFunction,Legend,Bot*
G04 #@! TF.FilePolarity,Positive*
%FSLAX46Y46*%
G04 Gerber Fmt 4.6, Leading zero omitted, Abs format (unit mm)*
G04 Created by KiCad (PCBNEW (5.1.6)-1) date 2022-08-15 01:44:06*
%MOMM*%
%LPD*%
G01*
G04 APERTURE LIST*
%ADD10C,0.152000*%
%ADD11C,0.150000*%
%ADD12O,2.002000X2.002000*%
%ADD13R,2.002000X2.002000*%
%ADD14R,1.802000X1.802000*%
%ADD15C,1.448000*%
%ADD16C,3.302000*%
G04 APERTURE END LIST*
D10*
X234564047Y-92574523D02*
X234564047Y-91304523D01*
X234261666Y-91304523D01*
X234080238Y-91365000D01*
X233959285Y-91485952D01*
X233898809Y-91606904D01*
X233838333Y-91848809D01*
X233838333Y-92030238D01*
X233898809Y-92272142D01*
X233959285Y-92393095D01*
X234080238Y-92514047D01*
X234261666Y-92574523D01*
X234564047Y-92574523D01*
X232810238Y-92514047D02*
X232931190Y-92574523D01*
X233173095Y-92574523D01*
X233294047Y-92514047D01*
X233354523Y-92393095D01*
X233354523Y-91909285D01*
X233294047Y-91788333D01*
X233173095Y-91727857D01*
X232931190Y-91727857D01*
X232810238Y-91788333D01*
X232749761Y-91909285D01*
X232749761Y-92030238D01*
X233354523Y-92151190D01*
X232265952Y-92514047D02*
X232145000Y-92574523D01*
X231903095Y-92574523D01*
X231782142Y-92514047D01*
X231721666Y-92393095D01*
X231721666Y-92332619D01*
X231782142Y-92211666D01*
X231903095Y-92151190D01*
X232084523Y-92151190D01*
X232205476Y-92090714D01*
X232265952Y-91969761D01*
X232265952Y-91909285D01*
X232205476Y-91788333D01*
X232084523Y-91727857D01*
X231903095Y-91727857D01*
X231782142Y-91788333D01*
X231177380Y-92574523D02*
X231177380Y-91727857D01*
X231177380Y-91304523D02*
X231237857Y-91365000D01*
X231177380Y-91425476D01*
X231116904Y-91365000D01*
X231177380Y-91304523D01*
X231177380Y-91425476D01*
X230028333Y-91727857D02*
X230028333Y-92755952D01*
X230088809Y-92876904D01*
X230149285Y-92937380D01*
X230270238Y-92997857D01*
X230451666Y-92997857D01*
X230572619Y-92937380D01*
X230028333Y-92514047D02*
X230149285Y-92574523D01*
X230391190Y-92574523D01*
X230512142Y-92514047D01*
X230572619Y-92453571D01*
X230633095Y-92332619D01*
X230633095Y-91969761D01*
X230572619Y-91848809D01*
X230512142Y-91788333D01*
X230391190Y-91727857D01*
X230149285Y-91727857D01*
X230028333Y-91788333D01*
X229423571Y-91727857D02*
X229423571Y-92574523D01*
X229423571Y-91848809D02*
X229363095Y-91788333D01*
X229242142Y-91727857D01*
X229060714Y-91727857D01*
X228939761Y-91788333D01*
X228879285Y-91909285D01*
X228879285Y-92574523D01*
X227790714Y-92514047D02*
X227911666Y-92574523D01*
X228153571Y-92574523D01*
X228274523Y-92514047D01*
X228335000Y-92393095D01*
X228335000Y-91909285D01*
X228274523Y-91788333D01*
X228153571Y-91727857D01*
X227911666Y-91727857D01*
X227790714Y-91788333D01*
X227730238Y-91909285D01*
X227730238Y-92030238D01*
X228335000Y-92151190D01*
X226641666Y-92574523D02*
X226641666Y-91304523D01*
X226641666Y-92514047D02*
X226762619Y-92574523D01*
X227004523Y-92574523D01*
X227125476Y-92514047D01*
X227185952Y-92453571D01*
X227246428Y-92332619D01*
X227246428Y-91969761D01*
X227185952Y-91848809D01*
X227125476Y-91788333D01*
X227004523Y-91727857D01*
X226762619Y-91727857D01*
X226641666Y-91788333D01*
X225069285Y-92574523D02*
X225069285Y-91304523D01*
X225069285Y-91788333D02*
X224948333Y-91727857D01*
X224706428Y-91727857D01*
X224585476Y-91788333D01*
X224525000Y-91848809D01*
X224464523Y-91969761D01*
X224464523Y-92332619D01*
X224525000Y-92453571D01*
X224585476Y-92514047D01*
X224706428Y-92574523D01*
X224948333Y-92574523D01*
X225069285Y-92514047D01*
X224041190Y-91727857D02*
X223738809Y-92574523D01*
X223436428Y-91727857D02*
X223738809Y-92574523D01*
X223859761Y-92876904D01*
X223920238Y-92937380D01*
X224041190Y-92997857D01*
X221985000Y-92574523D02*
X221985000Y-91304523D01*
X221985000Y-91909285D02*
X221259285Y-91909285D01*
X221259285Y-92574523D02*
X221259285Y-91304523D01*
X220170714Y-92514047D02*
X220291666Y-92574523D01*
X220533571Y-92574523D01*
X220654523Y-92514047D01*
X220715000Y-92393095D01*
X220715000Y-91909285D01*
X220654523Y-91788333D01*
X220533571Y-91727857D01*
X220291666Y-91727857D01*
X220170714Y-91788333D01*
X220110238Y-91909285D01*
X220110238Y-92030238D01*
X220715000Y-92151190D01*
X219565952Y-91727857D02*
X219565952Y-92574523D01*
X219565952Y-91848809D02*
X219505476Y-91788333D01*
X219384523Y-91727857D01*
X219203095Y-91727857D01*
X219082142Y-91788333D01*
X219021666Y-91909285D01*
X219021666Y-92574523D01*
X218416904Y-92574523D02*
X218416904Y-91727857D01*
X218416904Y-91969761D02*
X218356428Y-91848809D01*
X218295952Y-91788333D01*
X218175000Y-91727857D01*
X218054047Y-91727857D01*
X217751666Y-91727857D02*
X217449285Y-92574523D01*
X217146904Y-91727857D02*
X217449285Y-92574523D01*
X217570238Y-92876904D01*
X217630714Y-92937380D01*
X217751666Y-92997857D01*
X214969761Y-92453571D02*
X215030238Y-92514047D01*
X215211666Y-92574523D01*
X215332619Y-92574523D01*
X215514047Y-92514047D01*
X215635000Y-92393095D01*
X215695476Y-92272142D01*
X215755952Y-92030238D01*
X215755952Y-91848809D01*
X215695476Y-91606904D01*
X215635000Y-91485952D01*
X215514047Y-91365000D01*
X215332619Y-91304523D01*
X215211666Y-91304523D01*
X215030238Y-91365000D01*
X214969761Y-91425476D01*
X214425476Y-92574523D02*
X214425476Y-91304523D01*
X213881190Y-92574523D02*
X213881190Y-91909285D01*
X213941666Y-91788333D01*
X214062619Y-91727857D01*
X214244047Y-91727857D01*
X214365000Y-91788333D01*
X214425476Y-91848809D01*
X212792619Y-92514047D02*
X212913571Y-92574523D01*
X213155476Y-92574523D01*
X213276428Y-92514047D01*
X213336904Y-92393095D01*
X213336904Y-91909285D01*
X213276428Y-91788333D01*
X213155476Y-91727857D01*
X212913571Y-91727857D01*
X212792619Y-91788333D01*
X212732142Y-91909285D01*
X212732142Y-92030238D01*
X213336904Y-92151190D01*
X212187857Y-91727857D02*
X212187857Y-92574523D01*
X212187857Y-91848809D02*
X212127380Y-91788333D01*
X212006428Y-91727857D01*
X211825000Y-91727857D01*
X211704047Y-91788333D01*
X211643571Y-91909285D01*
X211643571Y-92574523D01*
X210252619Y-91727857D02*
X209768809Y-91727857D01*
X210071190Y-92574523D02*
X210071190Y-91485952D01*
X210010714Y-91365000D01*
X209889761Y-91304523D01*
X209768809Y-91304523D01*
X209164047Y-92574523D02*
X209285000Y-92514047D01*
X209345476Y-92453571D01*
X209405952Y-92332619D01*
X209405952Y-91969761D01*
X209345476Y-91848809D01*
X209285000Y-91788333D01*
X209164047Y-91727857D01*
X208982619Y-91727857D01*
X208861666Y-91788333D01*
X208801190Y-91848809D01*
X208740714Y-91969761D01*
X208740714Y-92332619D01*
X208801190Y-92453571D01*
X208861666Y-92514047D01*
X208982619Y-92574523D01*
X209164047Y-92574523D01*
X208196428Y-92574523D02*
X208196428Y-91727857D01*
X208196428Y-91969761D02*
X208135952Y-91848809D01*
X208075476Y-91788333D01*
X207954523Y-91727857D01*
X207833571Y-91727857D01*
X206442619Y-92574523D02*
X206442619Y-91304523D01*
X205837857Y-91727857D02*
X205837857Y-92574523D01*
X205837857Y-91848809D02*
X205777380Y-91788333D01*
X205656428Y-91727857D01*
X205475000Y-91727857D01*
X205354047Y-91788333D01*
X205293571Y-91909285D01*
X205293571Y-92574523D01*
X204688809Y-91727857D02*
X204688809Y-92574523D01*
X204688809Y-91848809D02*
X204628333Y-91788333D01*
X204507380Y-91727857D01*
X204325952Y-91727857D01*
X204205000Y-91788333D01*
X204144523Y-91909285D01*
X204144523Y-92574523D01*
X203055952Y-92514047D02*
X203176904Y-92574523D01*
X203418809Y-92574523D01*
X203539761Y-92514047D01*
X203600238Y-92393095D01*
X203600238Y-91909285D01*
X203539761Y-91788333D01*
X203418809Y-91727857D01*
X203176904Y-91727857D01*
X203055952Y-91788333D01*
X202995476Y-91909285D01*
X202995476Y-92030238D01*
X203600238Y-92151190D01*
X202572142Y-92574523D02*
X201906904Y-91727857D01*
X202572142Y-91727857D02*
X201906904Y-92574523D01*
X200878809Y-91727857D02*
X200878809Y-92755952D01*
X200939285Y-92876904D01*
X200999761Y-92937380D01*
X201120714Y-92997857D01*
X201302142Y-92997857D01*
X201423095Y-92937380D01*
X200878809Y-92514047D02*
X200999761Y-92574523D01*
X201241666Y-92574523D01*
X201362619Y-92514047D01*
X201423095Y-92453571D01*
X201483571Y-92332619D01*
X201483571Y-91969761D01*
X201423095Y-91848809D01*
X201362619Y-91788333D01*
X201241666Y-91727857D01*
X200999761Y-91727857D01*
X200878809Y-91788333D01*
X200092619Y-92574523D02*
X200213571Y-92514047D01*
X200274047Y-92453571D01*
X200334523Y-92332619D01*
X200334523Y-91969761D01*
X200274047Y-91848809D01*
X200213571Y-91788333D01*
X200092619Y-91727857D01*
X199911190Y-91727857D01*
X199790238Y-91788333D01*
X199729761Y-91848809D01*
X199669285Y-91969761D01*
X199669285Y-92332619D01*
X199729761Y-92453571D01*
X199790238Y-92514047D01*
X199911190Y-92574523D01*
X200092619Y-92574523D01*
X197552619Y-92574523D02*
X198157380Y-92574523D01*
X198157380Y-91304523D01*
X196524523Y-92574523D02*
X197129285Y-92574523D01*
X197129285Y-91304523D01*
X195375476Y-92453571D02*
X195435952Y-92514047D01*
X195617380Y-92574523D01*
X195738333Y-92574523D01*
X195919761Y-92514047D01*
X196040714Y-92393095D01*
X196101190Y-92272142D01*
X196161666Y-92030238D01*
X196161666Y-91848809D01*
X196101190Y-91606904D01*
X196040714Y-91485952D01*
X195919761Y-91365000D01*
X195738333Y-91304523D01*
X195617380Y-91304523D01*
X195435952Y-91365000D01*
X195375476Y-91425476D01*
X192419047Y-91727857D02*
X192116666Y-92574523D01*
X191814285Y-91727857D01*
X191390952Y-91425476D02*
X191330476Y-91365000D01*
X191209523Y-91304523D01*
X190907142Y-91304523D01*
X190786190Y-91365000D01*
X190725714Y-91425476D01*
X190665238Y-91546428D01*
X190665238Y-91667380D01*
X190725714Y-91848809D01*
X191451428Y-92574523D01*
X190665238Y-92574523D01*
X190120952Y-92453571D02*
X190060476Y-92514047D01*
X190120952Y-92574523D01*
X190181428Y-92514047D01*
X190120952Y-92453571D01*
X190120952Y-92574523D01*
X189274285Y-91304523D02*
X189153333Y-91304523D01*
X189032380Y-91365000D01*
X188971904Y-91425476D01*
X188911428Y-91546428D01*
X188850952Y-91788333D01*
X188850952Y-92090714D01*
X188911428Y-92332619D01*
X188971904Y-92453571D01*
X189032380Y-92514047D01*
X189153333Y-92574523D01*
X189274285Y-92574523D01*
X189395238Y-92514047D01*
X189455714Y-92453571D01*
X189516190Y-92332619D01*
X189576666Y-92090714D01*
X189576666Y-91788333D01*
X189516190Y-91546428D01*
X189455714Y-91425476D01*
X189395238Y-91365000D01*
X189274285Y-91304523D01*
X188427619Y-91304523D02*
X187641428Y-91304523D01*
X188064761Y-91788333D01*
X187883333Y-91788333D01*
X187762380Y-91848809D01*
X187701904Y-91909285D01*
X187641428Y-92030238D01*
X187641428Y-92332619D01*
X187701904Y-92453571D01*
X187762380Y-92514047D01*
X187883333Y-92574523D01*
X188246190Y-92574523D01*
X188367142Y-92514047D01*
X188427619Y-92453571D01*
D11*
X225452380Y-100785714D02*
X224452380Y-100785714D01*
X225166666Y-101119047D01*
X224452380Y-101452380D01*
X225452380Y-101452380D01*
X225452380Y-101928571D02*
X224785714Y-101928571D01*
X224452380Y-101928571D02*
X224500000Y-101880952D01*
X224547619Y-101928571D01*
X224500000Y-101976190D01*
X224452380Y-101928571D01*
X224547619Y-101928571D01*
X225404761Y-102833333D02*
X225452380Y-102738095D01*
X225452380Y-102547619D01*
X225404761Y-102452380D01*
X225357142Y-102404761D01*
X225261904Y-102357142D01*
X224976190Y-102357142D01*
X224880952Y-102404761D01*
X224833333Y-102452380D01*
X224785714Y-102547619D01*
X224785714Y-102738095D01*
X224833333Y-102833333D01*
X225452380Y-103261904D02*
X224785714Y-103261904D01*
X224976190Y-103261904D02*
X224880952Y-103309523D01*
X224833333Y-103357142D01*
X224785714Y-103452380D01*
X224785714Y-103547619D01*
X225452380Y-104023809D02*
X225404761Y-103928571D01*
X225357142Y-103880952D01*
X225261904Y-103833333D01*
X224976190Y-103833333D01*
X224880952Y-103880952D01*
X224833333Y-103928571D01*
X224785714Y-104023809D01*
X224785714Y-104166666D01*
X224833333Y-104261904D01*
X224880952Y-104309523D01*
X224976190Y-104357142D01*
X225261904Y-104357142D01*
X225357142Y-104309523D01*
X225404761Y-104261904D01*
X225452380Y-104166666D01*
X225452380Y-104023809D01*
X224452380Y-104785714D02*
X225261904Y-104785714D01*
X225357142Y-104833333D01*
X225404761Y-104880952D01*
X225452380Y-104976190D01*
X225452380Y-105166666D01*
X225404761Y-105261904D01*
X225357142Y-105309523D01*
X225261904Y-105357142D01*
X224452380Y-105357142D01*
X225404761Y-105785714D02*
X225452380Y-105928571D01*
X225452380Y-106166666D01*
X225404761Y-106261904D01*
X225357142Y-106309523D01*
X225261904Y-106357142D01*
X225166666Y-106357142D01*
X225071428Y-106309523D01*
X225023809Y-106261904D01*
X224976190Y-106166666D01*
X224928571Y-105976190D01*
X224880952Y-105880952D01*
X224833333Y-105833333D01*
X224738095Y-105785714D01*
X224642857Y-105785714D01*
X224547619Y-105833333D01*
X224500000Y-105880952D01*
X224452380Y-105976190D01*
X224452380Y-106214285D01*
X224500000Y-106357142D01*
X224928571Y-107119047D02*
X224976190Y-107261904D01*
X225023809Y-107309523D01*
X225119047Y-107357142D01*
X225261904Y-107357142D01*
X225357142Y-107309523D01*
X225404761Y-107261904D01*
X225452380Y-107166666D01*
X225452380Y-106785714D01*
X224452380Y-106785714D01*
X224452380Y-107119047D01*
X224500000Y-107214285D01*
X224547619Y-107261904D01*
X224642857Y-107309523D01*
X224738095Y-107309523D01*
X224833333Y-107261904D01*
X224880952Y-107214285D01*
X224928571Y-107119047D01*
X224928571Y-106785714D01*
X225452380Y-108690476D02*
X225404761Y-108595238D01*
X225357142Y-108547619D01*
X225261904Y-108500000D01*
X224976190Y-108500000D01*
X224880952Y-108547619D01*
X224833333Y-108595238D01*
X224785714Y-108690476D01*
X224785714Y-108833333D01*
X224833333Y-108928571D01*
X224880952Y-108976190D01*
X224976190Y-109023809D01*
X225261904Y-109023809D01*
X225357142Y-108976190D01*
X225404761Y-108928571D01*
X225452380Y-108833333D01*
X225452380Y-108690476D01*
X224785714Y-109452380D02*
X225452380Y-109452380D01*
X224880952Y-109452380D02*
X224833333Y-109500000D01*
X224785714Y-109595238D01*
X224785714Y-109738095D01*
X224833333Y-109833333D01*
X224928571Y-109880952D01*
X225452380Y-109880952D01*
X224785714Y-110976190D02*
X224785714Y-111357142D01*
X224452380Y-111119047D02*
X225309523Y-111119047D01*
X225404761Y-111166666D01*
X225452380Y-111261904D01*
X225452380Y-111357142D01*
X225452380Y-111690476D02*
X224452380Y-111690476D01*
X225452380Y-112119047D02*
X224928571Y-112119047D01*
X224833333Y-112071428D01*
X224785714Y-111976190D01*
X224785714Y-111833333D01*
X224833333Y-111738095D01*
X224880952Y-111690476D01*
X225452380Y-112595238D02*
X224785714Y-112595238D01*
X224452380Y-112595238D02*
X224500000Y-112547619D01*
X224547619Y-112595238D01*
X224500000Y-112642857D01*
X224452380Y-112595238D01*
X224547619Y-112595238D01*
X225404761Y-113023809D02*
X225452380Y-113119047D01*
X225452380Y-113309523D01*
X225404761Y-113404761D01*
X225309523Y-113452380D01*
X225261904Y-113452380D01*
X225166666Y-113404761D01*
X225119047Y-113309523D01*
X225119047Y-113166666D01*
X225071428Y-113071428D01*
X224976190Y-113023809D01*
X224928571Y-113023809D01*
X224833333Y-113071428D01*
X224785714Y-113166666D01*
X224785714Y-113309523D01*
X224833333Y-113404761D01*
X225404761Y-114595238D02*
X225452380Y-114690476D01*
X225452380Y-114880952D01*
X225404761Y-114976190D01*
X225309523Y-115023809D01*
X225261904Y-115023809D01*
X225166666Y-114976190D01*
X225119047Y-114880952D01*
X225119047Y-114738095D01*
X225071428Y-114642857D01*
X224976190Y-114595238D01*
X224928571Y-114595238D01*
X224833333Y-114642857D01*
X224785714Y-114738095D01*
X224785714Y-114880952D01*
X224833333Y-114976190D01*
X225452380Y-115452380D02*
X224785714Y-115452380D01*
X224452380Y-115452380D02*
X224500000Y-115404761D01*
X224547619Y-115452380D01*
X224500000Y-115500000D01*
X224452380Y-115452380D01*
X224547619Y-115452380D01*
X225452380Y-116357142D02*
X224452380Y-116357142D01*
X225404761Y-116357142D02*
X225452380Y-116261904D01*
X225452380Y-116071428D01*
X225404761Y-115976190D01*
X225357142Y-115928571D01*
X225261904Y-115880952D01*
X224976190Y-115880952D01*
X224880952Y-115928571D01*
X224833333Y-115976190D01*
X224785714Y-116071428D01*
X224785714Y-116261904D01*
X224833333Y-116357142D01*
X225404761Y-117214285D02*
X225452380Y-117119047D01*
X225452380Y-116928571D01*
X225404761Y-116833333D01*
X225309523Y-116785714D01*
X224928571Y-116785714D01*
X224833333Y-116833333D01*
X224785714Y-116928571D01*
X224785714Y-117119047D01*
X224833333Y-117214285D01*
X224928571Y-117261904D01*
X225023809Y-117261904D01*
X225119047Y-116785714D01*
X209678571Y-102738095D02*
X209678571Y-103071428D01*
X210202380Y-103214285D02*
X210202380Y-102738095D01*
X209202380Y-102738095D01*
X209202380Y-103214285D01*
X210154761Y-103595238D02*
X210202380Y-103738095D01*
X210202380Y-103976190D01*
X210154761Y-104071428D01*
X210107142Y-104119047D01*
X210011904Y-104166666D01*
X209916666Y-104166666D01*
X209821428Y-104119047D01*
X209773809Y-104071428D01*
X209726190Y-103976190D01*
X209678571Y-103785714D01*
X209630952Y-103690476D01*
X209583333Y-103642857D01*
X209488095Y-103595238D01*
X209392857Y-103595238D01*
X209297619Y-103642857D01*
X209250000Y-103690476D01*
X209202380Y-103785714D01*
X209202380Y-104023809D01*
X209250000Y-104166666D01*
X210202380Y-104595238D02*
X209202380Y-104595238D01*
X209202380Y-104976190D01*
X209250000Y-105071428D01*
X209297619Y-105119047D01*
X209392857Y-105166666D01*
X209535714Y-105166666D01*
X209630952Y-105119047D01*
X209678571Y-105071428D01*
X209726190Y-104976190D01*
X209726190Y-104595238D01*
X209202380Y-105500000D02*
X209202380Y-106119047D01*
X209583333Y-105785714D01*
X209583333Y-105928571D01*
X209630952Y-106023809D01*
X209678571Y-106071428D01*
X209773809Y-106119047D01*
X210011904Y-106119047D01*
X210107142Y-106071428D01*
X210154761Y-106023809D01*
X210202380Y-105928571D01*
X210202380Y-105642857D01*
X210154761Y-105547619D01*
X210107142Y-105500000D01*
X209297619Y-106500000D02*
X209250000Y-106547619D01*
X209202380Y-106642857D01*
X209202380Y-106880952D01*
X209250000Y-106976190D01*
X209297619Y-107023809D01*
X209392857Y-107071428D01*
X209488095Y-107071428D01*
X209630952Y-107023809D01*
X210202380Y-106452380D01*
X210202380Y-107071428D01*
X209535714Y-108690476D02*
X210345238Y-108690476D01*
X210440476Y-108642857D01*
X210488095Y-108595238D01*
X210535714Y-108500000D01*
X210535714Y-108357142D01*
X210488095Y-108261904D01*
X210154761Y-108690476D02*
X210202380Y-108595238D01*
X210202380Y-108404761D01*
X210154761Y-108309523D01*
X210107142Y-108261904D01*
X210011904Y-108214285D01*
X209726190Y-108214285D01*
X209630952Y-108261904D01*
X209583333Y-108309523D01*
X209535714Y-108404761D01*
X209535714Y-108595238D01*
X209583333Y-108690476D01*
X210202380Y-109309523D02*
X210154761Y-109214285D01*
X210107142Y-109166666D01*
X210011904Y-109119047D01*
X209726190Y-109119047D01*
X209630952Y-109166666D01*
X209583333Y-109214285D01*
X209535714Y-109309523D01*
X209535714Y-109452380D01*
X209583333Y-109547619D01*
X209630952Y-109595238D01*
X209726190Y-109642857D01*
X210011904Y-109642857D01*
X210107142Y-109595238D01*
X210154761Y-109547619D01*
X210202380Y-109452380D01*
X210202380Y-109309523D01*
X210154761Y-110452380D02*
X210202380Y-110357142D01*
X210202380Y-110166666D01*
X210154761Y-110071428D01*
X210059523Y-110023809D01*
X209678571Y-110023809D01*
X209583333Y-110071428D01*
X209535714Y-110166666D01*
X209535714Y-110357142D01*
X209583333Y-110452380D01*
X209678571Y-110500000D01*
X209773809Y-110500000D01*
X209869047Y-110023809D01*
X210154761Y-110880952D02*
X210202380Y-110976190D01*
X210202380Y-111166666D01*
X210154761Y-111261904D01*
X210059523Y-111309523D01*
X210011904Y-111309523D01*
X209916666Y-111261904D01*
X209869047Y-111166666D01*
X209869047Y-111023809D01*
X209821428Y-110928571D01*
X209726190Y-110880952D01*
X209678571Y-110880952D01*
X209583333Y-110928571D01*
X209535714Y-111023809D01*
X209535714Y-111166666D01*
X209583333Y-111261904D01*
X210202380Y-112500000D02*
X209202380Y-112500000D01*
X210202380Y-112928571D02*
X209678571Y-112928571D01*
X209583333Y-112880952D01*
X209535714Y-112785714D01*
X209535714Y-112642857D01*
X209583333Y-112547619D01*
X209630952Y-112500000D01*
X210154761Y-113785714D02*
X210202380Y-113690476D01*
X210202380Y-113500000D01*
X210154761Y-113404761D01*
X210059523Y-113357142D01*
X209678571Y-113357142D01*
X209583333Y-113404761D01*
X209535714Y-113500000D01*
X209535714Y-113690476D01*
X209583333Y-113785714D01*
X209678571Y-113833333D01*
X209773809Y-113833333D01*
X209869047Y-113357142D01*
X210202380Y-114261904D02*
X209535714Y-114261904D01*
X209726190Y-114261904D02*
X209630952Y-114309523D01*
X209583333Y-114357142D01*
X209535714Y-114452380D01*
X209535714Y-114547619D01*
X210154761Y-115261904D02*
X210202380Y-115166666D01*
X210202380Y-114976190D01*
X210154761Y-114880952D01*
X210059523Y-114833333D01*
X209678571Y-114833333D01*
X209583333Y-114880952D01*
X209535714Y-114976190D01*
X209535714Y-115166666D01*
X209583333Y-115261904D01*
X209678571Y-115309523D01*
X209773809Y-115309523D01*
X209869047Y-114833333D01*
%LPC*%
D12*
X227560000Y-121600000D03*
X225020000Y-121600000D03*
X222480000Y-121600000D03*
X219940000Y-121600000D03*
X217400000Y-121600000D03*
X214860000Y-121600000D03*
X212320000Y-121600000D03*
X209780000Y-121600000D03*
X207240000Y-121600000D03*
X204700000Y-121600000D03*
X202160000Y-121600000D03*
X199620000Y-121600000D03*
X197080000Y-121600000D03*
X194540000Y-121600000D03*
D13*
X192000000Y-121600000D03*
D12*
X227560000Y-96200000D03*
X225020000Y-96200000D03*
X222480000Y-96200000D03*
X219940000Y-96200000D03*
X217400000Y-96200000D03*
X214860000Y-96200000D03*
X212320000Y-96200000D03*
X209780000Y-96200000D03*
X207240000Y-96200000D03*
X204700000Y-96200000D03*
X202160000Y-96200000D03*
X199620000Y-96200000D03*
X197080000Y-96200000D03*
X194540000Y-96200000D03*
D14*
X192000000Y-96200000D03*
D15*
X251000000Y-56750000D03*
X183000000Y-56750000D03*
X234500000Y-119250000D03*
D16*
X183000000Y-119000000D03*
X251000000Y-119000000D03*
X251000000Y-51000000D03*
X183000000Y-51000000D03*
M02*
